M48
; DRILL file {KiCad 9.0.2} date 2025-07-17T17:15:00-0700
; FORMAT={-:-/ absolute / metric / decimal}
; #@! TF.CreationDate,2025-07-17T17:15:00-07:00
; #@! TF.GenerationSoftware,Kicad,Pcbnew,9.0.2
; #@! TF.FileFunction,Plated,1,4,PTH
FMAT,2
METRIC
; #@! TA.AperFunction,Plated,PTH,ViaDrill
T1C0.300
; #@! TA.AperFunction,Plated,PTH,ComponentDrill
T2C0.500
; #@! TA.AperFunction,Plated,PTH,ComponentDrill
T3C0.800
; #@! TA.AperFunction,Plated,PTH,ComponentDrill
T4C0.900
; #@! TA.AperFunction,Plated,PTH,ComponentDrill
T5C1.190
%
G90
G05
T1
X106.2Y-73.45
X112.2Y-97.5
X121.62Y-60.75
X123.035Y-98.865
X124.1Y-59.35
X125.3Y-75.5
X130.65Y-64.65
X132.05Y-99.0
X136.9Y-63.1
X139.4Y-61.75
X144.55Y-58.6
X146.7Y-99.9
X148.35Y-64.8
X149.15Y-73.0
X150.153Y-72.597
X150.85Y-63.05
X151.15Y-72.1
X151.8Y-97.05
X152.1Y-63.8
X152.45Y-97.95
X152.6Y-99.0
X153.5Y-58.7
X154.85Y-64.55
X155.95Y-70.8
X157.35Y-62.55
X161.4Y-99.55
X163.5Y-57.0
X164.85Y-85.65
X166.05Y-61.75
X170.45Y-85.55
X172.075Y-73.775
X173.125Y-73.225
X173.95Y-72.65
X174.7Y-72.0
X175.5Y-59.2
X176.3Y-58.05
X177.0Y-60.6
X177.15Y-85.8
X194.55Y-85.85
T2
X106.25Y-67.85
X106.25Y-69.1
X106.25Y-70.35
T3
X107.795Y-95.175
X107.795Y-102.795
X110.335Y-95.175
X110.335Y-102.795
X112.875Y-95.175
X112.875Y-102.795
X115.415Y-95.175
X115.415Y-102.795
X117.955Y-95.175
X117.955Y-102.795
X120.495Y-95.175
X120.495Y-102.795
X123.035Y-95.175
X123.035Y-102.795
X131.475Y-95.18
X131.475Y-102.8
X134.015Y-95.18
X134.015Y-102.8
X136.555Y-95.18
X136.555Y-102.8
X139.095Y-95.18
X139.095Y-102.8
X141.635Y-95.18
X141.635Y-102.8
X144.175Y-95.18
X144.175Y-102.8
X146.715Y-95.18
X146.715Y-102.8
X155.0Y-95.56
X155.0Y-103.18
X157.54Y-95.56
X157.54Y-103.18
X160.08Y-95.56
X160.08Y-103.18
X162.62Y-95.56
X162.62Y-103.18
X165.16Y-95.56
X165.16Y-103.18
X167.7Y-95.56
X167.7Y-103.18
X170.24Y-95.56
X170.24Y-103.18
X179.92Y-95.38
X179.92Y-103.0
X182.46Y-95.38
X182.46Y-103.0
X185.0Y-95.38
X185.0Y-103.0
X187.54Y-95.38
X187.54Y-103.0
X190.08Y-95.38
X190.08Y-103.0
X192.62Y-95.38
X192.62Y-103.0
X195.16Y-95.38
X195.16Y-103.0
T4
X114.0Y-53.76
X114.0Y-69.0
X116.54Y-53.76
X116.54Y-69.0
X119.08Y-53.76
X119.08Y-69.0
X121.578Y-69.047
X121.62Y-53.76
X124.16Y-53.76
X124.21Y-68.956
X126.7Y-53.76
X126.7Y-69.0
X129.24Y-53.76
X129.24Y-69.0
X131.78Y-53.76
X131.78Y-69.0
X134.32Y-53.76
X134.32Y-69.0
X136.86Y-53.76
X136.86Y-69.0
X139.4Y-53.76
X139.4Y-69.0
X141.94Y-53.76
X141.94Y-69.0
X144.48Y-53.76
X144.48Y-69.0
X147.02Y-53.76
X147.02Y-69.0
X149.56Y-53.76
X149.56Y-69.0
X152.1Y-53.76
X152.35Y-69.047
X154.64Y-53.76
X154.64Y-69.0
X157.18Y-53.76
X157.18Y-69.0
X159.72Y-53.76
X159.72Y-69.0
X162.26Y-53.76
X162.26Y-69.0
X164.8Y-53.76
X164.8Y-69.0
X167.34Y-53.76
X167.34Y-69.0
X169.88Y-53.76
X169.88Y-69.0
X172.42Y-53.76
X172.42Y-69.0
T5
X108.195Y-117.08
X108.275Y-80.98
X110.735Y-117.08
X110.815Y-80.98
X119.085Y-117.16
X119.75Y-80.86
X121.625Y-117.16
X122.29Y-80.86
X132.455Y-80.7
X132.475Y-116.68
X134.995Y-80.7
X135.015Y-116.68
X142.575Y-116.78
X142.942Y-80.78
X145.115Y-116.78
X145.482Y-80.78
X155.438Y-116.76
X155.62Y-81.18
X157.977Y-116.76
X158.16Y-81.18
X167.262Y-116.88
X167.62Y-81.48
X169.802Y-116.88
X170.16Y-81.48
X180.338Y-116.86
X180.537Y-81.68
X180.9Y-53.35
X180.9Y-55.89
X180.9Y-58.43
X180.9Y-60.97
X180.9Y-63.51
X180.9Y-66.05
X180.9Y-68.59
X180.9Y-71.13
X182.877Y-116.86
X183.077Y-81.68
X191.712Y-81.76
X192.52Y-53.29
X192.52Y-55.83
X192.52Y-58.37
X192.52Y-60.91
X192.52Y-63.45
X192.52Y-65.99
X192.52Y-68.53
X192.52Y-71.07
X192.737Y-116.85
X194.252Y-81.76
X195.278Y-116.85
M30
