%TF.GenerationSoftware,KiCad,Pcbnew,9.0.2*%
%TF.CreationDate,2025-07-30T12:21:52-07:00*%
%TF.ProjectId,fsrPrototype3,66737250-726f-4746-9f74-797065332e6b,rev?*%
%TF.SameCoordinates,Original*%
%TF.FileFunction,Drillmap*%
%TF.FilePolarity,Positive*%
%FSLAX45Y45*%
G04 Gerber Fmt 4.5, Leading zero omitted, Abs format (unit mm)*
G04 Created by KiCad (PCBNEW 9.0.2) date 2025-07-30 12:21:52*
%MOMM*%
%LPD*%
G01*
G04 APERTURE LIST*
%ADD10C,0.050000*%
%ADD11C,0.200000*%
%ADD12C,0.100000*%
%ADD13C,0.119000*%
G04 APERTURE END LIST*
D10*
X14225000Y-4250000D02*
G75*
G02*
X13901270Y-4250000I-161865J0D01*
G01*
X13901270Y-4250000D02*
G75*
G02*
X14225000Y-4250000I161865J0D01*
G01*
X7900000Y-8900000D02*
X14500000Y-8900000D01*
X7900000Y-4000000D02*
X7900000Y-8900000D01*
X8461865Y-8638135D02*
G75*
G02*
X8138135Y-8638135I-161865J0D01*
G01*
X8138135Y-8638135D02*
G75*
G02*
X8461865Y-8638135I161865J0D01*
G01*
X14500000Y-4000000D02*
X7900000Y-4000000D01*
X14225000Y-8650000D02*
G75*
G02*
X13901270Y-8650000I-161865J0D01*
G01*
X13901270Y-8650000D02*
G75*
G02*
X14225000Y-8650000I161865J0D01*
G01*
X8461865Y-4238135D02*
G75*
G02*
X8138135Y-4238135I-161865J0D01*
G01*
X8138135Y-4238135D02*
G75*
G02*
X8461865Y-4238135I161865J0D01*
G01*
X14500000Y-8900000D02*
X14500000Y-4000000D01*
D11*
D12*
X7965000Y-5015000D02*
X7995000Y-5045000D01*
X7995000Y-5015000D02*
X7965000Y-5045000D01*
X8365000Y-7315000D02*
X8395000Y-7345000D01*
X8395000Y-7315000D02*
X8365000Y-7345000D01*
X8944383Y-6416394D02*
X8974383Y-6446394D01*
X8974383Y-6416394D02*
X8944383Y-6446394D01*
X10005000Y-5705000D02*
X10035000Y-5735000D01*
X10035000Y-5705000D02*
X10005000Y-5735000D01*
X10143000Y-5285000D02*
X10173000Y-5315000D01*
X10173000Y-5285000D02*
X10143000Y-5315000D01*
X11075000Y-5585000D02*
X11105000Y-5615000D01*
X11105000Y-5585000D02*
X11075000Y-5615000D01*
X11095000Y-6295000D02*
X11125000Y-6325000D01*
X11125000Y-6295000D02*
X11095000Y-6325000D01*
X11215000Y-5785000D02*
X11245000Y-5815000D01*
X11245000Y-5785000D02*
X11215000Y-5815000D01*
X11495000Y-4745000D02*
X11525000Y-4775000D01*
X11525000Y-4745000D02*
X11495000Y-4775000D01*
X11495000Y-5135000D02*
X11525000Y-5165000D01*
X11525000Y-5135000D02*
X11495000Y-5165000D01*
X11555000Y-5725000D02*
X11585000Y-5755000D01*
X11585000Y-5725000D02*
X11555000Y-5755000D01*
X11555000Y-6155000D02*
X11585000Y-6185000D01*
X11585000Y-6155000D02*
X11555000Y-6185000D01*
X12335000Y-5285000D02*
X12365000Y-5315000D01*
X12365000Y-5285000D02*
X12335000Y-5315000D01*
X12995000Y-5425000D02*
X13025000Y-5455000D01*
X13025000Y-5425000D02*
X12995000Y-5455000D01*
X13095000Y-7315000D02*
X13125000Y-7345000D01*
X13125000Y-7315000D02*
X13095000Y-7345000D01*
X13185000Y-5805000D02*
X13215000Y-5835000D01*
X13215000Y-5805000D02*
X13185000Y-5835000D01*
X13365000Y-4745000D02*
X13395000Y-4775000D01*
X13395000Y-4745000D02*
X13365000Y-4775000D01*
X8375000Y-5850000D02*
G75*
G02*
X8325000Y-5850000I-25000J0D01*
G01*
X8325000Y-5850000D02*
G75*
G02*
X8375000Y-5850000I25000J0D01*
G01*
X8375000Y-5975000D02*
G75*
G02*
X8325000Y-5975000I-25000J0D01*
G01*
X8325000Y-5975000D02*
G75*
G02*
X8375000Y-5975000I25000J0D01*
G01*
X8375000Y-6100000D02*
G75*
G02*
X8325000Y-6100000I-25000J0D01*
G01*
X8325000Y-6100000D02*
G75*
G02*
X8375000Y-6100000I25000J0D01*
G01*
X8750000Y-5398000D02*
X8750000Y-5478000D01*
X8710000Y-5438000D02*
X8790000Y-5438000D01*
X8750000Y-6160000D02*
X8750000Y-6240000D01*
X8710000Y-6200000D02*
X8790000Y-6200000D01*
X9004000Y-5398000D02*
X9004000Y-5478000D01*
X8964000Y-5438000D02*
X9044000Y-5438000D01*
X9004000Y-6160000D02*
X9004000Y-6240000D01*
X8964000Y-6200000D02*
X9044000Y-6200000D01*
X9258000Y-5398000D02*
X9258000Y-5478000D01*
X9218000Y-5438000D02*
X9298000Y-5438000D01*
X9258000Y-6160000D02*
X9258000Y-6240000D01*
X9218000Y-6200000D02*
X9298000Y-6200000D01*
X9512000Y-5398000D02*
X9512000Y-5478000D01*
X9472000Y-5438000D02*
X9552000Y-5438000D01*
X9512000Y-6160000D02*
X9512000Y-6240000D01*
X9472000Y-6200000D02*
X9552000Y-6200000D01*
X9766000Y-5398000D02*
X9766000Y-5478000D01*
X9726000Y-5438000D02*
X9806000Y-5438000D01*
X9766000Y-6160000D02*
X9766000Y-6240000D01*
X9726000Y-6200000D02*
X9806000Y-6200000D01*
X10020000Y-5398000D02*
X10020000Y-5478000D01*
X9980000Y-5438000D02*
X10060000Y-5438000D01*
X10020000Y-6160000D02*
X10020000Y-6240000D01*
X9980000Y-6200000D02*
X10060000Y-6200000D01*
X10274000Y-5398000D02*
X10274000Y-5478000D01*
X10234000Y-5438000D02*
X10314000Y-5438000D01*
X10274000Y-6160000D02*
X10274000Y-6240000D01*
X10234000Y-6200000D02*
X10314000Y-6200000D01*
X8293820Y-6631820D02*
X8293820Y-6568180D01*
X8230180Y-6568180D01*
X8230180Y-6631820D01*
X8293820Y-6631820D01*
X8293820Y-8155820D02*
X8293820Y-8092180D01*
X8230180Y-8092180D01*
X8230180Y-8155820D01*
X8293820Y-8155820D01*
X8547820Y-6631820D02*
X8547820Y-6568180D01*
X8484180Y-6568180D01*
X8484180Y-6631820D01*
X8547820Y-6631820D01*
X8547820Y-8155820D02*
X8547820Y-8092180D01*
X8484180Y-8092180D01*
X8484180Y-8155820D01*
X8547820Y-8155820D01*
X8801820Y-6631820D02*
X8801820Y-6568180D01*
X8738180Y-6568180D01*
X8738180Y-6631820D01*
X8801820Y-6631820D01*
X8801820Y-8155820D02*
X8801820Y-8092180D01*
X8738180Y-8092180D01*
X8738180Y-8155820D01*
X8801820Y-8155820D01*
X9051612Y-8160524D02*
X9051612Y-8096884D01*
X8987972Y-8096884D01*
X8987972Y-8160524D01*
X9051612Y-8160524D01*
X9055820Y-6631820D02*
X9055820Y-6568180D01*
X8992180Y-6568180D01*
X8992180Y-6631820D01*
X9055820Y-6631820D01*
X9309820Y-6631820D02*
X9309820Y-6568180D01*
X9246180Y-6568180D01*
X9246180Y-6631820D01*
X9309820Y-6631820D01*
X9314855Y-8151447D02*
X9314855Y-8087806D01*
X9251215Y-8087806D01*
X9251215Y-8151447D01*
X9314855Y-8151447D01*
X9563820Y-6631820D02*
X9563820Y-6568180D01*
X9500180Y-6568180D01*
X9500180Y-6631820D01*
X9563820Y-6631820D01*
X9563820Y-8155820D02*
X9563820Y-8092180D01*
X9500180Y-8092180D01*
X9500180Y-8155820D01*
X9563820Y-8155820D01*
X9817820Y-6631820D02*
X9817820Y-6568180D01*
X9754180Y-6568180D01*
X9754180Y-6631820D01*
X9817820Y-6631820D01*
X9817820Y-8155820D02*
X9817820Y-8092180D01*
X9754180Y-8092180D01*
X9754180Y-8155820D01*
X9817820Y-8155820D01*
X10071820Y-6631820D02*
X10071820Y-6568180D01*
X10008180Y-6568180D01*
X10008180Y-6631820D01*
X10071820Y-6631820D01*
X10071820Y-8155820D02*
X10071820Y-8092180D01*
X10008180Y-8092180D01*
X10008180Y-8155820D01*
X10071820Y-8155820D01*
X10325820Y-6631820D02*
X10325820Y-6568180D01*
X10262180Y-6568180D01*
X10262180Y-6631820D01*
X10325820Y-6631820D01*
X10325820Y-8155820D02*
X10325820Y-8092180D01*
X10262180Y-8092180D01*
X10262180Y-8155820D01*
X10325820Y-8155820D01*
X10579820Y-6631820D02*
X10579820Y-6568180D01*
X10516180Y-6568180D01*
X10516180Y-6631820D01*
X10579820Y-6631820D01*
X10579820Y-8155820D02*
X10579820Y-8092180D01*
X10516180Y-8092180D01*
X10516180Y-8155820D01*
X10579820Y-8155820D01*
X10833820Y-6631820D02*
X10833820Y-6568180D01*
X10770180Y-6568180D01*
X10770180Y-6631820D01*
X10833820Y-6631820D01*
X10833820Y-8155820D02*
X10833820Y-8092180D01*
X10770180Y-8092180D01*
X10770180Y-8155820D01*
X10833820Y-8155820D01*
X11087820Y-6631820D02*
X11087820Y-6568180D01*
X11024180Y-6568180D01*
X11024180Y-6631820D01*
X11087820Y-6631820D01*
X11087820Y-8155820D02*
X11087820Y-8092180D01*
X11024180Y-8092180D01*
X11024180Y-8155820D01*
X11087820Y-8155820D01*
X11341820Y-6631820D02*
X11341820Y-6568180D01*
X11278180Y-6568180D01*
X11278180Y-6631820D01*
X11341820Y-6631820D01*
X11341820Y-8155820D02*
X11341820Y-8092180D01*
X11278180Y-8092180D01*
X11278180Y-8155820D01*
X11341820Y-8155820D01*
X11595820Y-6631820D02*
X11595820Y-6568180D01*
X11532180Y-6568180D01*
X11532180Y-6631820D01*
X11595820Y-6631820D01*
X11595820Y-8155820D02*
X11595820Y-8092180D01*
X11532180Y-8092180D01*
X11532180Y-8155820D01*
X11595820Y-8155820D01*
X11849820Y-6631820D02*
X11849820Y-6568180D01*
X11786180Y-6568180D01*
X11786180Y-6631820D01*
X11849820Y-6631820D01*
X11849820Y-8155820D02*
X11849820Y-8092180D01*
X11786180Y-8092180D01*
X11786180Y-8155820D01*
X11849820Y-8155820D01*
X12103820Y-6631820D02*
X12103820Y-6568180D01*
X12040180Y-6568180D01*
X12040180Y-6631820D01*
X12103820Y-6631820D01*
X12128828Y-8160524D02*
X12128828Y-8096884D01*
X12065188Y-8096884D01*
X12065188Y-8160524D01*
X12128828Y-8160524D01*
X12357820Y-6631820D02*
X12357820Y-6568180D01*
X12294180Y-6568180D01*
X12294180Y-6631820D01*
X12357820Y-6631820D01*
X12357820Y-8155820D02*
X12357820Y-8092180D01*
X12294180Y-8092180D01*
X12294180Y-8155820D01*
X12357820Y-8155820D01*
X12611820Y-6631820D02*
X12611820Y-6568180D01*
X12548180Y-6568180D01*
X12548180Y-6631820D01*
X12611820Y-6631820D01*
X12611820Y-8155820D02*
X12611820Y-8092180D01*
X12548180Y-8092180D01*
X12548180Y-8155820D01*
X12611820Y-8155820D01*
X12865820Y-6631820D02*
X12865820Y-6568180D01*
X12802180Y-6568180D01*
X12802180Y-6631820D01*
X12865820Y-6631820D01*
X12865820Y-8155820D02*
X12865820Y-8092180D01*
X12802180Y-8092180D01*
X12802180Y-8155820D01*
X12865820Y-8155820D01*
X13119820Y-6631820D02*
X13119820Y-6568180D01*
X13056180Y-6568180D01*
X13056180Y-6631820D01*
X13119820Y-6631820D01*
X13119820Y-8155820D02*
X13119820Y-8092180D01*
X13056180Y-8092180D01*
X13056180Y-8155820D01*
X13119820Y-8155820D01*
X13373820Y-6631820D02*
X13373820Y-6568180D01*
X13310180Y-6568180D01*
X13310180Y-6631820D01*
X13373820Y-6631820D01*
X13373820Y-8155820D02*
X13373820Y-8092180D01*
X13310180Y-8092180D01*
X13310180Y-8155820D01*
X13373820Y-8155820D01*
X13627820Y-6631820D02*
X13627820Y-6568180D01*
X13564180Y-6568180D01*
X13564180Y-6631820D01*
X13627820Y-6631820D01*
X13627820Y-8155820D02*
X13627820Y-8092180D01*
X13564180Y-8092180D01*
X13564180Y-8155820D01*
X13627820Y-8155820D01*
X13881820Y-6631820D02*
X13881820Y-6568180D01*
X13818180Y-6568180D01*
X13818180Y-6631820D01*
X13881820Y-6631820D01*
X13881820Y-8155820D02*
X13881820Y-8092180D01*
X13818180Y-8092180D01*
X13818180Y-8155820D01*
X13881820Y-8155820D01*
X14135820Y-6631820D02*
X14135820Y-6568180D01*
X14072180Y-6568180D01*
X14072180Y-6631820D01*
X14135820Y-6631820D01*
X14135820Y-8155820D02*
X14135820Y-8092180D01*
X14072180Y-8092180D01*
X14072180Y-8155820D01*
X14135820Y-8155820D01*
D13*
X8680000Y-4959500D02*
X8739500Y-4900000D01*
X8680000Y-4840500D01*
X8620500Y-4900000D01*
X8680000Y-4959500D01*
X8934000Y-4959500D02*
X8993500Y-4900000D01*
X8934000Y-4840500D01*
X8874500Y-4900000D01*
X8934000Y-4959500D01*
X9188000Y-4959500D02*
X9247500Y-4900000D01*
X9188000Y-4840500D01*
X9128500Y-4900000D01*
X9188000Y-4959500D01*
X9442000Y-4959500D02*
X9501500Y-4900000D01*
X9442000Y-4840500D01*
X9382500Y-4900000D01*
X9442000Y-4959500D01*
X9696000Y-4959500D02*
X9755500Y-4900000D01*
X9696000Y-4840500D01*
X9636500Y-4900000D01*
X9696000Y-4959500D01*
X9950000Y-4959500D02*
X10009500Y-4900000D01*
X9950000Y-4840500D01*
X9890500Y-4900000D01*
X9950000Y-4959500D01*
X10204000Y-4959500D02*
X10263500Y-4900000D01*
X10204000Y-4840500D01*
X10144500Y-4900000D01*
X10204000Y-4959500D01*
X10458000Y-4959500D02*
X10517500Y-4900000D01*
X10458000Y-4840500D01*
X10398500Y-4900000D01*
X10458000Y-4959500D01*
X10850000Y-5909500D02*
X10909500Y-5850000D01*
X10850000Y-5790500D01*
X10790500Y-5850000D01*
X10850000Y-5909500D01*
X10850000Y-6163500D02*
X10909500Y-6104000D01*
X10850000Y-6044500D01*
X10790500Y-6104000D01*
X10850000Y-6163500D01*
X11100000Y-4859500D02*
X11159500Y-4800000D01*
X11100000Y-4740500D01*
X11040500Y-4800000D01*
X11100000Y-4859500D01*
X11100000Y-5113500D02*
X11159500Y-5054000D01*
X11100000Y-4994500D01*
X11040500Y-5054000D01*
X11100000Y-5113500D01*
X12800000Y-5909500D02*
X12859500Y-5850000D01*
X12800000Y-5790500D01*
X12740500Y-5850000D01*
X12800000Y-5909500D01*
X12800000Y-6163500D02*
X12859500Y-6104000D01*
X12800000Y-6044500D01*
X12740500Y-6104000D01*
X12800000Y-6163500D01*
X13000000Y-4809500D02*
X13059500Y-4750000D01*
X13000000Y-4690500D01*
X12940500Y-4750000D01*
X13000000Y-4809500D01*
X13000000Y-5063500D02*
X13059500Y-5004000D01*
X13000000Y-4944500D01*
X12940500Y-5004000D01*
X13000000Y-5063500D01*
D11*
X8158277Y-9213984D02*
X8158277Y-9013984D01*
X8158277Y-9013984D02*
X8205896Y-9013984D01*
X8205896Y-9013984D02*
X8234467Y-9023508D01*
X8234467Y-9023508D02*
X8253515Y-9042555D01*
X8253515Y-9042555D02*
X8263039Y-9061603D01*
X8263039Y-9061603D02*
X8272562Y-9099698D01*
X8272562Y-9099698D02*
X8272562Y-9128270D01*
X8272562Y-9128270D02*
X8263039Y-9166365D01*
X8263039Y-9166365D02*
X8253515Y-9185412D01*
X8253515Y-9185412D02*
X8234467Y-9204460D01*
X8234467Y-9204460D02*
X8205896Y-9213984D01*
X8205896Y-9213984D02*
X8158277Y-9213984D01*
X8358277Y-9213984D02*
X8358277Y-9080650D01*
X8358277Y-9118746D02*
X8367801Y-9099698D01*
X8367801Y-9099698D02*
X8377324Y-9090174D01*
X8377324Y-9090174D02*
X8396372Y-9080650D01*
X8396372Y-9080650D02*
X8415420Y-9080650D01*
X8482086Y-9213984D02*
X8482086Y-9080650D01*
X8482086Y-9013984D02*
X8472563Y-9023508D01*
X8472563Y-9023508D02*
X8482086Y-9033031D01*
X8482086Y-9033031D02*
X8491610Y-9023508D01*
X8491610Y-9023508D02*
X8482086Y-9013984D01*
X8482086Y-9013984D02*
X8482086Y-9033031D01*
X8605896Y-9213984D02*
X8586848Y-9204460D01*
X8586848Y-9204460D02*
X8577324Y-9185412D01*
X8577324Y-9185412D02*
X8577324Y-9013984D01*
X8710658Y-9213984D02*
X8691610Y-9204460D01*
X8691610Y-9204460D02*
X8682086Y-9185412D01*
X8682086Y-9185412D02*
X8682086Y-9013984D01*
X8939229Y-9213984D02*
X8939229Y-9013984D01*
X8939229Y-9013984D02*
X9005896Y-9156841D01*
X9005896Y-9156841D02*
X9072563Y-9013984D01*
X9072563Y-9013984D02*
X9072563Y-9213984D01*
X9253515Y-9213984D02*
X9253515Y-9109222D01*
X9253515Y-9109222D02*
X9243991Y-9090174D01*
X9243991Y-9090174D02*
X9224944Y-9080650D01*
X9224944Y-9080650D02*
X9186848Y-9080650D01*
X9186848Y-9080650D02*
X9167801Y-9090174D01*
X9253515Y-9204460D02*
X9234467Y-9213984D01*
X9234467Y-9213984D02*
X9186848Y-9213984D01*
X9186848Y-9213984D02*
X9167801Y-9204460D01*
X9167801Y-9204460D02*
X9158277Y-9185412D01*
X9158277Y-9185412D02*
X9158277Y-9166365D01*
X9158277Y-9166365D02*
X9167801Y-9147317D01*
X9167801Y-9147317D02*
X9186848Y-9137793D01*
X9186848Y-9137793D02*
X9234467Y-9137793D01*
X9234467Y-9137793D02*
X9253515Y-9128270D01*
X9348753Y-9080650D02*
X9348753Y-9280650D01*
X9348753Y-9090174D02*
X9367801Y-9080650D01*
X9367801Y-9080650D02*
X9405896Y-9080650D01*
X9405896Y-9080650D02*
X9424944Y-9090174D01*
X9424944Y-9090174D02*
X9434467Y-9099698D01*
X9434467Y-9099698D02*
X9443991Y-9118746D01*
X9443991Y-9118746D02*
X9443991Y-9175889D01*
X9443991Y-9175889D02*
X9434467Y-9194936D01*
X9434467Y-9194936D02*
X9424944Y-9204460D01*
X9424944Y-9204460D02*
X9405896Y-9213984D01*
X9405896Y-9213984D02*
X9367801Y-9213984D01*
X9367801Y-9213984D02*
X9348753Y-9204460D01*
X9529705Y-9194936D02*
X9539229Y-9204460D01*
X9539229Y-9204460D02*
X9529705Y-9213984D01*
X9529705Y-9213984D02*
X9520182Y-9204460D01*
X9520182Y-9204460D02*
X9529705Y-9194936D01*
X9529705Y-9194936D02*
X9529705Y-9213984D01*
X9529705Y-9090174D02*
X9539229Y-9099698D01*
X9539229Y-9099698D02*
X9529705Y-9109222D01*
X9529705Y-9109222D02*
X9520182Y-9099698D01*
X9520182Y-9099698D02*
X9529705Y-9090174D01*
X9529705Y-9090174D02*
X9529705Y-9109222D01*
D12*
X7867500Y-9527500D02*
X7897500Y-9557500D01*
X7897500Y-9527500D02*
X7867500Y-9557500D01*
D11*
X8196372Y-9433984D02*
X8215420Y-9433984D01*
X8215420Y-9433984D02*
X8234467Y-9443508D01*
X8234467Y-9443508D02*
X8243991Y-9453031D01*
X8243991Y-9453031D02*
X8253515Y-9472079D01*
X8253515Y-9472079D02*
X8263039Y-9510174D01*
X8263039Y-9510174D02*
X8263039Y-9557793D01*
X8263039Y-9557793D02*
X8253515Y-9595889D01*
X8253515Y-9595889D02*
X8243991Y-9614936D01*
X8243991Y-9614936D02*
X8234467Y-9624460D01*
X8234467Y-9624460D02*
X8215420Y-9633984D01*
X8215420Y-9633984D02*
X8196372Y-9633984D01*
X8196372Y-9633984D02*
X8177324Y-9624460D01*
X8177324Y-9624460D02*
X8167801Y-9614936D01*
X8167801Y-9614936D02*
X8158277Y-9595889D01*
X8158277Y-9595889D02*
X8148753Y-9557793D01*
X8148753Y-9557793D02*
X8148753Y-9510174D01*
X8148753Y-9510174D02*
X8158277Y-9472079D01*
X8158277Y-9472079D02*
X8167801Y-9453031D01*
X8167801Y-9453031D02*
X8177324Y-9443508D01*
X8177324Y-9443508D02*
X8196372Y-9433984D01*
X8348753Y-9614936D02*
X8358277Y-9624460D01*
X8358277Y-9624460D02*
X8348753Y-9633984D01*
X8348753Y-9633984D02*
X8339229Y-9624460D01*
X8339229Y-9624460D02*
X8348753Y-9614936D01*
X8348753Y-9614936D02*
X8348753Y-9633984D01*
X8424944Y-9433984D02*
X8548753Y-9433984D01*
X8548753Y-9433984D02*
X8482086Y-9510174D01*
X8482086Y-9510174D02*
X8510658Y-9510174D01*
X8510658Y-9510174D02*
X8529705Y-9519698D01*
X8529705Y-9519698D02*
X8539229Y-9529222D01*
X8539229Y-9529222D02*
X8548753Y-9548270D01*
X8548753Y-9548270D02*
X8548753Y-9595889D01*
X8548753Y-9595889D02*
X8539229Y-9614936D01*
X8539229Y-9614936D02*
X8529705Y-9624460D01*
X8529705Y-9624460D02*
X8510658Y-9633984D01*
X8510658Y-9633984D02*
X8453515Y-9633984D01*
X8453515Y-9633984D02*
X8434467Y-9624460D01*
X8434467Y-9624460D02*
X8424944Y-9614936D01*
X8672563Y-9433984D02*
X8691610Y-9433984D01*
X8691610Y-9433984D02*
X8710658Y-9443508D01*
X8710658Y-9443508D02*
X8720182Y-9453031D01*
X8720182Y-9453031D02*
X8729705Y-9472079D01*
X8729705Y-9472079D02*
X8739229Y-9510174D01*
X8739229Y-9510174D02*
X8739229Y-9557793D01*
X8739229Y-9557793D02*
X8729705Y-9595889D01*
X8729705Y-9595889D02*
X8720182Y-9614936D01*
X8720182Y-9614936D02*
X8710658Y-9624460D01*
X8710658Y-9624460D02*
X8691610Y-9633984D01*
X8691610Y-9633984D02*
X8672563Y-9633984D01*
X8672563Y-9633984D02*
X8653515Y-9624460D01*
X8653515Y-9624460D02*
X8643991Y-9614936D01*
X8643991Y-9614936D02*
X8634467Y-9595889D01*
X8634467Y-9595889D02*
X8624944Y-9557793D01*
X8624944Y-9557793D02*
X8624944Y-9510174D01*
X8624944Y-9510174D02*
X8634467Y-9472079D01*
X8634467Y-9472079D02*
X8643991Y-9453031D01*
X8643991Y-9453031D02*
X8653515Y-9443508D01*
X8653515Y-9443508D02*
X8672563Y-9433984D01*
X8863039Y-9433984D02*
X8882086Y-9433984D01*
X8882086Y-9433984D02*
X8901134Y-9443508D01*
X8901134Y-9443508D02*
X8910658Y-9453031D01*
X8910658Y-9453031D02*
X8920182Y-9472079D01*
X8920182Y-9472079D02*
X8929705Y-9510174D01*
X8929705Y-9510174D02*
X8929705Y-9557793D01*
X8929705Y-9557793D02*
X8920182Y-9595889D01*
X8920182Y-9595889D02*
X8910658Y-9614936D01*
X8910658Y-9614936D02*
X8901134Y-9624460D01*
X8901134Y-9624460D02*
X8882086Y-9633984D01*
X8882086Y-9633984D02*
X8863039Y-9633984D01*
X8863039Y-9633984D02*
X8843991Y-9624460D01*
X8843991Y-9624460D02*
X8834467Y-9614936D01*
X8834467Y-9614936D02*
X8824944Y-9595889D01*
X8824944Y-9595889D02*
X8815420Y-9557793D01*
X8815420Y-9557793D02*
X8815420Y-9510174D01*
X8815420Y-9510174D02*
X8824944Y-9472079D01*
X8824944Y-9472079D02*
X8834467Y-9453031D01*
X8834467Y-9453031D02*
X8843991Y-9443508D01*
X8843991Y-9443508D02*
X8863039Y-9433984D01*
X9015420Y-9633984D02*
X9015420Y-9500650D01*
X9015420Y-9519698D02*
X9024944Y-9510174D01*
X9024944Y-9510174D02*
X9043991Y-9500650D01*
X9043991Y-9500650D02*
X9072563Y-9500650D01*
X9072563Y-9500650D02*
X9091610Y-9510174D01*
X9091610Y-9510174D02*
X9101134Y-9529222D01*
X9101134Y-9529222D02*
X9101134Y-9633984D01*
X9101134Y-9529222D02*
X9110658Y-9510174D01*
X9110658Y-9510174D02*
X9129705Y-9500650D01*
X9129705Y-9500650D02*
X9158277Y-9500650D01*
X9158277Y-9500650D02*
X9177325Y-9510174D01*
X9177325Y-9510174D02*
X9186848Y-9529222D01*
X9186848Y-9529222D02*
X9186848Y-9633984D01*
X9282086Y-9633984D02*
X9282086Y-9500650D01*
X9282086Y-9519698D02*
X9291610Y-9510174D01*
X9291610Y-9510174D02*
X9310658Y-9500650D01*
X9310658Y-9500650D02*
X9339229Y-9500650D01*
X9339229Y-9500650D02*
X9358277Y-9510174D01*
X9358277Y-9510174D02*
X9367801Y-9529222D01*
X9367801Y-9529222D02*
X9367801Y-9633984D01*
X9367801Y-9529222D02*
X9377325Y-9510174D01*
X9377325Y-9510174D02*
X9396372Y-9500650D01*
X9396372Y-9500650D02*
X9424944Y-9500650D01*
X9424944Y-9500650D02*
X9443991Y-9510174D01*
X9443991Y-9510174D02*
X9453515Y-9529222D01*
X9453515Y-9529222D02*
X9453515Y-9633984D01*
X9843991Y-9424460D02*
X9672563Y-9681603D01*
X10101134Y-9433984D02*
X10120182Y-9433984D01*
X10120182Y-9433984D02*
X10139229Y-9443508D01*
X10139229Y-9443508D02*
X10148753Y-9453031D01*
X10148753Y-9453031D02*
X10158277Y-9472079D01*
X10158277Y-9472079D02*
X10167801Y-9510174D01*
X10167801Y-9510174D02*
X10167801Y-9557793D01*
X10167801Y-9557793D02*
X10158277Y-9595889D01*
X10158277Y-9595889D02*
X10148753Y-9614936D01*
X10148753Y-9614936D02*
X10139229Y-9624460D01*
X10139229Y-9624460D02*
X10120182Y-9633984D01*
X10120182Y-9633984D02*
X10101134Y-9633984D01*
X10101134Y-9633984D02*
X10082087Y-9624460D01*
X10082087Y-9624460D02*
X10072563Y-9614936D01*
X10072563Y-9614936D02*
X10063039Y-9595889D01*
X10063039Y-9595889D02*
X10053515Y-9557793D01*
X10053515Y-9557793D02*
X10053515Y-9510174D01*
X10053515Y-9510174D02*
X10063039Y-9472079D01*
X10063039Y-9472079D02*
X10072563Y-9453031D01*
X10072563Y-9453031D02*
X10082087Y-9443508D01*
X10082087Y-9443508D02*
X10101134Y-9433984D01*
X10253515Y-9614936D02*
X10263039Y-9624460D01*
X10263039Y-9624460D02*
X10253515Y-9633984D01*
X10253515Y-9633984D02*
X10243991Y-9624460D01*
X10243991Y-9624460D02*
X10253515Y-9614936D01*
X10253515Y-9614936D02*
X10253515Y-9633984D01*
X10386848Y-9433984D02*
X10405896Y-9433984D01*
X10405896Y-9433984D02*
X10424944Y-9443508D01*
X10424944Y-9443508D02*
X10434468Y-9453031D01*
X10434468Y-9453031D02*
X10443991Y-9472079D01*
X10443991Y-9472079D02*
X10453515Y-9510174D01*
X10453515Y-9510174D02*
X10453515Y-9557793D01*
X10453515Y-9557793D02*
X10443991Y-9595889D01*
X10443991Y-9595889D02*
X10434468Y-9614936D01*
X10434468Y-9614936D02*
X10424944Y-9624460D01*
X10424944Y-9624460D02*
X10405896Y-9633984D01*
X10405896Y-9633984D02*
X10386848Y-9633984D01*
X10386848Y-9633984D02*
X10367801Y-9624460D01*
X10367801Y-9624460D02*
X10358277Y-9614936D01*
X10358277Y-9614936D02*
X10348753Y-9595889D01*
X10348753Y-9595889D02*
X10339229Y-9557793D01*
X10339229Y-9557793D02*
X10339229Y-9510174D01*
X10339229Y-9510174D02*
X10348753Y-9472079D01*
X10348753Y-9472079D02*
X10358277Y-9453031D01*
X10358277Y-9453031D02*
X10367801Y-9443508D01*
X10367801Y-9443508D02*
X10386848Y-9433984D01*
X10643991Y-9633984D02*
X10529706Y-9633984D01*
X10586848Y-9633984D02*
X10586848Y-9433984D01*
X10586848Y-9433984D02*
X10567801Y-9462555D01*
X10567801Y-9462555D02*
X10548753Y-9481603D01*
X10548753Y-9481603D02*
X10529706Y-9491127D01*
X10834468Y-9633984D02*
X10720182Y-9633984D01*
X10777325Y-9633984D02*
X10777325Y-9433984D01*
X10777325Y-9433984D02*
X10758277Y-9462555D01*
X10758277Y-9462555D02*
X10739229Y-9481603D01*
X10739229Y-9481603D02*
X10720182Y-9491127D01*
X10948753Y-9519698D02*
X10929706Y-9510174D01*
X10929706Y-9510174D02*
X10920182Y-9500650D01*
X10920182Y-9500650D02*
X10910658Y-9481603D01*
X10910658Y-9481603D02*
X10910658Y-9472079D01*
X10910658Y-9472079D02*
X10920182Y-9453031D01*
X10920182Y-9453031D02*
X10929706Y-9443508D01*
X10929706Y-9443508D02*
X10948753Y-9433984D01*
X10948753Y-9433984D02*
X10986849Y-9433984D01*
X10986849Y-9433984D02*
X11005896Y-9443508D01*
X11005896Y-9443508D02*
X11015420Y-9453031D01*
X11015420Y-9453031D02*
X11024944Y-9472079D01*
X11024944Y-9472079D02*
X11024944Y-9481603D01*
X11024944Y-9481603D02*
X11015420Y-9500650D01*
X11015420Y-9500650D02*
X11005896Y-9510174D01*
X11005896Y-9510174D02*
X10986849Y-9519698D01*
X10986849Y-9519698D02*
X10948753Y-9519698D01*
X10948753Y-9519698D02*
X10929706Y-9529222D01*
X10929706Y-9529222D02*
X10920182Y-9538746D01*
X10920182Y-9538746D02*
X10910658Y-9557793D01*
X10910658Y-9557793D02*
X10910658Y-9595889D01*
X10910658Y-9595889D02*
X10920182Y-9614936D01*
X10920182Y-9614936D02*
X10929706Y-9624460D01*
X10929706Y-9624460D02*
X10948753Y-9633984D01*
X10948753Y-9633984D02*
X10986849Y-9633984D01*
X10986849Y-9633984D02*
X11005896Y-9624460D01*
X11005896Y-9624460D02*
X11015420Y-9614936D01*
X11015420Y-9614936D02*
X11024944Y-9595889D01*
X11024944Y-9595889D02*
X11024944Y-9557793D01*
X11024944Y-9557793D02*
X11015420Y-9538746D01*
X11015420Y-9538746D02*
X11005896Y-9529222D01*
X11005896Y-9529222D02*
X10986849Y-9519698D01*
X11101134Y-9433984D02*
X11101134Y-9472079D01*
X11177325Y-9433984D02*
X11177325Y-9472079D01*
X11472563Y-9710174D02*
X11463039Y-9700650D01*
X11463039Y-9700650D02*
X11443991Y-9672079D01*
X11443991Y-9672079D02*
X11434468Y-9653031D01*
X11434468Y-9653031D02*
X11424944Y-9624460D01*
X11424944Y-9624460D02*
X11415420Y-9576841D01*
X11415420Y-9576841D02*
X11415420Y-9538746D01*
X11415420Y-9538746D02*
X11424944Y-9491127D01*
X11424944Y-9491127D02*
X11434468Y-9462555D01*
X11434468Y-9462555D02*
X11443991Y-9443508D01*
X11443991Y-9443508D02*
X11463039Y-9414936D01*
X11463039Y-9414936D02*
X11472563Y-9405412D01*
X11653515Y-9633984D02*
X11539229Y-9633984D01*
X11596372Y-9633984D02*
X11596372Y-9433984D01*
X11596372Y-9433984D02*
X11577325Y-9462555D01*
X11577325Y-9462555D02*
X11558277Y-9481603D01*
X11558277Y-9481603D02*
X11539229Y-9491127D01*
X11720182Y-9433984D02*
X11853515Y-9433984D01*
X11853515Y-9433984D02*
X11767801Y-9633984D01*
X12082087Y-9633984D02*
X12082087Y-9433984D01*
X12167801Y-9633984D02*
X12167801Y-9529222D01*
X12167801Y-9529222D02*
X12158277Y-9510174D01*
X12158277Y-9510174D02*
X12139230Y-9500650D01*
X12139230Y-9500650D02*
X12110658Y-9500650D01*
X12110658Y-9500650D02*
X12091610Y-9510174D01*
X12091610Y-9510174D02*
X12082087Y-9519698D01*
X12291610Y-9633984D02*
X12272563Y-9624460D01*
X12272563Y-9624460D02*
X12263039Y-9614936D01*
X12263039Y-9614936D02*
X12253515Y-9595889D01*
X12253515Y-9595889D02*
X12253515Y-9538746D01*
X12253515Y-9538746D02*
X12263039Y-9519698D01*
X12263039Y-9519698D02*
X12272563Y-9510174D01*
X12272563Y-9510174D02*
X12291610Y-9500650D01*
X12291610Y-9500650D02*
X12320182Y-9500650D01*
X12320182Y-9500650D02*
X12339230Y-9510174D01*
X12339230Y-9510174D02*
X12348753Y-9519698D01*
X12348753Y-9519698D02*
X12358277Y-9538746D01*
X12358277Y-9538746D02*
X12358277Y-9595889D01*
X12358277Y-9595889D02*
X12348753Y-9614936D01*
X12348753Y-9614936D02*
X12339230Y-9624460D01*
X12339230Y-9624460D02*
X12320182Y-9633984D01*
X12320182Y-9633984D02*
X12291610Y-9633984D01*
X12472563Y-9633984D02*
X12453515Y-9624460D01*
X12453515Y-9624460D02*
X12443991Y-9605412D01*
X12443991Y-9605412D02*
X12443991Y-9433984D01*
X12624944Y-9624460D02*
X12605896Y-9633984D01*
X12605896Y-9633984D02*
X12567801Y-9633984D01*
X12567801Y-9633984D02*
X12548753Y-9624460D01*
X12548753Y-9624460D02*
X12539230Y-9605412D01*
X12539230Y-9605412D02*
X12539230Y-9529222D01*
X12539230Y-9529222D02*
X12548753Y-9510174D01*
X12548753Y-9510174D02*
X12567801Y-9500650D01*
X12567801Y-9500650D02*
X12605896Y-9500650D01*
X12605896Y-9500650D02*
X12624944Y-9510174D01*
X12624944Y-9510174D02*
X12634468Y-9529222D01*
X12634468Y-9529222D02*
X12634468Y-9548270D01*
X12634468Y-9548270D02*
X12539230Y-9567317D01*
X12710658Y-9624460D02*
X12729706Y-9633984D01*
X12729706Y-9633984D02*
X12767801Y-9633984D01*
X12767801Y-9633984D02*
X12786849Y-9624460D01*
X12786849Y-9624460D02*
X12796372Y-9605412D01*
X12796372Y-9605412D02*
X12796372Y-9595889D01*
X12796372Y-9595889D02*
X12786849Y-9576841D01*
X12786849Y-9576841D02*
X12767801Y-9567317D01*
X12767801Y-9567317D02*
X12739230Y-9567317D01*
X12739230Y-9567317D02*
X12720182Y-9557793D01*
X12720182Y-9557793D02*
X12710658Y-9538746D01*
X12710658Y-9538746D02*
X12710658Y-9529222D01*
X12710658Y-9529222D02*
X12720182Y-9510174D01*
X12720182Y-9510174D02*
X12739230Y-9500650D01*
X12739230Y-9500650D02*
X12767801Y-9500650D01*
X12767801Y-9500650D02*
X12786849Y-9510174D01*
X12863039Y-9710174D02*
X12872563Y-9700650D01*
X12872563Y-9700650D02*
X12891611Y-9672079D01*
X12891611Y-9672079D02*
X12901134Y-9653031D01*
X12901134Y-9653031D02*
X12910658Y-9624460D01*
X12910658Y-9624460D02*
X12920182Y-9576841D01*
X12920182Y-9576841D02*
X12920182Y-9538746D01*
X12920182Y-9538746D02*
X12910658Y-9491127D01*
X12910658Y-9491127D02*
X12901134Y-9462555D01*
X12901134Y-9462555D02*
X12891611Y-9443508D01*
X12891611Y-9443508D02*
X12872563Y-9414936D01*
X12872563Y-9414936D02*
X12863039Y-9405412D01*
D12*
X7897500Y-9806500D02*
G75*
G02*
X7847500Y-9806500I-25000J0D01*
G01*
X7847500Y-9806500D02*
G75*
G02*
X7897500Y-9806500I25000J0D01*
G01*
D11*
X8196372Y-9697984D02*
X8215420Y-9697984D01*
X8215420Y-9697984D02*
X8234467Y-9707508D01*
X8234467Y-9707508D02*
X8243991Y-9717031D01*
X8243991Y-9717031D02*
X8253515Y-9736079D01*
X8253515Y-9736079D02*
X8263039Y-9774174D01*
X8263039Y-9774174D02*
X8263039Y-9821793D01*
X8263039Y-9821793D02*
X8253515Y-9859889D01*
X8253515Y-9859889D02*
X8243991Y-9878936D01*
X8243991Y-9878936D02*
X8234467Y-9888460D01*
X8234467Y-9888460D02*
X8215420Y-9897984D01*
X8215420Y-9897984D02*
X8196372Y-9897984D01*
X8196372Y-9897984D02*
X8177324Y-9888460D01*
X8177324Y-9888460D02*
X8167801Y-9878936D01*
X8167801Y-9878936D02*
X8158277Y-9859889D01*
X8158277Y-9859889D02*
X8148753Y-9821793D01*
X8148753Y-9821793D02*
X8148753Y-9774174D01*
X8148753Y-9774174D02*
X8158277Y-9736079D01*
X8158277Y-9736079D02*
X8167801Y-9717031D01*
X8167801Y-9717031D02*
X8177324Y-9707508D01*
X8177324Y-9707508D02*
X8196372Y-9697984D01*
X8348753Y-9878936D02*
X8358277Y-9888460D01*
X8358277Y-9888460D02*
X8348753Y-9897984D01*
X8348753Y-9897984D02*
X8339229Y-9888460D01*
X8339229Y-9888460D02*
X8348753Y-9878936D01*
X8348753Y-9878936D02*
X8348753Y-9897984D01*
X8539229Y-9697984D02*
X8443991Y-9697984D01*
X8443991Y-9697984D02*
X8434467Y-9793222D01*
X8434467Y-9793222D02*
X8443991Y-9783698D01*
X8443991Y-9783698D02*
X8463039Y-9774174D01*
X8463039Y-9774174D02*
X8510658Y-9774174D01*
X8510658Y-9774174D02*
X8529705Y-9783698D01*
X8529705Y-9783698D02*
X8539229Y-9793222D01*
X8539229Y-9793222D02*
X8548753Y-9812270D01*
X8548753Y-9812270D02*
X8548753Y-9859889D01*
X8548753Y-9859889D02*
X8539229Y-9878936D01*
X8539229Y-9878936D02*
X8529705Y-9888460D01*
X8529705Y-9888460D02*
X8510658Y-9897984D01*
X8510658Y-9897984D02*
X8463039Y-9897984D01*
X8463039Y-9897984D02*
X8443991Y-9888460D01*
X8443991Y-9888460D02*
X8434467Y-9878936D01*
X8672563Y-9697984D02*
X8691610Y-9697984D01*
X8691610Y-9697984D02*
X8710658Y-9707508D01*
X8710658Y-9707508D02*
X8720182Y-9717031D01*
X8720182Y-9717031D02*
X8729705Y-9736079D01*
X8729705Y-9736079D02*
X8739229Y-9774174D01*
X8739229Y-9774174D02*
X8739229Y-9821793D01*
X8739229Y-9821793D02*
X8729705Y-9859889D01*
X8729705Y-9859889D02*
X8720182Y-9878936D01*
X8720182Y-9878936D02*
X8710658Y-9888460D01*
X8710658Y-9888460D02*
X8691610Y-9897984D01*
X8691610Y-9897984D02*
X8672563Y-9897984D01*
X8672563Y-9897984D02*
X8653515Y-9888460D01*
X8653515Y-9888460D02*
X8643991Y-9878936D01*
X8643991Y-9878936D02*
X8634467Y-9859889D01*
X8634467Y-9859889D02*
X8624944Y-9821793D01*
X8624944Y-9821793D02*
X8624944Y-9774174D01*
X8624944Y-9774174D02*
X8634467Y-9736079D01*
X8634467Y-9736079D02*
X8643991Y-9717031D01*
X8643991Y-9717031D02*
X8653515Y-9707508D01*
X8653515Y-9707508D02*
X8672563Y-9697984D01*
X8863039Y-9697984D02*
X8882086Y-9697984D01*
X8882086Y-9697984D02*
X8901134Y-9707508D01*
X8901134Y-9707508D02*
X8910658Y-9717031D01*
X8910658Y-9717031D02*
X8920182Y-9736079D01*
X8920182Y-9736079D02*
X8929705Y-9774174D01*
X8929705Y-9774174D02*
X8929705Y-9821793D01*
X8929705Y-9821793D02*
X8920182Y-9859889D01*
X8920182Y-9859889D02*
X8910658Y-9878936D01*
X8910658Y-9878936D02*
X8901134Y-9888460D01*
X8901134Y-9888460D02*
X8882086Y-9897984D01*
X8882086Y-9897984D02*
X8863039Y-9897984D01*
X8863039Y-9897984D02*
X8843991Y-9888460D01*
X8843991Y-9888460D02*
X8834467Y-9878936D01*
X8834467Y-9878936D02*
X8824944Y-9859889D01*
X8824944Y-9859889D02*
X8815420Y-9821793D01*
X8815420Y-9821793D02*
X8815420Y-9774174D01*
X8815420Y-9774174D02*
X8824944Y-9736079D01*
X8824944Y-9736079D02*
X8834467Y-9717031D01*
X8834467Y-9717031D02*
X8843991Y-9707508D01*
X8843991Y-9707508D02*
X8863039Y-9697984D01*
X9015420Y-9897984D02*
X9015420Y-9764650D01*
X9015420Y-9783698D02*
X9024944Y-9774174D01*
X9024944Y-9774174D02*
X9043991Y-9764650D01*
X9043991Y-9764650D02*
X9072563Y-9764650D01*
X9072563Y-9764650D02*
X9091610Y-9774174D01*
X9091610Y-9774174D02*
X9101134Y-9793222D01*
X9101134Y-9793222D02*
X9101134Y-9897984D01*
X9101134Y-9793222D02*
X9110658Y-9774174D01*
X9110658Y-9774174D02*
X9129705Y-9764650D01*
X9129705Y-9764650D02*
X9158277Y-9764650D01*
X9158277Y-9764650D02*
X9177325Y-9774174D01*
X9177325Y-9774174D02*
X9186848Y-9793222D01*
X9186848Y-9793222D02*
X9186848Y-9897984D01*
X9282086Y-9897984D02*
X9282086Y-9764650D01*
X9282086Y-9783698D02*
X9291610Y-9774174D01*
X9291610Y-9774174D02*
X9310658Y-9764650D01*
X9310658Y-9764650D02*
X9339229Y-9764650D01*
X9339229Y-9764650D02*
X9358277Y-9774174D01*
X9358277Y-9774174D02*
X9367801Y-9793222D01*
X9367801Y-9793222D02*
X9367801Y-9897984D01*
X9367801Y-9793222D02*
X9377325Y-9774174D01*
X9377325Y-9774174D02*
X9396372Y-9764650D01*
X9396372Y-9764650D02*
X9424944Y-9764650D01*
X9424944Y-9764650D02*
X9443991Y-9774174D01*
X9443991Y-9774174D02*
X9453515Y-9793222D01*
X9453515Y-9793222D02*
X9453515Y-9897984D01*
X9843991Y-9688460D02*
X9672563Y-9945603D01*
X10101134Y-9697984D02*
X10120182Y-9697984D01*
X10120182Y-9697984D02*
X10139229Y-9707508D01*
X10139229Y-9707508D02*
X10148753Y-9717031D01*
X10148753Y-9717031D02*
X10158277Y-9736079D01*
X10158277Y-9736079D02*
X10167801Y-9774174D01*
X10167801Y-9774174D02*
X10167801Y-9821793D01*
X10167801Y-9821793D02*
X10158277Y-9859889D01*
X10158277Y-9859889D02*
X10148753Y-9878936D01*
X10148753Y-9878936D02*
X10139229Y-9888460D01*
X10139229Y-9888460D02*
X10120182Y-9897984D01*
X10120182Y-9897984D02*
X10101134Y-9897984D01*
X10101134Y-9897984D02*
X10082087Y-9888460D01*
X10082087Y-9888460D02*
X10072563Y-9878936D01*
X10072563Y-9878936D02*
X10063039Y-9859889D01*
X10063039Y-9859889D02*
X10053515Y-9821793D01*
X10053515Y-9821793D02*
X10053515Y-9774174D01*
X10053515Y-9774174D02*
X10063039Y-9736079D01*
X10063039Y-9736079D02*
X10072563Y-9717031D01*
X10072563Y-9717031D02*
X10082087Y-9707508D01*
X10082087Y-9707508D02*
X10101134Y-9697984D01*
X10253515Y-9878936D02*
X10263039Y-9888460D01*
X10263039Y-9888460D02*
X10253515Y-9897984D01*
X10253515Y-9897984D02*
X10243991Y-9888460D01*
X10243991Y-9888460D02*
X10253515Y-9878936D01*
X10253515Y-9878936D02*
X10253515Y-9897984D01*
X10386848Y-9697984D02*
X10405896Y-9697984D01*
X10405896Y-9697984D02*
X10424944Y-9707508D01*
X10424944Y-9707508D02*
X10434468Y-9717031D01*
X10434468Y-9717031D02*
X10443991Y-9736079D01*
X10443991Y-9736079D02*
X10453515Y-9774174D01*
X10453515Y-9774174D02*
X10453515Y-9821793D01*
X10453515Y-9821793D02*
X10443991Y-9859889D01*
X10443991Y-9859889D02*
X10434468Y-9878936D01*
X10434468Y-9878936D02*
X10424944Y-9888460D01*
X10424944Y-9888460D02*
X10405896Y-9897984D01*
X10405896Y-9897984D02*
X10386848Y-9897984D01*
X10386848Y-9897984D02*
X10367801Y-9888460D01*
X10367801Y-9888460D02*
X10358277Y-9878936D01*
X10358277Y-9878936D02*
X10348753Y-9859889D01*
X10348753Y-9859889D02*
X10339229Y-9821793D01*
X10339229Y-9821793D02*
X10339229Y-9774174D01*
X10339229Y-9774174D02*
X10348753Y-9736079D01*
X10348753Y-9736079D02*
X10358277Y-9717031D01*
X10358277Y-9717031D02*
X10367801Y-9707508D01*
X10367801Y-9707508D02*
X10386848Y-9697984D01*
X10643991Y-9897984D02*
X10529706Y-9897984D01*
X10586848Y-9897984D02*
X10586848Y-9697984D01*
X10586848Y-9697984D02*
X10567801Y-9726555D01*
X10567801Y-9726555D02*
X10548753Y-9745603D01*
X10548753Y-9745603D02*
X10529706Y-9755127D01*
X10739229Y-9897984D02*
X10777325Y-9897984D01*
X10777325Y-9897984D02*
X10796372Y-9888460D01*
X10796372Y-9888460D02*
X10805896Y-9878936D01*
X10805896Y-9878936D02*
X10824944Y-9850365D01*
X10824944Y-9850365D02*
X10834468Y-9812270D01*
X10834468Y-9812270D02*
X10834468Y-9736079D01*
X10834468Y-9736079D02*
X10824944Y-9717031D01*
X10824944Y-9717031D02*
X10815420Y-9707508D01*
X10815420Y-9707508D02*
X10796372Y-9697984D01*
X10796372Y-9697984D02*
X10758277Y-9697984D01*
X10758277Y-9697984D02*
X10739229Y-9707508D01*
X10739229Y-9707508D02*
X10729706Y-9717031D01*
X10729706Y-9717031D02*
X10720182Y-9736079D01*
X10720182Y-9736079D02*
X10720182Y-9783698D01*
X10720182Y-9783698D02*
X10729706Y-9802746D01*
X10729706Y-9802746D02*
X10739229Y-9812270D01*
X10739229Y-9812270D02*
X10758277Y-9821793D01*
X10758277Y-9821793D02*
X10796372Y-9821793D01*
X10796372Y-9821793D02*
X10815420Y-9812270D01*
X10815420Y-9812270D02*
X10824944Y-9802746D01*
X10824944Y-9802746D02*
X10834468Y-9783698D01*
X10901134Y-9697984D02*
X11034468Y-9697984D01*
X11034468Y-9697984D02*
X10948753Y-9897984D01*
X11101134Y-9697984D02*
X11101134Y-9736079D01*
X11177325Y-9697984D02*
X11177325Y-9736079D01*
X11472563Y-9974174D02*
X11463039Y-9964650D01*
X11463039Y-9964650D02*
X11443991Y-9936079D01*
X11443991Y-9936079D02*
X11434468Y-9917031D01*
X11434468Y-9917031D02*
X11424944Y-9888460D01*
X11424944Y-9888460D02*
X11415420Y-9840841D01*
X11415420Y-9840841D02*
X11415420Y-9802746D01*
X11415420Y-9802746D02*
X11424944Y-9755127D01*
X11424944Y-9755127D02*
X11434468Y-9726555D01*
X11434468Y-9726555D02*
X11443991Y-9707508D01*
X11443991Y-9707508D02*
X11463039Y-9678936D01*
X11463039Y-9678936D02*
X11472563Y-9669412D01*
X11529706Y-9697984D02*
X11653515Y-9697984D01*
X11653515Y-9697984D02*
X11586848Y-9774174D01*
X11586848Y-9774174D02*
X11615420Y-9774174D01*
X11615420Y-9774174D02*
X11634468Y-9783698D01*
X11634468Y-9783698D02*
X11643991Y-9793222D01*
X11643991Y-9793222D02*
X11653515Y-9812270D01*
X11653515Y-9812270D02*
X11653515Y-9859889D01*
X11653515Y-9859889D02*
X11643991Y-9878936D01*
X11643991Y-9878936D02*
X11634468Y-9888460D01*
X11634468Y-9888460D02*
X11615420Y-9897984D01*
X11615420Y-9897984D02*
X11558277Y-9897984D01*
X11558277Y-9897984D02*
X11539229Y-9888460D01*
X11539229Y-9888460D02*
X11529706Y-9878936D01*
X11891610Y-9897984D02*
X11891610Y-9697984D01*
X11977325Y-9897984D02*
X11977325Y-9793222D01*
X11977325Y-9793222D02*
X11967801Y-9774174D01*
X11967801Y-9774174D02*
X11948753Y-9764650D01*
X11948753Y-9764650D02*
X11920182Y-9764650D01*
X11920182Y-9764650D02*
X11901134Y-9774174D01*
X11901134Y-9774174D02*
X11891610Y-9783698D01*
X12101134Y-9897984D02*
X12082087Y-9888460D01*
X12082087Y-9888460D02*
X12072563Y-9878936D01*
X12072563Y-9878936D02*
X12063039Y-9859889D01*
X12063039Y-9859889D02*
X12063039Y-9802746D01*
X12063039Y-9802746D02*
X12072563Y-9783698D01*
X12072563Y-9783698D02*
X12082087Y-9774174D01*
X12082087Y-9774174D02*
X12101134Y-9764650D01*
X12101134Y-9764650D02*
X12129706Y-9764650D01*
X12129706Y-9764650D02*
X12148753Y-9774174D01*
X12148753Y-9774174D02*
X12158277Y-9783698D01*
X12158277Y-9783698D02*
X12167801Y-9802746D01*
X12167801Y-9802746D02*
X12167801Y-9859889D01*
X12167801Y-9859889D02*
X12158277Y-9878936D01*
X12158277Y-9878936D02*
X12148753Y-9888460D01*
X12148753Y-9888460D02*
X12129706Y-9897984D01*
X12129706Y-9897984D02*
X12101134Y-9897984D01*
X12282087Y-9897984D02*
X12263039Y-9888460D01*
X12263039Y-9888460D02*
X12253515Y-9869412D01*
X12253515Y-9869412D02*
X12253515Y-9697984D01*
X12434468Y-9888460D02*
X12415420Y-9897984D01*
X12415420Y-9897984D02*
X12377325Y-9897984D01*
X12377325Y-9897984D02*
X12358277Y-9888460D01*
X12358277Y-9888460D02*
X12348753Y-9869412D01*
X12348753Y-9869412D02*
X12348753Y-9793222D01*
X12348753Y-9793222D02*
X12358277Y-9774174D01*
X12358277Y-9774174D02*
X12377325Y-9764650D01*
X12377325Y-9764650D02*
X12415420Y-9764650D01*
X12415420Y-9764650D02*
X12434468Y-9774174D01*
X12434468Y-9774174D02*
X12443991Y-9793222D01*
X12443991Y-9793222D02*
X12443991Y-9812270D01*
X12443991Y-9812270D02*
X12348753Y-9831317D01*
X12520182Y-9888460D02*
X12539230Y-9897984D01*
X12539230Y-9897984D02*
X12577325Y-9897984D01*
X12577325Y-9897984D02*
X12596372Y-9888460D01*
X12596372Y-9888460D02*
X12605896Y-9869412D01*
X12605896Y-9869412D02*
X12605896Y-9859889D01*
X12605896Y-9859889D02*
X12596372Y-9840841D01*
X12596372Y-9840841D02*
X12577325Y-9831317D01*
X12577325Y-9831317D02*
X12548753Y-9831317D01*
X12548753Y-9831317D02*
X12529706Y-9821793D01*
X12529706Y-9821793D02*
X12520182Y-9802746D01*
X12520182Y-9802746D02*
X12520182Y-9793222D01*
X12520182Y-9793222D02*
X12529706Y-9774174D01*
X12529706Y-9774174D02*
X12548753Y-9764650D01*
X12548753Y-9764650D02*
X12577325Y-9764650D01*
X12577325Y-9764650D02*
X12596372Y-9774174D01*
X12672563Y-9974174D02*
X12682087Y-9964650D01*
X12682087Y-9964650D02*
X12701134Y-9936079D01*
X12701134Y-9936079D02*
X12710658Y-9917031D01*
X12710658Y-9917031D02*
X12720182Y-9888460D01*
X12720182Y-9888460D02*
X12729706Y-9840841D01*
X12729706Y-9840841D02*
X12729706Y-9802746D01*
X12729706Y-9802746D02*
X12720182Y-9755127D01*
X12720182Y-9755127D02*
X12710658Y-9726555D01*
X12710658Y-9726555D02*
X12701134Y-9707508D01*
X12701134Y-9707508D02*
X12682087Y-9678936D01*
X12682087Y-9678936D02*
X12672563Y-9669412D01*
D12*
X7857500Y-10030500D02*
X7857500Y-10110500D01*
X7817500Y-10070500D02*
X7897500Y-10070500D01*
D11*
X8196372Y-9961984D02*
X8215420Y-9961984D01*
X8215420Y-9961984D02*
X8234467Y-9971508D01*
X8234467Y-9971508D02*
X8243991Y-9981031D01*
X8243991Y-9981031D02*
X8253515Y-10000079D01*
X8253515Y-10000079D02*
X8263039Y-10038174D01*
X8263039Y-10038174D02*
X8263039Y-10085793D01*
X8263039Y-10085793D02*
X8253515Y-10123889D01*
X8253515Y-10123889D02*
X8243991Y-10142936D01*
X8243991Y-10142936D02*
X8234467Y-10152460D01*
X8234467Y-10152460D02*
X8215420Y-10161984D01*
X8215420Y-10161984D02*
X8196372Y-10161984D01*
X8196372Y-10161984D02*
X8177324Y-10152460D01*
X8177324Y-10152460D02*
X8167801Y-10142936D01*
X8167801Y-10142936D02*
X8158277Y-10123889D01*
X8158277Y-10123889D02*
X8148753Y-10085793D01*
X8148753Y-10085793D02*
X8148753Y-10038174D01*
X8148753Y-10038174D02*
X8158277Y-10000079D01*
X8158277Y-10000079D02*
X8167801Y-9981031D01*
X8167801Y-9981031D02*
X8177324Y-9971508D01*
X8177324Y-9971508D02*
X8196372Y-9961984D01*
X8348753Y-10142936D02*
X8358277Y-10152460D01*
X8358277Y-10152460D02*
X8348753Y-10161984D01*
X8348753Y-10161984D02*
X8339229Y-10152460D01*
X8339229Y-10152460D02*
X8348753Y-10142936D01*
X8348753Y-10142936D02*
X8348753Y-10161984D01*
X8472563Y-10047698D02*
X8453515Y-10038174D01*
X8453515Y-10038174D02*
X8443991Y-10028650D01*
X8443991Y-10028650D02*
X8434467Y-10009603D01*
X8434467Y-10009603D02*
X8434467Y-10000079D01*
X8434467Y-10000079D02*
X8443991Y-9981031D01*
X8443991Y-9981031D02*
X8453515Y-9971508D01*
X8453515Y-9971508D02*
X8472563Y-9961984D01*
X8472563Y-9961984D02*
X8510658Y-9961984D01*
X8510658Y-9961984D02*
X8529705Y-9971508D01*
X8529705Y-9971508D02*
X8539229Y-9981031D01*
X8539229Y-9981031D02*
X8548753Y-10000079D01*
X8548753Y-10000079D02*
X8548753Y-10009603D01*
X8548753Y-10009603D02*
X8539229Y-10028650D01*
X8539229Y-10028650D02*
X8529705Y-10038174D01*
X8529705Y-10038174D02*
X8510658Y-10047698D01*
X8510658Y-10047698D02*
X8472563Y-10047698D01*
X8472563Y-10047698D02*
X8453515Y-10057222D01*
X8453515Y-10057222D02*
X8443991Y-10066746D01*
X8443991Y-10066746D02*
X8434467Y-10085793D01*
X8434467Y-10085793D02*
X8434467Y-10123889D01*
X8434467Y-10123889D02*
X8443991Y-10142936D01*
X8443991Y-10142936D02*
X8453515Y-10152460D01*
X8453515Y-10152460D02*
X8472563Y-10161984D01*
X8472563Y-10161984D02*
X8510658Y-10161984D01*
X8510658Y-10161984D02*
X8529705Y-10152460D01*
X8529705Y-10152460D02*
X8539229Y-10142936D01*
X8539229Y-10142936D02*
X8548753Y-10123889D01*
X8548753Y-10123889D02*
X8548753Y-10085793D01*
X8548753Y-10085793D02*
X8539229Y-10066746D01*
X8539229Y-10066746D02*
X8529705Y-10057222D01*
X8529705Y-10057222D02*
X8510658Y-10047698D01*
X8672563Y-9961984D02*
X8691610Y-9961984D01*
X8691610Y-9961984D02*
X8710658Y-9971508D01*
X8710658Y-9971508D02*
X8720182Y-9981031D01*
X8720182Y-9981031D02*
X8729705Y-10000079D01*
X8729705Y-10000079D02*
X8739229Y-10038174D01*
X8739229Y-10038174D02*
X8739229Y-10085793D01*
X8739229Y-10085793D02*
X8729705Y-10123889D01*
X8729705Y-10123889D02*
X8720182Y-10142936D01*
X8720182Y-10142936D02*
X8710658Y-10152460D01*
X8710658Y-10152460D02*
X8691610Y-10161984D01*
X8691610Y-10161984D02*
X8672563Y-10161984D01*
X8672563Y-10161984D02*
X8653515Y-10152460D01*
X8653515Y-10152460D02*
X8643991Y-10142936D01*
X8643991Y-10142936D02*
X8634467Y-10123889D01*
X8634467Y-10123889D02*
X8624944Y-10085793D01*
X8624944Y-10085793D02*
X8624944Y-10038174D01*
X8624944Y-10038174D02*
X8634467Y-10000079D01*
X8634467Y-10000079D02*
X8643991Y-9981031D01*
X8643991Y-9981031D02*
X8653515Y-9971508D01*
X8653515Y-9971508D02*
X8672563Y-9961984D01*
X8863039Y-9961984D02*
X8882086Y-9961984D01*
X8882086Y-9961984D02*
X8901134Y-9971508D01*
X8901134Y-9971508D02*
X8910658Y-9981031D01*
X8910658Y-9981031D02*
X8920182Y-10000079D01*
X8920182Y-10000079D02*
X8929705Y-10038174D01*
X8929705Y-10038174D02*
X8929705Y-10085793D01*
X8929705Y-10085793D02*
X8920182Y-10123889D01*
X8920182Y-10123889D02*
X8910658Y-10142936D01*
X8910658Y-10142936D02*
X8901134Y-10152460D01*
X8901134Y-10152460D02*
X8882086Y-10161984D01*
X8882086Y-10161984D02*
X8863039Y-10161984D01*
X8863039Y-10161984D02*
X8843991Y-10152460D01*
X8843991Y-10152460D02*
X8834467Y-10142936D01*
X8834467Y-10142936D02*
X8824944Y-10123889D01*
X8824944Y-10123889D02*
X8815420Y-10085793D01*
X8815420Y-10085793D02*
X8815420Y-10038174D01*
X8815420Y-10038174D02*
X8824944Y-10000079D01*
X8824944Y-10000079D02*
X8834467Y-9981031D01*
X8834467Y-9981031D02*
X8843991Y-9971508D01*
X8843991Y-9971508D02*
X8863039Y-9961984D01*
X9015420Y-10161984D02*
X9015420Y-10028650D01*
X9015420Y-10047698D02*
X9024944Y-10038174D01*
X9024944Y-10038174D02*
X9043991Y-10028650D01*
X9043991Y-10028650D02*
X9072563Y-10028650D01*
X9072563Y-10028650D02*
X9091610Y-10038174D01*
X9091610Y-10038174D02*
X9101134Y-10057222D01*
X9101134Y-10057222D02*
X9101134Y-10161984D01*
X9101134Y-10057222D02*
X9110658Y-10038174D01*
X9110658Y-10038174D02*
X9129705Y-10028650D01*
X9129705Y-10028650D02*
X9158277Y-10028650D01*
X9158277Y-10028650D02*
X9177325Y-10038174D01*
X9177325Y-10038174D02*
X9186848Y-10057222D01*
X9186848Y-10057222D02*
X9186848Y-10161984D01*
X9282086Y-10161984D02*
X9282086Y-10028650D01*
X9282086Y-10047698D02*
X9291610Y-10038174D01*
X9291610Y-10038174D02*
X9310658Y-10028650D01*
X9310658Y-10028650D02*
X9339229Y-10028650D01*
X9339229Y-10028650D02*
X9358277Y-10038174D01*
X9358277Y-10038174D02*
X9367801Y-10057222D01*
X9367801Y-10057222D02*
X9367801Y-10161984D01*
X9367801Y-10057222D02*
X9377325Y-10038174D01*
X9377325Y-10038174D02*
X9396372Y-10028650D01*
X9396372Y-10028650D02*
X9424944Y-10028650D01*
X9424944Y-10028650D02*
X9443991Y-10038174D01*
X9443991Y-10038174D02*
X9453515Y-10057222D01*
X9453515Y-10057222D02*
X9453515Y-10161984D01*
X9843991Y-9952460D02*
X9672563Y-10209603D01*
X10101134Y-9961984D02*
X10120182Y-9961984D01*
X10120182Y-9961984D02*
X10139229Y-9971508D01*
X10139229Y-9971508D02*
X10148753Y-9981031D01*
X10148753Y-9981031D02*
X10158277Y-10000079D01*
X10158277Y-10000079D02*
X10167801Y-10038174D01*
X10167801Y-10038174D02*
X10167801Y-10085793D01*
X10167801Y-10085793D02*
X10158277Y-10123889D01*
X10158277Y-10123889D02*
X10148753Y-10142936D01*
X10148753Y-10142936D02*
X10139229Y-10152460D01*
X10139229Y-10152460D02*
X10120182Y-10161984D01*
X10120182Y-10161984D02*
X10101134Y-10161984D01*
X10101134Y-10161984D02*
X10082087Y-10152460D01*
X10082087Y-10152460D02*
X10072563Y-10142936D01*
X10072563Y-10142936D02*
X10063039Y-10123889D01*
X10063039Y-10123889D02*
X10053515Y-10085793D01*
X10053515Y-10085793D02*
X10053515Y-10038174D01*
X10053515Y-10038174D02*
X10063039Y-10000079D01*
X10063039Y-10000079D02*
X10072563Y-9981031D01*
X10072563Y-9981031D02*
X10082087Y-9971508D01*
X10082087Y-9971508D02*
X10101134Y-9961984D01*
X10253515Y-10142936D02*
X10263039Y-10152460D01*
X10263039Y-10152460D02*
X10253515Y-10161984D01*
X10253515Y-10161984D02*
X10243991Y-10152460D01*
X10243991Y-10152460D02*
X10253515Y-10142936D01*
X10253515Y-10142936D02*
X10253515Y-10161984D01*
X10386848Y-9961984D02*
X10405896Y-9961984D01*
X10405896Y-9961984D02*
X10424944Y-9971508D01*
X10424944Y-9971508D02*
X10434468Y-9981031D01*
X10434468Y-9981031D02*
X10443991Y-10000079D01*
X10443991Y-10000079D02*
X10453515Y-10038174D01*
X10453515Y-10038174D02*
X10453515Y-10085793D01*
X10453515Y-10085793D02*
X10443991Y-10123889D01*
X10443991Y-10123889D02*
X10434468Y-10142936D01*
X10434468Y-10142936D02*
X10424944Y-10152460D01*
X10424944Y-10152460D02*
X10405896Y-10161984D01*
X10405896Y-10161984D02*
X10386848Y-10161984D01*
X10386848Y-10161984D02*
X10367801Y-10152460D01*
X10367801Y-10152460D02*
X10358277Y-10142936D01*
X10358277Y-10142936D02*
X10348753Y-10123889D01*
X10348753Y-10123889D02*
X10339229Y-10085793D01*
X10339229Y-10085793D02*
X10339229Y-10038174D01*
X10339229Y-10038174D02*
X10348753Y-10000079D01*
X10348753Y-10000079D02*
X10358277Y-9981031D01*
X10358277Y-9981031D02*
X10367801Y-9971508D01*
X10367801Y-9971508D02*
X10386848Y-9961984D01*
X10520182Y-9961984D02*
X10643991Y-9961984D01*
X10643991Y-9961984D02*
X10577325Y-10038174D01*
X10577325Y-10038174D02*
X10605896Y-10038174D01*
X10605896Y-10038174D02*
X10624944Y-10047698D01*
X10624944Y-10047698D02*
X10634468Y-10057222D01*
X10634468Y-10057222D02*
X10643991Y-10076270D01*
X10643991Y-10076270D02*
X10643991Y-10123889D01*
X10643991Y-10123889D02*
X10634468Y-10142936D01*
X10634468Y-10142936D02*
X10624944Y-10152460D01*
X10624944Y-10152460D02*
X10605896Y-10161984D01*
X10605896Y-10161984D02*
X10548753Y-10161984D01*
X10548753Y-10161984D02*
X10529706Y-10152460D01*
X10529706Y-10152460D02*
X10520182Y-10142936D01*
X10834468Y-10161984D02*
X10720182Y-10161984D01*
X10777325Y-10161984D02*
X10777325Y-9961984D01*
X10777325Y-9961984D02*
X10758277Y-9990555D01*
X10758277Y-9990555D02*
X10739229Y-10009603D01*
X10739229Y-10009603D02*
X10720182Y-10019127D01*
X11015420Y-9961984D02*
X10920182Y-9961984D01*
X10920182Y-9961984D02*
X10910658Y-10057222D01*
X10910658Y-10057222D02*
X10920182Y-10047698D01*
X10920182Y-10047698D02*
X10939229Y-10038174D01*
X10939229Y-10038174D02*
X10986849Y-10038174D01*
X10986849Y-10038174D02*
X11005896Y-10047698D01*
X11005896Y-10047698D02*
X11015420Y-10057222D01*
X11015420Y-10057222D02*
X11024944Y-10076270D01*
X11024944Y-10076270D02*
X11024944Y-10123889D01*
X11024944Y-10123889D02*
X11015420Y-10142936D01*
X11015420Y-10142936D02*
X11005896Y-10152460D01*
X11005896Y-10152460D02*
X10986849Y-10161984D01*
X10986849Y-10161984D02*
X10939229Y-10161984D01*
X10939229Y-10161984D02*
X10920182Y-10152460D01*
X10920182Y-10152460D02*
X10910658Y-10142936D01*
X11101134Y-9961984D02*
X11101134Y-10000079D01*
X11177325Y-9961984D02*
X11177325Y-10000079D01*
X11472563Y-10238174D02*
X11463039Y-10228650D01*
X11463039Y-10228650D02*
X11443991Y-10200079D01*
X11443991Y-10200079D02*
X11434468Y-10181031D01*
X11434468Y-10181031D02*
X11424944Y-10152460D01*
X11424944Y-10152460D02*
X11415420Y-10104841D01*
X11415420Y-10104841D02*
X11415420Y-10066746D01*
X11415420Y-10066746D02*
X11424944Y-10019127D01*
X11424944Y-10019127D02*
X11434468Y-9990555D01*
X11434468Y-9990555D02*
X11443991Y-9971508D01*
X11443991Y-9971508D02*
X11463039Y-9942936D01*
X11463039Y-9942936D02*
X11472563Y-9933412D01*
X11653515Y-10161984D02*
X11539229Y-10161984D01*
X11596372Y-10161984D02*
X11596372Y-9961984D01*
X11596372Y-9961984D02*
X11577325Y-9990555D01*
X11577325Y-9990555D02*
X11558277Y-10009603D01*
X11558277Y-10009603D02*
X11539229Y-10019127D01*
X11824944Y-10028650D02*
X11824944Y-10161984D01*
X11777325Y-9952460D02*
X11729706Y-10095317D01*
X11729706Y-10095317D02*
X11853515Y-10095317D01*
X12082087Y-10161984D02*
X12082087Y-9961984D01*
X12167801Y-10161984D02*
X12167801Y-10057222D01*
X12167801Y-10057222D02*
X12158277Y-10038174D01*
X12158277Y-10038174D02*
X12139230Y-10028650D01*
X12139230Y-10028650D02*
X12110658Y-10028650D01*
X12110658Y-10028650D02*
X12091610Y-10038174D01*
X12091610Y-10038174D02*
X12082087Y-10047698D01*
X12291610Y-10161984D02*
X12272563Y-10152460D01*
X12272563Y-10152460D02*
X12263039Y-10142936D01*
X12263039Y-10142936D02*
X12253515Y-10123889D01*
X12253515Y-10123889D02*
X12253515Y-10066746D01*
X12253515Y-10066746D02*
X12263039Y-10047698D01*
X12263039Y-10047698D02*
X12272563Y-10038174D01*
X12272563Y-10038174D02*
X12291610Y-10028650D01*
X12291610Y-10028650D02*
X12320182Y-10028650D01*
X12320182Y-10028650D02*
X12339230Y-10038174D01*
X12339230Y-10038174D02*
X12348753Y-10047698D01*
X12348753Y-10047698D02*
X12358277Y-10066746D01*
X12358277Y-10066746D02*
X12358277Y-10123889D01*
X12358277Y-10123889D02*
X12348753Y-10142936D01*
X12348753Y-10142936D02*
X12339230Y-10152460D01*
X12339230Y-10152460D02*
X12320182Y-10161984D01*
X12320182Y-10161984D02*
X12291610Y-10161984D01*
X12472563Y-10161984D02*
X12453515Y-10152460D01*
X12453515Y-10152460D02*
X12443991Y-10133412D01*
X12443991Y-10133412D02*
X12443991Y-9961984D01*
X12624944Y-10152460D02*
X12605896Y-10161984D01*
X12605896Y-10161984D02*
X12567801Y-10161984D01*
X12567801Y-10161984D02*
X12548753Y-10152460D01*
X12548753Y-10152460D02*
X12539230Y-10133412D01*
X12539230Y-10133412D02*
X12539230Y-10057222D01*
X12539230Y-10057222D02*
X12548753Y-10038174D01*
X12548753Y-10038174D02*
X12567801Y-10028650D01*
X12567801Y-10028650D02*
X12605896Y-10028650D01*
X12605896Y-10028650D02*
X12624944Y-10038174D01*
X12624944Y-10038174D02*
X12634468Y-10057222D01*
X12634468Y-10057222D02*
X12634468Y-10076270D01*
X12634468Y-10076270D02*
X12539230Y-10095317D01*
X12710658Y-10152460D02*
X12729706Y-10161984D01*
X12729706Y-10161984D02*
X12767801Y-10161984D01*
X12767801Y-10161984D02*
X12786849Y-10152460D01*
X12786849Y-10152460D02*
X12796372Y-10133412D01*
X12796372Y-10133412D02*
X12796372Y-10123889D01*
X12796372Y-10123889D02*
X12786849Y-10104841D01*
X12786849Y-10104841D02*
X12767801Y-10095317D01*
X12767801Y-10095317D02*
X12739230Y-10095317D01*
X12739230Y-10095317D02*
X12720182Y-10085793D01*
X12720182Y-10085793D02*
X12710658Y-10066746D01*
X12710658Y-10066746D02*
X12710658Y-10057222D01*
X12710658Y-10057222D02*
X12720182Y-10038174D01*
X12720182Y-10038174D02*
X12739230Y-10028650D01*
X12739230Y-10028650D02*
X12767801Y-10028650D01*
X12767801Y-10028650D02*
X12786849Y-10038174D01*
X12863039Y-10238174D02*
X12872563Y-10228650D01*
X12872563Y-10228650D02*
X12891611Y-10200079D01*
X12891611Y-10200079D02*
X12901134Y-10181031D01*
X12901134Y-10181031D02*
X12910658Y-10152460D01*
X12910658Y-10152460D02*
X12920182Y-10104841D01*
X12920182Y-10104841D02*
X12920182Y-10066746D01*
X12920182Y-10066746D02*
X12910658Y-10019127D01*
X12910658Y-10019127D02*
X12901134Y-9990555D01*
X12901134Y-9990555D02*
X12891611Y-9971508D01*
X12891611Y-9971508D02*
X12872563Y-9942936D01*
X12872563Y-9942936D02*
X12863039Y-9933412D01*
D12*
X7884320Y-10366320D02*
X7884320Y-10302680D01*
X7820680Y-10302680D01*
X7820680Y-10366320D01*
X7884320Y-10366320D01*
D11*
X8196372Y-10225984D02*
X8215420Y-10225984D01*
X8215420Y-10225984D02*
X8234467Y-10235508D01*
X8234467Y-10235508D02*
X8243991Y-10245031D01*
X8243991Y-10245031D02*
X8253515Y-10264079D01*
X8253515Y-10264079D02*
X8263039Y-10302174D01*
X8263039Y-10302174D02*
X8263039Y-10349793D01*
X8263039Y-10349793D02*
X8253515Y-10387889D01*
X8253515Y-10387889D02*
X8243991Y-10406936D01*
X8243991Y-10406936D02*
X8234467Y-10416460D01*
X8234467Y-10416460D02*
X8215420Y-10425984D01*
X8215420Y-10425984D02*
X8196372Y-10425984D01*
X8196372Y-10425984D02*
X8177324Y-10416460D01*
X8177324Y-10416460D02*
X8167801Y-10406936D01*
X8167801Y-10406936D02*
X8158277Y-10387889D01*
X8158277Y-10387889D02*
X8148753Y-10349793D01*
X8148753Y-10349793D02*
X8148753Y-10302174D01*
X8148753Y-10302174D02*
X8158277Y-10264079D01*
X8158277Y-10264079D02*
X8167801Y-10245031D01*
X8167801Y-10245031D02*
X8177324Y-10235508D01*
X8177324Y-10235508D02*
X8196372Y-10225984D01*
X8348753Y-10406936D02*
X8358277Y-10416460D01*
X8358277Y-10416460D02*
X8348753Y-10425984D01*
X8348753Y-10425984D02*
X8339229Y-10416460D01*
X8339229Y-10416460D02*
X8348753Y-10406936D01*
X8348753Y-10406936D02*
X8348753Y-10425984D01*
X8453515Y-10425984D02*
X8491610Y-10425984D01*
X8491610Y-10425984D02*
X8510658Y-10416460D01*
X8510658Y-10416460D02*
X8520182Y-10406936D01*
X8520182Y-10406936D02*
X8539229Y-10378365D01*
X8539229Y-10378365D02*
X8548753Y-10340270D01*
X8548753Y-10340270D02*
X8548753Y-10264079D01*
X8548753Y-10264079D02*
X8539229Y-10245031D01*
X8539229Y-10245031D02*
X8529705Y-10235508D01*
X8529705Y-10235508D02*
X8510658Y-10225984D01*
X8510658Y-10225984D02*
X8472563Y-10225984D01*
X8472563Y-10225984D02*
X8453515Y-10235508D01*
X8453515Y-10235508D02*
X8443991Y-10245031D01*
X8443991Y-10245031D02*
X8434467Y-10264079D01*
X8434467Y-10264079D02*
X8434467Y-10311698D01*
X8434467Y-10311698D02*
X8443991Y-10330746D01*
X8443991Y-10330746D02*
X8453515Y-10340270D01*
X8453515Y-10340270D02*
X8472563Y-10349793D01*
X8472563Y-10349793D02*
X8510658Y-10349793D01*
X8510658Y-10349793D02*
X8529705Y-10340270D01*
X8529705Y-10340270D02*
X8539229Y-10330746D01*
X8539229Y-10330746D02*
X8548753Y-10311698D01*
X8672563Y-10225984D02*
X8691610Y-10225984D01*
X8691610Y-10225984D02*
X8710658Y-10235508D01*
X8710658Y-10235508D02*
X8720182Y-10245031D01*
X8720182Y-10245031D02*
X8729705Y-10264079D01*
X8729705Y-10264079D02*
X8739229Y-10302174D01*
X8739229Y-10302174D02*
X8739229Y-10349793D01*
X8739229Y-10349793D02*
X8729705Y-10387889D01*
X8729705Y-10387889D02*
X8720182Y-10406936D01*
X8720182Y-10406936D02*
X8710658Y-10416460D01*
X8710658Y-10416460D02*
X8691610Y-10425984D01*
X8691610Y-10425984D02*
X8672563Y-10425984D01*
X8672563Y-10425984D02*
X8653515Y-10416460D01*
X8653515Y-10416460D02*
X8643991Y-10406936D01*
X8643991Y-10406936D02*
X8634467Y-10387889D01*
X8634467Y-10387889D02*
X8624944Y-10349793D01*
X8624944Y-10349793D02*
X8624944Y-10302174D01*
X8624944Y-10302174D02*
X8634467Y-10264079D01*
X8634467Y-10264079D02*
X8643991Y-10245031D01*
X8643991Y-10245031D02*
X8653515Y-10235508D01*
X8653515Y-10235508D02*
X8672563Y-10225984D01*
X8863039Y-10225984D02*
X8882086Y-10225984D01*
X8882086Y-10225984D02*
X8901134Y-10235508D01*
X8901134Y-10235508D02*
X8910658Y-10245031D01*
X8910658Y-10245031D02*
X8920182Y-10264079D01*
X8920182Y-10264079D02*
X8929705Y-10302174D01*
X8929705Y-10302174D02*
X8929705Y-10349793D01*
X8929705Y-10349793D02*
X8920182Y-10387889D01*
X8920182Y-10387889D02*
X8910658Y-10406936D01*
X8910658Y-10406936D02*
X8901134Y-10416460D01*
X8901134Y-10416460D02*
X8882086Y-10425984D01*
X8882086Y-10425984D02*
X8863039Y-10425984D01*
X8863039Y-10425984D02*
X8843991Y-10416460D01*
X8843991Y-10416460D02*
X8834467Y-10406936D01*
X8834467Y-10406936D02*
X8824944Y-10387889D01*
X8824944Y-10387889D02*
X8815420Y-10349793D01*
X8815420Y-10349793D02*
X8815420Y-10302174D01*
X8815420Y-10302174D02*
X8824944Y-10264079D01*
X8824944Y-10264079D02*
X8834467Y-10245031D01*
X8834467Y-10245031D02*
X8843991Y-10235508D01*
X8843991Y-10235508D02*
X8863039Y-10225984D01*
X9015420Y-10425984D02*
X9015420Y-10292650D01*
X9015420Y-10311698D02*
X9024944Y-10302174D01*
X9024944Y-10302174D02*
X9043991Y-10292650D01*
X9043991Y-10292650D02*
X9072563Y-10292650D01*
X9072563Y-10292650D02*
X9091610Y-10302174D01*
X9091610Y-10302174D02*
X9101134Y-10321222D01*
X9101134Y-10321222D02*
X9101134Y-10425984D01*
X9101134Y-10321222D02*
X9110658Y-10302174D01*
X9110658Y-10302174D02*
X9129705Y-10292650D01*
X9129705Y-10292650D02*
X9158277Y-10292650D01*
X9158277Y-10292650D02*
X9177325Y-10302174D01*
X9177325Y-10302174D02*
X9186848Y-10321222D01*
X9186848Y-10321222D02*
X9186848Y-10425984D01*
X9282086Y-10425984D02*
X9282086Y-10292650D01*
X9282086Y-10311698D02*
X9291610Y-10302174D01*
X9291610Y-10302174D02*
X9310658Y-10292650D01*
X9310658Y-10292650D02*
X9339229Y-10292650D01*
X9339229Y-10292650D02*
X9358277Y-10302174D01*
X9358277Y-10302174D02*
X9367801Y-10321222D01*
X9367801Y-10321222D02*
X9367801Y-10425984D01*
X9367801Y-10321222D02*
X9377325Y-10302174D01*
X9377325Y-10302174D02*
X9396372Y-10292650D01*
X9396372Y-10292650D02*
X9424944Y-10292650D01*
X9424944Y-10292650D02*
X9443991Y-10302174D01*
X9443991Y-10302174D02*
X9453515Y-10321222D01*
X9453515Y-10321222D02*
X9453515Y-10425984D01*
X9843991Y-10216460D02*
X9672563Y-10473603D01*
X10101134Y-10225984D02*
X10120182Y-10225984D01*
X10120182Y-10225984D02*
X10139229Y-10235508D01*
X10139229Y-10235508D02*
X10148753Y-10245031D01*
X10148753Y-10245031D02*
X10158277Y-10264079D01*
X10158277Y-10264079D02*
X10167801Y-10302174D01*
X10167801Y-10302174D02*
X10167801Y-10349793D01*
X10167801Y-10349793D02*
X10158277Y-10387889D01*
X10158277Y-10387889D02*
X10148753Y-10406936D01*
X10148753Y-10406936D02*
X10139229Y-10416460D01*
X10139229Y-10416460D02*
X10120182Y-10425984D01*
X10120182Y-10425984D02*
X10101134Y-10425984D01*
X10101134Y-10425984D02*
X10082087Y-10416460D01*
X10082087Y-10416460D02*
X10072563Y-10406936D01*
X10072563Y-10406936D02*
X10063039Y-10387889D01*
X10063039Y-10387889D02*
X10053515Y-10349793D01*
X10053515Y-10349793D02*
X10053515Y-10302174D01*
X10053515Y-10302174D02*
X10063039Y-10264079D01*
X10063039Y-10264079D02*
X10072563Y-10245031D01*
X10072563Y-10245031D02*
X10082087Y-10235508D01*
X10082087Y-10235508D02*
X10101134Y-10225984D01*
X10253515Y-10406936D02*
X10263039Y-10416460D01*
X10263039Y-10416460D02*
X10253515Y-10425984D01*
X10253515Y-10425984D02*
X10243991Y-10416460D01*
X10243991Y-10416460D02*
X10253515Y-10406936D01*
X10253515Y-10406936D02*
X10253515Y-10425984D01*
X10386848Y-10225984D02*
X10405896Y-10225984D01*
X10405896Y-10225984D02*
X10424944Y-10235508D01*
X10424944Y-10235508D02*
X10434468Y-10245031D01*
X10434468Y-10245031D02*
X10443991Y-10264079D01*
X10443991Y-10264079D02*
X10453515Y-10302174D01*
X10453515Y-10302174D02*
X10453515Y-10349793D01*
X10453515Y-10349793D02*
X10443991Y-10387889D01*
X10443991Y-10387889D02*
X10434468Y-10406936D01*
X10434468Y-10406936D02*
X10424944Y-10416460D01*
X10424944Y-10416460D02*
X10405896Y-10425984D01*
X10405896Y-10425984D02*
X10386848Y-10425984D01*
X10386848Y-10425984D02*
X10367801Y-10416460D01*
X10367801Y-10416460D02*
X10358277Y-10406936D01*
X10358277Y-10406936D02*
X10348753Y-10387889D01*
X10348753Y-10387889D02*
X10339229Y-10349793D01*
X10339229Y-10349793D02*
X10339229Y-10302174D01*
X10339229Y-10302174D02*
X10348753Y-10264079D01*
X10348753Y-10264079D02*
X10358277Y-10245031D01*
X10358277Y-10245031D02*
X10367801Y-10235508D01*
X10367801Y-10235508D02*
X10386848Y-10225984D01*
X10520182Y-10225984D02*
X10643991Y-10225984D01*
X10643991Y-10225984D02*
X10577325Y-10302174D01*
X10577325Y-10302174D02*
X10605896Y-10302174D01*
X10605896Y-10302174D02*
X10624944Y-10311698D01*
X10624944Y-10311698D02*
X10634468Y-10321222D01*
X10634468Y-10321222D02*
X10643991Y-10340270D01*
X10643991Y-10340270D02*
X10643991Y-10387889D01*
X10643991Y-10387889D02*
X10634468Y-10406936D01*
X10634468Y-10406936D02*
X10624944Y-10416460D01*
X10624944Y-10416460D02*
X10605896Y-10425984D01*
X10605896Y-10425984D02*
X10548753Y-10425984D01*
X10548753Y-10425984D02*
X10529706Y-10416460D01*
X10529706Y-10416460D02*
X10520182Y-10406936D01*
X10824944Y-10225984D02*
X10729706Y-10225984D01*
X10729706Y-10225984D02*
X10720182Y-10321222D01*
X10720182Y-10321222D02*
X10729706Y-10311698D01*
X10729706Y-10311698D02*
X10748753Y-10302174D01*
X10748753Y-10302174D02*
X10796372Y-10302174D01*
X10796372Y-10302174D02*
X10815420Y-10311698D01*
X10815420Y-10311698D02*
X10824944Y-10321222D01*
X10824944Y-10321222D02*
X10834468Y-10340270D01*
X10834468Y-10340270D02*
X10834468Y-10387889D01*
X10834468Y-10387889D02*
X10824944Y-10406936D01*
X10824944Y-10406936D02*
X10815420Y-10416460D01*
X10815420Y-10416460D02*
X10796372Y-10425984D01*
X10796372Y-10425984D02*
X10748753Y-10425984D01*
X10748753Y-10425984D02*
X10729706Y-10416460D01*
X10729706Y-10416460D02*
X10720182Y-10406936D01*
X11005896Y-10292650D02*
X11005896Y-10425984D01*
X10958277Y-10216460D02*
X10910658Y-10359317D01*
X10910658Y-10359317D02*
X11034468Y-10359317D01*
X11101134Y-10225984D02*
X11101134Y-10264079D01*
X11177325Y-10225984D02*
X11177325Y-10264079D01*
X11472563Y-10502174D02*
X11463039Y-10492650D01*
X11463039Y-10492650D02*
X11443991Y-10464079D01*
X11443991Y-10464079D02*
X11434468Y-10445031D01*
X11434468Y-10445031D02*
X11424944Y-10416460D01*
X11424944Y-10416460D02*
X11415420Y-10368841D01*
X11415420Y-10368841D02*
X11415420Y-10330746D01*
X11415420Y-10330746D02*
X11424944Y-10283127D01*
X11424944Y-10283127D02*
X11434468Y-10254555D01*
X11434468Y-10254555D02*
X11443991Y-10235508D01*
X11443991Y-10235508D02*
X11463039Y-10206936D01*
X11463039Y-10206936D02*
X11472563Y-10197412D01*
X11634468Y-10292650D02*
X11634468Y-10425984D01*
X11586848Y-10216460D02*
X11539229Y-10359317D01*
X11539229Y-10359317D02*
X11663039Y-10359317D01*
X11767801Y-10311698D02*
X11748753Y-10302174D01*
X11748753Y-10302174D02*
X11739229Y-10292650D01*
X11739229Y-10292650D02*
X11729706Y-10273603D01*
X11729706Y-10273603D02*
X11729706Y-10264079D01*
X11729706Y-10264079D02*
X11739229Y-10245031D01*
X11739229Y-10245031D02*
X11748753Y-10235508D01*
X11748753Y-10235508D02*
X11767801Y-10225984D01*
X11767801Y-10225984D02*
X11805896Y-10225984D01*
X11805896Y-10225984D02*
X11824944Y-10235508D01*
X11824944Y-10235508D02*
X11834468Y-10245031D01*
X11834468Y-10245031D02*
X11843991Y-10264079D01*
X11843991Y-10264079D02*
X11843991Y-10273603D01*
X11843991Y-10273603D02*
X11834468Y-10292650D01*
X11834468Y-10292650D02*
X11824944Y-10302174D01*
X11824944Y-10302174D02*
X11805896Y-10311698D01*
X11805896Y-10311698D02*
X11767801Y-10311698D01*
X11767801Y-10311698D02*
X11748753Y-10321222D01*
X11748753Y-10321222D02*
X11739229Y-10330746D01*
X11739229Y-10330746D02*
X11729706Y-10349793D01*
X11729706Y-10349793D02*
X11729706Y-10387889D01*
X11729706Y-10387889D02*
X11739229Y-10406936D01*
X11739229Y-10406936D02*
X11748753Y-10416460D01*
X11748753Y-10416460D02*
X11767801Y-10425984D01*
X11767801Y-10425984D02*
X11805896Y-10425984D01*
X11805896Y-10425984D02*
X11824944Y-10416460D01*
X11824944Y-10416460D02*
X11834468Y-10406936D01*
X11834468Y-10406936D02*
X11843991Y-10387889D01*
X11843991Y-10387889D02*
X11843991Y-10349793D01*
X11843991Y-10349793D02*
X11834468Y-10330746D01*
X11834468Y-10330746D02*
X11824944Y-10321222D01*
X11824944Y-10321222D02*
X11805896Y-10311698D01*
X12082087Y-10425984D02*
X12082087Y-10225984D01*
X12167801Y-10425984D02*
X12167801Y-10321222D01*
X12167801Y-10321222D02*
X12158277Y-10302174D01*
X12158277Y-10302174D02*
X12139230Y-10292650D01*
X12139230Y-10292650D02*
X12110658Y-10292650D01*
X12110658Y-10292650D02*
X12091610Y-10302174D01*
X12091610Y-10302174D02*
X12082087Y-10311698D01*
X12291610Y-10425984D02*
X12272563Y-10416460D01*
X12272563Y-10416460D02*
X12263039Y-10406936D01*
X12263039Y-10406936D02*
X12253515Y-10387889D01*
X12253515Y-10387889D02*
X12253515Y-10330746D01*
X12253515Y-10330746D02*
X12263039Y-10311698D01*
X12263039Y-10311698D02*
X12272563Y-10302174D01*
X12272563Y-10302174D02*
X12291610Y-10292650D01*
X12291610Y-10292650D02*
X12320182Y-10292650D01*
X12320182Y-10292650D02*
X12339230Y-10302174D01*
X12339230Y-10302174D02*
X12348753Y-10311698D01*
X12348753Y-10311698D02*
X12358277Y-10330746D01*
X12358277Y-10330746D02*
X12358277Y-10387889D01*
X12358277Y-10387889D02*
X12348753Y-10406936D01*
X12348753Y-10406936D02*
X12339230Y-10416460D01*
X12339230Y-10416460D02*
X12320182Y-10425984D01*
X12320182Y-10425984D02*
X12291610Y-10425984D01*
X12472563Y-10425984D02*
X12453515Y-10416460D01*
X12453515Y-10416460D02*
X12443991Y-10397412D01*
X12443991Y-10397412D02*
X12443991Y-10225984D01*
X12624944Y-10416460D02*
X12605896Y-10425984D01*
X12605896Y-10425984D02*
X12567801Y-10425984D01*
X12567801Y-10425984D02*
X12548753Y-10416460D01*
X12548753Y-10416460D02*
X12539230Y-10397412D01*
X12539230Y-10397412D02*
X12539230Y-10321222D01*
X12539230Y-10321222D02*
X12548753Y-10302174D01*
X12548753Y-10302174D02*
X12567801Y-10292650D01*
X12567801Y-10292650D02*
X12605896Y-10292650D01*
X12605896Y-10292650D02*
X12624944Y-10302174D01*
X12624944Y-10302174D02*
X12634468Y-10321222D01*
X12634468Y-10321222D02*
X12634468Y-10340270D01*
X12634468Y-10340270D02*
X12539230Y-10359317D01*
X12710658Y-10416460D02*
X12729706Y-10425984D01*
X12729706Y-10425984D02*
X12767801Y-10425984D01*
X12767801Y-10425984D02*
X12786849Y-10416460D01*
X12786849Y-10416460D02*
X12796372Y-10397412D01*
X12796372Y-10397412D02*
X12796372Y-10387889D01*
X12796372Y-10387889D02*
X12786849Y-10368841D01*
X12786849Y-10368841D02*
X12767801Y-10359317D01*
X12767801Y-10359317D02*
X12739230Y-10359317D01*
X12739230Y-10359317D02*
X12720182Y-10349793D01*
X12720182Y-10349793D02*
X12710658Y-10330746D01*
X12710658Y-10330746D02*
X12710658Y-10321222D01*
X12710658Y-10321222D02*
X12720182Y-10302174D01*
X12720182Y-10302174D02*
X12739230Y-10292650D01*
X12739230Y-10292650D02*
X12767801Y-10292650D01*
X12767801Y-10292650D02*
X12786849Y-10302174D01*
X12863039Y-10502174D02*
X12872563Y-10492650D01*
X12872563Y-10492650D02*
X12891611Y-10464079D01*
X12891611Y-10464079D02*
X12901134Y-10445031D01*
X12901134Y-10445031D02*
X12910658Y-10416460D01*
X12910658Y-10416460D02*
X12920182Y-10368841D01*
X12920182Y-10368841D02*
X12920182Y-10330746D01*
X12920182Y-10330746D02*
X12910658Y-10283127D01*
X12910658Y-10283127D02*
X12901134Y-10254555D01*
X12901134Y-10254555D02*
X12891611Y-10235508D01*
X12891611Y-10235508D02*
X12872563Y-10206936D01*
X12872563Y-10206936D02*
X12863039Y-10197412D01*
D13*
X7838000Y-10658000D02*
X7897500Y-10598500D01*
X7838000Y-10539000D01*
X7778500Y-10598500D01*
X7838000Y-10658000D01*
D11*
X8263039Y-10689984D02*
X8148753Y-10689984D01*
X8205896Y-10689984D02*
X8205896Y-10489984D01*
X8205896Y-10489984D02*
X8186848Y-10518555D01*
X8186848Y-10518555D02*
X8167801Y-10537603D01*
X8167801Y-10537603D02*
X8148753Y-10547127D01*
X8348753Y-10670936D02*
X8358277Y-10680460D01*
X8358277Y-10680460D02*
X8348753Y-10689984D01*
X8348753Y-10689984D02*
X8339229Y-10680460D01*
X8339229Y-10680460D02*
X8348753Y-10670936D01*
X8348753Y-10670936D02*
X8348753Y-10689984D01*
X8548753Y-10689984D02*
X8434467Y-10689984D01*
X8491610Y-10689984D02*
X8491610Y-10489984D01*
X8491610Y-10489984D02*
X8472563Y-10518555D01*
X8472563Y-10518555D02*
X8453515Y-10537603D01*
X8453515Y-10537603D02*
X8434467Y-10547127D01*
X8643991Y-10689984D02*
X8682086Y-10689984D01*
X8682086Y-10689984D02*
X8701134Y-10680460D01*
X8701134Y-10680460D02*
X8710658Y-10670936D01*
X8710658Y-10670936D02*
X8729705Y-10642365D01*
X8729705Y-10642365D02*
X8739229Y-10604270D01*
X8739229Y-10604270D02*
X8739229Y-10528079D01*
X8739229Y-10528079D02*
X8729705Y-10509031D01*
X8729705Y-10509031D02*
X8720182Y-10499508D01*
X8720182Y-10499508D02*
X8701134Y-10489984D01*
X8701134Y-10489984D02*
X8663039Y-10489984D01*
X8663039Y-10489984D02*
X8643991Y-10499508D01*
X8643991Y-10499508D02*
X8634467Y-10509031D01*
X8634467Y-10509031D02*
X8624944Y-10528079D01*
X8624944Y-10528079D02*
X8624944Y-10575698D01*
X8624944Y-10575698D02*
X8634467Y-10594746D01*
X8634467Y-10594746D02*
X8643991Y-10604270D01*
X8643991Y-10604270D02*
X8663039Y-10613793D01*
X8663039Y-10613793D02*
X8701134Y-10613793D01*
X8701134Y-10613793D02*
X8720182Y-10604270D01*
X8720182Y-10604270D02*
X8729705Y-10594746D01*
X8729705Y-10594746D02*
X8739229Y-10575698D01*
X8863039Y-10489984D02*
X8882086Y-10489984D01*
X8882086Y-10489984D02*
X8901134Y-10499508D01*
X8901134Y-10499508D02*
X8910658Y-10509031D01*
X8910658Y-10509031D02*
X8920182Y-10528079D01*
X8920182Y-10528079D02*
X8929705Y-10566174D01*
X8929705Y-10566174D02*
X8929705Y-10613793D01*
X8929705Y-10613793D02*
X8920182Y-10651889D01*
X8920182Y-10651889D02*
X8910658Y-10670936D01*
X8910658Y-10670936D02*
X8901134Y-10680460D01*
X8901134Y-10680460D02*
X8882086Y-10689984D01*
X8882086Y-10689984D02*
X8863039Y-10689984D01*
X8863039Y-10689984D02*
X8843991Y-10680460D01*
X8843991Y-10680460D02*
X8834467Y-10670936D01*
X8834467Y-10670936D02*
X8824944Y-10651889D01*
X8824944Y-10651889D02*
X8815420Y-10613793D01*
X8815420Y-10613793D02*
X8815420Y-10566174D01*
X8815420Y-10566174D02*
X8824944Y-10528079D01*
X8824944Y-10528079D02*
X8834467Y-10509031D01*
X8834467Y-10509031D02*
X8843991Y-10499508D01*
X8843991Y-10499508D02*
X8863039Y-10489984D01*
X9015420Y-10689984D02*
X9015420Y-10556650D01*
X9015420Y-10575698D02*
X9024944Y-10566174D01*
X9024944Y-10566174D02*
X9043991Y-10556650D01*
X9043991Y-10556650D02*
X9072563Y-10556650D01*
X9072563Y-10556650D02*
X9091610Y-10566174D01*
X9091610Y-10566174D02*
X9101134Y-10585222D01*
X9101134Y-10585222D02*
X9101134Y-10689984D01*
X9101134Y-10585222D02*
X9110658Y-10566174D01*
X9110658Y-10566174D02*
X9129705Y-10556650D01*
X9129705Y-10556650D02*
X9158277Y-10556650D01*
X9158277Y-10556650D02*
X9177325Y-10566174D01*
X9177325Y-10566174D02*
X9186848Y-10585222D01*
X9186848Y-10585222D02*
X9186848Y-10689984D01*
X9282086Y-10689984D02*
X9282086Y-10556650D01*
X9282086Y-10575698D02*
X9291610Y-10566174D01*
X9291610Y-10566174D02*
X9310658Y-10556650D01*
X9310658Y-10556650D02*
X9339229Y-10556650D01*
X9339229Y-10556650D02*
X9358277Y-10566174D01*
X9358277Y-10566174D02*
X9367801Y-10585222D01*
X9367801Y-10585222D02*
X9367801Y-10689984D01*
X9367801Y-10585222D02*
X9377325Y-10566174D01*
X9377325Y-10566174D02*
X9396372Y-10556650D01*
X9396372Y-10556650D02*
X9424944Y-10556650D01*
X9424944Y-10556650D02*
X9443991Y-10566174D01*
X9443991Y-10566174D02*
X9453515Y-10585222D01*
X9453515Y-10585222D02*
X9453515Y-10689984D01*
X9843991Y-10480460D02*
X9672563Y-10737603D01*
X10101134Y-10489984D02*
X10120182Y-10489984D01*
X10120182Y-10489984D02*
X10139229Y-10499508D01*
X10139229Y-10499508D02*
X10148753Y-10509031D01*
X10148753Y-10509031D02*
X10158277Y-10528079D01*
X10158277Y-10528079D02*
X10167801Y-10566174D01*
X10167801Y-10566174D02*
X10167801Y-10613793D01*
X10167801Y-10613793D02*
X10158277Y-10651889D01*
X10158277Y-10651889D02*
X10148753Y-10670936D01*
X10148753Y-10670936D02*
X10139229Y-10680460D01*
X10139229Y-10680460D02*
X10120182Y-10689984D01*
X10120182Y-10689984D02*
X10101134Y-10689984D01*
X10101134Y-10689984D02*
X10082087Y-10680460D01*
X10082087Y-10680460D02*
X10072563Y-10670936D01*
X10072563Y-10670936D02*
X10063039Y-10651889D01*
X10063039Y-10651889D02*
X10053515Y-10613793D01*
X10053515Y-10613793D02*
X10053515Y-10566174D01*
X10053515Y-10566174D02*
X10063039Y-10528079D01*
X10063039Y-10528079D02*
X10072563Y-10509031D01*
X10072563Y-10509031D02*
X10082087Y-10499508D01*
X10082087Y-10499508D02*
X10101134Y-10489984D01*
X10253515Y-10670936D02*
X10263039Y-10680460D01*
X10263039Y-10680460D02*
X10253515Y-10689984D01*
X10253515Y-10689984D02*
X10243991Y-10680460D01*
X10243991Y-10680460D02*
X10253515Y-10670936D01*
X10253515Y-10670936D02*
X10253515Y-10689984D01*
X10386848Y-10489984D02*
X10405896Y-10489984D01*
X10405896Y-10489984D02*
X10424944Y-10499508D01*
X10424944Y-10499508D02*
X10434468Y-10509031D01*
X10434468Y-10509031D02*
X10443991Y-10528079D01*
X10443991Y-10528079D02*
X10453515Y-10566174D01*
X10453515Y-10566174D02*
X10453515Y-10613793D01*
X10453515Y-10613793D02*
X10443991Y-10651889D01*
X10443991Y-10651889D02*
X10434468Y-10670936D01*
X10434468Y-10670936D02*
X10424944Y-10680460D01*
X10424944Y-10680460D02*
X10405896Y-10689984D01*
X10405896Y-10689984D02*
X10386848Y-10689984D01*
X10386848Y-10689984D02*
X10367801Y-10680460D01*
X10367801Y-10680460D02*
X10358277Y-10670936D01*
X10358277Y-10670936D02*
X10348753Y-10651889D01*
X10348753Y-10651889D02*
X10339229Y-10613793D01*
X10339229Y-10613793D02*
X10339229Y-10566174D01*
X10339229Y-10566174D02*
X10348753Y-10528079D01*
X10348753Y-10528079D02*
X10358277Y-10509031D01*
X10358277Y-10509031D02*
X10367801Y-10499508D01*
X10367801Y-10499508D02*
X10386848Y-10489984D01*
X10624944Y-10556650D02*
X10624944Y-10689984D01*
X10577325Y-10480460D02*
X10529706Y-10623317D01*
X10529706Y-10623317D02*
X10653515Y-10623317D01*
X10815420Y-10489984D02*
X10777325Y-10489984D01*
X10777325Y-10489984D02*
X10758277Y-10499508D01*
X10758277Y-10499508D02*
X10748753Y-10509031D01*
X10748753Y-10509031D02*
X10729706Y-10537603D01*
X10729706Y-10537603D02*
X10720182Y-10575698D01*
X10720182Y-10575698D02*
X10720182Y-10651889D01*
X10720182Y-10651889D02*
X10729706Y-10670936D01*
X10729706Y-10670936D02*
X10739229Y-10680460D01*
X10739229Y-10680460D02*
X10758277Y-10689984D01*
X10758277Y-10689984D02*
X10796372Y-10689984D01*
X10796372Y-10689984D02*
X10815420Y-10680460D01*
X10815420Y-10680460D02*
X10824944Y-10670936D01*
X10824944Y-10670936D02*
X10834468Y-10651889D01*
X10834468Y-10651889D02*
X10834468Y-10604270D01*
X10834468Y-10604270D02*
X10824944Y-10585222D01*
X10824944Y-10585222D02*
X10815420Y-10575698D01*
X10815420Y-10575698D02*
X10796372Y-10566174D01*
X10796372Y-10566174D02*
X10758277Y-10566174D01*
X10758277Y-10566174D02*
X10739229Y-10575698D01*
X10739229Y-10575698D02*
X10729706Y-10585222D01*
X10729706Y-10585222D02*
X10720182Y-10604270D01*
X10929706Y-10689984D02*
X10967801Y-10689984D01*
X10967801Y-10689984D02*
X10986849Y-10680460D01*
X10986849Y-10680460D02*
X10996372Y-10670936D01*
X10996372Y-10670936D02*
X11015420Y-10642365D01*
X11015420Y-10642365D02*
X11024944Y-10604270D01*
X11024944Y-10604270D02*
X11024944Y-10528079D01*
X11024944Y-10528079D02*
X11015420Y-10509031D01*
X11015420Y-10509031D02*
X11005896Y-10499508D01*
X11005896Y-10499508D02*
X10986849Y-10489984D01*
X10986849Y-10489984D02*
X10948753Y-10489984D01*
X10948753Y-10489984D02*
X10929706Y-10499508D01*
X10929706Y-10499508D02*
X10920182Y-10509031D01*
X10920182Y-10509031D02*
X10910658Y-10528079D01*
X10910658Y-10528079D02*
X10910658Y-10575698D01*
X10910658Y-10575698D02*
X10920182Y-10594746D01*
X10920182Y-10594746D02*
X10929706Y-10604270D01*
X10929706Y-10604270D02*
X10948753Y-10613793D01*
X10948753Y-10613793D02*
X10986849Y-10613793D01*
X10986849Y-10613793D02*
X11005896Y-10604270D01*
X11005896Y-10604270D02*
X11015420Y-10594746D01*
X11015420Y-10594746D02*
X11024944Y-10575698D01*
X11101134Y-10489984D02*
X11101134Y-10528079D01*
X11177325Y-10489984D02*
X11177325Y-10528079D01*
X11472563Y-10766174D02*
X11463039Y-10756650D01*
X11463039Y-10756650D02*
X11443991Y-10728079D01*
X11443991Y-10728079D02*
X11434468Y-10709031D01*
X11434468Y-10709031D02*
X11424944Y-10680460D01*
X11424944Y-10680460D02*
X11415420Y-10632841D01*
X11415420Y-10632841D02*
X11415420Y-10594746D01*
X11415420Y-10594746D02*
X11424944Y-10547127D01*
X11424944Y-10547127D02*
X11434468Y-10518555D01*
X11434468Y-10518555D02*
X11443991Y-10499508D01*
X11443991Y-10499508D02*
X11463039Y-10470936D01*
X11463039Y-10470936D02*
X11472563Y-10461412D01*
X11653515Y-10689984D02*
X11539229Y-10689984D01*
X11596372Y-10689984D02*
X11596372Y-10489984D01*
X11596372Y-10489984D02*
X11577325Y-10518555D01*
X11577325Y-10518555D02*
X11558277Y-10537603D01*
X11558277Y-10537603D02*
X11539229Y-10547127D01*
X11824944Y-10489984D02*
X11786848Y-10489984D01*
X11786848Y-10489984D02*
X11767801Y-10499508D01*
X11767801Y-10499508D02*
X11758277Y-10509031D01*
X11758277Y-10509031D02*
X11739229Y-10537603D01*
X11739229Y-10537603D02*
X11729706Y-10575698D01*
X11729706Y-10575698D02*
X11729706Y-10651889D01*
X11729706Y-10651889D02*
X11739229Y-10670936D01*
X11739229Y-10670936D02*
X11748753Y-10680460D01*
X11748753Y-10680460D02*
X11767801Y-10689984D01*
X11767801Y-10689984D02*
X11805896Y-10689984D01*
X11805896Y-10689984D02*
X11824944Y-10680460D01*
X11824944Y-10680460D02*
X11834468Y-10670936D01*
X11834468Y-10670936D02*
X11843991Y-10651889D01*
X11843991Y-10651889D02*
X11843991Y-10604270D01*
X11843991Y-10604270D02*
X11834468Y-10585222D01*
X11834468Y-10585222D02*
X11824944Y-10575698D01*
X11824944Y-10575698D02*
X11805896Y-10566174D01*
X11805896Y-10566174D02*
X11767801Y-10566174D01*
X11767801Y-10566174D02*
X11748753Y-10575698D01*
X11748753Y-10575698D02*
X11739229Y-10585222D01*
X11739229Y-10585222D02*
X11729706Y-10604270D01*
X12082087Y-10689984D02*
X12082087Y-10489984D01*
X12167801Y-10689984D02*
X12167801Y-10585222D01*
X12167801Y-10585222D02*
X12158277Y-10566174D01*
X12158277Y-10566174D02*
X12139230Y-10556650D01*
X12139230Y-10556650D02*
X12110658Y-10556650D01*
X12110658Y-10556650D02*
X12091610Y-10566174D01*
X12091610Y-10566174D02*
X12082087Y-10575698D01*
X12291610Y-10689984D02*
X12272563Y-10680460D01*
X12272563Y-10680460D02*
X12263039Y-10670936D01*
X12263039Y-10670936D02*
X12253515Y-10651889D01*
X12253515Y-10651889D02*
X12253515Y-10594746D01*
X12253515Y-10594746D02*
X12263039Y-10575698D01*
X12263039Y-10575698D02*
X12272563Y-10566174D01*
X12272563Y-10566174D02*
X12291610Y-10556650D01*
X12291610Y-10556650D02*
X12320182Y-10556650D01*
X12320182Y-10556650D02*
X12339230Y-10566174D01*
X12339230Y-10566174D02*
X12348753Y-10575698D01*
X12348753Y-10575698D02*
X12358277Y-10594746D01*
X12358277Y-10594746D02*
X12358277Y-10651889D01*
X12358277Y-10651889D02*
X12348753Y-10670936D01*
X12348753Y-10670936D02*
X12339230Y-10680460D01*
X12339230Y-10680460D02*
X12320182Y-10689984D01*
X12320182Y-10689984D02*
X12291610Y-10689984D01*
X12472563Y-10689984D02*
X12453515Y-10680460D01*
X12453515Y-10680460D02*
X12443991Y-10661412D01*
X12443991Y-10661412D02*
X12443991Y-10489984D01*
X12624944Y-10680460D02*
X12605896Y-10689984D01*
X12605896Y-10689984D02*
X12567801Y-10689984D01*
X12567801Y-10689984D02*
X12548753Y-10680460D01*
X12548753Y-10680460D02*
X12539230Y-10661412D01*
X12539230Y-10661412D02*
X12539230Y-10585222D01*
X12539230Y-10585222D02*
X12548753Y-10566174D01*
X12548753Y-10566174D02*
X12567801Y-10556650D01*
X12567801Y-10556650D02*
X12605896Y-10556650D01*
X12605896Y-10556650D02*
X12624944Y-10566174D01*
X12624944Y-10566174D02*
X12634468Y-10585222D01*
X12634468Y-10585222D02*
X12634468Y-10604270D01*
X12634468Y-10604270D02*
X12539230Y-10623317D01*
X12710658Y-10680460D02*
X12729706Y-10689984D01*
X12729706Y-10689984D02*
X12767801Y-10689984D01*
X12767801Y-10689984D02*
X12786849Y-10680460D01*
X12786849Y-10680460D02*
X12796372Y-10661412D01*
X12796372Y-10661412D02*
X12796372Y-10651889D01*
X12796372Y-10651889D02*
X12786849Y-10632841D01*
X12786849Y-10632841D02*
X12767801Y-10623317D01*
X12767801Y-10623317D02*
X12739230Y-10623317D01*
X12739230Y-10623317D02*
X12720182Y-10613793D01*
X12720182Y-10613793D02*
X12710658Y-10594746D01*
X12710658Y-10594746D02*
X12710658Y-10585222D01*
X12710658Y-10585222D02*
X12720182Y-10566174D01*
X12720182Y-10566174D02*
X12739230Y-10556650D01*
X12739230Y-10556650D02*
X12767801Y-10556650D01*
X12767801Y-10556650D02*
X12786849Y-10566174D01*
X12863039Y-10766174D02*
X12872563Y-10756650D01*
X12872563Y-10756650D02*
X12891611Y-10728079D01*
X12891611Y-10728079D02*
X12901134Y-10709031D01*
X12901134Y-10709031D02*
X12910658Y-10680460D01*
X12910658Y-10680460D02*
X12920182Y-10632841D01*
X12920182Y-10632841D02*
X12920182Y-10594746D01*
X12920182Y-10594746D02*
X12910658Y-10547127D01*
X12910658Y-10547127D02*
X12901134Y-10518555D01*
X12901134Y-10518555D02*
X12891611Y-10499508D01*
X12891611Y-10499508D02*
X12872563Y-10470936D01*
X12872563Y-10470936D02*
X12863039Y-10461412D01*
M02*
