M48
; DRILL file {KiCad 9.0.2} date 2025-07-30T12:21:52-0700
; FORMAT={-:-/ absolute / metric / decimal}
; #@! TF.CreationDate,2025-07-30T12:21:52-07:00
; #@! TF.GenerationSoftware,Kicad,Pcbnew,9.0.2
; #@! TF.FileFunction,Plated,1,2,PTH
FMAT,2
METRIC
; #@! TA.AperFunction,Plated,PTH,ViaDrill
T1C0.300
; #@! TA.AperFunction,Plated,PTH,ComponentDrill
T2C0.500
; #@! TA.AperFunction,Plated,PTH,ComponentDrill
T3C0.800
; #@! TA.AperFunction,Plated,PTH,ComponentDrill
T4C0.900
; #@! TA.AperFunction,Plated,PTH,ComponentDrill
T5C1.190
%
G90
G05
T1
X79.8Y-50.3
X83.8Y-73.3
X89.594Y-64.314
X100.2Y-57.2
X101.58Y-53.0
X110.9Y-56.0
X111.1Y-63.1
X112.3Y-58.0
X115.1Y-47.6
X115.1Y-51.5
X115.7Y-57.4
X115.7Y-61.7
X123.5Y-53.0
X130.1Y-54.4
X131.1Y-73.3
X132.0Y-58.2
X133.8Y-47.6
T2
X83.5Y-58.5
X83.5Y-59.75
X83.5Y-61.0
T3
X87.5Y-54.38
X87.5Y-62.0
X90.04Y-54.38
X90.04Y-62.0
X92.58Y-54.38
X92.58Y-62.0
X95.12Y-54.38
X95.12Y-62.0
X97.66Y-54.38
X97.66Y-62.0
X100.2Y-54.38
X100.2Y-62.0
X102.74Y-54.38
X102.74Y-62.0
T4
X82.62Y-66.0
X82.62Y-81.24
X85.16Y-66.0
X85.16Y-81.24
X87.7Y-66.0
X87.7Y-81.24
X90.198Y-81.287
X90.24Y-66.0
X92.78Y-66.0
X92.83Y-81.196
X95.32Y-66.0
X95.32Y-81.24
X97.86Y-66.0
X97.86Y-81.24
X100.4Y-66.0
X100.4Y-81.24
X102.94Y-66.0
X102.94Y-81.24
X105.48Y-66.0
X105.48Y-81.24
X108.02Y-66.0
X108.02Y-81.24
X110.56Y-66.0
X110.56Y-81.24
X113.1Y-66.0
X113.1Y-81.24
X115.64Y-66.0
X115.64Y-81.24
X118.18Y-66.0
X118.18Y-81.24
X120.72Y-66.0
X120.97Y-81.287
X123.26Y-66.0
X123.26Y-81.24
X125.8Y-66.0
X125.8Y-81.24
X128.34Y-66.0
X128.34Y-81.24
X130.88Y-66.0
X130.88Y-81.24
X133.42Y-66.0
X133.42Y-81.24
X135.96Y-66.0
X135.96Y-81.24
X138.5Y-66.0
X138.5Y-81.24
X141.04Y-66.0
X141.04Y-81.24
T5
X86.8Y-49.0
X89.34Y-49.0
X91.88Y-49.0
X94.42Y-49.0
X96.96Y-49.0
X99.5Y-49.0
X102.04Y-49.0
X104.58Y-49.0
X108.5Y-58.5
X108.5Y-61.04
X111.0Y-48.0
X111.0Y-50.54
X128.0Y-58.5
X128.0Y-61.04
X130.0Y-47.5
X130.0Y-50.04
M30
