G04 #@! TF.GenerationSoftware,KiCad,Pcbnew,9.0.2*
G04 #@! TF.CreationDate,2025-07-30T12:20:49-07:00*
G04 #@! TF.ProjectId,fsrPrototype3,66737250-726f-4746-9f74-797065332e6b,rev?*
G04 #@! TF.SameCoordinates,Original*
G04 #@! TF.FileFunction,Copper,L2,Bot*
G04 #@! TF.FilePolarity,Positive*
%FSLAX46Y46*%
G04 Gerber Fmt 4.6, Leading zero omitted, Abs format (unit mm)*
G04 Created by KiCad (PCBNEW 9.0.2) date 2025-07-30 12:20:49*
%MOMM*%
%LPD*%
G01*
G04 APERTURE LIST*
G04 Aperture macros list*
%AMRoundRect*
0 Rectangle with rounded corners*
0 $1 Rounding radius*
0 $2 $3 $4 $5 $6 $7 $8 $9 X,Y pos of 4 corners*
0 Add a 4 corners polygon primitive as box body*
4,1,4,$2,$3,$4,$5,$6,$7,$8,$9,$2,$3,0*
0 Add four circle primitives for the rounded corners*
1,1,$1+$1,$2,$3*
1,1,$1+$1,$4,$5*
1,1,$1+$1,$6,$7*
1,1,$1+$1,$8,$9*
0 Add four rect primitives between the rounded corners*
20,1,$1+$1,$2,$3,$4,$5,0*
20,1,$1+$1,$4,$5,$6,$7,0*
20,1,$1+$1,$6,$7,$8,$9,0*
20,1,$1+$1,$8,$9,$2,$3,0*%
G04 Aperture macros list end*
G04 #@! TA.AperFunction,ComponentPad*
%ADD10C,2.540000*%
G04 #@! TD*
G04 #@! TA.AperFunction,ComponentPad*
%ADD11RoundRect,0.095250X0.539750X-1.174750X0.539750X1.174750X-0.539750X1.174750X-0.539750X-1.174750X0*%
G04 #@! TD*
G04 #@! TA.AperFunction,ComponentPad*
%ADD12RoundRect,0.250000X-0.620000X-0.845000X0.620000X-0.845000X0.620000X0.845000X-0.620000X0.845000X0*%
G04 #@! TD*
G04 #@! TA.AperFunction,ComponentPad*
%ADD13O,1.740000X2.190000*%
G04 #@! TD*
G04 #@! TA.AperFunction,ComponentPad*
%ADD14RoundRect,0.250000X-0.845000X0.620000X-0.845000X-0.620000X0.845000X-0.620000X0.845000X0.620000X0*%
G04 #@! TD*
G04 #@! TA.AperFunction,ComponentPad*
%ADD15O,2.190000X1.740000*%
G04 #@! TD*
G04 #@! TA.AperFunction,ComponentPad*
%ADD16RoundRect,0.250000X0.550000X-0.550000X0.550000X0.550000X-0.550000X0.550000X-0.550000X-0.550000X0*%
G04 #@! TD*
G04 #@! TA.AperFunction,ComponentPad*
%ADD17C,1.600000*%
G04 #@! TD*
G04 #@! TA.AperFunction,ComponentPad*
%ADD18RoundRect,0.200000X0.450000X-0.200000X0.450000X0.200000X-0.450000X0.200000X-0.450000X-0.200000X0*%
G04 #@! TD*
G04 #@! TA.AperFunction,ComponentPad*
%ADD19O,1.300000X0.800000*%
G04 #@! TD*
G04 #@! TA.AperFunction,ViaPad*
%ADD20C,0.600000*%
G04 #@! TD*
G04 #@! TA.AperFunction,Conductor*
%ADD21C,0.200000*%
G04 #@! TD*
G04 #@! TA.AperFunction,Conductor*
%ADD22C,0.400000*%
G04 #@! TD*
G04 APERTURE END LIST*
D10*
X82620000Y-81240000D03*
D11*
X85160000Y-81240000D03*
X87700000Y-81240000D03*
X90197920Y-81287039D03*
X92830347Y-81196266D03*
X95320000Y-81240000D03*
X97860000Y-81240000D03*
X100400000Y-81240000D03*
X102940000Y-81240000D03*
X105480000Y-81240000D03*
X108020000Y-81240000D03*
X110560000Y-81240000D03*
X113100000Y-81240000D03*
X115640000Y-81240000D03*
X118180000Y-81240000D03*
X120970080Y-81287039D03*
X123260000Y-81240000D03*
X125800000Y-81240000D03*
X128340000Y-81240000D03*
X130880000Y-81240000D03*
X133420000Y-81240000D03*
X135960000Y-81240000D03*
X138500000Y-81240000D03*
X141040000Y-81240000D03*
X141040000Y-66000000D03*
X138500000Y-66000000D03*
X135960000Y-66000000D03*
X133420000Y-66000000D03*
X130880000Y-66000000D03*
X128340000Y-66000000D03*
X125800000Y-66000000D03*
X123260000Y-66000000D03*
X120720000Y-66000000D03*
X118180000Y-66000000D03*
X115640000Y-66000000D03*
X113100000Y-66000000D03*
X110560000Y-66000000D03*
X108020000Y-66000000D03*
X105480000Y-66000000D03*
X102940000Y-66000000D03*
X100400000Y-66000000D03*
X97860000Y-66000000D03*
X95320000Y-66000000D03*
X92780000Y-66000000D03*
X90240000Y-66000000D03*
X87700000Y-66000000D03*
X85160000Y-66000000D03*
X82620000Y-66000000D03*
D12*
X86800000Y-49000000D03*
D13*
X89340000Y-49000000D03*
X91880000Y-49000000D03*
X94420000Y-49000000D03*
X96960000Y-49000000D03*
X99500000Y-49000000D03*
X102040000Y-49000000D03*
X104580000Y-49000000D03*
D14*
X111000000Y-48000000D03*
D15*
X111000000Y-50540000D03*
D14*
X130000000Y-47500000D03*
D15*
X130000000Y-50040000D03*
D16*
X87500000Y-62000000D03*
D17*
X90040000Y-62000000D03*
X92580000Y-62000000D03*
X95120000Y-62000000D03*
X97660000Y-62000000D03*
X100200000Y-62000000D03*
X102740000Y-62000000D03*
X102740000Y-54380000D03*
X100200000Y-54380000D03*
X97660000Y-54380000D03*
X95120000Y-54380000D03*
X92580000Y-54380000D03*
X90040000Y-54380000D03*
X87500000Y-54380000D03*
D14*
X128000000Y-58500000D03*
D15*
X128000000Y-61040000D03*
D14*
X108500000Y-58500000D03*
D15*
X108500000Y-61040000D03*
D18*
X83500000Y-61000000D03*
D19*
X83500000Y-59750000D03*
X83500000Y-58500000D03*
D20*
X112300000Y-58000000D03*
X110900000Y-56000000D03*
X100200000Y-57200000D03*
X115100000Y-47600000D03*
X115100000Y-51500000D03*
X115700000Y-57400000D03*
X111100000Y-63100000D03*
X115700000Y-61700000D03*
X123500000Y-53000000D03*
X101580000Y-53000000D03*
X132000000Y-58200000D03*
X133800000Y-47600000D03*
X89593834Y-64313936D03*
X130100000Y-54400000D03*
X79800000Y-50300000D03*
X83800000Y-73300000D03*
X131100000Y-73300000D03*
D21*
X105480000Y-69980000D02*
X105480000Y-66000000D01*
X107300000Y-71800000D02*
X105480000Y-69980000D01*
X132286000Y-71800000D02*
X107300000Y-71800000D01*
X132400000Y-71686000D02*
X132286000Y-71800000D01*
X132400000Y-59000000D02*
X132400000Y-71686000D01*
X132600000Y-58800000D02*
X132400000Y-59000000D01*
X133800000Y-47600000D02*
X132400000Y-49000000D01*
X132400000Y-57100000D02*
X132600000Y-57300000D01*
X132400000Y-49000000D02*
X132400000Y-57100000D01*
X132600000Y-57300000D02*
X132600000Y-58800000D01*
X113000000Y-65900000D02*
X113100000Y-66000000D01*
X112400000Y-63400000D02*
X113000000Y-64000000D01*
X112400000Y-58100000D02*
X112400000Y-63400000D01*
X113000000Y-64000000D02*
X113000000Y-65900000D01*
X112300000Y-58000000D02*
X112400000Y-58100000D01*
X108500000Y-61040000D02*
X107360000Y-59900000D01*
X92140000Y-59900000D02*
X90040000Y-62000000D01*
X107360000Y-59900000D02*
X92140000Y-59900000D01*
X111000000Y-55900000D02*
X110900000Y-56000000D01*
X101400000Y-56000000D02*
X110900000Y-56000000D01*
X100200000Y-57200000D02*
X101400000Y-56000000D01*
X115700000Y-61700000D02*
X115700000Y-57400000D01*
X102740000Y-62000000D02*
X103840000Y-63100000D01*
X115100000Y-47600000D02*
X115100000Y-51500000D01*
X103840000Y-63100000D02*
X111100000Y-63100000D01*
X101580000Y-53000000D02*
X123500000Y-53000000D01*
X108100000Y-70800000D02*
X108020000Y-70720000D01*
X132000000Y-58200000D02*
X131900000Y-58300000D01*
X131900000Y-58300000D02*
X131900000Y-70800000D01*
X108020000Y-70720000D02*
X108020000Y-66000000D01*
X131900000Y-70800000D02*
X108100000Y-70800000D01*
X105480000Y-64380000D02*
X105480000Y-66000000D01*
X89707770Y-64200000D02*
X105300000Y-64200000D01*
X89593834Y-64313936D02*
X89707770Y-64200000D01*
X105300000Y-64200000D02*
X105480000Y-64380000D01*
X112400000Y-55600000D02*
X111700000Y-54900000D01*
X130100000Y-54400000D02*
X128900000Y-55600000D01*
X91260000Y-55600000D02*
X90040000Y-54380000D01*
X110000000Y-55600000D02*
X91260000Y-55600000D01*
X110700000Y-54900000D02*
X110000000Y-55600000D01*
X128900000Y-55600000D02*
X112400000Y-55600000D01*
X111700000Y-54900000D02*
X110700000Y-54900000D01*
D22*
X93648000Y-63472000D02*
X88328000Y-63472000D01*
X88328000Y-63472000D02*
X87700000Y-64100000D01*
X95120000Y-62000000D02*
X93648000Y-63472000D01*
X85500000Y-50300000D02*
X79800000Y-50300000D01*
X86800000Y-49000000D02*
X85500000Y-50300000D01*
X87700000Y-64100000D02*
X87700000Y-66000000D01*
D21*
X83800000Y-73300000D02*
X131100000Y-73300000D01*
D22*
X95780000Y-52500000D02*
X97660000Y-54380000D01*
X92580000Y-54380000D02*
X94460000Y-52500000D01*
X94460000Y-52500000D02*
X95780000Y-52500000D01*
M02*
