%TF.GenerationSoftware,KiCad,Pcbnew,9.0.2*%
%TF.CreationDate,2025-07-30T12:21:52-07:00*%
%TF.ProjectId,fsrPrototype3,66737250-726f-4746-9f74-797065332e6b,rev?*%
%TF.SameCoordinates,Original*%
%TF.FileFunction,Drillmap*%
%TF.FilePolarity,Positive*%
%FSLAX45Y45*%
G04 Gerber Fmt 4.5, Leading zero omitted, Abs format (unit mm)*
G04 Created by KiCad (PCBNEW 9.0.2) date 2025-07-30 12:21:52*
%MOMM*%
%LPD*%
G01*
G04 APERTURE LIST*
%ADD10C,0.050000*%
%ADD11C,0.200000*%
G04 APERTURE END LIST*
D10*
X14225000Y-4250000D02*
G75*
G02*
X13901270Y-4250000I-161865J0D01*
G01*
X13901270Y-4250000D02*
G75*
G02*
X14225000Y-4250000I161865J0D01*
G01*
X7900000Y-8900000D02*
X14500000Y-8900000D01*
X7900000Y-4000000D02*
X7900000Y-8900000D01*
X8461865Y-8638135D02*
G75*
G02*
X8138135Y-8638135I-161865J0D01*
G01*
X8138135Y-8638135D02*
G75*
G02*
X8461865Y-8638135I161865J0D01*
G01*
X14500000Y-4000000D02*
X7900000Y-4000000D01*
X14225000Y-8650000D02*
G75*
G02*
X13901270Y-8650000I-161865J0D01*
G01*
X13901270Y-8650000D02*
G75*
G02*
X14225000Y-8650000I161865J0D01*
G01*
X8461865Y-4238135D02*
G75*
G02*
X8138135Y-4238135I-161865J0D01*
G01*
X8138135Y-4238135D02*
G75*
G02*
X8461865Y-4238135I161865J0D01*
G01*
X14500000Y-8900000D02*
X14500000Y-4000000D01*
D11*
X8158277Y-9213984D02*
X8158277Y-9013984D01*
X8158277Y-9013984D02*
X8205896Y-9013984D01*
X8205896Y-9013984D02*
X8234467Y-9023508D01*
X8234467Y-9023508D02*
X8253515Y-9042555D01*
X8253515Y-9042555D02*
X8263039Y-9061603D01*
X8263039Y-9061603D02*
X8272562Y-9099698D01*
X8272562Y-9099698D02*
X8272562Y-9128270D01*
X8272562Y-9128270D02*
X8263039Y-9166365D01*
X8263039Y-9166365D02*
X8253515Y-9185412D01*
X8253515Y-9185412D02*
X8234467Y-9204460D01*
X8234467Y-9204460D02*
X8205896Y-9213984D01*
X8205896Y-9213984D02*
X8158277Y-9213984D01*
X8358277Y-9213984D02*
X8358277Y-9080650D01*
X8358277Y-9118746D02*
X8367801Y-9099698D01*
X8367801Y-9099698D02*
X8377324Y-9090174D01*
X8377324Y-9090174D02*
X8396372Y-9080650D01*
X8396372Y-9080650D02*
X8415420Y-9080650D01*
X8482086Y-9213984D02*
X8482086Y-9080650D01*
X8482086Y-9013984D02*
X8472563Y-9023508D01*
X8472563Y-9023508D02*
X8482086Y-9033031D01*
X8482086Y-9033031D02*
X8491610Y-9023508D01*
X8491610Y-9023508D02*
X8482086Y-9013984D01*
X8482086Y-9013984D02*
X8482086Y-9033031D01*
X8605896Y-9213984D02*
X8586848Y-9204460D01*
X8586848Y-9204460D02*
X8577324Y-9185412D01*
X8577324Y-9185412D02*
X8577324Y-9013984D01*
X8710658Y-9213984D02*
X8691610Y-9204460D01*
X8691610Y-9204460D02*
X8682086Y-9185412D01*
X8682086Y-9185412D02*
X8682086Y-9013984D01*
X8939229Y-9213984D02*
X8939229Y-9013984D01*
X8939229Y-9013984D02*
X9005896Y-9156841D01*
X9005896Y-9156841D02*
X9072563Y-9013984D01*
X9072563Y-9013984D02*
X9072563Y-9213984D01*
X9253515Y-9213984D02*
X9253515Y-9109222D01*
X9253515Y-9109222D02*
X9243991Y-9090174D01*
X9243991Y-9090174D02*
X9224944Y-9080650D01*
X9224944Y-9080650D02*
X9186848Y-9080650D01*
X9186848Y-9080650D02*
X9167801Y-9090174D01*
X9253515Y-9204460D02*
X9234467Y-9213984D01*
X9234467Y-9213984D02*
X9186848Y-9213984D01*
X9186848Y-9213984D02*
X9167801Y-9204460D01*
X9167801Y-9204460D02*
X9158277Y-9185412D01*
X9158277Y-9185412D02*
X9158277Y-9166365D01*
X9158277Y-9166365D02*
X9167801Y-9147317D01*
X9167801Y-9147317D02*
X9186848Y-9137793D01*
X9186848Y-9137793D02*
X9234467Y-9137793D01*
X9234467Y-9137793D02*
X9253515Y-9128270D01*
X9348753Y-9080650D02*
X9348753Y-9280650D01*
X9348753Y-9090174D02*
X9367801Y-9080650D01*
X9367801Y-9080650D02*
X9405896Y-9080650D01*
X9405896Y-9080650D02*
X9424944Y-9090174D01*
X9424944Y-9090174D02*
X9434467Y-9099698D01*
X9434467Y-9099698D02*
X9443991Y-9118746D01*
X9443991Y-9118746D02*
X9443991Y-9175889D01*
X9443991Y-9175889D02*
X9434467Y-9194936D01*
X9434467Y-9194936D02*
X9424944Y-9204460D01*
X9424944Y-9204460D02*
X9405896Y-9213984D01*
X9405896Y-9213984D02*
X9367801Y-9213984D01*
X9367801Y-9213984D02*
X9348753Y-9204460D01*
X9529705Y-9194936D02*
X9539229Y-9204460D01*
X9539229Y-9204460D02*
X9529705Y-9213984D01*
X9529705Y-9213984D02*
X9520182Y-9204460D01*
X9520182Y-9204460D02*
X9529705Y-9194936D01*
X9529705Y-9194936D02*
X9529705Y-9213984D01*
X9529705Y-9090174D02*
X9539229Y-9099698D01*
X9539229Y-9099698D02*
X9529705Y-9109222D01*
X9529705Y-9109222D02*
X9520182Y-9099698D01*
X9520182Y-9099698D02*
X9529705Y-9090174D01*
X9529705Y-9090174D02*
X9529705Y-9109222D01*
M02*
