G04 #@! TF.GenerationSoftware,KiCad,Pcbnew,9.0.2*
G04 #@! TF.CreationDate,2025-06-20T10:59:13-07:00*
G04 #@! TF.ProjectId,fsrPrototype1,66737250-726f-4746-9f74-797065312e6b,rev?*
G04 #@! TF.SameCoordinates,Original*
G04 #@! TF.FileFunction,Legend,Top*
G04 #@! TF.FilePolarity,Positive*
%FSLAX46Y46*%
G04 Gerber Fmt 4.6, Leading zero omitted, Abs format (unit mm)*
G04 Created by KiCad (PCBNEW 9.0.2) date 2025-06-20 10:59:13*
%MOMM*%
%LPD*%
G01*
G04 APERTURE LIST*
%ADD10C,0.160000*%
%ADD11C,0.120000*%
%ADD12C,0.100000*%
G04 APERTURE END LIST*
D10*
X63957142Y-90769299D02*
X63766666Y-90769299D01*
X63766666Y-90769299D02*
X63671428Y-90816918D01*
X63671428Y-90816918D02*
X63623809Y-90864537D01*
X63623809Y-90864537D02*
X63528571Y-91007394D01*
X63528571Y-91007394D02*
X63480952Y-91197870D01*
X63480952Y-91197870D02*
X63480952Y-91578822D01*
X63480952Y-91578822D02*
X63528571Y-91674060D01*
X63528571Y-91674060D02*
X63576190Y-91721680D01*
X63576190Y-91721680D02*
X63671428Y-91769299D01*
X63671428Y-91769299D02*
X63861904Y-91769299D01*
X63861904Y-91769299D02*
X63957142Y-91721680D01*
X63957142Y-91721680D02*
X64004761Y-91674060D01*
X64004761Y-91674060D02*
X64052380Y-91578822D01*
X64052380Y-91578822D02*
X64052380Y-91340727D01*
X64052380Y-91340727D02*
X64004761Y-91245489D01*
X64004761Y-91245489D02*
X63957142Y-91197870D01*
X63957142Y-91197870D02*
X63861904Y-91150251D01*
X63861904Y-91150251D02*
X63671428Y-91150251D01*
X63671428Y-91150251D02*
X63576190Y-91197870D01*
X63576190Y-91197870D02*
X63528571Y-91245489D01*
X63528571Y-91245489D02*
X63480952Y-91340727D01*
X65195237Y-90721680D02*
X64338095Y-92007394D01*
X65480952Y-90864537D02*
X65528571Y-90816918D01*
X65528571Y-90816918D02*
X65623809Y-90769299D01*
X65623809Y-90769299D02*
X65861904Y-90769299D01*
X65861904Y-90769299D02*
X65957142Y-90816918D01*
X65957142Y-90816918D02*
X66004761Y-90864537D01*
X66004761Y-90864537D02*
X66052380Y-90959775D01*
X66052380Y-90959775D02*
X66052380Y-91055013D01*
X66052380Y-91055013D02*
X66004761Y-91197870D01*
X66004761Y-91197870D02*
X65433333Y-91769299D01*
X65433333Y-91769299D02*
X66052380Y-91769299D01*
X66671428Y-90769299D02*
X66766666Y-90769299D01*
X66766666Y-90769299D02*
X66861904Y-90816918D01*
X66861904Y-90816918D02*
X66909523Y-90864537D01*
X66909523Y-90864537D02*
X66957142Y-90959775D01*
X66957142Y-90959775D02*
X67004761Y-91150251D01*
X67004761Y-91150251D02*
X67004761Y-91388346D01*
X67004761Y-91388346D02*
X66957142Y-91578822D01*
X66957142Y-91578822D02*
X66909523Y-91674060D01*
X66909523Y-91674060D02*
X66861904Y-91721680D01*
X66861904Y-91721680D02*
X66766666Y-91769299D01*
X66766666Y-91769299D02*
X66671428Y-91769299D01*
X66671428Y-91769299D02*
X66576190Y-91721680D01*
X66576190Y-91721680D02*
X66528571Y-91674060D01*
X66528571Y-91674060D02*
X66480952Y-91578822D01*
X66480952Y-91578822D02*
X66433333Y-91388346D01*
X66433333Y-91388346D02*
X66433333Y-91150251D01*
X66433333Y-91150251D02*
X66480952Y-90959775D01*
X66480952Y-90959775D02*
X66528571Y-90864537D01*
X66528571Y-90864537D02*
X66576190Y-90816918D01*
X66576190Y-90816918D02*
X66671428Y-90769299D01*
X68147618Y-90721680D02*
X67290476Y-92007394D01*
X68433333Y-90864537D02*
X68480952Y-90816918D01*
X68480952Y-90816918D02*
X68576190Y-90769299D01*
X68576190Y-90769299D02*
X68814285Y-90769299D01*
X68814285Y-90769299D02*
X68909523Y-90816918D01*
X68909523Y-90816918D02*
X68957142Y-90864537D01*
X68957142Y-90864537D02*
X69004761Y-90959775D01*
X69004761Y-90959775D02*
X69004761Y-91055013D01*
X69004761Y-91055013D02*
X68957142Y-91197870D01*
X68957142Y-91197870D02*
X68385714Y-91769299D01*
X68385714Y-91769299D02*
X69004761Y-91769299D01*
X69909523Y-90769299D02*
X69433333Y-90769299D01*
X69433333Y-90769299D02*
X69385714Y-91245489D01*
X69385714Y-91245489D02*
X69433333Y-91197870D01*
X69433333Y-91197870D02*
X69528571Y-91150251D01*
X69528571Y-91150251D02*
X69766666Y-91150251D01*
X69766666Y-91150251D02*
X69861904Y-91197870D01*
X69861904Y-91197870D02*
X69909523Y-91245489D01*
X69909523Y-91245489D02*
X69957142Y-91340727D01*
X69957142Y-91340727D02*
X69957142Y-91578822D01*
X69957142Y-91578822D02*
X69909523Y-91674060D01*
X69909523Y-91674060D02*
X69861904Y-91721680D01*
X69861904Y-91721680D02*
X69766666Y-91769299D01*
X69766666Y-91769299D02*
X69528571Y-91769299D01*
X69528571Y-91769299D02*
X69433333Y-91721680D01*
X69433333Y-91721680D02*
X69385714Y-91674060D01*
X71147619Y-91388346D02*
X71909524Y-91388346D01*
X73004762Y-90769299D02*
X73338095Y-91769299D01*
X73338095Y-91769299D02*
X73671428Y-90769299D01*
X75290476Y-91769299D02*
X74719048Y-91769299D01*
X75004762Y-91769299D02*
X75004762Y-90769299D01*
X75004762Y-90769299D02*
X74909524Y-90912156D01*
X74909524Y-90912156D02*
X74814286Y-91007394D01*
X74814286Y-91007394D02*
X74719048Y-91055013D01*
X75719048Y-91674060D02*
X75766667Y-91721680D01*
X75766667Y-91721680D02*
X75719048Y-91769299D01*
X75719048Y-91769299D02*
X75671429Y-91721680D01*
X75671429Y-91721680D02*
X75719048Y-91674060D01*
X75719048Y-91674060D02*
X75719048Y-91769299D01*
X76385714Y-90769299D02*
X76480952Y-90769299D01*
X76480952Y-90769299D02*
X76576190Y-90816918D01*
X76576190Y-90816918D02*
X76623809Y-90864537D01*
X76623809Y-90864537D02*
X76671428Y-90959775D01*
X76671428Y-90959775D02*
X76719047Y-91150251D01*
X76719047Y-91150251D02*
X76719047Y-91388346D01*
X76719047Y-91388346D02*
X76671428Y-91578822D01*
X76671428Y-91578822D02*
X76623809Y-91674060D01*
X76623809Y-91674060D02*
X76576190Y-91721680D01*
X76576190Y-91721680D02*
X76480952Y-91769299D01*
X76480952Y-91769299D02*
X76385714Y-91769299D01*
X76385714Y-91769299D02*
X76290476Y-91721680D01*
X76290476Y-91721680D02*
X76242857Y-91674060D01*
X76242857Y-91674060D02*
X76195238Y-91578822D01*
X76195238Y-91578822D02*
X76147619Y-91388346D01*
X76147619Y-91388346D02*
X76147619Y-91150251D01*
X76147619Y-91150251D02*
X76195238Y-90959775D01*
X76195238Y-90959775D02*
X76242857Y-90864537D01*
X76242857Y-90864537D02*
X76290476Y-90816918D01*
X76290476Y-90816918D02*
X76385714Y-90769299D01*
X64938094Y-89645489D02*
X64604761Y-89645489D01*
X64604761Y-90169299D02*
X64604761Y-89169299D01*
X64604761Y-89169299D02*
X65080951Y-89169299D01*
X65414285Y-90121680D02*
X65557142Y-90169299D01*
X65557142Y-90169299D02*
X65795237Y-90169299D01*
X65795237Y-90169299D02*
X65890475Y-90121680D01*
X65890475Y-90121680D02*
X65938094Y-90074060D01*
X65938094Y-90074060D02*
X65985713Y-89978822D01*
X65985713Y-89978822D02*
X65985713Y-89883584D01*
X65985713Y-89883584D02*
X65938094Y-89788346D01*
X65938094Y-89788346D02*
X65890475Y-89740727D01*
X65890475Y-89740727D02*
X65795237Y-89693108D01*
X65795237Y-89693108D02*
X65604761Y-89645489D01*
X65604761Y-89645489D02*
X65509523Y-89597870D01*
X65509523Y-89597870D02*
X65461904Y-89550251D01*
X65461904Y-89550251D02*
X65414285Y-89455013D01*
X65414285Y-89455013D02*
X65414285Y-89359775D01*
X65414285Y-89359775D02*
X65461904Y-89264537D01*
X65461904Y-89264537D02*
X65509523Y-89216918D01*
X65509523Y-89216918D02*
X65604761Y-89169299D01*
X65604761Y-89169299D02*
X65842856Y-89169299D01*
X65842856Y-89169299D02*
X65985713Y-89216918D01*
X66985713Y-90169299D02*
X66652380Y-89693108D01*
X66414285Y-90169299D02*
X66414285Y-89169299D01*
X66414285Y-89169299D02*
X66795237Y-89169299D01*
X66795237Y-89169299D02*
X66890475Y-89216918D01*
X66890475Y-89216918D02*
X66938094Y-89264537D01*
X66938094Y-89264537D02*
X66985713Y-89359775D01*
X66985713Y-89359775D02*
X66985713Y-89502632D01*
X66985713Y-89502632D02*
X66938094Y-89597870D01*
X66938094Y-89597870D02*
X66890475Y-89645489D01*
X66890475Y-89645489D02*
X66795237Y-89693108D01*
X66795237Y-89693108D02*
X66414285Y-89693108D01*
X68176190Y-90169299D02*
X68176190Y-89169299D01*
X68176190Y-89169299D02*
X68557142Y-89169299D01*
X68557142Y-89169299D02*
X68652380Y-89216918D01*
X68652380Y-89216918D02*
X68699999Y-89264537D01*
X68699999Y-89264537D02*
X68747618Y-89359775D01*
X68747618Y-89359775D02*
X68747618Y-89502632D01*
X68747618Y-89502632D02*
X68699999Y-89597870D01*
X68699999Y-89597870D02*
X68652380Y-89645489D01*
X68652380Y-89645489D02*
X68557142Y-89693108D01*
X68557142Y-89693108D02*
X68176190Y-89693108D01*
X69176190Y-90169299D02*
X69176190Y-89502632D01*
X69176190Y-89693108D02*
X69223809Y-89597870D01*
X69223809Y-89597870D02*
X69271428Y-89550251D01*
X69271428Y-89550251D02*
X69366666Y-89502632D01*
X69366666Y-89502632D02*
X69461904Y-89502632D01*
X69938095Y-90169299D02*
X69842857Y-90121680D01*
X69842857Y-90121680D02*
X69795238Y-90074060D01*
X69795238Y-90074060D02*
X69747619Y-89978822D01*
X69747619Y-89978822D02*
X69747619Y-89693108D01*
X69747619Y-89693108D02*
X69795238Y-89597870D01*
X69795238Y-89597870D02*
X69842857Y-89550251D01*
X69842857Y-89550251D02*
X69938095Y-89502632D01*
X69938095Y-89502632D02*
X70080952Y-89502632D01*
X70080952Y-89502632D02*
X70176190Y-89550251D01*
X70176190Y-89550251D02*
X70223809Y-89597870D01*
X70223809Y-89597870D02*
X70271428Y-89693108D01*
X70271428Y-89693108D02*
X70271428Y-89978822D01*
X70271428Y-89978822D02*
X70223809Y-90074060D01*
X70223809Y-90074060D02*
X70176190Y-90121680D01*
X70176190Y-90121680D02*
X70080952Y-90169299D01*
X70080952Y-90169299D02*
X69938095Y-90169299D01*
X70557143Y-89502632D02*
X70938095Y-89502632D01*
X70700000Y-89169299D02*
X70700000Y-90026441D01*
X70700000Y-90026441D02*
X70747619Y-90121680D01*
X70747619Y-90121680D02*
X70842857Y-90169299D01*
X70842857Y-90169299D02*
X70938095Y-90169299D01*
X71414286Y-90169299D02*
X71319048Y-90121680D01*
X71319048Y-90121680D02*
X71271429Y-90074060D01*
X71271429Y-90074060D02*
X71223810Y-89978822D01*
X71223810Y-89978822D02*
X71223810Y-89693108D01*
X71223810Y-89693108D02*
X71271429Y-89597870D01*
X71271429Y-89597870D02*
X71319048Y-89550251D01*
X71319048Y-89550251D02*
X71414286Y-89502632D01*
X71414286Y-89502632D02*
X71557143Y-89502632D01*
X71557143Y-89502632D02*
X71652381Y-89550251D01*
X71652381Y-89550251D02*
X71700000Y-89597870D01*
X71700000Y-89597870D02*
X71747619Y-89693108D01*
X71747619Y-89693108D02*
X71747619Y-89978822D01*
X71747619Y-89978822D02*
X71700000Y-90074060D01*
X71700000Y-90074060D02*
X71652381Y-90121680D01*
X71652381Y-90121680D02*
X71557143Y-90169299D01*
X71557143Y-90169299D02*
X71414286Y-90169299D01*
X72033334Y-89502632D02*
X72414286Y-89502632D01*
X72176191Y-89169299D02*
X72176191Y-90026441D01*
X72176191Y-90026441D02*
X72223810Y-90121680D01*
X72223810Y-90121680D02*
X72319048Y-90169299D01*
X72319048Y-90169299D02*
X72414286Y-90169299D01*
X72652382Y-89502632D02*
X72890477Y-90169299D01*
X73128572Y-89502632D02*
X72890477Y-90169299D01*
X72890477Y-90169299D02*
X72795239Y-90407394D01*
X72795239Y-90407394D02*
X72747620Y-90455013D01*
X72747620Y-90455013D02*
X72652382Y-90502632D01*
X73509525Y-89502632D02*
X73509525Y-90502632D01*
X73509525Y-89550251D02*
X73604763Y-89502632D01*
X73604763Y-89502632D02*
X73795239Y-89502632D01*
X73795239Y-89502632D02*
X73890477Y-89550251D01*
X73890477Y-89550251D02*
X73938096Y-89597870D01*
X73938096Y-89597870D02*
X73985715Y-89693108D01*
X73985715Y-89693108D02*
X73985715Y-89978822D01*
X73985715Y-89978822D02*
X73938096Y-90074060D01*
X73938096Y-90074060D02*
X73890477Y-90121680D01*
X73890477Y-90121680D02*
X73795239Y-90169299D01*
X73795239Y-90169299D02*
X73604763Y-90169299D01*
X73604763Y-90169299D02*
X73509525Y-90121680D01*
X74795239Y-90121680D02*
X74700001Y-90169299D01*
X74700001Y-90169299D02*
X74509525Y-90169299D01*
X74509525Y-90169299D02*
X74414287Y-90121680D01*
X74414287Y-90121680D02*
X74366668Y-90026441D01*
X74366668Y-90026441D02*
X74366668Y-89645489D01*
X74366668Y-89645489D02*
X74414287Y-89550251D01*
X74414287Y-89550251D02*
X74509525Y-89502632D01*
X74509525Y-89502632D02*
X74700001Y-89502632D01*
X74700001Y-89502632D02*
X74795239Y-89550251D01*
X74795239Y-89550251D02*
X74842858Y-89645489D01*
X74842858Y-89645489D02*
X74842858Y-89740727D01*
X74842858Y-89740727D02*
X74366668Y-89835965D01*
X51569299Y-87870927D02*
X52283584Y-87870927D01*
X52283584Y-87870927D02*
X52426441Y-87918546D01*
X52426441Y-87918546D02*
X52521680Y-88013784D01*
X52521680Y-88013784D02*
X52569299Y-88156641D01*
X52569299Y-88156641D02*
X52569299Y-88251879D01*
X52569299Y-86918546D02*
X52569299Y-87394736D01*
X52569299Y-87394736D02*
X51569299Y-87394736D01*
X52474060Y-86013784D02*
X52521680Y-86061403D01*
X52521680Y-86061403D02*
X52569299Y-86204260D01*
X52569299Y-86204260D02*
X52569299Y-86299498D01*
X52569299Y-86299498D02*
X52521680Y-86442355D01*
X52521680Y-86442355D02*
X52426441Y-86537593D01*
X52426441Y-86537593D02*
X52331203Y-86585212D01*
X52331203Y-86585212D02*
X52140727Y-86632831D01*
X52140727Y-86632831D02*
X51997870Y-86632831D01*
X51997870Y-86632831D02*
X51807394Y-86585212D01*
X51807394Y-86585212D02*
X51712156Y-86537593D01*
X51712156Y-86537593D02*
X51616918Y-86442355D01*
X51616918Y-86442355D02*
X51569299Y-86299498D01*
X51569299Y-86299498D02*
X51569299Y-86204260D01*
X51569299Y-86204260D02*
X51616918Y-86061403D01*
X51616918Y-86061403D02*
X51664537Y-86013784D01*
X51569299Y-85299498D02*
X52283584Y-85299498D01*
X52283584Y-85299498D02*
X52426441Y-85347117D01*
X52426441Y-85347117D02*
X52521680Y-85442355D01*
X52521680Y-85442355D02*
X52569299Y-85585212D01*
X52569299Y-85585212D02*
X52569299Y-85680450D01*
X52569299Y-84347117D02*
X52569299Y-84823307D01*
X52569299Y-84823307D02*
X51569299Y-84823307D01*
X52474060Y-83442355D02*
X52521680Y-83489974D01*
X52521680Y-83489974D02*
X52569299Y-83632831D01*
X52569299Y-83632831D02*
X52569299Y-83728069D01*
X52569299Y-83728069D02*
X52521680Y-83870926D01*
X52521680Y-83870926D02*
X52426441Y-83966164D01*
X52426441Y-83966164D02*
X52331203Y-84013783D01*
X52331203Y-84013783D02*
X52140727Y-84061402D01*
X52140727Y-84061402D02*
X51997870Y-84061402D01*
X51997870Y-84061402D02*
X51807394Y-84013783D01*
X51807394Y-84013783D02*
X51712156Y-83966164D01*
X51712156Y-83966164D02*
X51616918Y-83870926D01*
X51616918Y-83870926D02*
X51569299Y-83728069D01*
X51569299Y-83728069D02*
X51569299Y-83632831D01*
X51569299Y-83632831D02*
X51616918Y-83489974D01*
X51616918Y-83489974D02*
X51664537Y-83442355D01*
X51569299Y-82728069D02*
X52283584Y-82728069D01*
X52283584Y-82728069D02*
X52426441Y-82775688D01*
X52426441Y-82775688D02*
X52521680Y-82870926D01*
X52521680Y-82870926D02*
X52569299Y-83013783D01*
X52569299Y-83013783D02*
X52569299Y-83109021D01*
X52569299Y-81775688D02*
X52569299Y-82251878D01*
X52569299Y-82251878D02*
X51569299Y-82251878D01*
X52474060Y-80870926D02*
X52521680Y-80918545D01*
X52521680Y-80918545D02*
X52569299Y-81061402D01*
X52569299Y-81061402D02*
X52569299Y-81156640D01*
X52569299Y-81156640D02*
X52521680Y-81299497D01*
X52521680Y-81299497D02*
X52426441Y-81394735D01*
X52426441Y-81394735D02*
X52331203Y-81442354D01*
X52331203Y-81442354D02*
X52140727Y-81489973D01*
X52140727Y-81489973D02*
X51997870Y-81489973D01*
X51997870Y-81489973D02*
X51807394Y-81442354D01*
X51807394Y-81442354D02*
X51712156Y-81394735D01*
X51712156Y-81394735D02*
X51616918Y-81299497D01*
X51616918Y-81299497D02*
X51569299Y-81156640D01*
X51569299Y-81156640D02*
X51569299Y-81061402D01*
X51569299Y-81061402D02*
X51616918Y-80918545D01*
X51616918Y-80918545D02*
X51664537Y-80870926D01*
X51569299Y-80156640D02*
X52283584Y-80156640D01*
X52283584Y-80156640D02*
X52426441Y-80204259D01*
X52426441Y-80204259D02*
X52521680Y-80299497D01*
X52521680Y-80299497D02*
X52569299Y-80442354D01*
X52569299Y-80442354D02*
X52569299Y-80537592D01*
X52569299Y-79204259D02*
X52569299Y-79680449D01*
X52569299Y-79680449D02*
X51569299Y-79680449D01*
X52474060Y-78299497D02*
X52521680Y-78347116D01*
X52521680Y-78347116D02*
X52569299Y-78489973D01*
X52569299Y-78489973D02*
X52569299Y-78585211D01*
X52569299Y-78585211D02*
X52521680Y-78728068D01*
X52521680Y-78728068D02*
X52426441Y-78823306D01*
X52426441Y-78823306D02*
X52331203Y-78870925D01*
X52331203Y-78870925D02*
X52140727Y-78918544D01*
X52140727Y-78918544D02*
X51997870Y-78918544D01*
X51997870Y-78918544D02*
X51807394Y-78870925D01*
X51807394Y-78870925D02*
X51712156Y-78823306D01*
X51712156Y-78823306D02*
X51616918Y-78728068D01*
X51616918Y-78728068D02*
X51569299Y-78585211D01*
X51569299Y-78585211D02*
X51569299Y-78489973D01*
X51569299Y-78489973D02*
X51616918Y-78347116D01*
X51616918Y-78347116D02*
X51664537Y-78299497D01*
X48500501Y-71169299D02*
X49071929Y-71169299D01*
X48786215Y-72169299D02*
X48786215Y-71169299D01*
X49786215Y-72121680D02*
X49690977Y-72169299D01*
X49690977Y-72169299D02*
X49500501Y-72169299D01*
X49500501Y-72169299D02*
X49405263Y-72121680D01*
X49405263Y-72121680D02*
X49357644Y-72026441D01*
X49357644Y-72026441D02*
X49357644Y-71645489D01*
X49357644Y-71645489D02*
X49405263Y-71550251D01*
X49405263Y-71550251D02*
X49500501Y-71502632D01*
X49500501Y-71502632D02*
X49690977Y-71502632D01*
X49690977Y-71502632D02*
X49786215Y-71550251D01*
X49786215Y-71550251D02*
X49833834Y-71645489D01*
X49833834Y-71645489D02*
X49833834Y-71740727D01*
X49833834Y-71740727D02*
X49357644Y-71835965D01*
X50643358Y-72121680D02*
X50548120Y-72169299D01*
X50548120Y-72169299D02*
X50357644Y-72169299D01*
X50357644Y-72169299D02*
X50262406Y-72121680D01*
X50262406Y-72121680D02*
X50214787Y-72026441D01*
X50214787Y-72026441D02*
X50214787Y-71645489D01*
X50214787Y-71645489D02*
X50262406Y-71550251D01*
X50262406Y-71550251D02*
X50357644Y-71502632D01*
X50357644Y-71502632D02*
X50548120Y-71502632D01*
X50548120Y-71502632D02*
X50643358Y-71550251D01*
X50643358Y-71550251D02*
X50690977Y-71645489D01*
X50690977Y-71645489D02*
X50690977Y-71740727D01*
X50690977Y-71740727D02*
X50214787Y-71835965D01*
X51119549Y-71502632D02*
X51119549Y-72169299D01*
X51119549Y-71597870D02*
X51167168Y-71550251D01*
X51167168Y-71550251D02*
X51262406Y-71502632D01*
X51262406Y-71502632D02*
X51405263Y-71502632D01*
X51405263Y-71502632D02*
X51500501Y-71550251D01*
X51500501Y-71550251D02*
X51548120Y-71645489D01*
X51548120Y-71645489D02*
X51548120Y-72169299D01*
X51976692Y-72121680D02*
X52071930Y-72169299D01*
X52071930Y-72169299D02*
X52262406Y-72169299D01*
X52262406Y-72169299D02*
X52357644Y-72121680D01*
X52357644Y-72121680D02*
X52405263Y-72026441D01*
X52405263Y-72026441D02*
X52405263Y-71978822D01*
X52405263Y-71978822D02*
X52357644Y-71883584D01*
X52357644Y-71883584D02*
X52262406Y-71835965D01*
X52262406Y-71835965D02*
X52119549Y-71835965D01*
X52119549Y-71835965D02*
X52024311Y-71788346D01*
X52024311Y-71788346D02*
X51976692Y-71693108D01*
X51976692Y-71693108D02*
X51976692Y-71645489D01*
X51976692Y-71645489D02*
X52024311Y-71550251D01*
X52024311Y-71550251D02*
X52119549Y-71502632D01*
X52119549Y-71502632D02*
X52262406Y-71502632D01*
X52262406Y-71502632D02*
X52357644Y-71550251D01*
X52738597Y-71502632D02*
X52976692Y-72169299D01*
X53214787Y-71502632D02*
X52976692Y-72169299D01*
X52976692Y-72169299D02*
X52881454Y-72407394D01*
X52881454Y-72407394D02*
X52833835Y-72455013D01*
X52833835Y-72455013D02*
X52738597Y-72502632D01*
X54786216Y-71502632D02*
X54786216Y-72169299D01*
X54548121Y-71121680D02*
X54310026Y-71835965D01*
X54310026Y-71835965D02*
X54929073Y-71835965D01*
X55310026Y-72074060D02*
X55357645Y-72121680D01*
X55357645Y-72121680D02*
X55310026Y-72169299D01*
X55310026Y-72169299D02*
X55262407Y-72121680D01*
X55262407Y-72121680D02*
X55310026Y-72074060D01*
X55310026Y-72074060D02*
X55310026Y-72169299D01*
X55976692Y-71169299D02*
X56071930Y-71169299D01*
X56071930Y-71169299D02*
X56167168Y-71216918D01*
X56167168Y-71216918D02*
X56214787Y-71264537D01*
X56214787Y-71264537D02*
X56262406Y-71359775D01*
X56262406Y-71359775D02*
X56310025Y-71550251D01*
X56310025Y-71550251D02*
X56310025Y-71788346D01*
X56310025Y-71788346D02*
X56262406Y-71978822D01*
X56262406Y-71978822D02*
X56214787Y-72074060D01*
X56214787Y-72074060D02*
X56167168Y-72121680D01*
X56167168Y-72121680D02*
X56071930Y-72169299D01*
X56071930Y-72169299D02*
X55976692Y-72169299D01*
X55976692Y-72169299D02*
X55881454Y-72121680D01*
X55881454Y-72121680D02*
X55833835Y-72074060D01*
X55833835Y-72074060D02*
X55786216Y-71978822D01*
X55786216Y-71978822D02*
X55738597Y-71788346D01*
X55738597Y-71788346D02*
X55738597Y-71550251D01*
X55738597Y-71550251D02*
X55786216Y-71359775D01*
X55786216Y-71359775D02*
X55833835Y-71264537D01*
X55833835Y-71264537D02*
X55881454Y-71216918D01*
X55881454Y-71216918D02*
X55976692Y-71169299D01*
X66466666Y-57654299D02*
X66466666Y-58368584D01*
X66466666Y-58368584D02*
X66419047Y-58511441D01*
X66419047Y-58511441D02*
X66323809Y-58606680D01*
X66323809Y-58606680D02*
X66180952Y-58654299D01*
X66180952Y-58654299D02*
X66085714Y-58654299D01*
X67466666Y-58654299D02*
X66895238Y-58654299D01*
X67180952Y-58654299D02*
X67180952Y-57654299D01*
X67180952Y-57654299D02*
X67085714Y-57797156D01*
X67085714Y-57797156D02*
X66990476Y-57892394D01*
X66990476Y-57892394D02*
X66895238Y-57940013D01*
X72761905Y-79154299D02*
X72761905Y-78154299D01*
X72761905Y-78154299D02*
X73000000Y-78154299D01*
X73000000Y-78154299D02*
X73142857Y-78201918D01*
X73142857Y-78201918D02*
X73238095Y-78297156D01*
X73238095Y-78297156D02*
X73285714Y-78392394D01*
X73285714Y-78392394D02*
X73333333Y-78582870D01*
X73333333Y-78582870D02*
X73333333Y-78725727D01*
X73333333Y-78725727D02*
X73285714Y-78916203D01*
X73285714Y-78916203D02*
X73238095Y-79011441D01*
X73238095Y-79011441D02*
X73142857Y-79106680D01*
X73142857Y-79106680D02*
X73000000Y-79154299D01*
X73000000Y-79154299D02*
X72761905Y-79154299D01*
X73714286Y-78249537D02*
X73761905Y-78201918D01*
X73761905Y-78201918D02*
X73857143Y-78154299D01*
X73857143Y-78154299D02*
X74095238Y-78154299D01*
X74095238Y-78154299D02*
X74190476Y-78201918D01*
X74190476Y-78201918D02*
X74238095Y-78249537D01*
X74238095Y-78249537D02*
X74285714Y-78344775D01*
X74285714Y-78344775D02*
X74285714Y-78440013D01*
X74285714Y-78440013D02*
X74238095Y-78582870D01*
X74238095Y-78582870D02*
X73666667Y-79154299D01*
X73666667Y-79154299D02*
X74285714Y-79154299D01*
X65970833Y-84754299D02*
X65637500Y-84278108D01*
X65399405Y-84754299D02*
X65399405Y-83754299D01*
X65399405Y-83754299D02*
X65780357Y-83754299D01*
X65780357Y-83754299D02*
X65875595Y-83801918D01*
X65875595Y-83801918D02*
X65923214Y-83849537D01*
X65923214Y-83849537D02*
X65970833Y-83944775D01*
X65970833Y-83944775D02*
X65970833Y-84087632D01*
X65970833Y-84087632D02*
X65923214Y-84182870D01*
X65923214Y-84182870D02*
X65875595Y-84230489D01*
X65875595Y-84230489D02*
X65780357Y-84278108D01*
X65780357Y-84278108D02*
X65399405Y-84278108D01*
X66304167Y-83754299D02*
X66923214Y-83754299D01*
X66923214Y-83754299D02*
X66589881Y-84135251D01*
X66589881Y-84135251D02*
X66732738Y-84135251D01*
X66732738Y-84135251D02*
X66827976Y-84182870D01*
X66827976Y-84182870D02*
X66875595Y-84230489D01*
X66875595Y-84230489D02*
X66923214Y-84325727D01*
X66923214Y-84325727D02*
X66923214Y-84563822D01*
X66923214Y-84563822D02*
X66875595Y-84659060D01*
X66875595Y-84659060D02*
X66827976Y-84706680D01*
X66827976Y-84706680D02*
X66732738Y-84754299D01*
X66732738Y-84754299D02*
X66447024Y-84754299D01*
X66447024Y-84754299D02*
X66351786Y-84706680D01*
X66351786Y-84706680D02*
X66304167Y-84659060D01*
X62638095Y-55854299D02*
X62638095Y-56663822D01*
X62638095Y-56663822D02*
X62685714Y-56759060D01*
X62685714Y-56759060D02*
X62733333Y-56806680D01*
X62733333Y-56806680D02*
X62828571Y-56854299D01*
X62828571Y-56854299D02*
X63019047Y-56854299D01*
X63019047Y-56854299D02*
X63114285Y-56806680D01*
X63114285Y-56806680D02*
X63161904Y-56759060D01*
X63161904Y-56759060D02*
X63209523Y-56663822D01*
X63209523Y-56663822D02*
X63209523Y-55854299D01*
X64209523Y-56854299D02*
X63638095Y-56854299D01*
X63923809Y-56854299D02*
X63923809Y-55854299D01*
X63923809Y-55854299D02*
X63828571Y-55997156D01*
X63828571Y-55997156D02*
X63733333Y-56092394D01*
X63733333Y-56092394D02*
X63638095Y-56140013D01*
X47743834Y-59639299D02*
X47839072Y-59639299D01*
X47839072Y-59639299D02*
X47934310Y-59686918D01*
X47934310Y-59686918D02*
X47981929Y-59734537D01*
X47981929Y-59734537D02*
X48029548Y-59829775D01*
X48029548Y-59829775D02*
X48077167Y-60020251D01*
X48077167Y-60020251D02*
X48077167Y-60258346D01*
X48077167Y-60258346D02*
X48029548Y-60448822D01*
X48029548Y-60448822D02*
X47981929Y-60544060D01*
X47981929Y-60544060D02*
X47934310Y-60591680D01*
X47934310Y-60591680D02*
X47839072Y-60639299D01*
X47839072Y-60639299D02*
X47743834Y-60639299D01*
X47743834Y-60639299D02*
X47648596Y-60591680D01*
X47648596Y-60591680D02*
X47600977Y-60544060D01*
X47600977Y-60544060D02*
X47553358Y-60448822D01*
X47553358Y-60448822D02*
X47505739Y-60258346D01*
X47505739Y-60258346D02*
X47505739Y-60020251D01*
X47505739Y-60020251D02*
X47553358Y-59829775D01*
X47553358Y-59829775D02*
X47600977Y-59734537D01*
X47600977Y-59734537D02*
X47648596Y-59686918D01*
X47648596Y-59686918D02*
X47743834Y-59639299D01*
X56277167Y-59686918D02*
X56181929Y-59639299D01*
X56181929Y-59639299D02*
X56039072Y-59639299D01*
X56039072Y-59639299D02*
X55896215Y-59686918D01*
X55896215Y-59686918D02*
X55800977Y-59782156D01*
X55800977Y-59782156D02*
X55753358Y-59877394D01*
X55753358Y-59877394D02*
X55705739Y-60067870D01*
X55705739Y-60067870D02*
X55705739Y-60210727D01*
X55705739Y-60210727D02*
X55753358Y-60401203D01*
X55753358Y-60401203D02*
X55800977Y-60496441D01*
X55800977Y-60496441D02*
X55896215Y-60591680D01*
X55896215Y-60591680D02*
X56039072Y-60639299D01*
X56039072Y-60639299D02*
X56134310Y-60639299D01*
X56134310Y-60639299D02*
X56277167Y-60591680D01*
X56277167Y-60591680D02*
X56324786Y-60544060D01*
X56324786Y-60544060D02*
X56324786Y-60210727D01*
X56324786Y-60210727D02*
X56134310Y-60210727D01*
X56753358Y-60639299D02*
X56753358Y-59639299D01*
X56753358Y-59639299D02*
X57324786Y-60639299D01*
X57324786Y-60639299D02*
X57324786Y-59639299D01*
X57800977Y-60639299D02*
X57800977Y-59639299D01*
X57800977Y-59639299D02*
X58039072Y-59639299D01*
X58039072Y-59639299D02*
X58181929Y-59686918D01*
X58181929Y-59686918D02*
X58277167Y-59782156D01*
X58277167Y-59782156D02*
X58324786Y-59877394D01*
X58324786Y-59877394D02*
X58372405Y-60067870D01*
X58372405Y-60067870D02*
X58372405Y-60210727D01*
X58372405Y-60210727D02*
X58324786Y-60401203D01*
X58324786Y-60401203D02*
X58277167Y-60496441D01*
X58277167Y-60496441D02*
X58181929Y-60591680D01*
X58181929Y-60591680D02*
X58039072Y-60639299D01*
X58039072Y-60639299D02*
X57800977Y-60639299D01*
X57277167Y-91139299D02*
X56705739Y-91139299D01*
X56991453Y-91139299D02*
X56991453Y-90139299D01*
X56991453Y-90139299D02*
X56896215Y-90282156D01*
X56896215Y-90282156D02*
X56800977Y-90377394D01*
X56800977Y-90377394D02*
X56705739Y-90425013D01*
X57610501Y-90139299D02*
X58229548Y-90139299D01*
X58229548Y-90139299D02*
X57896215Y-90520251D01*
X57896215Y-90520251D02*
X58039072Y-90520251D01*
X58039072Y-90520251D02*
X58134310Y-90567870D01*
X58134310Y-90567870D02*
X58181929Y-90615489D01*
X58181929Y-90615489D02*
X58229548Y-90710727D01*
X58229548Y-90710727D02*
X58229548Y-90948822D01*
X58229548Y-90948822D02*
X58181929Y-91044060D01*
X58181929Y-91044060D02*
X58134310Y-91091680D01*
X58134310Y-91091680D02*
X58039072Y-91139299D01*
X58039072Y-91139299D02*
X57753358Y-91139299D01*
X57753358Y-91139299D02*
X57658120Y-91091680D01*
X57658120Y-91091680D02*
X57610501Y-91044060D01*
X57277167Y-80939299D02*
X56705739Y-80939299D01*
X56991453Y-80939299D02*
X56991453Y-79939299D01*
X56991453Y-79939299D02*
X56896215Y-80082156D01*
X56896215Y-80082156D02*
X56800977Y-80177394D01*
X56800977Y-80177394D02*
X56705739Y-80225013D01*
X57610501Y-79939299D02*
X58277167Y-79939299D01*
X58277167Y-79939299D02*
X57848596Y-80939299D01*
X47378120Y-77439299D02*
X48044786Y-77439299D01*
X48044786Y-77439299D02*
X47616215Y-78439299D01*
X47977167Y-63139299D02*
X47405739Y-63139299D01*
X47691453Y-63139299D02*
X47691453Y-62139299D01*
X47691453Y-62139299D02*
X47596215Y-62282156D01*
X47596215Y-62282156D02*
X47500977Y-62377394D01*
X47500977Y-62377394D02*
X47405739Y-62425013D01*
X56410501Y-56939299D02*
X56743834Y-57939299D01*
X56743834Y-57939299D02*
X57077167Y-56939299D01*
X57410501Y-57939299D02*
X57410501Y-57272632D01*
X57410501Y-56939299D02*
X57362882Y-56986918D01*
X57362882Y-56986918D02*
X57410501Y-57034537D01*
X57410501Y-57034537D02*
X57458120Y-56986918D01*
X57458120Y-56986918D02*
X57410501Y-56939299D01*
X57410501Y-56939299D02*
X57410501Y-57034537D01*
X57886691Y-57272632D02*
X57886691Y-57939299D01*
X57886691Y-57367870D02*
X57934310Y-57320251D01*
X57934310Y-57320251D02*
X58029548Y-57272632D01*
X58029548Y-57272632D02*
X58172405Y-57272632D01*
X58172405Y-57272632D02*
X58267643Y-57320251D01*
X58267643Y-57320251D02*
X58315262Y-57415489D01*
X58315262Y-57415489D02*
X58315262Y-57939299D01*
X57277167Y-83439299D02*
X56705739Y-83439299D01*
X56991453Y-83439299D02*
X56991453Y-82439299D01*
X56991453Y-82439299D02*
X56896215Y-82582156D01*
X56896215Y-82582156D02*
X56800977Y-82677394D01*
X56800977Y-82677394D02*
X56705739Y-82725013D01*
X58134310Y-82439299D02*
X57943834Y-82439299D01*
X57943834Y-82439299D02*
X57848596Y-82486918D01*
X57848596Y-82486918D02*
X57800977Y-82534537D01*
X57800977Y-82534537D02*
X57705739Y-82677394D01*
X57705739Y-82677394D02*
X57658120Y-82867870D01*
X57658120Y-82867870D02*
X57658120Y-83248822D01*
X57658120Y-83248822D02*
X57705739Y-83344060D01*
X57705739Y-83344060D02*
X57753358Y-83391680D01*
X57753358Y-83391680D02*
X57848596Y-83439299D01*
X57848596Y-83439299D02*
X58039072Y-83439299D01*
X58039072Y-83439299D02*
X58134310Y-83391680D01*
X58134310Y-83391680D02*
X58181929Y-83344060D01*
X58181929Y-83344060D02*
X58229548Y-83248822D01*
X58229548Y-83248822D02*
X58229548Y-83010727D01*
X58229548Y-83010727D02*
X58181929Y-82915489D01*
X58181929Y-82915489D02*
X58134310Y-82867870D01*
X58134310Y-82867870D02*
X58039072Y-82820251D01*
X58039072Y-82820251D02*
X57848596Y-82820251D01*
X57848596Y-82820251D02*
X57753358Y-82867870D01*
X57753358Y-82867870D02*
X57705739Y-82915489D01*
X57705739Y-82915489D02*
X57658120Y-83010727D01*
X57277167Y-78439299D02*
X56705739Y-78439299D01*
X56991453Y-78439299D02*
X56991453Y-77439299D01*
X56991453Y-77439299D02*
X56896215Y-77582156D01*
X56896215Y-77582156D02*
X56800977Y-77677394D01*
X56800977Y-77677394D02*
X56705739Y-77725013D01*
X57848596Y-77867870D02*
X57753358Y-77820251D01*
X57753358Y-77820251D02*
X57705739Y-77772632D01*
X57705739Y-77772632D02*
X57658120Y-77677394D01*
X57658120Y-77677394D02*
X57658120Y-77629775D01*
X57658120Y-77629775D02*
X57705739Y-77534537D01*
X57705739Y-77534537D02*
X57753358Y-77486918D01*
X57753358Y-77486918D02*
X57848596Y-77439299D01*
X57848596Y-77439299D02*
X58039072Y-77439299D01*
X58039072Y-77439299D02*
X58134310Y-77486918D01*
X58134310Y-77486918D02*
X58181929Y-77534537D01*
X58181929Y-77534537D02*
X58229548Y-77629775D01*
X58229548Y-77629775D02*
X58229548Y-77677394D01*
X58229548Y-77677394D02*
X58181929Y-77772632D01*
X58181929Y-77772632D02*
X58134310Y-77820251D01*
X58134310Y-77820251D02*
X58039072Y-77867870D01*
X58039072Y-77867870D02*
X57848596Y-77867870D01*
X57848596Y-77867870D02*
X57753358Y-77915489D01*
X57753358Y-77915489D02*
X57705739Y-77963108D01*
X57705739Y-77963108D02*
X57658120Y-78058346D01*
X57658120Y-78058346D02*
X57658120Y-78248822D01*
X57658120Y-78248822D02*
X57705739Y-78344060D01*
X57705739Y-78344060D02*
X57753358Y-78391680D01*
X57753358Y-78391680D02*
X57848596Y-78439299D01*
X57848596Y-78439299D02*
X58039072Y-78439299D01*
X58039072Y-78439299D02*
X58134310Y-78391680D01*
X58134310Y-78391680D02*
X58181929Y-78344060D01*
X58181929Y-78344060D02*
X58229548Y-78248822D01*
X58229548Y-78248822D02*
X58229548Y-78058346D01*
X58229548Y-78058346D02*
X58181929Y-77963108D01*
X58181929Y-77963108D02*
X58134310Y-77915489D01*
X58134310Y-77915489D02*
X58039072Y-77867870D01*
X57257167Y-85939299D02*
X56685739Y-85939299D01*
X56971453Y-85939299D02*
X56971453Y-84939299D01*
X56971453Y-84939299D02*
X56876215Y-85082156D01*
X56876215Y-85082156D02*
X56780977Y-85177394D01*
X56780977Y-85177394D02*
X56685739Y-85225013D01*
X58161929Y-84939299D02*
X57685739Y-84939299D01*
X57685739Y-84939299D02*
X57638120Y-85415489D01*
X57638120Y-85415489D02*
X57685739Y-85367870D01*
X57685739Y-85367870D02*
X57780977Y-85320251D01*
X57780977Y-85320251D02*
X58019072Y-85320251D01*
X58019072Y-85320251D02*
X58114310Y-85367870D01*
X58114310Y-85367870D02*
X58161929Y-85415489D01*
X58161929Y-85415489D02*
X58209548Y-85510727D01*
X58209548Y-85510727D02*
X58209548Y-85748822D01*
X58209548Y-85748822D02*
X58161929Y-85844060D01*
X58161929Y-85844060D02*
X58114310Y-85891680D01*
X58114310Y-85891680D02*
X58019072Y-85939299D01*
X58019072Y-85939299D02*
X57780977Y-85939299D01*
X57780977Y-85939299D02*
X57685739Y-85891680D01*
X57685739Y-85891680D02*
X57638120Y-85844060D01*
X47901929Y-70072632D02*
X47901929Y-70739299D01*
X47663834Y-69691680D02*
X47425739Y-70405965D01*
X47425739Y-70405965D02*
X48044786Y-70405965D01*
X57277167Y-88539299D02*
X56705739Y-88539299D01*
X56991453Y-88539299D02*
X56991453Y-87539299D01*
X56991453Y-87539299D02*
X56896215Y-87682156D01*
X56896215Y-87682156D02*
X56800977Y-87777394D01*
X56800977Y-87777394D02*
X56705739Y-87825013D01*
X58134310Y-87872632D02*
X58134310Y-88539299D01*
X57896215Y-87491680D02*
X57658120Y-88205965D01*
X57658120Y-88205965D02*
X58277167Y-88205965D01*
X47997167Y-91139299D02*
X47425739Y-91139299D01*
X47711453Y-91139299D02*
X47711453Y-90139299D01*
X47711453Y-90139299D02*
X47616215Y-90282156D01*
X47616215Y-90282156D02*
X47520977Y-90377394D01*
X47520977Y-90377394D02*
X47425739Y-90425013D01*
X48378120Y-90234537D02*
X48425739Y-90186918D01*
X48425739Y-90186918D02*
X48520977Y-90139299D01*
X48520977Y-90139299D02*
X48759072Y-90139299D01*
X48759072Y-90139299D02*
X48854310Y-90186918D01*
X48854310Y-90186918D02*
X48901929Y-90234537D01*
X48901929Y-90234537D02*
X48949548Y-90329775D01*
X48949548Y-90329775D02*
X48949548Y-90425013D01*
X48949548Y-90425013D02*
X48901929Y-90567870D01*
X48901929Y-90567870D02*
X48330501Y-91139299D01*
X48330501Y-91139299D02*
X48949548Y-91139299D01*
X47901929Y-74839299D02*
X47711453Y-74839299D01*
X47711453Y-74839299D02*
X47616215Y-74886918D01*
X47616215Y-74886918D02*
X47568596Y-74934537D01*
X47568596Y-74934537D02*
X47473358Y-75077394D01*
X47473358Y-75077394D02*
X47425739Y-75267870D01*
X47425739Y-75267870D02*
X47425739Y-75648822D01*
X47425739Y-75648822D02*
X47473358Y-75744060D01*
X47473358Y-75744060D02*
X47520977Y-75791680D01*
X47520977Y-75791680D02*
X47616215Y-75839299D01*
X47616215Y-75839299D02*
X47806691Y-75839299D01*
X47806691Y-75839299D02*
X47901929Y-75791680D01*
X47901929Y-75791680D02*
X47949548Y-75744060D01*
X47949548Y-75744060D02*
X47997167Y-75648822D01*
X47997167Y-75648822D02*
X47997167Y-75410727D01*
X47997167Y-75410727D02*
X47949548Y-75315489D01*
X47949548Y-75315489D02*
X47901929Y-75267870D01*
X47901929Y-75267870D02*
X47806691Y-75220251D01*
X47806691Y-75220251D02*
X47616215Y-75220251D01*
X47616215Y-75220251D02*
X47520977Y-75267870D01*
X47520977Y-75267870D02*
X47473358Y-75315489D01*
X47473358Y-75315489D02*
X47425739Y-75410727D01*
X48077167Y-57486918D02*
X47981929Y-57439299D01*
X47981929Y-57439299D02*
X47839072Y-57439299D01*
X47839072Y-57439299D02*
X47696215Y-57486918D01*
X47696215Y-57486918D02*
X47600977Y-57582156D01*
X47600977Y-57582156D02*
X47553358Y-57677394D01*
X47553358Y-57677394D02*
X47505739Y-57867870D01*
X47505739Y-57867870D02*
X47505739Y-58010727D01*
X47505739Y-58010727D02*
X47553358Y-58201203D01*
X47553358Y-58201203D02*
X47600977Y-58296441D01*
X47600977Y-58296441D02*
X47696215Y-58391680D01*
X47696215Y-58391680D02*
X47839072Y-58439299D01*
X47839072Y-58439299D02*
X47934310Y-58439299D01*
X47934310Y-58439299D02*
X48077167Y-58391680D01*
X48077167Y-58391680D02*
X48124786Y-58344060D01*
X48124786Y-58344060D02*
X48124786Y-58010727D01*
X48124786Y-58010727D02*
X47934310Y-58010727D01*
X48553358Y-58439299D02*
X48553358Y-57439299D01*
X48553358Y-57439299D02*
X49124786Y-58439299D01*
X49124786Y-58439299D02*
X49124786Y-57439299D01*
X49600977Y-58439299D02*
X49600977Y-57439299D01*
X49600977Y-57439299D02*
X49839072Y-57439299D01*
X49839072Y-57439299D02*
X49981929Y-57486918D01*
X49981929Y-57486918D02*
X50077167Y-57582156D01*
X50077167Y-57582156D02*
X50124786Y-57677394D01*
X50124786Y-57677394D02*
X50172405Y-57867870D01*
X50172405Y-57867870D02*
X50172405Y-58010727D01*
X50172405Y-58010727D02*
X50124786Y-58201203D01*
X50124786Y-58201203D02*
X50077167Y-58296441D01*
X50077167Y-58296441D02*
X49981929Y-58391680D01*
X49981929Y-58391680D02*
X49839072Y-58439299D01*
X49839072Y-58439299D02*
X49600977Y-58439299D01*
X47425739Y-64734537D02*
X47473358Y-64686918D01*
X47473358Y-64686918D02*
X47568596Y-64639299D01*
X47568596Y-64639299D02*
X47806691Y-64639299D01*
X47806691Y-64639299D02*
X47901929Y-64686918D01*
X47901929Y-64686918D02*
X47949548Y-64734537D01*
X47949548Y-64734537D02*
X47997167Y-64829775D01*
X47997167Y-64829775D02*
X47997167Y-64925013D01*
X47997167Y-64925013D02*
X47949548Y-65067870D01*
X47949548Y-65067870D02*
X47378120Y-65639299D01*
X47378120Y-65639299D02*
X47997167Y-65639299D01*
X47977167Y-85939299D02*
X47405739Y-85939299D01*
X47691453Y-85939299D02*
X47691453Y-84939299D01*
X47691453Y-84939299D02*
X47596215Y-85082156D01*
X47596215Y-85082156D02*
X47500977Y-85177394D01*
X47500977Y-85177394D02*
X47405739Y-85225013D01*
X48596215Y-84939299D02*
X48691453Y-84939299D01*
X48691453Y-84939299D02*
X48786691Y-84986918D01*
X48786691Y-84986918D02*
X48834310Y-85034537D01*
X48834310Y-85034537D02*
X48881929Y-85129775D01*
X48881929Y-85129775D02*
X48929548Y-85320251D01*
X48929548Y-85320251D02*
X48929548Y-85558346D01*
X48929548Y-85558346D02*
X48881929Y-85748822D01*
X48881929Y-85748822D02*
X48834310Y-85844060D01*
X48834310Y-85844060D02*
X48786691Y-85891680D01*
X48786691Y-85891680D02*
X48691453Y-85939299D01*
X48691453Y-85939299D02*
X48596215Y-85939299D01*
X48596215Y-85939299D02*
X48500977Y-85891680D01*
X48500977Y-85891680D02*
X48453358Y-85844060D01*
X48453358Y-85844060D02*
X48405739Y-85748822D01*
X48405739Y-85748822D02*
X48358120Y-85558346D01*
X48358120Y-85558346D02*
X48358120Y-85320251D01*
X48358120Y-85320251D02*
X48405739Y-85129775D01*
X48405739Y-85129775D02*
X48453358Y-85034537D01*
X48453358Y-85034537D02*
X48500977Y-84986918D01*
X48500977Y-84986918D02*
X48596215Y-84939299D01*
X47520977Y-83439299D02*
X47711453Y-83439299D01*
X47711453Y-83439299D02*
X47806691Y-83391680D01*
X47806691Y-83391680D02*
X47854310Y-83344060D01*
X47854310Y-83344060D02*
X47949548Y-83201203D01*
X47949548Y-83201203D02*
X47997167Y-83010727D01*
X47997167Y-83010727D02*
X47997167Y-82629775D01*
X47997167Y-82629775D02*
X47949548Y-82534537D01*
X47949548Y-82534537D02*
X47901929Y-82486918D01*
X47901929Y-82486918D02*
X47806691Y-82439299D01*
X47806691Y-82439299D02*
X47616215Y-82439299D01*
X47616215Y-82439299D02*
X47520977Y-82486918D01*
X47520977Y-82486918D02*
X47473358Y-82534537D01*
X47473358Y-82534537D02*
X47425739Y-82629775D01*
X47425739Y-82629775D02*
X47425739Y-82867870D01*
X47425739Y-82867870D02*
X47473358Y-82963108D01*
X47473358Y-82963108D02*
X47520977Y-83010727D01*
X47520977Y-83010727D02*
X47616215Y-83058346D01*
X47616215Y-83058346D02*
X47806691Y-83058346D01*
X47806691Y-83058346D02*
X47901929Y-83010727D01*
X47901929Y-83010727D02*
X47949548Y-82963108D01*
X47949548Y-82963108D02*
X47997167Y-82867870D01*
X57277167Y-75839299D02*
X56705739Y-75839299D01*
X56991453Y-75839299D02*
X56991453Y-74839299D01*
X56991453Y-74839299D02*
X56896215Y-74982156D01*
X56896215Y-74982156D02*
X56800977Y-75077394D01*
X56800977Y-75077394D02*
X56705739Y-75125013D01*
X57753358Y-75839299D02*
X57943834Y-75839299D01*
X57943834Y-75839299D02*
X58039072Y-75791680D01*
X58039072Y-75791680D02*
X58086691Y-75744060D01*
X58086691Y-75744060D02*
X58181929Y-75601203D01*
X58181929Y-75601203D02*
X58229548Y-75410727D01*
X58229548Y-75410727D02*
X58229548Y-75029775D01*
X58229548Y-75029775D02*
X58181929Y-74934537D01*
X58181929Y-74934537D02*
X58134310Y-74886918D01*
X58134310Y-74886918D02*
X58039072Y-74839299D01*
X58039072Y-74839299D02*
X57848596Y-74839299D01*
X57848596Y-74839299D02*
X57753358Y-74886918D01*
X57753358Y-74886918D02*
X57705739Y-74934537D01*
X57705739Y-74934537D02*
X57658120Y-75029775D01*
X57658120Y-75029775D02*
X57658120Y-75267870D01*
X57658120Y-75267870D02*
X57705739Y-75363108D01*
X57705739Y-75363108D02*
X57753358Y-75410727D01*
X57753358Y-75410727D02*
X57848596Y-75458346D01*
X57848596Y-75458346D02*
X58039072Y-75458346D01*
X58039072Y-75458346D02*
X58134310Y-75410727D01*
X58134310Y-75410727D02*
X58181929Y-75363108D01*
X58181929Y-75363108D02*
X58229548Y-75267870D01*
X47378120Y-67239299D02*
X47997167Y-67239299D01*
X47997167Y-67239299D02*
X47663834Y-67620251D01*
X47663834Y-67620251D02*
X47806691Y-67620251D01*
X47806691Y-67620251D02*
X47901929Y-67667870D01*
X47901929Y-67667870D02*
X47949548Y-67715489D01*
X47949548Y-67715489D02*
X47997167Y-67810727D01*
X47997167Y-67810727D02*
X47997167Y-68048822D01*
X47997167Y-68048822D02*
X47949548Y-68144060D01*
X47949548Y-68144060D02*
X47901929Y-68191680D01*
X47901929Y-68191680D02*
X47806691Y-68239299D01*
X47806691Y-68239299D02*
X47520977Y-68239299D01*
X47520977Y-68239299D02*
X47425739Y-68191680D01*
X47425739Y-68191680D02*
X47378120Y-68144060D01*
X47997167Y-88539299D02*
X47425739Y-88539299D01*
X47711453Y-88539299D02*
X47711453Y-87539299D01*
X47711453Y-87539299D02*
X47616215Y-87682156D01*
X47616215Y-87682156D02*
X47520977Y-87777394D01*
X47520977Y-87777394D02*
X47425739Y-87825013D01*
X48949548Y-88539299D02*
X48378120Y-88539299D01*
X48663834Y-88539299D02*
X48663834Y-87539299D01*
X48663834Y-87539299D02*
X48568596Y-87682156D01*
X48568596Y-87682156D02*
X48473358Y-87777394D01*
X48473358Y-87777394D02*
X48378120Y-87825013D01*
X47616215Y-80367870D02*
X47520977Y-80320251D01*
X47520977Y-80320251D02*
X47473358Y-80272632D01*
X47473358Y-80272632D02*
X47425739Y-80177394D01*
X47425739Y-80177394D02*
X47425739Y-80129775D01*
X47425739Y-80129775D02*
X47473358Y-80034537D01*
X47473358Y-80034537D02*
X47520977Y-79986918D01*
X47520977Y-79986918D02*
X47616215Y-79939299D01*
X47616215Y-79939299D02*
X47806691Y-79939299D01*
X47806691Y-79939299D02*
X47901929Y-79986918D01*
X47901929Y-79986918D02*
X47949548Y-80034537D01*
X47949548Y-80034537D02*
X47997167Y-80129775D01*
X47997167Y-80129775D02*
X47997167Y-80177394D01*
X47997167Y-80177394D02*
X47949548Y-80272632D01*
X47949548Y-80272632D02*
X47901929Y-80320251D01*
X47901929Y-80320251D02*
X47806691Y-80367870D01*
X47806691Y-80367870D02*
X47616215Y-80367870D01*
X47616215Y-80367870D02*
X47520977Y-80415489D01*
X47520977Y-80415489D02*
X47473358Y-80463108D01*
X47473358Y-80463108D02*
X47425739Y-80558346D01*
X47425739Y-80558346D02*
X47425739Y-80748822D01*
X47425739Y-80748822D02*
X47473358Y-80844060D01*
X47473358Y-80844060D02*
X47520977Y-80891680D01*
X47520977Y-80891680D02*
X47616215Y-80939299D01*
X47616215Y-80939299D02*
X47806691Y-80939299D01*
X47806691Y-80939299D02*
X47901929Y-80891680D01*
X47901929Y-80891680D02*
X47949548Y-80844060D01*
X47949548Y-80844060D02*
X47997167Y-80748822D01*
X47997167Y-80748822D02*
X47997167Y-80558346D01*
X47997167Y-80558346D02*
X47949548Y-80463108D01*
X47949548Y-80463108D02*
X47901929Y-80415489D01*
X47901929Y-80415489D02*
X47806691Y-80367870D01*
X56705739Y-69834537D02*
X56753358Y-69786918D01*
X56753358Y-69786918D02*
X56848596Y-69739299D01*
X56848596Y-69739299D02*
X57086691Y-69739299D01*
X57086691Y-69739299D02*
X57181929Y-69786918D01*
X57181929Y-69786918D02*
X57229548Y-69834537D01*
X57229548Y-69834537D02*
X57277167Y-69929775D01*
X57277167Y-69929775D02*
X57277167Y-70025013D01*
X57277167Y-70025013D02*
X57229548Y-70167870D01*
X57229548Y-70167870D02*
X56658120Y-70739299D01*
X56658120Y-70739299D02*
X57277167Y-70739299D01*
X58229548Y-70739299D02*
X57658120Y-70739299D01*
X57943834Y-70739299D02*
X57943834Y-69739299D01*
X57943834Y-69739299D02*
X57848596Y-69882156D01*
X57848596Y-69882156D02*
X57753358Y-69977394D01*
X57753358Y-69977394D02*
X57658120Y-70025013D01*
X47929548Y-72339299D02*
X47453358Y-72339299D01*
X47453358Y-72339299D02*
X47405739Y-72815489D01*
X47405739Y-72815489D02*
X47453358Y-72767870D01*
X47453358Y-72767870D02*
X47548596Y-72720251D01*
X47548596Y-72720251D02*
X47786691Y-72720251D01*
X47786691Y-72720251D02*
X47881929Y-72767870D01*
X47881929Y-72767870D02*
X47929548Y-72815489D01*
X47929548Y-72815489D02*
X47977167Y-72910727D01*
X47977167Y-72910727D02*
X47977167Y-73148822D01*
X47977167Y-73148822D02*
X47929548Y-73244060D01*
X47929548Y-73244060D02*
X47881929Y-73291680D01*
X47881929Y-73291680D02*
X47786691Y-73339299D01*
X47786691Y-73339299D02*
X47548596Y-73339299D01*
X47548596Y-73339299D02*
X47453358Y-73291680D01*
X47453358Y-73291680D02*
X47405739Y-73244060D01*
X56705739Y-64734537D02*
X56753358Y-64686918D01*
X56753358Y-64686918D02*
X56848596Y-64639299D01*
X56848596Y-64639299D02*
X57086691Y-64639299D01*
X57086691Y-64639299D02*
X57181929Y-64686918D01*
X57181929Y-64686918D02*
X57229548Y-64734537D01*
X57229548Y-64734537D02*
X57277167Y-64829775D01*
X57277167Y-64829775D02*
X57277167Y-64925013D01*
X57277167Y-64925013D02*
X57229548Y-65067870D01*
X57229548Y-65067870D02*
X56658120Y-65639299D01*
X56658120Y-65639299D02*
X57277167Y-65639299D01*
X57610501Y-64639299D02*
X58229548Y-64639299D01*
X58229548Y-64639299D02*
X57896215Y-65020251D01*
X57896215Y-65020251D02*
X58039072Y-65020251D01*
X58039072Y-65020251D02*
X58134310Y-65067870D01*
X58134310Y-65067870D02*
X58181929Y-65115489D01*
X58181929Y-65115489D02*
X58229548Y-65210727D01*
X58229548Y-65210727D02*
X58229548Y-65448822D01*
X58229548Y-65448822D02*
X58181929Y-65544060D01*
X58181929Y-65544060D02*
X58134310Y-65591680D01*
X58134310Y-65591680D02*
X58039072Y-65639299D01*
X58039072Y-65639299D02*
X57753358Y-65639299D01*
X57753358Y-65639299D02*
X57658120Y-65591680D01*
X57658120Y-65591680D02*
X57610501Y-65544060D01*
X55258120Y-62239299D02*
X55877167Y-62239299D01*
X55877167Y-62239299D02*
X55543834Y-62620251D01*
X55543834Y-62620251D02*
X55686691Y-62620251D01*
X55686691Y-62620251D02*
X55781929Y-62667870D01*
X55781929Y-62667870D02*
X55829548Y-62715489D01*
X55829548Y-62715489D02*
X55877167Y-62810727D01*
X55877167Y-62810727D02*
X55877167Y-63048822D01*
X55877167Y-63048822D02*
X55829548Y-63144060D01*
X55829548Y-63144060D02*
X55781929Y-63191680D01*
X55781929Y-63191680D02*
X55686691Y-63239299D01*
X55686691Y-63239299D02*
X55400977Y-63239299D01*
X55400977Y-63239299D02*
X55305739Y-63191680D01*
X55305739Y-63191680D02*
X55258120Y-63144060D01*
X56305739Y-63144060D02*
X56353358Y-63191680D01*
X56353358Y-63191680D02*
X56305739Y-63239299D01*
X56305739Y-63239299D02*
X56258120Y-63191680D01*
X56258120Y-63191680D02*
X56305739Y-63144060D01*
X56305739Y-63144060D02*
X56305739Y-63239299D01*
X56686691Y-62239299D02*
X57305738Y-62239299D01*
X57305738Y-62239299D02*
X56972405Y-62620251D01*
X56972405Y-62620251D02*
X57115262Y-62620251D01*
X57115262Y-62620251D02*
X57210500Y-62667870D01*
X57210500Y-62667870D02*
X57258119Y-62715489D01*
X57258119Y-62715489D02*
X57305738Y-62810727D01*
X57305738Y-62810727D02*
X57305738Y-63048822D01*
X57305738Y-63048822D02*
X57258119Y-63144060D01*
X57258119Y-63144060D02*
X57210500Y-63191680D01*
X57210500Y-63191680D02*
X57115262Y-63239299D01*
X57115262Y-63239299D02*
X56829548Y-63239299D01*
X56829548Y-63239299D02*
X56734310Y-63191680D01*
X56734310Y-63191680D02*
X56686691Y-63144060D01*
X57591453Y-62239299D02*
X57924786Y-63239299D01*
X57924786Y-63239299D02*
X58258119Y-62239299D01*
X56705739Y-67334537D02*
X56753358Y-67286918D01*
X56753358Y-67286918D02*
X56848596Y-67239299D01*
X56848596Y-67239299D02*
X57086691Y-67239299D01*
X57086691Y-67239299D02*
X57181929Y-67286918D01*
X57181929Y-67286918D02*
X57229548Y-67334537D01*
X57229548Y-67334537D02*
X57277167Y-67429775D01*
X57277167Y-67429775D02*
X57277167Y-67525013D01*
X57277167Y-67525013D02*
X57229548Y-67667870D01*
X57229548Y-67667870D02*
X56658120Y-68239299D01*
X56658120Y-68239299D02*
X57277167Y-68239299D01*
X57658120Y-67334537D02*
X57705739Y-67286918D01*
X57705739Y-67286918D02*
X57800977Y-67239299D01*
X57800977Y-67239299D02*
X58039072Y-67239299D01*
X58039072Y-67239299D02*
X58134310Y-67286918D01*
X58134310Y-67286918D02*
X58181929Y-67334537D01*
X58181929Y-67334537D02*
X58229548Y-67429775D01*
X58229548Y-67429775D02*
X58229548Y-67525013D01*
X58229548Y-67525013D02*
X58181929Y-67667870D01*
X58181929Y-67667870D02*
X57610501Y-68239299D01*
X57610501Y-68239299D02*
X58229548Y-68239299D01*
X56685739Y-72434537D02*
X56733358Y-72386918D01*
X56733358Y-72386918D02*
X56828596Y-72339299D01*
X56828596Y-72339299D02*
X57066691Y-72339299D01*
X57066691Y-72339299D02*
X57161929Y-72386918D01*
X57161929Y-72386918D02*
X57209548Y-72434537D01*
X57209548Y-72434537D02*
X57257167Y-72529775D01*
X57257167Y-72529775D02*
X57257167Y-72625013D01*
X57257167Y-72625013D02*
X57209548Y-72767870D01*
X57209548Y-72767870D02*
X56638120Y-73339299D01*
X56638120Y-73339299D02*
X57257167Y-73339299D01*
X57876215Y-72339299D02*
X57971453Y-72339299D01*
X57971453Y-72339299D02*
X58066691Y-72386918D01*
X58066691Y-72386918D02*
X58114310Y-72434537D01*
X58114310Y-72434537D02*
X58161929Y-72529775D01*
X58161929Y-72529775D02*
X58209548Y-72720251D01*
X58209548Y-72720251D02*
X58209548Y-72958346D01*
X58209548Y-72958346D02*
X58161929Y-73148822D01*
X58161929Y-73148822D02*
X58114310Y-73244060D01*
X58114310Y-73244060D02*
X58066691Y-73291680D01*
X58066691Y-73291680D02*
X57971453Y-73339299D01*
X57971453Y-73339299D02*
X57876215Y-73339299D01*
X57876215Y-73339299D02*
X57780977Y-73291680D01*
X57780977Y-73291680D02*
X57733358Y-73244060D01*
X57733358Y-73244060D02*
X57685739Y-73148822D01*
X57685739Y-73148822D02*
X57638120Y-72958346D01*
X57638120Y-72958346D02*
X57638120Y-72720251D01*
X57638120Y-72720251D02*
X57685739Y-72529775D01*
X57685739Y-72529775D02*
X57733358Y-72434537D01*
X57733358Y-72434537D02*
X57780977Y-72386918D01*
X57780977Y-72386918D02*
X57876215Y-72339299D01*
X65870833Y-79254299D02*
X65537500Y-78778108D01*
X65299405Y-79254299D02*
X65299405Y-78254299D01*
X65299405Y-78254299D02*
X65680357Y-78254299D01*
X65680357Y-78254299D02*
X65775595Y-78301918D01*
X65775595Y-78301918D02*
X65823214Y-78349537D01*
X65823214Y-78349537D02*
X65870833Y-78444775D01*
X65870833Y-78444775D02*
X65870833Y-78587632D01*
X65870833Y-78587632D02*
X65823214Y-78682870D01*
X65823214Y-78682870D02*
X65775595Y-78730489D01*
X65775595Y-78730489D02*
X65680357Y-78778108D01*
X65680357Y-78778108D02*
X65299405Y-78778108D01*
X66727976Y-78587632D02*
X66727976Y-79254299D01*
X66489881Y-78206680D02*
X66251786Y-78920965D01*
X66251786Y-78920965D02*
X66870833Y-78920965D01*
X74033333Y-71254299D02*
X73700000Y-70778108D01*
X73461905Y-71254299D02*
X73461905Y-70254299D01*
X73461905Y-70254299D02*
X73842857Y-70254299D01*
X73842857Y-70254299D02*
X73938095Y-70301918D01*
X73938095Y-70301918D02*
X73985714Y-70349537D01*
X73985714Y-70349537D02*
X74033333Y-70444775D01*
X74033333Y-70444775D02*
X74033333Y-70587632D01*
X74033333Y-70587632D02*
X73985714Y-70682870D01*
X73985714Y-70682870D02*
X73938095Y-70730489D01*
X73938095Y-70730489D02*
X73842857Y-70778108D01*
X73842857Y-70778108D02*
X73461905Y-70778108D01*
X74414286Y-70349537D02*
X74461905Y-70301918D01*
X74461905Y-70301918D02*
X74557143Y-70254299D01*
X74557143Y-70254299D02*
X74795238Y-70254299D01*
X74795238Y-70254299D02*
X74890476Y-70301918D01*
X74890476Y-70301918D02*
X74938095Y-70349537D01*
X74938095Y-70349537D02*
X74985714Y-70444775D01*
X74985714Y-70444775D02*
X74985714Y-70540013D01*
X74985714Y-70540013D02*
X74938095Y-70682870D01*
X74938095Y-70682870D02*
X74366667Y-71254299D01*
X74366667Y-71254299D02*
X74985714Y-71254299D01*
X72761905Y-84754299D02*
X72761905Y-83754299D01*
X72761905Y-83754299D02*
X73000000Y-83754299D01*
X73000000Y-83754299D02*
X73142857Y-83801918D01*
X73142857Y-83801918D02*
X73238095Y-83897156D01*
X73238095Y-83897156D02*
X73285714Y-83992394D01*
X73285714Y-83992394D02*
X73333333Y-84182870D01*
X73333333Y-84182870D02*
X73333333Y-84325727D01*
X73333333Y-84325727D02*
X73285714Y-84516203D01*
X73285714Y-84516203D02*
X73238095Y-84611441D01*
X73238095Y-84611441D02*
X73142857Y-84706680D01*
X73142857Y-84706680D02*
X73000000Y-84754299D01*
X73000000Y-84754299D02*
X72761905Y-84754299D01*
X74285714Y-84754299D02*
X73714286Y-84754299D01*
X74000000Y-84754299D02*
X74000000Y-83754299D01*
X74000000Y-83754299D02*
X73904762Y-83897156D01*
X73904762Y-83897156D02*
X73809524Y-83992394D01*
X73809524Y-83992394D02*
X73714286Y-84040013D01*
X66266666Y-67554299D02*
X66266666Y-68268584D01*
X66266666Y-68268584D02*
X66219047Y-68411441D01*
X66219047Y-68411441D02*
X66123809Y-68506680D01*
X66123809Y-68506680D02*
X65980952Y-68554299D01*
X65980952Y-68554299D02*
X65885714Y-68554299D01*
X66695238Y-67649537D02*
X66742857Y-67601918D01*
X66742857Y-67601918D02*
X66838095Y-67554299D01*
X66838095Y-67554299D02*
X67076190Y-67554299D01*
X67076190Y-67554299D02*
X67171428Y-67601918D01*
X67171428Y-67601918D02*
X67219047Y-67649537D01*
X67219047Y-67649537D02*
X67266666Y-67744775D01*
X67266666Y-67744775D02*
X67266666Y-67840013D01*
X67266666Y-67840013D02*
X67219047Y-67982870D01*
X67219047Y-67982870D02*
X66647619Y-68554299D01*
X66647619Y-68554299D02*
X67266666Y-68554299D01*
X74233333Y-60854299D02*
X73900000Y-60378108D01*
X73661905Y-60854299D02*
X73661905Y-59854299D01*
X73661905Y-59854299D02*
X74042857Y-59854299D01*
X74042857Y-59854299D02*
X74138095Y-59901918D01*
X74138095Y-59901918D02*
X74185714Y-59949537D01*
X74185714Y-59949537D02*
X74233333Y-60044775D01*
X74233333Y-60044775D02*
X74233333Y-60187632D01*
X74233333Y-60187632D02*
X74185714Y-60282870D01*
X74185714Y-60282870D02*
X74138095Y-60330489D01*
X74138095Y-60330489D02*
X74042857Y-60378108D01*
X74042857Y-60378108D02*
X73661905Y-60378108D01*
X75185714Y-60854299D02*
X74614286Y-60854299D01*
X74900000Y-60854299D02*
X74900000Y-59854299D01*
X74900000Y-59854299D02*
X74804762Y-59997156D01*
X74804762Y-59997156D02*
X74709524Y-60092394D01*
X74709524Y-60092394D02*
X74614286Y-60140013D01*
D11*
X63890000Y-60500000D02*
X63890000Y-64500000D01*
X64180000Y-59470000D02*
X64180000Y-65490000D01*
X64180000Y-65490000D02*
X69480000Y-65490000D01*
X64760000Y-59470000D02*
X64760000Y-60070000D01*
X64760000Y-60070000D02*
X66360000Y-60070000D01*
X65560000Y-64490000D02*
X65810000Y-63960000D01*
X65560000Y-64490000D02*
X68100000Y-64490000D01*
X65560000Y-65490000D02*
X65560000Y-64490000D01*
X65810000Y-63960000D02*
X67850000Y-63960000D01*
X65810000Y-65490000D02*
X65810000Y-64490000D01*
X66360000Y-60070000D02*
X66360000Y-59470000D01*
X67300000Y-59470000D02*
X67300000Y-60070000D01*
X67300000Y-60070000D02*
X68900000Y-60070000D01*
X67850000Y-63960000D02*
X68100000Y-64490000D01*
X67850000Y-65490000D02*
X67850000Y-64490000D01*
X68100000Y-64490000D02*
X68100000Y-65490000D01*
X68900000Y-60070000D02*
X68900000Y-59470000D01*
X69480000Y-59470000D02*
X64180000Y-59470000D01*
X69480000Y-65490000D02*
X69480000Y-59470000D01*
X72000000Y-81835000D02*
X75885000Y-81835000D01*
X75885000Y-79565000D02*
X72000000Y-79565000D01*
X75885000Y-81835000D02*
X75885000Y-79565000D01*
X66864564Y-85490000D02*
X65410436Y-85490000D01*
X66864564Y-87310000D02*
X65410436Y-87310000D01*
D12*
X42475000Y-55690000D02*
X61925000Y-55690000D01*
X42475000Y-91690000D02*
X42475000Y-55690000D01*
X61925000Y-55690000D02*
X61925000Y-91690000D01*
X61925000Y-91690000D02*
X42475000Y-91690000D01*
D11*
X65310436Y-79790000D02*
X66764564Y-79790000D01*
X65310436Y-81610000D02*
X66764564Y-81610000D01*
X73510436Y-71890000D02*
X74964564Y-71890000D01*
X73510436Y-73710000D02*
X74964564Y-73710000D01*
X71900000Y-87535000D02*
X75785000Y-87535000D01*
X75785000Y-85265000D02*
X71900000Y-85265000D01*
X75785000Y-87535000D02*
X75785000Y-85265000D01*
X63890000Y-70400000D02*
X63890000Y-74400000D01*
X64180000Y-69370000D02*
X64180000Y-75390000D01*
X64180000Y-75390000D02*
X69480000Y-75390000D01*
X64760000Y-69370000D02*
X64760000Y-69970000D01*
X64760000Y-69970000D02*
X66360000Y-69970000D01*
X65560000Y-74390000D02*
X65810000Y-73860000D01*
X65560000Y-74390000D02*
X68100000Y-74390000D01*
X65560000Y-75390000D02*
X65560000Y-74390000D01*
X65810000Y-73860000D02*
X67850000Y-73860000D01*
X65810000Y-75390000D02*
X65810000Y-74390000D01*
X66360000Y-69970000D02*
X66360000Y-69370000D01*
X67300000Y-69370000D02*
X67300000Y-69970000D01*
X67300000Y-69970000D02*
X68900000Y-69970000D01*
X67850000Y-73860000D02*
X68100000Y-74390000D01*
X67850000Y-75390000D02*
X67850000Y-74390000D01*
X68100000Y-74390000D02*
X68100000Y-75390000D01*
X68900000Y-69970000D02*
X68900000Y-69370000D01*
X69480000Y-69370000D02*
X64180000Y-69370000D01*
X69480000Y-75390000D02*
X69480000Y-69370000D01*
X73610436Y-61690000D02*
X75064564Y-61690000D01*
X73610436Y-63510000D02*
X75064564Y-63510000D01*
%LPC*%
G36*
X45812401Y-89979501D02*
G01*
X45874204Y-90020796D01*
X45915499Y-90082599D01*
X45930000Y-90155500D01*
X45930000Y-91044500D01*
X45915499Y-91117401D01*
X45874204Y-91179204D01*
X45812401Y-91220499D01*
X45739500Y-91235000D01*
X43580500Y-91235000D01*
X43507599Y-91220499D01*
X43445796Y-91179204D01*
X43404501Y-91117401D01*
X43390000Y-91044500D01*
X43390000Y-90155500D01*
X43404501Y-90082599D01*
X43445796Y-90020796D01*
X43507599Y-89979501D01*
X43580500Y-89965000D01*
X45739500Y-89965000D01*
X45812401Y-89979501D01*
G37*
G36*
X61052401Y-89979501D02*
G01*
X61114204Y-90020796D01*
X61155499Y-90082599D01*
X61170000Y-90155500D01*
X61170000Y-91044500D01*
X61155499Y-91117401D01*
X61114204Y-91179204D01*
X61052401Y-91220499D01*
X60979500Y-91235000D01*
X58820500Y-91235000D01*
X58747599Y-91220499D01*
X58685796Y-91179204D01*
X58644501Y-91117401D01*
X58630000Y-91044500D01*
X58630000Y-90155500D01*
X58644501Y-90082599D01*
X58685796Y-90020796D01*
X58747599Y-89979501D01*
X58820500Y-89965000D01*
X60979500Y-89965000D01*
X61052401Y-89979501D01*
G37*
G36*
X45812401Y-87439501D02*
G01*
X45874204Y-87480796D01*
X45915499Y-87542599D01*
X45930000Y-87615500D01*
X45930000Y-88504500D01*
X45915499Y-88577401D01*
X45874204Y-88639204D01*
X45812401Y-88680499D01*
X45739500Y-88695000D01*
X43580500Y-88695000D01*
X43507599Y-88680499D01*
X43445796Y-88639204D01*
X43404501Y-88577401D01*
X43390000Y-88504500D01*
X43390000Y-87615500D01*
X43404501Y-87542599D01*
X43445796Y-87480796D01*
X43507599Y-87439501D01*
X43580500Y-87425000D01*
X45739500Y-87425000D01*
X45812401Y-87439501D01*
G37*
G36*
X61052401Y-87439501D02*
G01*
X61114204Y-87480796D01*
X61155499Y-87542599D01*
X61170000Y-87615500D01*
X61170000Y-88504500D01*
X61155499Y-88577401D01*
X61114204Y-88639204D01*
X61052401Y-88680499D01*
X60979500Y-88695000D01*
X58820500Y-88695000D01*
X58747599Y-88680499D01*
X58685796Y-88639204D01*
X58644501Y-88577401D01*
X58630000Y-88504500D01*
X58630000Y-87615500D01*
X58644501Y-87542599D01*
X58685796Y-87480796D01*
X58747599Y-87439501D01*
X58820500Y-87425000D01*
X60979500Y-87425000D01*
X61052401Y-87439501D01*
G37*
G36*
X64992350Y-85525964D02*
G01*
X65042540Y-85531787D01*
X65059689Y-85539359D01*
X65083171Y-85544030D01*
X65108310Y-85560827D01*
X65128196Y-85569608D01*
X65141777Y-85583189D01*
X65164277Y-85598223D01*
X65179310Y-85620722D01*
X65192891Y-85634303D01*
X65201670Y-85654186D01*
X65218470Y-85679329D01*
X65223141Y-85702812D01*
X65230712Y-85719959D01*
X65236533Y-85770139D01*
X65237500Y-85775000D01*
X65237500Y-87025000D01*
X65236532Y-87029863D01*
X65230712Y-87080040D01*
X65223141Y-87097185D01*
X65218470Y-87120671D01*
X65201669Y-87145815D01*
X65192891Y-87165696D01*
X65179312Y-87179274D01*
X65164277Y-87201777D01*
X65141774Y-87216812D01*
X65128196Y-87230391D01*
X65108315Y-87239169D01*
X65083171Y-87255970D01*
X65059685Y-87260641D01*
X65042540Y-87268212D01*
X64992361Y-87274032D01*
X64987500Y-87275000D01*
X64362500Y-87275000D01*
X64357638Y-87274032D01*
X64307459Y-87268212D01*
X64290312Y-87260641D01*
X64266829Y-87255970D01*
X64241686Y-87239170D01*
X64221803Y-87230391D01*
X64208222Y-87216810D01*
X64185723Y-87201777D01*
X64170689Y-87179277D01*
X64157108Y-87165696D01*
X64148327Y-87145810D01*
X64131530Y-87120671D01*
X64126859Y-87097189D01*
X64119287Y-87080040D01*
X64113464Y-87029849D01*
X64112500Y-87025000D01*
X64112500Y-85775000D01*
X64113464Y-85770150D01*
X64119287Y-85719959D01*
X64126859Y-85702808D01*
X64131530Y-85679329D01*
X64148326Y-85654191D01*
X64157108Y-85634303D01*
X64170691Y-85620719D01*
X64185723Y-85598223D01*
X64208219Y-85583191D01*
X64221803Y-85569608D01*
X64241691Y-85560826D01*
X64266829Y-85544030D01*
X64290308Y-85539359D01*
X64307459Y-85531787D01*
X64357651Y-85525964D01*
X64362500Y-85525000D01*
X64987500Y-85525000D01*
X64992350Y-85525964D01*
G37*
G36*
X67917350Y-85525964D02*
G01*
X67967540Y-85531787D01*
X67984689Y-85539359D01*
X68008171Y-85544030D01*
X68033310Y-85560827D01*
X68053196Y-85569608D01*
X68066777Y-85583189D01*
X68089277Y-85598223D01*
X68104310Y-85620722D01*
X68117891Y-85634303D01*
X68126670Y-85654186D01*
X68143470Y-85679329D01*
X68148141Y-85702812D01*
X68155712Y-85719959D01*
X68161533Y-85770139D01*
X68162500Y-85775000D01*
X68162500Y-87025000D01*
X68161532Y-87029863D01*
X68155712Y-87080040D01*
X68148141Y-87097185D01*
X68143470Y-87120671D01*
X68126669Y-87145815D01*
X68117891Y-87165696D01*
X68104312Y-87179274D01*
X68089277Y-87201777D01*
X68066774Y-87216812D01*
X68053196Y-87230391D01*
X68033315Y-87239169D01*
X68008171Y-87255970D01*
X67984685Y-87260641D01*
X67967540Y-87268212D01*
X67917361Y-87274032D01*
X67912500Y-87275000D01*
X67287500Y-87275000D01*
X67282638Y-87274032D01*
X67232459Y-87268212D01*
X67215312Y-87260641D01*
X67191829Y-87255970D01*
X67166686Y-87239170D01*
X67146803Y-87230391D01*
X67133222Y-87216810D01*
X67110723Y-87201777D01*
X67095689Y-87179277D01*
X67082108Y-87165696D01*
X67073327Y-87145810D01*
X67056530Y-87120671D01*
X67051859Y-87097189D01*
X67044287Y-87080040D01*
X67038464Y-87029849D01*
X67037500Y-87025000D01*
X67037500Y-85775000D01*
X67038464Y-85770150D01*
X67044287Y-85719959D01*
X67051859Y-85702808D01*
X67056530Y-85679329D01*
X67073326Y-85654191D01*
X67082108Y-85634303D01*
X67095691Y-85620719D01*
X67110723Y-85598223D01*
X67133219Y-85583191D01*
X67146803Y-85569608D01*
X67166691Y-85560826D01*
X67191829Y-85544030D01*
X67215308Y-85539359D01*
X67232459Y-85531787D01*
X67282651Y-85525964D01*
X67287500Y-85525000D01*
X67912500Y-85525000D01*
X67917350Y-85525964D01*
G37*
G36*
X72479850Y-85525964D02*
G01*
X72530040Y-85531787D01*
X72547189Y-85539359D01*
X72570671Y-85544030D01*
X72595810Y-85560827D01*
X72615696Y-85569608D01*
X72629277Y-85583189D01*
X72651777Y-85598223D01*
X72666810Y-85620722D01*
X72680391Y-85634303D01*
X72689170Y-85654186D01*
X72705970Y-85679329D01*
X72710641Y-85702812D01*
X72718212Y-85719959D01*
X72724033Y-85770139D01*
X72725000Y-85775000D01*
X72725000Y-87025000D01*
X72724032Y-87029863D01*
X72718212Y-87080040D01*
X72710641Y-87097185D01*
X72705970Y-87120671D01*
X72689169Y-87145815D01*
X72680391Y-87165696D01*
X72666812Y-87179274D01*
X72651777Y-87201777D01*
X72629274Y-87216812D01*
X72615696Y-87230391D01*
X72595815Y-87239169D01*
X72570671Y-87255970D01*
X72547185Y-87260641D01*
X72530040Y-87268212D01*
X72479861Y-87274032D01*
X72475000Y-87275000D01*
X71725000Y-87275000D01*
X71720138Y-87274032D01*
X71669959Y-87268212D01*
X71652812Y-87260641D01*
X71629329Y-87255970D01*
X71604186Y-87239170D01*
X71584303Y-87230391D01*
X71570722Y-87216810D01*
X71548223Y-87201777D01*
X71533189Y-87179277D01*
X71519608Y-87165696D01*
X71510827Y-87145810D01*
X71494030Y-87120671D01*
X71489359Y-87097189D01*
X71481787Y-87080040D01*
X71475964Y-87029849D01*
X71475000Y-87025000D01*
X71475000Y-85775000D01*
X71475964Y-85770150D01*
X71481787Y-85719959D01*
X71489359Y-85702808D01*
X71494030Y-85679329D01*
X71510826Y-85654191D01*
X71519608Y-85634303D01*
X71533191Y-85620719D01*
X71548223Y-85598223D01*
X71570719Y-85583191D01*
X71584303Y-85569608D01*
X71604191Y-85560826D01*
X71629329Y-85544030D01*
X71652808Y-85539359D01*
X71669959Y-85531787D01*
X71720151Y-85525964D01*
X71725000Y-85525000D01*
X72475000Y-85525000D01*
X72479850Y-85525964D01*
G37*
G36*
X75279850Y-85525964D02*
G01*
X75330040Y-85531787D01*
X75347189Y-85539359D01*
X75370671Y-85544030D01*
X75395810Y-85560827D01*
X75415696Y-85569608D01*
X75429277Y-85583189D01*
X75451777Y-85598223D01*
X75466810Y-85620722D01*
X75480391Y-85634303D01*
X75489170Y-85654186D01*
X75505970Y-85679329D01*
X75510641Y-85702812D01*
X75518212Y-85719959D01*
X75524033Y-85770139D01*
X75525000Y-85775000D01*
X75525000Y-87025000D01*
X75524032Y-87029863D01*
X75518212Y-87080040D01*
X75510641Y-87097185D01*
X75505970Y-87120671D01*
X75489169Y-87145815D01*
X75480391Y-87165696D01*
X75466812Y-87179274D01*
X75451777Y-87201777D01*
X75429274Y-87216812D01*
X75415696Y-87230391D01*
X75395815Y-87239169D01*
X75370671Y-87255970D01*
X75347185Y-87260641D01*
X75330040Y-87268212D01*
X75279861Y-87274032D01*
X75275000Y-87275000D01*
X74525000Y-87275000D01*
X74520138Y-87274032D01*
X74469959Y-87268212D01*
X74452812Y-87260641D01*
X74429329Y-87255970D01*
X74404186Y-87239170D01*
X74384303Y-87230391D01*
X74370722Y-87216810D01*
X74348223Y-87201777D01*
X74333189Y-87179277D01*
X74319608Y-87165696D01*
X74310827Y-87145810D01*
X74294030Y-87120671D01*
X74289359Y-87097189D01*
X74281787Y-87080040D01*
X74275964Y-87029849D01*
X74275000Y-87025000D01*
X74275000Y-85775000D01*
X74275964Y-85770150D01*
X74281787Y-85719959D01*
X74289359Y-85702808D01*
X74294030Y-85679329D01*
X74310826Y-85654191D01*
X74319608Y-85634303D01*
X74333191Y-85620719D01*
X74348223Y-85598223D01*
X74370719Y-85583191D01*
X74384303Y-85569608D01*
X74404191Y-85560826D01*
X74429329Y-85544030D01*
X74452808Y-85539359D01*
X74469959Y-85531787D01*
X74520151Y-85525964D01*
X74525000Y-85525000D01*
X75275000Y-85525000D01*
X75279850Y-85525964D01*
G37*
G36*
X45812401Y-84899501D02*
G01*
X45874204Y-84940796D01*
X45915499Y-85002599D01*
X45930000Y-85075500D01*
X45930000Y-85964500D01*
X45915499Y-86037401D01*
X45874204Y-86099204D01*
X45812401Y-86140499D01*
X45739500Y-86155000D01*
X43580500Y-86155000D01*
X43507599Y-86140499D01*
X43445796Y-86099204D01*
X43404501Y-86037401D01*
X43390000Y-85964500D01*
X43390000Y-85075500D01*
X43404501Y-85002599D01*
X43445796Y-84940796D01*
X43507599Y-84899501D01*
X43580500Y-84885000D01*
X45739500Y-84885000D01*
X45812401Y-84899501D01*
G37*
G36*
X61052401Y-84899501D02*
G01*
X61114204Y-84940796D01*
X61155499Y-85002599D01*
X61170000Y-85075500D01*
X61170000Y-85964500D01*
X61155499Y-86037401D01*
X61114204Y-86099204D01*
X61052401Y-86140499D01*
X60979500Y-86155000D01*
X58820500Y-86155000D01*
X58747599Y-86140499D01*
X58685796Y-86099204D01*
X58644501Y-86037401D01*
X58630000Y-85964500D01*
X58630000Y-85075500D01*
X58644501Y-85002599D01*
X58685796Y-84940796D01*
X58747599Y-84899501D01*
X58820500Y-84885000D01*
X60979500Y-84885000D01*
X61052401Y-84899501D01*
G37*
G36*
X45812401Y-82359501D02*
G01*
X45874204Y-82400796D01*
X45915499Y-82462599D01*
X45930000Y-82535500D01*
X45930000Y-83424500D01*
X45915499Y-83497401D01*
X45874204Y-83559204D01*
X45812401Y-83600499D01*
X45739500Y-83615000D01*
X43580500Y-83615000D01*
X43507599Y-83600499D01*
X43445796Y-83559204D01*
X43404501Y-83497401D01*
X43390000Y-83424500D01*
X43390000Y-82535500D01*
X43404501Y-82462599D01*
X43445796Y-82400796D01*
X43507599Y-82359501D01*
X43580500Y-82345000D01*
X45739500Y-82345000D01*
X45812401Y-82359501D01*
G37*
G36*
X61052401Y-82359501D02*
G01*
X61114204Y-82400796D01*
X61155499Y-82462599D01*
X61170000Y-82535500D01*
X61170000Y-83424500D01*
X61155499Y-83497401D01*
X61114204Y-83559204D01*
X61052401Y-83600499D01*
X60979500Y-83615000D01*
X58820500Y-83615000D01*
X58747599Y-83600499D01*
X58685796Y-83559204D01*
X58644501Y-83497401D01*
X58630000Y-83424500D01*
X58630000Y-82535500D01*
X58644501Y-82462599D01*
X58685796Y-82400796D01*
X58747599Y-82359501D01*
X58820500Y-82345000D01*
X60979500Y-82345000D01*
X61052401Y-82359501D01*
G37*
G36*
X64892350Y-79825964D02*
G01*
X64942540Y-79831787D01*
X64959689Y-79839359D01*
X64983171Y-79844030D01*
X65008310Y-79860827D01*
X65028196Y-79869608D01*
X65041777Y-79883189D01*
X65064277Y-79898223D01*
X65079310Y-79920722D01*
X65092891Y-79934303D01*
X65101670Y-79954186D01*
X65118470Y-79979329D01*
X65123141Y-80002812D01*
X65130712Y-80019959D01*
X65136533Y-80070139D01*
X65137500Y-80075000D01*
X65137500Y-81325000D01*
X65136532Y-81329863D01*
X65130712Y-81380040D01*
X65123141Y-81397185D01*
X65118470Y-81420671D01*
X65101669Y-81445815D01*
X65092891Y-81465696D01*
X65079312Y-81479274D01*
X65064277Y-81501777D01*
X65041774Y-81516812D01*
X65028196Y-81530391D01*
X65008315Y-81539169D01*
X64983171Y-81555970D01*
X64959685Y-81560641D01*
X64942540Y-81568212D01*
X64892361Y-81574032D01*
X64887500Y-81575000D01*
X64262500Y-81575000D01*
X64257638Y-81574032D01*
X64207459Y-81568212D01*
X64190312Y-81560641D01*
X64166829Y-81555970D01*
X64141686Y-81539170D01*
X64121803Y-81530391D01*
X64108222Y-81516810D01*
X64085723Y-81501777D01*
X64070689Y-81479277D01*
X64057108Y-81465696D01*
X64048327Y-81445810D01*
X64031530Y-81420671D01*
X64026859Y-81397189D01*
X64019287Y-81380040D01*
X64013464Y-81329849D01*
X64012500Y-81325000D01*
X64012500Y-80075000D01*
X64013464Y-80070150D01*
X64019287Y-80019959D01*
X64026859Y-80002808D01*
X64031530Y-79979329D01*
X64048326Y-79954191D01*
X64057108Y-79934303D01*
X64070691Y-79920719D01*
X64085723Y-79898223D01*
X64108219Y-79883191D01*
X64121803Y-79869608D01*
X64141691Y-79860826D01*
X64166829Y-79844030D01*
X64190308Y-79839359D01*
X64207459Y-79831787D01*
X64257651Y-79825964D01*
X64262500Y-79825000D01*
X64887500Y-79825000D01*
X64892350Y-79825964D01*
G37*
G36*
X67817350Y-79825964D02*
G01*
X67867540Y-79831787D01*
X67884689Y-79839359D01*
X67908171Y-79844030D01*
X67933310Y-79860827D01*
X67953196Y-79869608D01*
X67966777Y-79883189D01*
X67989277Y-79898223D01*
X68004310Y-79920722D01*
X68017891Y-79934303D01*
X68026670Y-79954186D01*
X68043470Y-79979329D01*
X68048141Y-80002812D01*
X68055712Y-80019959D01*
X68061533Y-80070139D01*
X68062500Y-80075000D01*
X68062500Y-81325000D01*
X68061532Y-81329863D01*
X68055712Y-81380040D01*
X68048141Y-81397185D01*
X68043470Y-81420671D01*
X68026669Y-81445815D01*
X68017891Y-81465696D01*
X68004312Y-81479274D01*
X67989277Y-81501777D01*
X67966774Y-81516812D01*
X67953196Y-81530391D01*
X67933315Y-81539169D01*
X67908171Y-81555970D01*
X67884685Y-81560641D01*
X67867540Y-81568212D01*
X67817361Y-81574032D01*
X67812500Y-81575000D01*
X67187500Y-81575000D01*
X67182638Y-81574032D01*
X67132459Y-81568212D01*
X67115312Y-81560641D01*
X67091829Y-81555970D01*
X67066686Y-81539170D01*
X67046803Y-81530391D01*
X67033222Y-81516810D01*
X67010723Y-81501777D01*
X66995689Y-81479277D01*
X66982108Y-81465696D01*
X66973327Y-81445810D01*
X66956530Y-81420671D01*
X66951859Y-81397189D01*
X66944287Y-81380040D01*
X66938464Y-81329849D01*
X66937500Y-81325000D01*
X66937500Y-80075000D01*
X66938464Y-80070150D01*
X66944287Y-80019959D01*
X66951859Y-80002808D01*
X66956530Y-79979329D01*
X66973326Y-79954191D01*
X66982108Y-79934303D01*
X66995691Y-79920719D01*
X67010723Y-79898223D01*
X67033219Y-79883191D01*
X67046803Y-79869608D01*
X67066691Y-79860826D01*
X67091829Y-79844030D01*
X67115308Y-79839359D01*
X67132459Y-79831787D01*
X67182651Y-79825964D01*
X67187500Y-79825000D01*
X67812500Y-79825000D01*
X67817350Y-79825964D01*
G37*
G36*
X72579850Y-79825964D02*
G01*
X72630040Y-79831787D01*
X72647189Y-79839359D01*
X72670671Y-79844030D01*
X72695810Y-79860827D01*
X72715696Y-79869608D01*
X72729277Y-79883189D01*
X72751777Y-79898223D01*
X72766810Y-79920722D01*
X72780391Y-79934303D01*
X72789170Y-79954186D01*
X72805970Y-79979329D01*
X72810641Y-80002812D01*
X72818212Y-80019959D01*
X72824033Y-80070139D01*
X72825000Y-80075000D01*
X72825000Y-81325000D01*
X72824032Y-81329863D01*
X72818212Y-81380040D01*
X72810641Y-81397185D01*
X72805970Y-81420671D01*
X72789169Y-81445815D01*
X72780391Y-81465696D01*
X72766812Y-81479274D01*
X72751777Y-81501777D01*
X72729274Y-81516812D01*
X72715696Y-81530391D01*
X72695815Y-81539169D01*
X72670671Y-81555970D01*
X72647185Y-81560641D01*
X72630040Y-81568212D01*
X72579861Y-81574032D01*
X72575000Y-81575000D01*
X71825000Y-81575000D01*
X71820138Y-81574032D01*
X71769959Y-81568212D01*
X71752812Y-81560641D01*
X71729329Y-81555970D01*
X71704186Y-81539170D01*
X71684303Y-81530391D01*
X71670722Y-81516810D01*
X71648223Y-81501777D01*
X71633189Y-81479277D01*
X71619608Y-81465696D01*
X71610827Y-81445810D01*
X71594030Y-81420671D01*
X71589359Y-81397189D01*
X71581787Y-81380040D01*
X71575964Y-81329849D01*
X71575000Y-81325000D01*
X71575000Y-80075000D01*
X71575964Y-80070150D01*
X71581787Y-80019959D01*
X71589359Y-80002808D01*
X71594030Y-79979329D01*
X71610826Y-79954191D01*
X71619608Y-79934303D01*
X71633191Y-79920719D01*
X71648223Y-79898223D01*
X71670719Y-79883191D01*
X71684303Y-79869608D01*
X71704191Y-79860826D01*
X71729329Y-79844030D01*
X71752808Y-79839359D01*
X71769959Y-79831787D01*
X71820151Y-79825964D01*
X71825000Y-79825000D01*
X72575000Y-79825000D01*
X72579850Y-79825964D01*
G37*
G36*
X75379850Y-79825964D02*
G01*
X75430040Y-79831787D01*
X75447189Y-79839359D01*
X75470671Y-79844030D01*
X75495810Y-79860827D01*
X75515696Y-79869608D01*
X75529277Y-79883189D01*
X75551777Y-79898223D01*
X75566810Y-79920722D01*
X75580391Y-79934303D01*
X75589170Y-79954186D01*
X75605970Y-79979329D01*
X75610641Y-80002812D01*
X75618212Y-80019959D01*
X75624033Y-80070139D01*
X75625000Y-80075000D01*
X75625000Y-81325000D01*
X75624032Y-81329863D01*
X75618212Y-81380040D01*
X75610641Y-81397185D01*
X75605970Y-81420671D01*
X75589169Y-81445815D01*
X75580391Y-81465696D01*
X75566812Y-81479274D01*
X75551777Y-81501777D01*
X75529274Y-81516812D01*
X75515696Y-81530391D01*
X75495815Y-81539169D01*
X75470671Y-81555970D01*
X75447185Y-81560641D01*
X75430040Y-81568212D01*
X75379861Y-81574032D01*
X75375000Y-81575000D01*
X74625000Y-81575000D01*
X74620138Y-81574032D01*
X74569959Y-81568212D01*
X74552812Y-81560641D01*
X74529329Y-81555970D01*
X74504186Y-81539170D01*
X74484303Y-81530391D01*
X74470722Y-81516810D01*
X74448223Y-81501777D01*
X74433189Y-81479277D01*
X74419608Y-81465696D01*
X74410827Y-81445810D01*
X74394030Y-81420671D01*
X74389359Y-81397189D01*
X74381787Y-81380040D01*
X74375964Y-81329849D01*
X74375000Y-81325000D01*
X74375000Y-80075000D01*
X74375964Y-80070150D01*
X74381787Y-80019959D01*
X74389359Y-80002808D01*
X74394030Y-79979329D01*
X74410826Y-79954191D01*
X74419608Y-79934303D01*
X74433191Y-79920719D01*
X74448223Y-79898223D01*
X74470719Y-79883191D01*
X74484303Y-79869608D01*
X74504191Y-79860826D01*
X74529329Y-79844030D01*
X74552808Y-79839359D01*
X74569959Y-79831787D01*
X74620151Y-79825964D01*
X74625000Y-79825000D01*
X75375000Y-79825000D01*
X75379850Y-79825964D01*
G37*
G36*
X45812401Y-79819501D02*
G01*
X45874204Y-79860796D01*
X45915499Y-79922599D01*
X45930000Y-79995500D01*
X45930000Y-80884500D01*
X45915499Y-80957401D01*
X45874204Y-81019204D01*
X45812401Y-81060499D01*
X45739500Y-81075000D01*
X43580500Y-81075000D01*
X43507599Y-81060499D01*
X43445796Y-81019204D01*
X43404501Y-80957401D01*
X43390000Y-80884500D01*
X43390000Y-79995500D01*
X43404501Y-79922599D01*
X43445796Y-79860796D01*
X43507599Y-79819501D01*
X43580500Y-79805000D01*
X45739500Y-79805000D01*
X45812401Y-79819501D01*
G37*
G36*
X61052401Y-79819501D02*
G01*
X61114204Y-79860796D01*
X61155499Y-79922599D01*
X61170000Y-79995500D01*
X61170000Y-80884500D01*
X61155499Y-80957401D01*
X61114204Y-81019204D01*
X61052401Y-81060499D01*
X60979500Y-81075000D01*
X58820500Y-81075000D01*
X58747599Y-81060499D01*
X58685796Y-81019204D01*
X58644501Y-80957401D01*
X58630000Y-80884500D01*
X58630000Y-79995500D01*
X58644501Y-79922599D01*
X58685796Y-79860796D01*
X58747599Y-79819501D01*
X58820500Y-79805000D01*
X60979500Y-79805000D01*
X61052401Y-79819501D01*
G37*
G36*
X45812401Y-77279501D02*
G01*
X45874204Y-77320796D01*
X45915499Y-77382599D01*
X45930000Y-77455500D01*
X45930000Y-78344500D01*
X45915499Y-78417401D01*
X45874204Y-78479204D01*
X45812401Y-78520499D01*
X45739500Y-78535000D01*
X43580500Y-78535000D01*
X43507599Y-78520499D01*
X43445796Y-78479204D01*
X43404501Y-78417401D01*
X43390000Y-78344500D01*
X43390000Y-77455500D01*
X43404501Y-77382599D01*
X43445796Y-77320796D01*
X43507599Y-77279501D01*
X43580500Y-77265000D01*
X45739500Y-77265000D01*
X45812401Y-77279501D01*
G37*
G36*
X61052401Y-77279501D02*
G01*
X61114204Y-77320796D01*
X61155499Y-77382599D01*
X61170000Y-77455500D01*
X61170000Y-78344500D01*
X61155499Y-78417401D01*
X61114204Y-78479204D01*
X61052401Y-78520499D01*
X60979500Y-78535000D01*
X58820500Y-78535000D01*
X58747599Y-78520499D01*
X58685796Y-78479204D01*
X58644501Y-78417401D01*
X58630000Y-78344500D01*
X58630000Y-77455500D01*
X58644501Y-77382599D01*
X58685796Y-77320796D01*
X58747599Y-77279501D01*
X58820500Y-77265000D01*
X60979500Y-77265000D01*
X61052401Y-77279501D01*
G37*
G36*
X45812401Y-74739501D02*
G01*
X45874204Y-74780796D01*
X45915499Y-74842599D01*
X45930000Y-74915500D01*
X45930000Y-75804500D01*
X45915499Y-75877401D01*
X45874204Y-75939204D01*
X45812401Y-75980499D01*
X45739500Y-75995000D01*
X43580500Y-75995000D01*
X43507599Y-75980499D01*
X43445796Y-75939204D01*
X43404501Y-75877401D01*
X43390000Y-75804500D01*
X43390000Y-74915500D01*
X43404501Y-74842599D01*
X43445796Y-74780796D01*
X43507599Y-74739501D01*
X43580500Y-74725000D01*
X45739500Y-74725000D01*
X45812401Y-74739501D01*
G37*
G36*
X61052401Y-74739501D02*
G01*
X61114204Y-74780796D01*
X61155499Y-74842599D01*
X61170000Y-74915500D01*
X61170000Y-75804500D01*
X61155499Y-75877401D01*
X61114204Y-75939204D01*
X61052401Y-75980499D01*
X60979500Y-75995000D01*
X58820500Y-75995000D01*
X58747599Y-75980499D01*
X58685796Y-75939204D01*
X58644501Y-75877401D01*
X58630000Y-75804500D01*
X58630000Y-74915500D01*
X58644501Y-74842599D01*
X58685796Y-74780796D01*
X58747599Y-74739501D01*
X58820500Y-74725000D01*
X60979500Y-74725000D01*
X61052401Y-74739501D01*
G37*
G36*
X73092350Y-71925964D02*
G01*
X73142540Y-71931787D01*
X73159689Y-71939359D01*
X73183171Y-71944030D01*
X73208310Y-71960827D01*
X73228196Y-71969608D01*
X73241777Y-71983189D01*
X73264277Y-71998223D01*
X73279310Y-72020722D01*
X73292891Y-72034303D01*
X73301670Y-72054186D01*
X73318470Y-72079329D01*
X73323141Y-72102812D01*
X73330712Y-72119959D01*
X73336533Y-72170139D01*
X73337500Y-72175000D01*
X73337500Y-73425000D01*
X73336532Y-73429863D01*
X73330712Y-73480040D01*
X73323141Y-73497185D01*
X73318470Y-73520671D01*
X73301669Y-73545815D01*
X73292891Y-73565696D01*
X73279312Y-73579274D01*
X73264277Y-73601777D01*
X73241774Y-73616812D01*
X73228196Y-73630391D01*
X73208315Y-73639169D01*
X73183171Y-73655970D01*
X73159685Y-73660641D01*
X73142540Y-73668212D01*
X73092361Y-73674032D01*
X73087500Y-73675000D01*
X72462500Y-73675000D01*
X72457638Y-73674032D01*
X72407459Y-73668212D01*
X72390312Y-73660641D01*
X72366829Y-73655970D01*
X72341686Y-73639170D01*
X72321803Y-73630391D01*
X72308222Y-73616810D01*
X72285723Y-73601777D01*
X72270689Y-73579277D01*
X72257108Y-73565696D01*
X72248327Y-73545810D01*
X72231530Y-73520671D01*
X72226859Y-73497189D01*
X72219287Y-73480040D01*
X72213464Y-73429849D01*
X72212500Y-73425000D01*
X72212500Y-72175000D01*
X72213464Y-72170150D01*
X72219287Y-72119959D01*
X72226859Y-72102808D01*
X72231530Y-72079329D01*
X72248326Y-72054191D01*
X72257108Y-72034303D01*
X72270691Y-72020719D01*
X72285723Y-71998223D01*
X72308219Y-71983191D01*
X72321803Y-71969608D01*
X72341691Y-71960826D01*
X72366829Y-71944030D01*
X72390308Y-71939359D01*
X72407459Y-71931787D01*
X72457651Y-71925964D01*
X72462500Y-71925000D01*
X73087500Y-71925000D01*
X73092350Y-71925964D01*
G37*
G36*
X76017350Y-71925964D02*
G01*
X76067540Y-71931787D01*
X76084689Y-71939359D01*
X76108171Y-71944030D01*
X76133310Y-71960827D01*
X76153196Y-71969608D01*
X76166777Y-71983189D01*
X76189277Y-71998223D01*
X76204310Y-72020722D01*
X76217891Y-72034303D01*
X76226670Y-72054186D01*
X76243470Y-72079329D01*
X76248141Y-72102812D01*
X76255712Y-72119959D01*
X76261533Y-72170139D01*
X76262500Y-72175000D01*
X76262500Y-73425000D01*
X76261532Y-73429863D01*
X76255712Y-73480040D01*
X76248141Y-73497185D01*
X76243470Y-73520671D01*
X76226669Y-73545815D01*
X76217891Y-73565696D01*
X76204312Y-73579274D01*
X76189277Y-73601777D01*
X76166774Y-73616812D01*
X76153196Y-73630391D01*
X76133315Y-73639169D01*
X76108171Y-73655970D01*
X76084685Y-73660641D01*
X76067540Y-73668212D01*
X76017361Y-73674032D01*
X76012500Y-73675000D01*
X75387500Y-73675000D01*
X75382638Y-73674032D01*
X75332459Y-73668212D01*
X75315312Y-73660641D01*
X75291829Y-73655970D01*
X75266686Y-73639170D01*
X75246803Y-73630391D01*
X75233222Y-73616810D01*
X75210723Y-73601777D01*
X75195689Y-73579277D01*
X75182108Y-73565696D01*
X75173327Y-73545810D01*
X75156530Y-73520671D01*
X75151859Y-73497189D01*
X75144287Y-73480040D01*
X75138464Y-73429849D01*
X75137500Y-73425000D01*
X75137500Y-72175000D01*
X75138464Y-72170150D01*
X75144287Y-72119959D01*
X75151859Y-72102808D01*
X75156530Y-72079329D01*
X75173326Y-72054191D01*
X75182108Y-72034303D01*
X75195691Y-72020719D01*
X75210723Y-71998223D01*
X75233219Y-71983191D01*
X75246803Y-71969608D01*
X75266691Y-71960826D01*
X75291829Y-71944030D01*
X75315308Y-71939359D01*
X75332459Y-71931787D01*
X75382651Y-71925964D01*
X75387500Y-71925000D01*
X76012500Y-71925000D01*
X76017350Y-71925964D01*
G37*
G36*
X66184850Y-71305964D02*
G01*
X66235040Y-71311787D01*
X66252189Y-71319359D01*
X66275671Y-71324030D01*
X66300810Y-71340827D01*
X66320696Y-71349608D01*
X66334277Y-71363189D01*
X66356777Y-71378223D01*
X66371810Y-71400722D01*
X66385391Y-71414303D01*
X66394170Y-71434186D01*
X66410970Y-71459329D01*
X66415641Y-71482812D01*
X66423212Y-71499959D01*
X66429033Y-71550139D01*
X66430000Y-71555000D01*
X66430000Y-73245000D01*
X66429032Y-73249863D01*
X66423212Y-73300040D01*
X66415641Y-73317185D01*
X66410970Y-73340671D01*
X66394169Y-73365815D01*
X66385391Y-73385696D01*
X66371812Y-73399274D01*
X66356777Y-73421777D01*
X66334274Y-73436812D01*
X66320696Y-73450391D01*
X66300815Y-73459169D01*
X66275671Y-73475970D01*
X66252185Y-73480641D01*
X66235040Y-73488212D01*
X66184861Y-73494032D01*
X66180000Y-73495000D01*
X64940000Y-73495000D01*
X64935138Y-73494032D01*
X64884959Y-73488212D01*
X64867812Y-73480641D01*
X64844329Y-73475970D01*
X64819186Y-73459170D01*
X64799303Y-73450391D01*
X64785722Y-73436810D01*
X64763223Y-73421777D01*
X64748189Y-73399277D01*
X64734608Y-73385696D01*
X64725827Y-73365810D01*
X64709030Y-73340671D01*
X64704359Y-73317189D01*
X64696787Y-73300040D01*
X64690964Y-73249849D01*
X64690000Y-73245000D01*
X64690000Y-71555000D01*
X64690964Y-71550150D01*
X64696787Y-71499959D01*
X64704359Y-71482808D01*
X64709030Y-71459329D01*
X64725826Y-71434191D01*
X64734608Y-71414303D01*
X64748191Y-71400719D01*
X64763223Y-71378223D01*
X64785719Y-71363191D01*
X64799303Y-71349608D01*
X64819191Y-71340826D01*
X64844329Y-71324030D01*
X64867808Y-71319359D01*
X64884959Y-71311787D01*
X64935151Y-71305964D01*
X64940000Y-71305000D01*
X66180000Y-71305000D01*
X66184850Y-71305964D01*
G37*
G36*
X68352548Y-71342462D02*
G01*
X68510115Y-71407729D01*
X68651922Y-71502481D01*
X68772519Y-71623078D01*
X68867271Y-71764885D01*
X68932538Y-71922452D01*
X68965811Y-72089725D01*
X68970000Y-72175000D01*
X68970000Y-72625000D01*
X68965811Y-72710275D01*
X68932538Y-72877548D01*
X68867271Y-73035115D01*
X68772519Y-73176922D01*
X68651922Y-73297519D01*
X68510115Y-73392271D01*
X68352548Y-73457538D01*
X68185275Y-73490811D01*
X68014725Y-73490811D01*
X67847452Y-73457538D01*
X67689885Y-73392271D01*
X67548078Y-73297519D01*
X67427481Y-73176922D01*
X67332729Y-73035115D01*
X67267462Y-72877548D01*
X67234189Y-72710275D01*
X67230000Y-72625000D01*
X67230000Y-72175000D01*
X67234189Y-72089725D01*
X67267462Y-71922452D01*
X67332729Y-71764885D01*
X67427481Y-71623078D01*
X67548078Y-71502481D01*
X67689885Y-71407729D01*
X67847452Y-71342462D01*
X68014725Y-71309189D01*
X68185275Y-71309189D01*
X68352548Y-71342462D01*
G37*
G36*
X45812401Y-72199501D02*
G01*
X45874204Y-72240796D01*
X45915499Y-72302599D01*
X45930000Y-72375500D01*
X45930000Y-73264500D01*
X45915499Y-73337401D01*
X45874204Y-73399204D01*
X45812401Y-73440499D01*
X45739500Y-73455000D01*
X43580500Y-73455000D01*
X43507599Y-73440499D01*
X43445796Y-73399204D01*
X43404501Y-73337401D01*
X43390000Y-73264500D01*
X43390000Y-72375500D01*
X43404501Y-72302599D01*
X43445796Y-72240796D01*
X43507599Y-72199501D01*
X43580500Y-72185000D01*
X45739500Y-72185000D01*
X45812401Y-72199501D01*
G37*
G36*
X61052401Y-72199501D02*
G01*
X61114204Y-72240796D01*
X61155499Y-72302599D01*
X61170000Y-72375500D01*
X61170000Y-73264500D01*
X61155499Y-73337401D01*
X61114204Y-73399204D01*
X61052401Y-73440499D01*
X60979500Y-73455000D01*
X58820500Y-73455000D01*
X58747599Y-73440499D01*
X58685796Y-73399204D01*
X58644501Y-73337401D01*
X58630000Y-73264500D01*
X58630000Y-72375500D01*
X58644501Y-72302599D01*
X58685796Y-72240796D01*
X58747599Y-72199501D01*
X58820500Y-72185000D01*
X60979500Y-72185000D01*
X61052401Y-72199501D01*
G37*
G36*
X45812401Y-69659501D02*
G01*
X45874204Y-69700796D01*
X45915499Y-69762599D01*
X45930000Y-69835500D01*
X45930000Y-70724500D01*
X45915499Y-70797401D01*
X45874204Y-70859204D01*
X45812401Y-70900499D01*
X45739500Y-70915000D01*
X43580500Y-70915000D01*
X43507599Y-70900499D01*
X43445796Y-70859204D01*
X43404501Y-70797401D01*
X43390000Y-70724500D01*
X43390000Y-69835500D01*
X43404501Y-69762599D01*
X43445796Y-69700796D01*
X43507599Y-69659501D01*
X43580500Y-69645000D01*
X45739500Y-69645000D01*
X45812401Y-69659501D01*
G37*
G36*
X61052401Y-69659501D02*
G01*
X61114204Y-69700796D01*
X61155499Y-69762599D01*
X61170000Y-69835500D01*
X61170000Y-70724500D01*
X61155499Y-70797401D01*
X61114204Y-70859204D01*
X61052401Y-70900499D01*
X60979500Y-70915000D01*
X58820500Y-70915000D01*
X58747599Y-70900499D01*
X58685796Y-70859204D01*
X58644501Y-70797401D01*
X58630000Y-70724500D01*
X58630000Y-69835500D01*
X58644501Y-69762599D01*
X58685796Y-69700796D01*
X58747599Y-69659501D01*
X58820500Y-69645000D01*
X60979500Y-69645000D01*
X61052401Y-69659501D01*
G37*
G36*
X45812401Y-67119501D02*
G01*
X45874204Y-67160796D01*
X45915499Y-67222599D01*
X45930000Y-67295500D01*
X45930000Y-68184500D01*
X45915499Y-68257401D01*
X45874204Y-68319204D01*
X45812401Y-68360499D01*
X45739500Y-68375000D01*
X43580500Y-68375000D01*
X43507599Y-68360499D01*
X43445796Y-68319204D01*
X43404501Y-68257401D01*
X43390000Y-68184500D01*
X43390000Y-67295500D01*
X43404501Y-67222599D01*
X43445796Y-67160796D01*
X43507599Y-67119501D01*
X43580500Y-67105000D01*
X45739500Y-67105000D01*
X45812401Y-67119501D01*
G37*
G36*
X61052401Y-67119501D02*
G01*
X61114204Y-67160796D01*
X61155499Y-67222599D01*
X61170000Y-67295500D01*
X61170000Y-68184500D01*
X61155499Y-68257401D01*
X61114204Y-68319204D01*
X61052401Y-68360499D01*
X60979500Y-68375000D01*
X58820500Y-68375000D01*
X58747599Y-68360499D01*
X58685796Y-68319204D01*
X58644501Y-68257401D01*
X58630000Y-68184500D01*
X58630000Y-67295500D01*
X58644501Y-67222599D01*
X58685796Y-67160796D01*
X58747599Y-67119501D01*
X58820500Y-67105000D01*
X60979500Y-67105000D01*
X61052401Y-67119501D01*
G37*
G36*
X45812401Y-64579501D02*
G01*
X45874204Y-64620796D01*
X45915499Y-64682599D01*
X45930000Y-64755500D01*
X45930000Y-65644500D01*
X45915499Y-65717401D01*
X45874204Y-65779204D01*
X45812401Y-65820499D01*
X45739500Y-65835000D01*
X43580500Y-65835000D01*
X43507599Y-65820499D01*
X43445796Y-65779204D01*
X43404501Y-65717401D01*
X43390000Y-65644500D01*
X43390000Y-64755500D01*
X43404501Y-64682599D01*
X43445796Y-64620796D01*
X43507599Y-64579501D01*
X43580500Y-64565000D01*
X45739500Y-64565000D01*
X45812401Y-64579501D01*
G37*
G36*
X61052401Y-64579501D02*
G01*
X61114204Y-64620796D01*
X61155499Y-64682599D01*
X61170000Y-64755500D01*
X61170000Y-65644500D01*
X61155499Y-65717401D01*
X61114204Y-65779204D01*
X61052401Y-65820499D01*
X60979500Y-65835000D01*
X58820500Y-65835000D01*
X58747599Y-65820499D01*
X58685796Y-65779204D01*
X58644501Y-65717401D01*
X58630000Y-65644500D01*
X58630000Y-64755500D01*
X58644501Y-64682599D01*
X58685796Y-64620796D01*
X58747599Y-64579501D01*
X58820500Y-64565000D01*
X60979500Y-64565000D01*
X61052401Y-64579501D01*
G37*
G36*
X66184850Y-61405964D02*
G01*
X66235040Y-61411787D01*
X66252189Y-61419359D01*
X66275671Y-61424030D01*
X66300810Y-61440827D01*
X66320696Y-61449608D01*
X66334277Y-61463189D01*
X66356777Y-61478223D01*
X66371810Y-61500722D01*
X66385391Y-61514303D01*
X66394170Y-61534186D01*
X66410970Y-61559329D01*
X66415641Y-61582812D01*
X66423212Y-61599959D01*
X66429033Y-61650139D01*
X66430000Y-61655000D01*
X66430000Y-63345000D01*
X66429032Y-63349863D01*
X66423212Y-63400040D01*
X66415641Y-63417185D01*
X66410970Y-63440671D01*
X66394169Y-63465815D01*
X66385391Y-63485696D01*
X66371812Y-63499274D01*
X66356777Y-63521777D01*
X66334274Y-63536812D01*
X66320696Y-63550391D01*
X66300815Y-63559169D01*
X66275671Y-63575970D01*
X66252185Y-63580641D01*
X66235040Y-63588212D01*
X66184861Y-63594032D01*
X66180000Y-63595000D01*
X64940000Y-63595000D01*
X64935138Y-63594032D01*
X64884959Y-63588212D01*
X64867812Y-63580641D01*
X64844329Y-63575970D01*
X64819186Y-63559170D01*
X64799303Y-63550391D01*
X64785722Y-63536810D01*
X64763223Y-63521777D01*
X64748189Y-63499277D01*
X64734608Y-63485696D01*
X64725827Y-63465810D01*
X64709030Y-63440671D01*
X64704359Y-63417189D01*
X64696787Y-63400040D01*
X64690964Y-63349849D01*
X64690000Y-63345000D01*
X64690000Y-61655000D01*
X64690964Y-61650150D01*
X64696787Y-61599959D01*
X64704359Y-61582808D01*
X64709030Y-61559329D01*
X64725826Y-61534191D01*
X64734608Y-61514303D01*
X64748191Y-61500719D01*
X64763223Y-61478223D01*
X64785719Y-61463191D01*
X64799303Y-61449608D01*
X64819191Y-61440826D01*
X64844329Y-61424030D01*
X64867808Y-61419359D01*
X64884959Y-61411787D01*
X64935151Y-61405964D01*
X64940000Y-61405000D01*
X66180000Y-61405000D01*
X66184850Y-61405964D01*
G37*
G36*
X68352548Y-61442462D02*
G01*
X68510115Y-61507729D01*
X68651922Y-61602481D01*
X68772519Y-61723078D01*
X68867271Y-61864885D01*
X68932538Y-62022452D01*
X68965811Y-62189725D01*
X68970000Y-62275000D01*
X68970000Y-62725000D01*
X68965811Y-62810275D01*
X68932538Y-62977548D01*
X68867271Y-63135115D01*
X68772519Y-63276922D01*
X68651922Y-63397519D01*
X68510115Y-63492271D01*
X68352548Y-63557538D01*
X68185275Y-63590811D01*
X68014725Y-63590811D01*
X67847452Y-63557538D01*
X67689885Y-63492271D01*
X67548078Y-63397519D01*
X67427481Y-63276922D01*
X67332729Y-63135115D01*
X67267462Y-62977548D01*
X67234189Y-62810275D01*
X67230000Y-62725000D01*
X67230000Y-62275000D01*
X67234189Y-62189725D01*
X67267462Y-62022452D01*
X67332729Y-61864885D01*
X67427481Y-61723078D01*
X67548078Y-61602481D01*
X67689885Y-61507729D01*
X67847452Y-61442462D01*
X68014725Y-61409189D01*
X68185275Y-61409189D01*
X68352548Y-61442462D01*
G37*
G36*
X73192350Y-61725964D02*
G01*
X73242540Y-61731787D01*
X73259689Y-61739359D01*
X73283171Y-61744030D01*
X73308310Y-61760827D01*
X73328196Y-61769608D01*
X73341777Y-61783189D01*
X73364277Y-61798223D01*
X73379310Y-61820722D01*
X73392891Y-61834303D01*
X73401670Y-61854186D01*
X73418470Y-61879329D01*
X73423141Y-61902812D01*
X73430712Y-61919959D01*
X73436533Y-61970139D01*
X73437500Y-61975000D01*
X73437500Y-63225000D01*
X73436532Y-63229863D01*
X73430712Y-63280040D01*
X73423141Y-63297185D01*
X73418470Y-63320671D01*
X73401669Y-63345815D01*
X73392891Y-63365696D01*
X73379312Y-63379274D01*
X73364277Y-63401777D01*
X73341774Y-63416812D01*
X73328196Y-63430391D01*
X73308315Y-63439169D01*
X73283171Y-63455970D01*
X73259685Y-63460641D01*
X73242540Y-63468212D01*
X73192361Y-63474032D01*
X73187500Y-63475000D01*
X72562500Y-63475000D01*
X72557638Y-63474032D01*
X72507459Y-63468212D01*
X72490312Y-63460641D01*
X72466829Y-63455970D01*
X72441686Y-63439170D01*
X72421803Y-63430391D01*
X72408222Y-63416810D01*
X72385723Y-63401777D01*
X72370689Y-63379277D01*
X72357108Y-63365696D01*
X72348327Y-63345810D01*
X72331530Y-63320671D01*
X72326859Y-63297189D01*
X72319287Y-63280040D01*
X72313464Y-63229849D01*
X72312500Y-63225000D01*
X72312500Y-61975000D01*
X72313464Y-61970150D01*
X72319287Y-61919959D01*
X72326859Y-61902808D01*
X72331530Y-61879329D01*
X72348326Y-61854191D01*
X72357108Y-61834303D01*
X72370691Y-61820719D01*
X72385723Y-61798223D01*
X72408219Y-61783191D01*
X72421803Y-61769608D01*
X72441691Y-61760826D01*
X72466829Y-61744030D01*
X72490308Y-61739359D01*
X72507459Y-61731787D01*
X72557651Y-61725964D01*
X72562500Y-61725000D01*
X73187500Y-61725000D01*
X73192350Y-61725964D01*
G37*
G36*
X76117350Y-61725964D02*
G01*
X76167540Y-61731787D01*
X76184689Y-61739359D01*
X76208171Y-61744030D01*
X76233310Y-61760827D01*
X76253196Y-61769608D01*
X76266777Y-61783189D01*
X76289277Y-61798223D01*
X76304310Y-61820722D01*
X76317891Y-61834303D01*
X76326670Y-61854186D01*
X76343470Y-61879329D01*
X76348141Y-61902812D01*
X76355712Y-61919959D01*
X76361533Y-61970139D01*
X76362500Y-61975000D01*
X76362500Y-63225000D01*
X76361532Y-63229863D01*
X76355712Y-63280040D01*
X76348141Y-63297185D01*
X76343470Y-63320671D01*
X76326669Y-63345815D01*
X76317891Y-63365696D01*
X76304312Y-63379274D01*
X76289277Y-63401777D01*
X76266774Y-63416812D01*
X76253196Y-63430391D01*
X76233315Y-63439169D01*
X76208171Y-63455970D01*
X76184685Y-63460641D01*
X76167540Y-63468212D01*
X76117361Y-63474032D01*
X76112500Y-63475000D01*
X75487500Y-63475000D01*
X75482638Y-63474032D01*
X75432459Y-63468212D01*
X75415312Y-63460641D01*
X75391829Y-63455970D01*
X75366686Y-63439170D01*
X75346803Y-63430391D01*
X75333222Y-63416810D01*
X75310723Y-63401777D01*
X75295689Y-63379277D01*
X75282108Y-63365696D01*
X75273327Y-63345810D01*
X75256530Y-63320671D01*
X75251859Y-63297189D01*
X75244287Y-63280040D01*
X75238464Y-63229849D01*
X75237500Y-63225000D01*
X75237500Y-61975000D01*
X75238464Y-61970150D01*
X75244287Y-61919959D01*
X75251859Y-61902808D01*
X75256530Y-61879329D01*
X75273326Y-61854191D01*
X75282108Y-61834303D01*
X75295691Y-61820719D01*
X75310723Y-61798223D01*
X75333219Y-61783191D01*
X75346803Y-61769608D01*
X75366691Y-61760826D01*
X75391829Y-61744030D01*
X75415308Y-61739359D01*
X75432459Y-61731787D01*
X75482651Y-61725964D01*
X75487500Y-61725000D01*
X76112500Y-61725000D01*
X76117350Y-61725964D01*
G37*
G36*
X45812401Y-62039501D02*
G01*
X45874204Y-62080796D01*
X45915499Y-62142599D01*
X45930000Y-62215500D01*
X45930000Y-63104500D01*
X45915499Y-63177401D01*
X45874204Y-63239204D01*
X45812401Y-63280499D01*
X45739500Y-63295000D01*
X43580500Y-63295000D01*
X43507599Y-63280499D01*
X43445796Y-63239204D01*
X43404501Y-63177401D01*
X43390000Y-63104500D01*
X43390000Y-62215500D01*
X43404501Y-62142599D01*
X43445796Y-62080796D01*
X43507599Y-62039501D01*
X43580500Y-62025000D01*
X45739500Y-62025000D01*
X45812401Y-62039501D01*
G37*
G36*
X61052401Y-62039501D02*
G01*
X61114204Y-62080796D01*
X61155499Y-62142599D01*
X61170000Y-62215500D01*
X61170000Y-63104500D01*
X61155499Y-63177401D01*
X61114204Y-63239204D01*
X61052401Y-63280499D01*
X60979500Y-63295000D01*
X58820500Y-63295000D01*
X58747599Y-63280499D01*
X58685796Y-63239204D01*
X58644501Y-63177401D01*
X58630000Y-63104500D01*
X58630000Y-62215500D01*
X58644501Y-62142599D01*
X58685796Y-62080796D01*
X58747599Y-62039501D01*
X58820500Y-62025000D01*
X60979500Y-62025000D01*
X61052401Y-62039501D01*
G37*
G36*
X45812401Y-59499501D02*
G01*
X45874204Y-59540796D01*
X45915499Y-59602599D01*
X45930000Y-59675500D01*
X45930000Y-60564500D01*
X45915499Y-60637401D01*
X45874204Y-60699204D01*
X45812401Y-60740499D01*
X45739500Y-60755000D01*
X43580500Y-60755000D01*
X43507599Y-60740499D01*
X43445796Y-60699204D01*
X43404501Y-60637401D01*
X43390000Y-60564500D01*
X43390000Y-59675500D01*
X43404501Y-59602599D01*
X43445796Y-59540796D01*
X43507599Y-59499501D01*
X43580500Y-59485000D01*
X45739500Y-59485000D01*
X45812401Y-59499501D01*
G37*
G36*
X61052401Y-59499501D02*
G01*
X61114204Y-59540796D01*
X61155499Y-59602599D01*
X61170000Y-59675500D01*
X61170000Y-60564500D01*
X61155499Y-60637401D01*
X61114204Y-60699204D01*
X61052401Y-60740499D01*
X60979500Y-60755000D01*
X58820500Y-60755000D01*
X58747599Y-60740499D01*
X58685796Y-60699204D01*
X58644501Y-60637401D01*
X58630000Y-60564500D01*
X58630000Y-59675500D01*
X58644501Y-59602599D01*
X58685796Y-59540796D01*
X58747599Y-59499501D01*
X58820500Y-59485000D01*
X60979500Y-59485000D01*
X61052401Y-59499501D01*
G37*
G36*
X44956476Y-56345090D02*
G01*
X45146008Y-56406673D01*
X45323573Y-56497147D01*
X45484799Y-56614284D01*
X45625716Y-56755201D01*
X45742853Y-56916427D01*
X45833327Y-57093992D01*
X45894910Y-57283524D01*
X45926085Y-57480357D01*
X45926085Y-57679643D01*
X45894910Y-57876476D01*
X45833327Y-58066008D01*
X45742853Y-58243573D01*
X45625716Y-58404799D01*
X45484799Y-58545716D01*
X45323573Y-58662853D01*
X45146008Y-58753327D01*
X44956476Y-58814910D01*
X44759643Y-58846085D01*
X44560357Y-58846085D01*
X44363524Y-58814910D01*
X44173992Y-58753327D01*
X43996427Y-58662853D01*
X43835201Y-58545716D01*
X43694284Y-58404799D01*
X43577147Y-58243573D01*
X43486673Y-58066008D01*
X43425090Y-57876476D01*
X43393915Y-57679643D01*
X43393915Y-57480357D01*
X43425090Y-57283524D01*
X43486673Y-57093992D01*
X43577147Y-56916427D01*
X43694284Y-56755201D01*
X43835201Y-56614284D01*
X43996427Y-56497147D01*
X44173992Y-56406673D01*
X44363524Y-56345090D01*
X44560357Y-56313915D01*
X44759643Y-56313915D01*
X44956476Y-56345090D01*
G37*
G36*
X61052401Y-56959501D02*
G01*
X61114204Y-57000796D01*
X61155499Y-57062599D01*
X61170000Y-57135500D01*
X61170000Y-58024500D01*
X61155499Y-58097401D01*
X61114204Y-58159204D01*
X61052401Y-58200499D01*
X60979500Y-58215000D01*
X58820500Y-58215000D01*
X58747599Y-58200499D01*
X58685796Y-58159204D01*
X58644501Y-58097401D01*
X58630000Y-58024500D01*
X58630000Y-57135500D01*
X58644501Y-57062599D01*
X58685796Y-57000796D01*
X58747599Y-56959501D01*
X58820500Y-56945000D01*
X60979500Y-56945000D01*
X61052401Y-56959501D01*
G37*
%LPD*%
M02*
