G04 #@! TF.GenerationSoftware,KiCad,Pcbnew,9.0.2*
G04 #@! TF.CreationDate,2025-06-20T10:59:14-07:00*
G04 #@! TF.ProjectId,fsrPrototype1,66737250-726f-4746-9f74-797065312e6b,rev?*
G04 #@! TF.SameCoordinates,Original*
G04 #@! TF.FileFunction,Soldermask,Top*
G04 #@! TF.FilePolarity,Negative*
%FSLAX46Y46*%
G04 Gerber Fmt 4.6, Leading zero omitted, Abs format (unit mm)*
G04 Created by KiCad (PCBNEW 9.0.2) date 2025-06-20 10:59:14*
%MOMM*%
%LPD*%
G01*
G04 APERTURE LIST*
G04 APERTURE END LIST*
G36*
X45812401Y-89979501D02*
G01*
X45874204Y-90020796D01*
X45915499Y-90082599D01*
X45930000Y-90155500D01*
X45930000Y-91044500D01*
X45915499Y-91117401D01*
X45874204Y-91179204D01*
X45812401Y-91220499D01*
X45739500Y-91235000D01*
X43580500Y-91235000D01*
X43507599Y-91220499D01*
X43445796Y-91179204D01*
X43404501Y-91117401D01*
X43390000Y-91044500D01*
X43390000Y-90155500D01*
X43404501Y-90082599D01*
X43445796Y-90020796D01*
X43507599Y-89979501D01*
X43580500Y-89965000D01*
X45739500Y-89965000D01*
X45812401Y-89979501D01*
G37*
G36*
X61052401Y-89979501D02*
G01*
X61114204Y-90020796D01*
X61155499Y-90082599D01*
X61170000Y-90155500D01*
X61170000Y-91044500D01*
X61155499Y-91117401D01*
X61114204Y-91179204D01*
X61052401Y-91220499D01*
X60979500Y-91235000D01*
X58820500Y-91235000D01*
X58747599Y-91220499D01*
X58685796Y-91179204D01*
X58644501Y-91117401D01*
X58630000Y-91044500D01*
X58630000Y-90155500D01*
X58644501Y-90082599D01*
X58685796Y-90020796D01*
X58747599Y-89979501D01*
X58820500Y-89965000D01*
X60979500Y-89965000D01*
X61052401Y-89979501D01*
G37*
G36*
X45812401Y-87439501D02*
G01*
X45874204Y-87480796D01*
X45915499Y-87542599D01*
X45930000Y-87615500D01*
X45930000Y-88504500D01*
X45915499Y-88577401D01*
X45874204Y-88639204D01*
X45812401Y-88680499D01*
X45739500Y-88695000D01*
X43580500Y-88695000D01*
X43507599Y-88680499D01*
X43445796Y-88639204D01*
X43404501Y-88577401D01*
X43390000Y-88504500D01*
X43390000Y-87615500D01*
X43404501Y-87542599D01*
X43445796Y-87480796D01*
X43507599Y-87439501D01*
X43580500Y-87425000D01*
X45739500Y-87425000D01*
X45812401Y-87439501D01*
G37*
G36*
X61052401Y-87439501D02*
G01*
X61114204Y-87480796D01*
X61155499Y-87542599D01*
X61170000Y-87615500D01*
X61170000Y-88504500D01*
X61155499Y-88577401D01*
X61114204Y-88639204D01*
X61052401Y-88680499D01*
X60979500Y-88695000D01*
X58820500Y-88695000D01*
X58747599Y-88680499D01*
X58685796Y-88639204D01*
X58644501Y-88577401D01*
X58630000Y-88504500D01*
X58630000Y-87615500D01*
X58644501Y-87542599D01*
X58685796Y-87480796D01*
X58747599Y-87439501D01*
X58820500Y-87425000D01*
X60979500Y-87425000D01*
X61052401Y-87439501D01*
G37*
G36*
X64992350Y-85525964D02*
G01*
X65042540Y-85531787D01*
X65059689Y-85539359D01*
X65083171Y-85544030D01*
X65108310Y-85560827D01*
X65128196Y-85569608D01*
X65141777Y-85583189D01*
X65164277Y-85598223D01*
X65179310Y-85620722D01*
X65192891Y-85634303D01*
X65201670Y-85654186D01*
X65218470Y-85679329D01*
X65223141Y-85702812D01*
X65230712Y-85719959D01*
X65236533Y-85770139D01*
X65237500Y-85775000D01*
X65237500Y-87025000D01*
X65236532Y-87029863D01*
X65230712Y-87080040D01*
X65223141Y-87097185D01*
X65218470Y-87120671D01*
X65201669Y-87145815D01*
X65192891Y-87165696D01*
X65179312Y-87179274D01*
X65164277Y-87201777D01*
X65141774Y-87216812D01*
X65128196Y-87230391D01*
X65108315Y-87239169D01*
X65083171Y-87255970D01*
X65059685Y-87260641D01*
X65042540Y-87268212D01*
X64992361Y-87274032D01*
X64987500Y-87275000D01*
X64362500Y-87275000D01*
X64357638Y-87274032D01*
X64307459Y-87268212D01*
X64290312Y-87260641D01*
X64266829Y-87255970D01*
X64241686Y-87239170D01*
X64221803Y-87230391D01*
X64208222Y-87216810D01*
X64185723Y-87201777D01*
X64170689Y-87179277D01*
X64157108Y-87165696D01*
X64148327Y-87145810D01*
X64131530Y-87120671D01*
X64126859Y-87097189D01*
X64119287Y-87080040D01*
X64113464Y-87029849D01*
X64112500Y-87025000D01*
X64112500Y-85775000D01*
X64113464Y-85770150D01*
X64119287Y-85719959D01*
X64126859Y-85702808D01*
X64131530Y-85679329D01*
X64148326Y-85654191D01*
X64157108Y-85634303D01*
X64170691Y-85620719D01*
X64185723Y-85598223D01*
X64208219Y-85583191D01*
X64221803Y-85569608D01*
X64241691Y-85560826D01*
X64266829Y-85544030D01*
X64290308Y-85539359D01*
X64307459Y-85531787D01*
X64357651Y-85525964D01*
X64362500Y-85525000D01*
X64987500Y-85525000D01*
X64992350Y-85525964D01*
G37*
G36*
X67917350Y-85525964D02*
G01*
X67967540Y-85531787D01*
X67984689Y-85539359D01*
X68008171Y-85544030D01*
X68033310Y-85560827D01*
X68053196Y-85569608D01*
X68066777Y-85583189D01*
X68089277Y-85598223D01*
X68104310Y-85620722D01*
X68117891Y-85634303D01*
X68126670Y-85654186D01*
X68143470Y-85679329D01*
X68148141Y-85702812D01*
X68155712Y-85719959D01*
X68161533Y-85770139D01*
X68162500Y-85775000D01*
X68162500Y-87025000D01*
X68161532Y-87029863D01*
X68155712Y-87080040D01*
X68148141Y-87097185D01*
X68143470Y-87120671D01*
X68126669Y-87145815D01*
X68117891Y-87165696D01*
X68104312Y-87179274D01*
X68089277Y-87201777D01*
X68066774Y-87216812D01*
X68053196Y-87230391D01*
X68033315Y-87239169D01*
X68008171Y-87255970D01*
X67984685Y-87260641D01*
X67967540Y-87268212D01*
X67917361Y-87274032D01*
X67912500Y-87275000D01*
X67287500Y-87275000D01*
X67282638Y-87274032D01*
X67232459Y-87268212D01*
X67215312Y-87260641D01*
X67191829Y-87255970D01*
X67166686Y-87239170D01*
X67146803Y-87230391D01*
X67133222Y-87216810D01*
X67110723Y-87201777D01*
X67095689Y-87179277D01*
X67082108Y-87165696D01*
X67073327Y-87145810D01*
X67056530Y-87120671D01*
X67051859Y-87097189D01*
X67044287Y-87080040D01*
X67038464Y-87029849D01*
X67037500Y-87025000D01*
X67037500Y-85775000D01*
X67038464Y-85770150D01*
X67044287Y-85719959D01*
X67051859Y-85702808D01*
X67056530Y-85679329D01*
X67073326Y-85654191D01*
X67082108Y-85634303D01*
X67095691Y-85620719D01*
X67110723Y-85598223D01*
X67133219Y-85583191D01*
X67146803Y-85569608D01*
X67166691Y-85560826D01*
X67191829Y-85544030D01*
X67215308Y-85539359D01*
X67232459Y-85531787D01*
X67282651Y-85525964D01*
X67287500Y-85525000D01*
X67912500Y-85525000D01*
X67917350Y-85525964D01*
G37*
G36*
X72479850Y-85525964D02*
G01*
X72530040Y-85531787D01*
X72547189Y-85539359D01*
X72570671Y-85544030D01*
X72595810Y-85560827D01*
X72615696Y-85569608D01*
X72629277Y-85583189D01*
X72651777Y-85598223D01*
X72666810Y-85620722D01*
X72680391Y-85634303D01*
X72689170Y-85654186D01*
X72705970Y-85679329D01*
X72710641Y-85702812D01*
X72718212Y-85719959D01*
X72724033Y-85770139D01*
X72725000Y-85775000D01*
X72725000Y-87025000D01*
X72724032Y-87029863D01*
X72718212Y-87080040D01*
X72710641Y-87097185D01*
X72705970Y-87120671D01*
X72689169Y-87145815D01*
X72680391Y-87165696D01*
X72666812Y-87179274D01*
X72651777Y-87201777D01*
X72629274Y-87216812D01*
X72615696Y-87230391D01*
X72595815Y-87239169D01*
X72570671Y-87255970D01*
X72547185Y-87260641D01*
X72530040Y-87268212D01*
X72479861Y-87274032D01*
X72475000Y-87275000D01*
X71725000Y-87275000D01*
X71720138Y-87274032D01*
X71669959Y-87268212D01*
X71652812Y-87260641D01*
X71629329Y-87255970D01*
X71604186Y-87239170D01*
X71584303Y-87230391D01*
X71570722Y-87216810D01*
X71548223Y-87201777D01*
X71533189Y-87179277D01*
X71519608Y-87165696D01*
X71510827Y-87145810D01*
X71494030Y-87120671D01*
X71489359Y-87097189D01*
X71481787Y-87080040D01*
X71475964Y-87029849D01*
X71475000Y-87025000D01*
X71475000Y-85775000D01*
X71475964Y-85770150D01*
X71481787Y-85719959D01*
X71489359Y-85702808D01*
X71494030Y-85679329D01*
X71510826Y-85654191D01*
X71519608Y-85634303D01*
X71533191Y-85620719D01*
X71548223Y-85598223D01*
X71570719Y-85583191D01*
X71584303Y-85569608D01*
X71604191Y-85560826D01*
X71629329Y-85544030D01*
X71652808Y-85539359D01*
X71669959Y-85531787D01*
X71720151Y-85525964D01*
X71725000Y-85525000D01*
X72475000Y-85525000D01*
X72479850Y-85525964D01*
G37*
G36*
X75279850Y-85525964D02*
G01*
X75330040Y-85531787D01*
X75347189Y-85539359D01*
X75370671Y-85544030D01*
X75395810Y-85560827D01*
X75415696Y-85569608D01*
X75429277Y-85583189D01*
X75451777Y-85598223D01*
X75466810Y-85620722D01*
X75480391Y-85634303D01*
X75489170Y-85654186D01*
X75505970Y-85679329D01*
X75510641Y-85702812D01*
X75518212Y-85719959D01*
X75524033Y-85770139D01*
X75525000Y-85775000D01*
X75525000Y-87025000D01*
X75524032Y-87029863D01*
X75518212Y-87080040D01*
X75510641Y-87097185D01*
X75505970Y-87120671D01*
X75489169Y-87145815D01*
X75480391Y-87165696D01*
X75466812Y-87179274D01*
X75451777Y-87201777D01*
X75429274Y-87216812D01*
X75415696Y-87230391D01*
X75395815Y-87239169D01*
X75370671Y-87255970D01*
X75347185Y-87260641D01*
X75330040Y-87268212D01*
X75279861Y-87274032D01*
X75275000Y-87275000D01*
X74525000Y-87275000D01*
X74520138Y-87274032D01*
X74469959Y-87268212D01*
X74452812Y-87260641D01*
X74429329Y-87255970D01*
X74404186Y-87239170D01*
X74384303Y-87230391D01*
X74370722Y-87216810D01*
X74348223Y-87201777D01*
X74333189Y-87179277D01*
X74319608Y-87165696D01*
X74310827Y-87145810D01*
X74294030Y-87120671D01*
X74289359Y-87097189D01*
X74281787Y-87080040D01*
X74275964Y-87029849D01*
X74275000Y-87025000D01*
X74275000Y-85775000D01*
X74275964Y-85770150D01*
X74281787Y-85719959D01*
X74289359Y-85702808D01*
X74294030Y-85679329D01*
X74310826Y-85654191D01*
X74319608Y-85634303D01*
X74333191Y-85620719D01*
X74348223Y-85598223D01*
X74370719Y-85583191D01*
X74384303Y-85569608D01*
X74404191Y-85560826D01*
X74429329Y-85544030D01*
X74452808Y-85539359D01*
X74469959Y-85531787D01*
X74520151Y-85525964D01*
X74525000Y-85525000D01*
X75275000Y-85525000D01*
X75279850Y-85525964D01*
G37*
G36*
X45812401Y-84899501D02*
G01*
X45874204Y-84940796D01*
X45915499Y-85002599D01*
X45930000Y-85075500D01*
X45930000Y-85964500D01*
X45915499Y-86037401D01*
X45874204Y-86099204D01*
X45812401Y-86140499D01*
X45739500Y-86155000D01*
X43580500Y-86155000D01*
X43507599Y-86140499D01*
X43445796Y-86099204D01*
X43404501Y-86037401D01*
X43390000Y-85964500D01*
X43390000Y-85075500D01*
X43404501Y-85002599D01*
X43445796Y-84940796D01*
X43507599Y-84899501D01*
X43580500Y-84885000D01*
X45739500Y-84885000D01*
X45812401Y-84899501D01*
G37*
G36*
X61052401Y-84899501D02*
G01*
X61114204Y-84940796D01*
X61155499Y-85002599D01*
X61170000Y-85075500D01*
X61170000Y-85964500D01*
X61155499Y-86037401D01*
X61114204Y-86099204D01*
X61052401Y-86140499D01*
X60979500Y-86155000D01*
X58820500Y-86155000D01*
X58747599Y-86140499D01*
X58685796Y-86099204D01*
X58644501Y-86037401D01*
X58630000Y-85964500D01*
X58630000Y-85075500D01*
X58644501Y-85002599D01*
X58685796Y-84940796D01*
X58747599Y-84899501D01*
X58820500Y-84885000D01*
X60979500Y-84885000D01*
X61052401Y-84899501D01*
G37*
G36*
X45812401Y-82359501D02*
G01*
X45874204Y-82400796D01*
X45915499Y-82462599D01*
X45930000Y-82535500D01*
X45930000Y-83424500D01*
X45915499Y-83497401D01*
X45874204Y-83559204D01*
X45812401Y-83600499D01*
X45739500Y-83615000D01*
X43580500Y-83615000D01*
X43507599Y-83600499D01*
X43445796Y-83559204D01*
X43404501Y-83497401D01*
X43390000Y-83424500D01*
X43390000Y-82535500D01*
X43404501Y-82462599D01*
X43445796Y-82400796D01*
X43507599Y-82359501D01*
X43580500Y-82345000D01*
X45739500Y-82345000D01*
X45812401Y-82359501D01*
G37*
G36*
X61052401Y-82359501D02*
G01*
X61114204Y-82400796D01*
X61155499Y-82462599D01*
X61170000Y-82535500D01*
X61170000Y-83424500D01*
X61155499Y-83497401D01*
X61114204Y-83559204D01*
X61052401Y-83600499D01*
X60979500Y-83615000D01*
X58820500Y-83615000D01*
X58747599Y-83600499D01*
X58685796Y-83559204D01*
X58644501Y-83497401D01*
X58630000Y-83424500D01*
X58630000Y-82535500D01*
X58644501Y-82462599D01*
X58685796Y-82400796D01*
X58747599Y-82359501D01*
X58820500Y-82345000D01*
X60979500Y-82345000D01*
X61052401Y-82359501D01*
G37*
G36*
X64892350Y-79825964D02*
G01*
X64942540Y-79831787D01*
X64959689Y-79839359D01*
X64983171Y-79844030D01*
X65008310Y-79860827D01*
X65028196Y-79869608D01*
X65041777Y-79883189D01*
X65064277Y-79898223D01*
X65079310Y-79920722D01*
X65092891Y-79934303D01*
X65101670Y-79954186D01*
X65118470Y-79979329D01*
X65123141Y-80002812D01*
X65130712Y-80019959D01*
X65136533Y-80070139D01*
X65137500Y-80075000D01*
X65137500Y-81325000D01*
X65136532Y-81329863D01*
X65130712Y-81380040D01*
X65123141Y-81397185D01*
X65118470Y-81420671D01*
X65101669Y-81445815D01*
X65092891Y-81465696D01*
X65079312Y-81479274D01*
X65064277Y-81501777D01*
X65041774Y-81516812D01*
X65028196Y-81530391D01*
X65008315Y-81539169D01*
X64983171Y-81555970D01*
X64959685Y-81560641D01*
X64942540Y-81568212D01*
X64892361Y-81574032D01*
X64887500Y-81575000D01*
X64262500Y-81575000D01*
X64257638Y-81574032D01*
X64207459Y-81568212D01*
X64190312Y-81560641D01*
X64166829Y-81555970D01*
X64141686Y-81539170D01*
X64121803Y-81530391D01*
X64108222Y-81516810D01*
X64085723Y-81501777D01*
X64070689Y-81479277D01*
X64057108Y-81465696D01*
X64048327Y-81445810D01*
X64031530Y-81420671D01*
X64026859Y-81397189D01*
X64019287Y-81380040D01*
X64013464Y-81329849D01*
X64012500Y-81325000D01*
X64012500Y-80075000D01*
X64013464Y-80070150D01*
X64019287Y-80019959D01*
X64026859Y-80002808D01*
X64031530Y-79979329D01*
X64048326Y-79954191D01*
X64057108Y-79934303D01*
X64070691Y-79920719D01*
X64085723Y-79898223D01*
X64108219Y-79883191D01*
X64121803Y-79869608D01*
X64141691Y-79860826D01*
X64166829Y-79844030D01*
X64190308Y-79839359D01*
X64207459Y-79831787D01*
X64257651Y-79825964D01*
X64262500Y-79825000D01*
X64887500Y-79825000D01*
X64892350Y-79825964D01*
G37*
G36*
X67817350Y-79825964D02*
G01*
X67867540Y-79831787D01*
X67884689Y-79839359D01*
X67908171Y-79844030D01*
X67933310Y-79860827D01*
X67953196Y-79869608D01*
X67966777Y-79883189D01*
X67989277Y-79898223D01*
X68004310Y-79920722D01*
X68017891Y-79934303D01*
X68026670Y-79954186D01*
X68043470Y-79979329D01*
X68048141Y-80002812D01*
X68055712Y-80019959D01*
X68061533Y-80070139D01*
X68062500Y-80075000D01*
X68062500Y-81325000D01*
X68061532Y-81329863D01*
X68055712Y-81380040D01*
X68048141Y-81397185D01*
X68043470Y-81420671D01*
X68026669Y-81445815D01*
X68017891Y-81465696D01*
X68004312Y-81479274D01*
X67989277Y-81501777D01*
X67966774Y-81516812D01*
X67953196Y-81530391D01*
X67933315Y-81539169D01*
X67908171Y-81555970D01*
X67884685Y-81560641D01*
X67867540Y-81568212D01*
X67817361Y-81574032D01*
X67812500Y-81575000D01*
X67187500Y-81575000D01*
X67182638Y-81574032D01*
X67132459Y-81568212D01*
X67115312Y-81560641D01*
X67091829Y-81555970D01*
X67066686Y-81539170D01*
X67046803Y-81530391D01*
X67033222Y-81516810D01*
X67010723Y-81501777D01*
X66995689Y-81479277D01*
X66982108Y-81465696D01*
X66973327Y-81445810D01*
X66956530Y-81420671D01*
X66951859Y-81397189D01*
X66944287Y-81380040D01*
X66938464Y-81329849D01*
X66937500Y-81325000D01*
X66937500Y-80075000D01*
X66938464Y-80070150D01*
X66944287Y-80019959D01*
X66951859Y-80002808D01*
X66956530Y-79979329D01*
X66973326Y-79954191D01*
X66982108Y-79934303D01*
X66995691Y-79920719D01*
X67010723Y-79898223D01*
X67033219Y-79883191D01*
X67046803Y-79869608D01*
X67066691Y-79860826D01*
X67091829Y-79844030D01*
X67115308Y-79839359D01*
X67132459Y-79831787D01*
X67182651Y-79825964D01*
X67187500Y-79825000D01*
X67812500Y-79825000D01*
X67817350Y-79825964D01*
G37*
G36*
X72579850Y-79825964D02*
G01*
X72630040Y-79831787D01*
X72647189Y-79839359D01*
X72670671Y-79844030D01*
X72695810Y-79860827D01*
X72715696Y-79869608D01*
X72729277Y-79883189D01*
X72751777Y-79898223D01*
X72766810Y-79920722D01*
X72780391Y-79934303D01*
X72789170Y-79954186D01*
X72805970Y-79979329D01*
X72810641Y-80002812D01*
X72818212Y-80019959D01*
X72824033Y-80070139D01*
X72825000Y-80075000D01*
X72825000Y-81325000D01*
X72824032Y-81329863D01*
X72818212Y-81380040D01*
X72810641Y-81397185D01*
X72805970Y-81420671D01*
X72789169Y-81445815D01*
X72780391Y-81465696D01*
X72766812Y-81479274D01*
X72751777Y-81501777D01*
X72729274Y-81516812D01*
X72715696Y-81530391D01*
X72695815Y-81539169D01*
X72670671Y-81555970D01*
X72647185Y-81560641D01*
X72630040Y-81568212D01*
X72579861Y-81574032D01*
X72575000Y-81575000D01*
X71825000Y-81575000D01*
X71820138Y-81574032D01*
X71769959Y-81568212D01*
X71752812Y-81560641D01*
X71729329Y-81555970D01*
X71704186Y-81539170D01*
X71684303Y-81530391D01*
X71670722Y-81516810D01*
X71648223Y-81501777D01*
X71633189Y-81479277D01*
X71619608Y-81465696D01*
X71610827Y-81445810D01*
X71594030Y-81420671D01*
X71589359Y-81397189D01*
X71581787Y-81380040D01*
X71575964Y-81329849D01*
X71575000Y-81325000D01*
X71575000Y-80075000D01*
X71575964Y-80070150D01*
X71581787Y-80019959D01*
X71589359Y-80002808D01*
X71594030Y-79979329D01*
X71610826Y-79954191D01*
X71619608Y-79934303D01*
X71633191Y-79920719D01*
X71648223Y-79898223D01*
X71670719Y-79883191D01*
X71684303Y-79869608D01*
X71704191Y-79860826D01*
X71729329Y-79844030D01*
X71752808Y-79839359D01*
X71769959Y-79831787D01*
X71820151Y-79825964D01*
X71825000Y-79825000D01*
X72575000Y-79825000D01*
X72579850Y-79825964D01*
G37*
G36*
X75379850Y-79825964D02*
G01*
X75430040Y-79831787D01*
X75447189Y-79839359D01*
X75470671Y-79844030D01*
X75495810Y-79860827D01*
X75515696Y-79869608D01*
X75529277Y-79883189D01*
X75551777Y-79898223D01*
X75566810Y-79920722D01*
X75580391Y-79934303D01*
X75589170Y-79954186D01*
X75605970Y-79979329D01*
X75610641Y-80002812D01*
X75618212Y-80019959D01*
X75624033Y-80070139D01*
X75625000Y-80075000D01*
X75625000Y-81325000D01*
X75624032Y-81329863D01*
X75618212Y-81380040D01*
X75610641Y-81397185D01*
X75605970Y-81420671D01*
X75589169Y-81445815D01*
X75580391Y-81465696D01*
X75566812Y-81479274D01*
X75551777Y-81501777D01*
X75529274Y-81516812D01*
X75515696Y-81530391D01*
X75495815Y-81539169D01*
X75470671Y-81555970D01*
X75447185Y-81560641D01*
X75430040Y-81568212D01*
X75379861Y-81574032D01*
X75375000Y-81575000D01*
X74625000Y-81575000D01*
X74620138Y-81574032D01*
X74569959Y-81568212D01*
X74552812Y-81560641D01*
X74529329Y-81555970D01*
X74504186Y-81539170D01*
X74484303Y-81530391D01*
X74470722Y-81516810D01*
X74448223Y-81501777D01*
X74433189Y-81479277D01*
X74419608Y-81465696D01*
X74410827Y-81445810D01*
X74394030Y-81420671D01*
X74389359Y-81397189D01*
X74381787Y-81380040D01*
X74375964Y-81329849D01*
X74375000Y-81325000D01*
X74375000Y-80075000D01*
X74375964Y-80070150D01*
X74381787Y-80019959D01*
X74389359Y-80002808D01*
X74394030Y-79979329D01*
X74410826Y-79954191D01*
X74419608Y-79934303D01*
X74433191Y-79920719D01*
X74448223Y-79898223D01*
X74470719Y-79883191D01*
X74484303Y-79869608D01*
X74504191Y-79860826D01*
X74529329Y-79844030D01*
X74552808Y-79839359D01*
X74569959Y-79831787D01*
X74620151Y-79825964D01*
X74625000Y-79825000D01*
X75375000Y-79825000D01*
X75379850Y-79825964D01*
G37*
G36*
X45812401Y-79819501D02*
G01*
X45874204Y-79860796D01*
X45915499Y-79922599D01*
X45930000Y-79995500D01*
X45930000Y-80884500D01*
X45915499Y-80957401D01*
X45874204Y-81019204D01*
X45812401Y-81060499D01*
X45739500Y-81075000D01*
X43580500Y-81075000D01*
X43507599Y-81060499D01*
X43445796Y-81019204D01*
X43404501Y-80957401D01*
X43390000Y-80884500D01*
X43390000Y-79995500D01*
X43404501Y-79922599D01*
X43445796Y-79860796D01*
X43507599Y-79819501D01*
X43580500Y-79805000D01*
X45739500Y-79805000D01*
X45812401Y-79819501D01*
G37*
G36*
X61052401Y-79819501D02*
G01*
X61114204Y-79860796D01*
X61155499Y-79922599D01*
X61170000Y-79995500D01*
X61170000Y-80884500D01*
X61155499Y-80957401D01*
X61114204Y-81019204D01*
X61052401Y-81060499D01*
X60979500Y-81075000D01*
X58820500Y-81075000D01*
X58747599Y-81060499D01*
X58685796Y-81019204D01*
X58644501Y-80957401D01*
X58630000Y-80884500D01*
X58630000Y-79995500D01*
X58644501Y-79922599D01*
X58685796Y-79860796D01*
X58747599Y-79819501D01*
X58820500Y-79805000D01*
X60979500Y-79805000D01*
X61052401Y-79819501D01*
G37*
G36*
X45812401Y-77279501D02*
G01*
X45874204Y-77320796D01*
X45915499Y-77382599D01*
X45930000Y-77455500D01*
X45930000Y-78344500D01*
X45915499Y-78417401D01*
X45874204Y-78479204D01*
X45812401Y-78520499D01*
X45739500Y-78535000D01*
X43580500Y-78535000D01*
X43507599Y-78520499D01*
X43445796Y-78479204D01*
X43404501Y-78417401D01*
X43390000Y-78344500D01*
X43390000Y-77455500D01*
X43404501Y-77382599D01*
X43445796Y-77320796D01*
X43507599Y-77279501D01*
X43580500Y-77265000D01*
X45739500Y-77265000D01*
X45812401Y-77279501D01*
G37*
G36*
X61052401Y-77279501D02*
G01*
X61114204Y-77320796D01*
X61155499Y-77382599D01*
X61170000Y-77455500D01*
X61170000Y-78344500D01*
X61155499Y-78417401D01*
X61114204Y-78479204D01*
X61052401Y-78520499D01*
X60979500Y-78535000D01*
X58820500Y-78535000D01*
X58747599Y-78520499D01*
X58685796Y-78479204D01*
X58644501Y-78417401D01*
X58630000Y-78344500D01*
X58630000Y-77455500D01*
X58644501Y-77382599D01*
X58685796Y-77320796D01*
X58747599Y-77279501D01*
X58820500Y-77265000D01*
X60979500Y-77265000D01*
X61052401Y-77279501D01*
G37*
G36*
X45812401Y-74739501D02*
G01*
X45874204Y-74780796D01*
X45915499Y-74842599D01*
X45930000Y-74915500D01*
X45930000Y-75804500D01*
X45915499Y-75877401D01*
X45874204Y-75939204D01*
X45812401Y-75980499D01*
X45739500Y-75995000D01*
X43580500Y-75995000D01*
X43507599Y-75980499D01*
X43445796Y-75939204D01*
X43404501Y-75877401D01*
X43390000Y-75804500D01*
X43390000Y-74915500D01*
X43404501Y-74842599D01*
X43445796Y-74780796D01*
X43507599Y-74739501D01*
X43580500Y-74725000D01*
X45739500Y-74725000D01*
X45812401Y-74739501D01*
G37*
G36*
X61052401Y-74739501D02*
G01*
X61114204Y-74780796D01*
X61155499Y-74842599D01*
X61170000Y-74915500D01*
X61170000Y-75804500D01*
X61155499Y-75877401D01*
X61114204Y-75939204D01*
X61052401Y-75980499D01*
X60979500Y-75995000D01*
X58820500Y-75995000D01*
X58747599Y-75980499D01*
X58685796Y-75939204D01*
X58644501Y-75877401D01*
X58630000Y-75804500D01*
X58630000Y-74915500D01*
X58644501Y-74842599D01*
X58685796Y-74780796D01*
X58747599Y-74739501D01*
X58820500Y-74725000D01*
X60979500Y-74725000D01*
X61052401Y-74739501D01*
G37*
G36*
X73092350Y-71925964D02*
G01*
X73142540Y-71931787D01*
X73159689Y-71939359D01*
X73183171Y-71944030D01*
X73208310Y-71960827D01*
X73228196Y-71969608D01*
X73241777Y-71983189D01*
X73264277Y-71998223D01*
X73279310Y-72020722D01*
X73292891Y-72034303D01*
X73301670Y-72054186D01*
X73318470Y-72079329D01*
X73323141Y-72102812D01*
X73330712Y-72119959D01*
X73336533Y-72170139D01*
X73337500Y-72175000D01*
X73337500Y-73425000D01*
X73336532Y-73429863D01*
X73330712Y-73480040D01*
X73323141Y-73497185D01*
X73318470Y-73520671D01*
X73301669Y-73545815D01*
X73292891Y-73565696D01*
X73279312Y-73579274D01*
X73264277Y-73601777D01*
X73241774Y-73616812D01*
X73228196Y-73630391D01*
X73208315Y-73639169D01*
X73183171Y-73655970D01*
X73159685Y-73660641D01*
X73142540Y-73668212D01*
X73092361Y-73674032D01*
X73087500Y-73675000D01*
X72462500Y-73675000D01*
X72457638Y-73674032D01*
X72407459Y-73668212D01*
X72390312Y-73660641D01*
X72366829Y-73655970D01*
X72341686Y-73639170D01*
X72321803Y-73630391D01*
X72308222Y-73616810D01*
X72285723Y-73601777D01*
X72270689Y-73579277D01*
X72257108Y-73565696D01*
X72248327Y-73545810D01*
X72231530Y-73520671D01*
X72226859Y-73497189D01*
X72219287Y-73480040D01*
X72213464Y-73429849D01*
X72212500Y-73425000D01*
X72212500Y-72175000D01*
X72213464Y-72170150D01*
X72219287Y-72119959D01*
X72226859Y-72102808D01*
X72231530Y-72079329D01*
X72248326Y-72054191D01*
X72257108Y-72034303D01*
X72270691Y-72020719D01*
X72285723Y-71998223D01*
X72308219Y-71983191D01*
X72321803Y-71969608D01*
X72341691Y-71960826D01*
X72366829Y-71944030D01*
X72390308Y-71939359D01*
X72407459Y-71931787D01*
X72457651Y-71925964D01*
X72462500Y-71925000D01*
X73087500Y-71925000D01*
X73092350Y-71925964D01*
G37*
G36*
X76017350Y-71925964D02*
G01*
X76067540Y-71931787D01*
X76084689Y-71939359D01*
X76108171Y-71944030D01*
X76133310Y-71960827D01*
X76153196Y-71969608D01*
X76166777Y-71983189D01*
X76189277Y-71998223D01*
X76204310Y-72020722D01*
X76217891Y-72034303D01*
X76226670Y-72054186D01*
X76243470Y-72079329D01*
X76248141Y-72102812D01*
X76255712Y-72119959D01*
X76261533Y-72170139D01*
X76262500Y-72175000D01*
X76262500Y-73425000D01*
X76261532Y-73429863D01*
X76255712Y-73480040D01*
X76248141Y-73497185D01*
X76243470Y-73520671D01*
X76226669Y-73545815D01*
X76217891Y-73565696D01*
X76204312Y-73579274D01*
X76189277Y-73601777D01*
X76166774Y-73616812D01*
X76153196Y-73630391D01*
X76133315Y-73639169D01*
X76108171Y-73655970D01*
X76084685Y-73660641D01*
X76067540Y-73668212D01*
X76017361Y-73674032D01*
X76012500Y-73675000D01*
X75387500Y-73675000D01*
X75382638Y-73674032D01*
X75332459Y-73668212D01*
X75315312Y-73660641D01*
X75291829Y-73655970D01*
X75266686Y-73639170D01*
X75246803Y-73630391D01*
X75233222Y-73616810D01*
X75210723Y-73601777D01*
X75195689Y-73579277D01*
X75182108Y-73565696D01*
X75173327Y-73545810D01*
X75156530Y-73520671D01*
X75151859Y-73497189D01*
X75144287Y-73480040D01*
X75138464Y-73429849D01*
X75137500Y-73425000D01*
X75137500Y-72175000D01*
X75138464Y-72170150D01*
X75144287Y-72119959D01*
X75151859Y-72102808D01*
X75156530Y-72079329D01*
X75173326Y-72054191D01*
X75182108Y-72034303D01*
X75195691Y-72020719D01*
X75210723Y-71998223D01*
X75233219Y-71983191D01*
X75246803Y-71969608D01*
X75266691Y-71960826D01*
X75291829Y-71944030D01*
X75315308Y-71939359D01*
X75332459Y-71931787D01*
X75382651Y-71925964D01*
X75387500Y-71925000D01*
X76012500Y-71925000D01*
X76017350Y-71925964D01*
G37*
G36*
X66184850Y-71305964D02*
G01*
X66235040Y-71311787D01*
X66252189Y-71319359D01*
X66275671Y-71324030D01*
X66300810Y-71340827D01*
X66320696Y-71349608D01*
X66334277Y-71363189D01*
X66356777Y-71378223D01*
X66371810Y-71400722D01*
X66385391Y-71414303D01*
X66394170Y-71434186D01*
X66410970Y-71459329D01*
X66415641Y-71482812D01*
X66423212Y-71499959D01*
X66429033Y-71550139D01*
X66430000Y-71555000D01*
X66430000Y-73245000D01*
X66429032Y-73249863D01*
X66423212Y-73300040D01*
X66415641Y-73317185D01*
X66410970Y-73340671D01*
X66394169Y-73365815D01*
X66385391Y-73385696D01*
X66371812Y-73399274D01*
X66356777Y-73421777D01*
X66334274Y-73436812D01*
X66320696Y-73450391D01*
X66300815Y-73459169D01*
X66275671Y-73475970D01*
X66252185Y-73480641D01*
X66235040Y-73488212D01*
X66184861Y-73494032D01*
X66180000Y-73495000D01*
X64940000Y-73495000D01*
X64935138Y-73494032D01*
X64884959Y-73488212D01*
X64867812Y-73480641D01*
X64844329Y-73475970D01*
X64819186Y-73459170D01*
X64799303Y-73450391D01*
X64785722Y-73436810D01*
X64763223Y-73421777D01*
X64748189Y-73399277D01*
X64734608Y-73385696D01*
X64725827Y-73365810D01*
X64709030Y-73340671D01*
X64704359Y-73317189D01*
X64696787Y-73300040D01*
X64690964Y-73249849D01*
X64690000Y-73245000D01*
X64690000Y-71555000D01*
X64690964Y-71550150D01*
X64696787Y-71499959D01*
X64704359Y-71482808D01*
X64709030Y-71459329D01*
X64725826Y-71434191D01*
X64734608Y-71414303D01*
X64748191Y-71400719D01*
X64763223Y-71378223D01*
X64785719Y-71363191D01*
X64799303Y-71349608D01*
X64819191Y-71340826D01*
X64844329Y-71324030D01*
X64867808Y-71319359D01*
X64884959Y-71311787D01*
X64935151Y-71305964D01*
X64940000Y-71305000D01*
X66180000Y-71305000D01*
X66184850Y-71305964D01*
G37*
G36*
X68352548Y-71342462D02*
G01*
X68510115Y-71407729D01*
X68651922Y-71502481D01*
X68772519Y-71623078D01*
X68867271Y-71764885D01*
X68932538Y-71922452D01*
X68965811Y-72089725D01*
X68970000Y-72175000D01*
X68970000Y-72625000D01*
X68965811Y-72710275D01*
X68932538Y-72877548D01*
X68867271Y-73035115D01*
X68772519Y-73176922D01*
X68651922Y-73297519D01*
X68510115Y-73392271D01*
X68352548Y-73457538D01*
X68185275Y-73490811D01*
X68014725Y-73490811D01*
X67847452Y-73457538D01*
X67689885Y-73392271D01*
X67548078Y-73297519D01*
X67427481Y-73176922D01*
X67332729Y-73035115D01*
X67267462Y-72877548D01*
X67234189Y-72710275D01*
X67230000Y-72625000D01*
X67230000Y-72175000D01*
X67234189Y-72089725D01*
X67267462Y-71922452D01*
X67332729Y-71764885D01*
X67427481Y-71623078D01*
X67548078Y-71502481D01*
X67689885Y-71407729D01*
X67847452Y-71342462D01*
X68014725Y-71309189D01*
X68185275Y-71309189D01*
X68352548Y-71342462D01*
G37*
G36*
X45812401Y-72199501D02*
G01*
X45874204Y-72240796D01*
X45915499Y-72302599D01*
X45930000Y-72375500D01*
X45930000Y-73264500D01*
X45915499Y-73337401D01*
X45874204Y-73399204D01*
X45812401Y-73440499D01*
X45739500Y-73455000D01*
X43580500Y-73455000D01*
X43507599Y-73440499D01*
X43445796Y-73399204D01*
X43404501Y-73337401D01*
X43390000Y-73264500D01*
X43390000Y-72375500D01*
X43404501Y-72302599D01*
X43445796Y-72240796D01*
X43507599Y-72199501D01*
X43580500Y-72185000D01*
X45739500Y-72185000D01*
X45812401Y-72199501D01*
G37*
G36*
X61052401Y-72199501D02*
G01*
X61114204Y-72240796D01*
X61155499Y-72302599D01*
X61170000Y-72375500D01*
X61170000Y-73264500D01*
X61155499Y-73337401D01*
X61114204Y-73399204D01*
X61052401Y-73440499D01*
X60979500Y-73455000D01*
X58820500Y-73455000D01*
X58747599Y-73440499D01*
X58685796Y-73399204D01*
X58644501Y-73337401D01*
X58630000Y-73264500D01*
X58630000Y-72375500D01*
X58644501Y-72302599D01*
X58685796Y-72240796D01*
X58747599Y-72199501D01*
X58820500Y-72185000D01*
X60979500Y-72185000D01*
X61052401Y-72199501D01*
G37*
G36*
X45812401Y-69659501D02*
G01*
X45874204Y-69700796D01*
X45915499Y-69762599D01*
X45930000Y-69835500D01*
X45930000Y-70724500D01*
X45915499Y-70797401D01*
X45874204Y-70859204D01*
X45812401Y-70900499D01*
X45739500Y-70915000D01*
X43580500Y-70915000D01*
X43507599Y-70900499D01*
X43445796Y-70859204D01*
X43404501Y-70797401D01*
X43390000Y-70724500D01*
X43390000Y-69835500D01*
X43404501Y-69762599D01*
X43445796Y-69700796D01*
X43507599Y-69659501D01*
X43580500Y-69645000D01*
X45739500Y-69645000D01*
X45812401Y-69659501D01*
G37*
G36*
X61052401Y-69659501D02*
G01*
X61114204Y-69700796D01*
X61155499Y-69762599D01*
X61170000Y-69835500D01*
X61170000Y-70724500D01*
X61155499Y-70797401D01*
X61114204Y-70859204D01*
X61052401Y-70900499D01*
X60979500Y-70915000D01*
X58820500Y-70915000D01*
X58747599Y-70900499D01*
X58685796Y-70859204D01*
X58644501Y-70797401D01*
X58630000Y-70724500D01*
X58630000Y-69835500D01*
X58644501Y-69762599D01*
X58685796Y-69700796D01*
X58747599Y-69659501D01*
X58820500Y-69645000D01*
X60979500Y-69645000D01*
X61052401Y-69659501D01*
G37*
G36*
X45812401Y-67119501D02*
G01*
X45874204Y-67160796D01*
X45915499Y-67222599D01*
X45930000Y-67295500D01*
X45930000Y-68184500D01*
X45915499Y-68257401D01*
X45874204Y-68319204D01*
X45812401Y-68360499D01*
X45739500Y-68375000D01*
X43580500Y-68375000D01*
X43507599Y-68360499D01*
X43445796Y-68319204D01*
X43404501Y-68257401D01*
X43390000Y-68184500D01*
X43390000Y-67295500D01*
X43404501Y-67222599D01*
X43445796Y-67160796D01*
X43507599Y-67119501D01*
X43580500Y-67105000D01*
X45739500Y-67105000D01*
X45812401Y-67119501D01*
G37*
G36*
X61052401Y-67119501D02*
G01*
X61114204Y-67160796D01*
X61155499Y-67222599D01*
X61170000Y-67295500D01*
X61170000Y-68184500D01*
X61155499Y-68257401D01*
X61114204Y-68319204D01*
X61052401Y-68360499D01*
X60979500Y-68375000D01*
X58820500Y-68375000D01*
X58747599Y-68360499D01*
X58685796Y-68319204D01*
X58644501Y-68257401D01*
X58630000Y-68184500D01*
X58630000Y-67295500D01*
X58644501Y-67222599D01*
X58685796Y-67160796D01*
X58747599Y-67119501D01*
X58820500Y-67105000D01*
X60979500Y-67105000D01*
X61052401Y-67119501D01*
G37*
G36*
X45812401Y-64579501D02*
G01*
X45874204Y-64620796D01*
X45915499Y-64682599D01*
X45930000Y-64755500D01*
X45930000Y-65644500D01*
X45915499Y-65717401D01*
X45874204Y-65779204D01*
X45812401Y-65820499D01*
X45739500Y-65835000D01*
X43580500Y-65835000D01*
X43507599Y-65820499D01*
X43445796Y-65779204D01*
X43404501Y-65717401D01*
X43390000Y-65644500D01*
X43390000Y-64755500D01*
X43404501Y-64682599D01*
X43445796Y-64620796D01*
X43507599Y-64579501D01*
X43580500Y-64565000D01*
X45739500Y-64565000D01*
X45812401Y-64579501D01*
G37*
G36*
X61052401Y-64579501D02*
G01*
X61114204Y-64620796D01*
X61155499Y-64682599D01*
X61170000Y-64755500D01*
X61170000Y-65644500D01*
X61155499Y-65717401D01*
X61114204Y-65779204D01*
X61052401Y-65820499D01*
X60979500Y-65835000D01*
X58820500Y-65835000D01*
X58747599Y-65820499D01*
X58685796Y-65779204D01*
X58644501Y-65717401D01*
X58630000Y-65644500D01*
X58630000Y-64755500D01*
X58644501Y-64682599D01*
X58685796Y-64620796D01*
X58747599Y-64579501D01*
X58820500Y-64565000D01*
X60979500Y-64565000D01*
X61052401Y-64579501D01*
G37*
G36*
X66184850Y-61405964D02*
G01*
X66235040Y-61411787D01*
X66252189Y-61419359D01*
X66275671Y-61424030D01*
X66300810Y-61440827D01*
X66320696Y-61449608D01*
X66334277Y-61463189D01*
X66356777Y-61478223D01*
X66371810Y-61500722D01*
X66385391Y-61514303D01*
X66394170Y-61534186D01*
X66410970Y-61559329D01*
X66415641Y-61582812D01*
X66423212Y-61599959D01*
X66429033Y-61650139D01*
X66430000Y-61655000D01*
X66430000Y-63345000D01*
X66429032Y-63349863D01*
X66423212Y-63400040D01*
X66415641Y-63417185D01*
X66410970Y-63440671D01*
X66394169Y-63465815D01*
X66385391Y-63485696D01*
X66371812Y-63499274D01*
X66356777Y-63521777D01*
X66334274Y-63536812D01*
X66320696Y-63550391D01*
X66300815Y-63559169D01*
X66275671Y-63575970D01*
X66252185Y-63580641D01*
X66235040Y-63588212D01*
X66184861Y-63594032D01*
X66180000Y-63595000D01*
X64940000Y-63595000D01*
X64935138Y-63594032D01*
X64884959Y-63588212D01*
X64867812Y-63580641D01*
X64844329Y-63575970D01*
X64819186Y-63559170D01*
X64799303Y-63550391D01*
X64785722Y-63536810D01*
X64763223Y-63521777D01*
X64748189Y-63499277D01*
X64734608Y-63485696D01*
X64725827Y-63465810D01*
X64709030Y-63440671D01*
X64704359Y-63417189D01*
X64696787Y-63400040D01*
X64690964Y-63349849D01*
X64690000Y-63345000D01*
X64690000Y-61655000D01*
X64690964Y-61650150D01*
X64696787Y-61599959D01*
X64704359Y-61582808D01*
X64709030Y-61559329D01*
X64725826Y-61534191D01*
X64734608Y-61514303D01*
X64748191Y-61500719D01*
X64763223Y-61478223D01*
X64785719Y-61463191D01*
X64799303Y-61449608D01*
X64819191Y-61440826D01*
X64844329Y-61424030D01*
X64867808Y-61419359D01*
X64884959Y-61411787D01*
X64935151Y-61405964D01*
X64940000Y-61405000D01*
X66180000Y-61405000D01*
X66184850Y-61405964D01*
G37*
G36*
X68352548Y-61442462D02*
G01*
X68510115Y-61507729D01*
X68651922Y-61602481D01*
X68772519Y-61723078D01*
X68867271Y-61864885D01*
X68932538Y-62022452D01*
X68965811Y-62189725D01*
X68970000Y-62275000D01*
X68970000Y-62725000D01*
X68965811Y-62810275D01*
X68932538Y-62977548D01*
X68867271Y-63135115D01*
X68772519Y-63276922D01*
X68651922Y-63397519D01*
X68510115Y-63492271D01*
X68352548Y-63557538D01*
X68185275Y-63590811D01*
X68014725Y-63590811D01*
X67847452Y-63557538D01*
X67689885Y-63492271D01*
X67548078Y-63397519D01*
X67427481Y-63276922D01*
X67332729Y-63135115D01*
X67267462Y-62977548D01*
X67234189Y-62810275D01*
X67230000Y-62725000D01*
X67230000Y-62275000D01*
X67234189Y-62189725D01*
X67267462Y-62022452D01*
X67332729Y-61864885D01*
X67427481Y-61723078D01*
X67548078Y-61602481D01*
X67689885Y-61507729D01*
X67847452Y-61442462D01*
X68014725Y-61409189D01*
X68185275Y-61409189D01*
X68352548Y-61442462D01*
G37*
G36*
X73192350Y-61725964D02*
G01*
X73242540Y-61731787D01*
X73259689Y-61739359D01*
X73283171Y-61744030D01*
X73308310Y-61760827D01*
X73328196Y-61769608D01*
X73341777Y-61783189D01*
X73364277Y-61798223D01*
X73379310Y-61820722D01*
X73392891Y-61834303D01*
X73401670Y-61854186D01*
X73418470Y-61879329D01*
X73423141Y-61902812D01*
X73430712Y-61919959D01*
X73436533Y-61970139D01*
X73437500Y-61975000D01*
X73437500Y-63225000D01*
X73436532Y-63229863D01*
X73430712Y-63280040D01*
X73423141Y-63297185D01*
X73418470Y-63320671D01*
X73401669Y-63345815D01*
X73392891Y-63365696D01*
X73379312Y-63379274D01*
X73364277Y-63401777D01*
X73341774Y-63416812D01*
X73328196Y-63430391D01*
X73308315Y-63439169D01*
X73283171Y-63455970D01*
X73259685Y-63460641D01*
X73242540Y-63468212D01*
X73192361Y-63474032D01*
X73187500Y-63475000D01*
X72562500Y-63475000D01*
X72557638Y-63474032D01*
X72507459Y-63468212D01*
X72490312Y-63460641D01*
X72466829Y-63455970D01*
X72441686Y-63439170D01*
X72421803Y-63430391D01*
X72408222Y-63416810D01*
X72385723Y-63401777D01*
X72370689Y-63379277D01*
X72357108Y-63365696D01*
X72348327Y-63345810D01*
X72331530Y-63320671D01*
X72326859Y-63297189D01*
X72319287Y-63280040D01*
X72313464Y-63229849D01*
X72312500Y-63225000D01*
X72312500Y-61975000D01*
X72313464Y-61970150D01*
X72319287Y-61919959D01*
X72326859Y-61902808D01*
X72331530Y-61879329D01*
X72348326Y-61854191D01*
X72357108Y-61834303D01*
X72370691Y-61820719D01*
X72385723Y-61798223D01*
X72408219Y-61783191D01*
X72421803Y-61769608D01*
X72441691Y-61760826D01*
X72466829Y-61744030D01*
X72490308Y-61739359D01*
X72507459Y-61731787D01*
X72557651Y-61725964D01*
X72562500Y-61725000D01*
X73187500Y-61725000D01*
X73192350Y-61725964D01*
G37*
G36*
X76117350Y-61725964D02*
G01*
X76167540Y-61731787D01*
X76184689Y-61739359D01*
X76208171Y-61744030D01*
X76233310Y-61760827D01*
X76253196Y-61769608D01*
X76266777Y-61783189D01*
X76289277Y-61798223D01*
X76304310Y-61820722D01*
X76317891Y-61834303D01*
X76326670Y-61854186D01*
X76343470Y-61879329D01*
X76348141Y-61902812D01*
X76355712Y-61919959D01*
X76361533Y-61970139D01*
X76362500Y-61975000D01*
X76362500Y-63225000D01*
X76361532Y-63229863D01*
X76355712Y-63280040D01*
X76348141Y-63297185D01*
X76343470Y-63320671D01*
X76326669Y-63345815D01*
X76317891Y-63365696D01*
X76304312Y-63379274D01*
X76289277Y-63401777D01*
X76266774Y-63416812D01*
X76253196Y-63430391D01*
X76233315Y-63439169D01*
X76208171Y-63455970D01*
X76184685Y-63460641D01*
X76167540Y-63468212D01*
X76117361Y-63474032D01*
X76112500Y-63475000D01*
X75487500Y-63475000D01*
X75482638Y-63474032D01*
X75432459Y-63468212D01*
X75415312Y-63460641D01*
X75391829Y-63455970D01*
X75366686Y-63439170D01*
X75346803Y-63430391D01*
X75333222Y-63416810D01*
X75310723Y-63401777D01*
X75295689Y-63379277D01*
X75282108Y-63365696D01*
X75273327Y-63345810D01*
X75256530Y-63320671D01*
X75251859Y-63297189D01*
X75244287Y-63280040D01*
X75238464Y-63229849D01*
X75237500Y-63225000D01*
X75237500Y-61975000D01*
X75238464Y-61970150D01*
X75244287Y-61919959D01*
X75251859Y-61902808D01*
X75256530Y-61879329D01*
X75273326Y-61854191D01*
X75282108Y-61834303D01*
X75295691Y-61820719D01*
X75310723Y-61798223D01*
X75333219Y-61783191D01*
X75346803Y-61769608D01*
X75366691Y-61760826D01*
X75391829Y-61744030D01*
X75415308Y-61739359D01*
X75432459Y-61731787D01*
X75482651Y-61725964D01*
X75487500Y-61725000D01*
X76112500Y-61725000D01*
X76117350Y-61725964D01*
G37*
G36*
X45812401Y-62039501D02*
G01*
X45874204Y-62080796D01*
X45915499Y-62142599D01*
X45930000Y-62215500D01*
X45930000Y-63104500D01*
X45915499Y-63177401D01*
X45874204Y-63239204D01*
X45812401Y-63280499D01*
X45739500Y-63295000D01*
X43580500Y-63295000D01*
X43507599Y-63280499D01*
X43445796Y-63239204D01*
X43404501Y-63177401D01*
X43390000Y-63104500D01*
X43390000Y-62215500D01*
X43404501Y-62142599D01*
X43445796Y-62080796D01*
X43507599Y-62039501D01*
X43580500Y-62025000D01*
X45739500Y-62025000D01*
X45812401Y-62039501D01*
G37*
G36*
X61052401Y-62039501D02*
G01*
X61114204Y-62080796D01*
X61155499Y-62142599D01*
X61170000Y-62215500D01*
X61170000Y-63104500D01*
X61155499Y-63177401D01*
X61114204Y-63239204D01*
X61052401Y-63280499D01*
X60979500Y-63295000D01*
X58820500Y-63295000D01*
X58747599Y-63280499D01*
X58685796Y-63239204D01*
X58644501Y-63177401D01*
X58630000Y-63104500D01*
X58630000Y-62215500D01*
X58644501Y-62142599D01*
X58685796Y-62080796D01*
X58747599Y-62039501D01*
X58820500Y-62025000D01*
X60979500Y-62025000D01*
X61052401Y-62039501D01*
G37*
G36*
X45812401Y-59499501D02*
G01*
X45874204Y-59540796D01*
X45915499Y-59602599D01*
X45930000Y-59675500D01*
X45930000Y-60564500D01*
X45915499Y-60637401D01*
X45874204Y-60699204D01*
X45812401Y-60740499D01*
X45739500Y-60755000D01*
X43580500Y-60755000D01*
X43507599Y-60740499D01*
X43445796Y-60699204D01*
X43404501Y-60637401D01*
X43390000Y-60564500D01*
X43390000Y-59675500D01*
X43404501Y-59602599D01*
X43445796Y-59540796D01*
X43507599Y-59499501D01*
X43580500Y-59485000D01*
X45739500Y-59485000D01*
X45812401Y-59499501D01*
G37*
G36*
X61052401Y-59499501D02*
G01*
X61114204Y-59540796D01*
X61155499Y-59602599D01*
X61170000Y-59675500D01*
X61170000Y-60564500D01*
X61155499Y-60637401D01*
X61114204Y-60699204D01*
X61052401Y-60740499D01*
X60979500Y-60755000D01*
X58820500Y-60755000D01*
X58747599Y-60740499D01*
X58685796Y-60699204D01*
X58644501Y-60637401D01*
X58630000Y-60564500D01*
X58630000Y-59675500D01*
X58644501Y-59602599D01*
X58685796Y-59540796D01*
X58747599Y-59499501D01*
X58820500Y-59485000D01*
X60979500Y-59485000D01*
X61052401Y-59499501D01*
G37*
G36*
X44956476Y-56345090D02*
G01*
X45146008Y-56406673D01*
X45323573Y-56497147D01*
X45484799Y-56614284D01*
X45625716Y-56755201D01*
X45742853Y-56916427D01*
X45833327Y-57093992D01*
X45894910Y-57283524D01*
X45926085Y-57480357D01*
X45926085Y-57679643D01*
X45894910Y-57876476D01*
X45833327Y-58066008D01*
X45742853Y-58243573D01*
X45625716Y-58404799D01*
X45484799Y-58545716D01*
X45323573Y-58662853D01*
X45146008Y-58753327D01*
X44956476Y-58814910D01*
X44759643Y-58846085D01*
X44560357Y-58846085D01*
X44363524Y-58814910D01*
X44173992Y-58753327D01*
X43996427Y-58662853D01*
X43835201Y-58545716D01*
X43694284Y-58404799D01*
X43577147Y-58243573D01*
X43486673Y-58066008D01*
X43425090Y-57876476D01*
X43393915Y-57679643D01*
X43393915Y-57480357D01*
X43425090Y-57283524D01*
X43486673Y-57093992D01*
X43577147Y-56916427D01*
X43694284Y-56755201D01*
X43835201Y-56614284D01*
X43996427Y-56497147D01*
X44173992Y-56406673D01*
X44363524Y-56345090D01*
X44560357Y-56313915D01*
X44759643Y-56313915D01*
X44956476Y-56345090D01*
G37*
G36*
X61052401Y-56959501D02*
G01*
X61114204Y-57000796D01*
X61155499Y-57062599D01*
X61170000Y-57135500D01*
X61170000Y-58024500D01*
X61155499Y-58097401D01*
X61114204Y-58159204D01*
X61052401Y-58200499D01*
X60979500Y-58215000D01*
X58820500Y-58215000D01*
X58747599Y-58200499D01*
X58685796Y-58159204D01*
X58644501Y-58097401D01*
X58630000Y-58024500D01*
X58630000Y-57135500D01*
X58644501Y-57062599D01*
X58685796Y-57000796D01*
X58747599Y-56959501D01*
X58820500Y-56945000D01*
X60979500Y-56945000D01*
X61052401Y-56959501D01*
G37*
M02*
