%TF.GenerationSoftware,KiCad,Pcbnew,9.0.2*%
%TF.CreationDate,2025-06-20T10:54:41-07:00*%
%TF.ProjectId,fsrPrototype1,66737250-726f-4746-9f74-797065312e6b,rev?*%
%TF.SameCoordinates,Original*%
%TF.FileFunction,Drillmap*%
%TF.FilePolarity,Positive*%
%FSLAX45Y45*%
G04 Gerber Fmt 4.5, Leading zero omitted, Abs format (unit mm)*
G04 Created by KiCad (PCBNEW 9.0.2) date 2025-06-20 10:54:41*
%MOMM*%
%LPD*%
G01*
G04 APERTURE LIST*
%ADD10C,0.038100*%
%ADD11C,0.200000*%
G04 APERTURE END LIST*
D10*
X7800000Y-9300000D02*
X7800000Y-5500000D01*
X4100000Y-5500000D02*
X4100000Y-9300000D01*
X7800000Y-5500000D02*
X4100000Y-5500000D01*
X4100000Y-9300000D02*
X7800000Y-9300000D01*
D11*
X4358872Y-9613389D02*
X4358872Y-9413389D01*
X4358872Y-9413389D02*
X4406491Y-9413389D01*
X4406491Y-9413389D02*
X4435062Y-9422913D01*
X4435062Y-9422913D02*
X4454110Y-9441960D01*
X4454110Y-9441960D02*
X4463634Y-9461008D01*
X4463634Y-9461008D02*
X4473158Y-9499103D01*
X4473158Y-9499103D02*
X4473158Y-9527675D01*
X4473158Y-9527675D02*
X4463634Y-9565770D01*
X4463634Y-9565770D02*
X4454110Y-9584817D01*
X4454110Y-9584817D02*
X4435062Y-9603865D01*
X4435062Y-9603865D02*
X4406491Y-9613389D01*
X4406491Y-9613389D02*
X4358872Y-9613389D01*
X4558872Y-9613389D02*
X4558872Y-9480055D01*
X4558872Y-9518151D02*
X4568396Y-9499103D01*
X4568396Y-9499103D02*
X4577919Y-9489579D01*
X4577919Y-9489579D02*
X4596967Y-9480055D01*
X4596967Y-9480055D02*
X4616015Y-9480055D01*
X4682681Y-9613389D02*
X4682681Y-9480055D01*
X4682681Y-9413389D02*
X4673158Y-9422913D01*
X4673158Y-9422913D02*
X4682681Y-9432436D01*
X4682681Y-9432436D02*
X4692205Y-9422913D01*
X4692205Y-9422913D02*
X4682681Y-9413389D01*
X4682681Y-9413389D02*
X4682681Y-9432436D01*
X4806491Y-9613389D02*
X4787443Y-9603865D01*
X4787443Y-9603865D02*
X4777919Y-9584817D01*
X4777919Y-9584817D02*
X4777919Y-9413389D01*
X4911253Y-9613389D02*
X4892205Y-9603865D01*
X4892205Y-9603865D02*
X4882681Y-9584817D01*
X4882681Y-9584817D02*
X4882681Y-9413389D01*
X5139824Y-9613389D02*
X5139824Y-9413389D01*
X5139824Y-9413389D02*
X5206491Y-9556246D01*
X5206491Y-9556246D02*
X5273158Y-9413389D01*
X5273158Y-9413389D02*
X5273158Y-9613389D01*
X5454110Y-9613389D02*
X5454110Y-9508627D01*
X5454110Y-9508627D02*
X5444586Y-9489579D01*
X5444586Y-9489579D02*
X5425539Y-9480055D01*
X5425539Y-9480055D02*
X5387443Y-9480055D01*
X5387443Y-9480055D02*
X5368396Y-9489579D01*
X5454110Y-9603865D02*
X5435062Y-9613389D01*
X5435062Y-9613389D02*
X5387443Y-9613389D01*
X5387443Y-9613389D02*
X5368396Y-9603865D01*
X5368396Y-9603865D02*
X5358872Y-9584817D01*
X5358872Y-9584817D02*
X5358872Y-9565770D01*
X5358872Y-9565770D02*
X5368396Y-9546722D01*
X5368396Y-9546722D02*
X5387443Y-9537198D01*
X5387443Y-9537198D02*
X5435062Y-9537198D01*
X5435062Y-9537198D02*
X5454110Y-9527675D01*
X5549348Y-9480055D02*
X5549348Y-9680055D01*
X5549348Y-9489579D02*
X5568396Y-9480055D01*
X5568396Y-9480055D02*
X5606491Y-9480055D01*
X5606491Y-9480055D02*
X5625538Y-9489579D01*
X5625538Y-9489579D02*
X5635062Y-9499103D01*
X5635062Y-9499103D02*
X5644586Y-9518151D01*
X5644586Y-9518151D02*
X5644586Y-9575294D01*
X5644586Y-9575294D02*
X5635062Y-9594341D01*
X5635062Y-9594341D02*
X5625538Y-9603865D01*
X5625538Y-9603865D02*
X5606491Y-9613389D01*
X5606491Y-9613389D02*
X5568396Y-9613389D01*
X5568396Y-9613389D02*
X5549348Y-9603865D01*
X5730300Y-9594341D02*
X5739824Y-9603865D01*
X5739824Y-9603865D02*
X5730300Y-9613389D01*
X5730300Y-9613389D02*
X5720777Y-9603865D01*
X5720777Y-9603865D02*
X5730300Y-9594341D01*
X5730300Y-9594341D02*
X5730300Y-9613389D01*
X5730300Y-9489579D02*
X5739824Y-9499103D01*
X5739824Y-9499103D02*
X5730300Y-9508627D01*
X5730300Y-9508627D02*
X5720777Y-9499103D01*
X5720777Y-9499103D02*
X5730300Y-9489579D01*
X5730300Y-9489579D02*
X5730300Y-9508627D01*
M02*
