G04 #@! TF.GenerationSoftware,KiCad,Pcbnew,9.0.2*
G04 #@! TF.CreationDate,2025-06-20T10:59:13-07:00*
G04 #@! TF.ProjectId,fsrPrototype1,66737250-726f-4746-9f74-797065312e6b,rev?*
G04 #@! TF.SameCoordinates,Original*
G04 #@! TF.FileFunction,Legend,Bot*
G04 #@! TF.FilePolarity,Positive*
%FSLAX46Y46*%
G04 Gerber Fmt 4.6, Leading zero omitted, Abs format (unit mm)*
G04 Created by KiCad (PCBNEW 9.0.2) date 2025-06-20 10:59:13*
%MOMM*%
%LPD*%
G01*
G04 APERTURE LIST*
%ADD10C,0.160000*%
G04 APERTURE END LIST*
D10*
X73990476Y-86839467D02*
X73990476Y-85839467D01*
X73990476Y-85839467D02*
X73752381Y-85839467D01*
X73752381Y-85839467D02*
X73609524Y-85887086D01*
X73609524Y-85887086D02*
X73514286Y-85982324D01*
X73514286Y-85982324D02*
X73466667Y-86077562D01*
X73466667Y-86077562D02*
X73419048Y-86268038D01*
X73419048Y-86268038D02*
X73419048Y-86410895D01*
X73419048Y-86410895D02*
X73466667Y-86601371D01*
X73466667Y-86601371D02*
X73514286Y-86696609D01*
X73514286Y-86696609D02*
X73609524Y-86791848D01*
X73609524Y-86791848D02*
X73752381Y-86839467D01*
X73752381Y-86839467D02*
X73990476Y-86839467D01*
X73085714Y-86172800D02*
X72847619Y-86839467D01*
X72609524Y-86172800D02*
X72847619Y-86839467D01*
X72847619Y-86839467D02*
X72942857Y-87077562D01*
X72942857Y-87077562D02*
X72990476Y-87125181D01*
X72990476Y-87125181D02*
X73085714Y-87172800D01*
X72085714Y-86839467D02*
X72180952Y-86791848D01*
X72180952Y-86791848D02*
X72228571Y-86696609D01*
X72228571Y-86696609D02*
X72228571Y-85839467D01*
X71276190Y-86839467D02*
X71276190Y-86315657D01*
X71276190Y-86315657D02*
X71323809Y-86220419D01*
X71323809Y-86220419D02*
X71419047Y-86172800D01*
X71419047Y-86172800D02*
X71609523Y-86172800D01*
X71609523Y-86172800D02*
X71704761Y-86220419D01*
X71276190Y-86791848D02*
X71371428Y-86839467D01*
X71371428Y-86839467D02*
X71609523Y-86839467D01*
X71609523Y-86839467D02*
X71704761Y-86791848D01*
X71704761Y-86791848D02*
X71752380Y-86696609D01*
X71752380Y-86696609D02*
X71752380Y-86601371D01*
X71752380Y-86601371D02*
X71704761Y-86506133D01*
X71704761Y-86506133D02*
X71609523Y-86458514D01*
X71609523Y-86458514D02*
X71371428Y-86458514D01*
X71371428Y-86458514D02*
X71276190Y-86410895D01*
X70799999Y-86172800D02*
X70799999Y-86839467D01*
X70799999Y-86268038D02*
X70752380Y-86220419D01*
X70752380Y-86220419D02*
X70657142Y-86172800D01*
X70657142Y-86172800D02*
X70514285Y-86172800D01*
X70514285Y-86172800D02*
X70419047Y-86220419D01*
X70419047Y-86220419D02*
X70371428Y-86315657D01*
X70371428Y-86315657D02*
X70371428Y-86839467D01*
X69228570Y-85839467D02*
X68990475Y-86839467D01*
X68990475Y-86839467D02*
X68799999Y-86125181D01*
X68799999Y-86125181D02*
X68609523Y-86839467D01*
X68609523Y-86839467D02*
X68371428Y-85839467D01*
X67990475Y-86839467D02*
X67990475Y-86172800D01*
X67990475Y-85839467D02*
X68038094Y-85887086D01*
X68038094Y-85887086D02*
X67990475Y-85934705D01*
X67990475Y-85934705D02*
X67942856Y-85887086D01*
X67942856Y-85887086D02*
X67990475Y-85839467D01*
X67990475Y-85839467D02*
X67990475Y-85934705D01*
X67514285Y-86172800D02*
X67514285Y-86839467D01*
X67514285Y-86268038D02*
X67466666Y-86220419D01*
X67466666Y-86220419D02*
X67371428Y-86172800D01*
X67371428Y-86172800D02*
X67228571Y-86172800D01*
X67228571Y-86172800D02*
X67133333Y-86220419D01*
X67133333Y-86220419D02*
X67085714Y-86315657D01*
X67085714Y-86315657D02*
X67085714Y-86839467D01*
X66228571Y-86791848D02*
X66323809Y-86839467D01*
X66323809Y-86839467D02*
X66514285Y-86839467D01*
X66514285Y-86839467D02*
X66609523Y-86791848D01*
X66609523Y-86791848D02*
X66657142Y-86696609D01*
X66657142Y-86696609D02*
X66657142Y-86315657D01*
X66657142Y-86315657D02*
X66609523Y-86220419D01*
X66609523Y-86220419D02*
X66514285Y-86172800D01*
X66514285Y-86172800D02*
X66323809Y-86172800D01*
X66323809Y-86172800D02*
X66228571Y-86220419D01*
X66228571Y-86220419D02*
X66180952Y-86315657D01*
X66180952Y-86315657D02*
X66180952Y-86410895D01*
X66180952Y-86410895D02*
X66657142Y-86506133D01*
X65752380Y-86839467D02*
X65752380Y-86172800D01*
X65752380Y-86363276D02*
X65704761Y-86268038D01*
X65704761Y-86268038D02*
X65657142Y-86220419D01*
X65657142Y-86220419D02*
X65561904Y-86172800D01*
X65561904Y-86172800D02*
X65466666Y-86172800D01*
X74371428Y-88449411D02*
X74371428Y-87449411D01*
X74371428Y-87449411D02*
X74133333Y-87449411D01*
X74133333Y-87449411D02*
X73990476Y-87497030D01*
X73990476Y-87497030D02*
X73895238Y-87592268D01*
X73895238Y-87592268D02*
X73847619Y-87687506D01*
X73847619Y-87687506D02*
X73800000Y-87877982D01*
X73800000Y-87877982D02*
X73800000Y-88020839D01*
X73800000Y-88020839D02*
X73847619Y-88211315D01*
X73847619Y-88211315D02*
X73895238Y-88306553D01*
X73895238Y-88306553D02*
X73990476Y-88401792D01*
X73990476Y-88401792D02*
X74133333Y-88449411D01*
X74133333Y-88449411D02*
X74371428Y-88449411D01*
X72990476Y-88401792D02*
X73085714Y-88449411D01*
X73085714Y-88449411D02*
X73276190Y-88449411D01*
X73276190Y-88449411D02*
X73371428Y-88401792D01*
X73371428Y-88401792D02*
X73419047Y-88306553D01*
X73419047Y-88306553D02*
X73419047Y-87925601D01*
X73419047Y-87925601D02*
X73371428Y-87830363D01*
X73371428Y-87830363D02*
X73276190Y-87782744D01*
X73276190Y-87782744D02*
X73085714Y-87782744D01*
X73085714Y-87782744D02*
X72990476Y-87830363D01*
X72990476Y-87830363D02*
X72942857Y-87925601D01*
X72942857Y-87925601D02*
X72942857Y-88020839D01*
X72942857Y-88020839D02*
X73419047Y-88116077D01*
X72561904Y-88401792D02*
X72466666Y-88449411D01*
X72466666Y-88449411D02*
X72276190Y-88449411D01*
X72276190Y-88449411D02*
X72180952Y-88401792D01*
X72180952Y-88401792D02*
X72133333Y-88306553D01*
X72133333Y-88306553D02*
X72133333Y-88258934D01*
X72133333Y-88258934D02*
X72180952Y-88163696D01*
X72180952Y-88163696D02*
X72276190Y-88116077D01*
X72276190Y-88116077D02*
X72419047Y-88116077D01*
X72419047Y-88116077D02*
X72514285Y-88068458D01*
X72514285Y-88068458D02*
X72561904Y-87973220D01*
X72561904Y-87973220D02*
X72561904Y-87925601D01*
X72561904Y-87925601D02*
X72514285Y-87830363D01*
X72514285Y-87830363D02*
X72419047Y-87782744D01*
X72419047Y-87782744D02*
X72276190Y-87782744D01*
X72276190Y-87782744D02*
X72180952Y-87830363D01*
X71704761Y-88449411D02*
X71704761Y-87782744D01*
X71704761Y-87449411D02*
X71752380Y-87497030D01*
X71752380Y-87497030D02*
X71704761Y-87544649D01*
X71704761Y-87544649D02*
X71657142Y-87497030D01*
X71657142Y-87497030D02*
X71704761Y-87449411D01*
X71704761Y-87449411D02*
X71704761Y-87544649D01*
X70800000Y-87782744D02*
X70800000Y-88592268D01*
X70800000Y-88592268D02*
X70847619Y-88687506D01*
X70847619Y-88687506D02*
X70895238Y-88735125D01*
X70895238Y-88735125D02*
X70990476Y-88782744D01*
X70990476Y-88782744D02*
X71133333Y-88782744D01*
X71133333Y-88782744D02*
X71228571Y-88735125D01*
X70800000Y-88401792D02*
X70895238Y-88449411D01*
X70895238Y-88449411D02*
X71085714Y-88449411D01*
X71085714Y-88449411D02*
X71180952Y-88401792D01*
X71180952Y-88401792D02*
X71228571Y-88354172D01*
X71228571Y-88354172D02*
X71276190Y-88258934D01*
X71276190Y-88258934D02*
X71276190Y-87973220D01*
X71276190Y-87973220D02*
X71228571Y-87877982D01*
X71228571Y-87877982D02*
X71180952Y-87830363D01*
X71180952Y-87830363D02*
X71085714Y-87782744D01*
X71085714Y-87782744D02*
X70895238Y-87782744D01*
X70895238Y-87782744D02*
X70800000Y-87830363D01*
X70323809Y-87782744D02*
X70323809Y-88449411D01*
X70323809Y-87877982D02*
X70276190Y-87830363D01*
X70276190Y-87830363D02*
X70180952Y-87782744D01*
X70180952Y-87782744D02*
X70038095Y-87782744D01*
X70038095Y-87782744D02*
X69942857Y-87830363D01*
X69942857Y-87830363D02*
X69895238Y-87925601D01*
X69895238Y-87925601D02*
X69895238Y-88449411D01*
X69038095Y-88401792D02*
X69133333Y-88449411D01*
X69133333Y-88449411D02*
X69323809Y-88449411D01*
X69323809Y-88449411D02*
X69419047Y-88401792D01*
X69419047Y-88401792D02*
X69466666Y-88306553D01*
X69466666Y-88306553D02*
X69466666Y-87925601D01*
X69466666Y-87925601D02*
X69419047Y-87830363D01*
X69419047Y-87830363D02*
X69323809Y-87782744D01*
X69323809Y-87782744D02*
X69133333Y-87782744D01*
X69133333Y-87782744D02*
X69038095Y-87830363D01*
X69038095Y-87830363D02*
X68990476Y-87925601D01*
X68990476Y-87925601D02*
X68990476Y-88020839D01*
X68990476Y-88020839D02*
X69466666Y-88116077D01*
X68133333Y-88449411D02*
X68133333Y-87449411D01*
X68133333Y-88401792D02*
X68228571Y-88449411D01*
X68228571Y-88449411D02*
X68419047Y-88449411D01*
X68419047Y-88449411D02*
X68514285Y-88401792D01*
X68514285Y-88401792D02*
X68561904Y-88354172D01*
X68561904Y-88354172D02*
X68609523Y-88258934D01*
X68609523Y-88258934D02*
X68609523Y-87973220D01*
X68609523Y-87973220D02*
X68561904Y-87877982D01*
X68561904Y-87877982D02*
X68514285Y-87830363D01*
X68514285Y-87830363D02*
X68419047Y-87782744D01*
X68419047Y-87782744D02*
X68228571Y-87782744D01*
X68228571Y-87782744D02*
X68133333Y-87830363D01*
X66895237Y-88449411D02*
X66895237Y-87782744D01*
X66895237Y-87449411D02*
X66942856Y-87497030D01*
X66942856Y-87497030D02*
X66895237Y-87544649D01*
X66895237Y-87544649D02*
X66847618Y-87497030D01*
X66847618Y-87497030D02*
X66895237Y-87449411D01*
X66895237Y-87449411D02*
X66895237Y-87544649D01*
X66419047Y-87782744D02*
X66419047Y-88449411D01*
X66419047Y-87877982D02*
X66371428Y-87830363D01*
X66371428Y-87830363D02*
X66276190Y-87782744D01*
X66276190Y-87782744D02*
X66133333Y-87782744D01*
X66133333Y-87782744D02*
X66038095Y-87830363D01*
X66038095Y-87830363D02*
X65990476Y-87925601D01*
X65990476Y-87925601D02*
X65990476Y-88449411D01*
X72633333Y-89964116D02*
X72680952Y-90011736D01*
X72680952Y-90011736D02*
X72823809Y-90059355D01*
X72823809Y-90059355D02*
X72919047Y-90059355D01*
X72919047Y-90059355D02*
X73061904Y-90011736D01*
X73061904Y-90011736D02*
X73157142Y-89916497D01*
X73157142Y-89916497D02*
X73204761Y-89821259D01*
X73204761Y-89821259D02*
X73252380Y-89630783D01*
X73252380Y-89630783D02*
X73252380Y-89487926D01*
X73252380Y-89487926D02*
X73204761Y-89297450D01*
X73204761Y-89297450D02*
X73157142Y-89202212D01*
X73157142Y-89202212D02*
X73061904Y-89106974D01*
X73061904Y-89106974D02*
X72919047Y-89059355D01*
X72919047Y-89059355D02*
X72823809Y-89059355D01*
X72823809Y-89059355D02*
X72680952Y-89106974D01*
X72680952Y-89106974D02*
X72633333Y-89154593D01*
X71776190Y-90059355D02*
X71776190Y-89535545D01*
X71776190Y-89535545D02*
X71823809Y-89440307D01*
X71823809Y-89440307D02*
X71919047Y-89392688D01*
X71919047Y-89392688D02*
X72109523Y-89392688D01*
X72109523Y-89392688D02*
X72204761Y-89440307D01*
X71776190Y-90011736D02*
X71871428Y-90059355D01*
X71871428Y-90059355D02*
X72109523Y-90059355D01*
X72109523Y-90059355D02*
X72204761Y-90011736D01*
X72204761Y-90011736D02*
X72252380Y-89916497D01*
X72252380Y-89916497D02*
X72252380Y-89821259D01*
X72252380Y-89821259D02*
X72204761Y-89726021D01*
X72204761Y-89726021D02*
X72109523Y-89678402D01*
X72109523Y-89678402D02*
X71871428Y-89678402D01*
X71871428Y-89678402D02*
X71776190Y-89630783D01*
X71157142Y-90059355D02*
X71252380Y-90011736D01*
X71252380Y-90011736D02*
X71299999Y-89916497D01*
X71299999Y-89916497D02*
X71299999Y-89059355D01*
X70776189Y-90059355D02*
X70776189Y-89392688D01*
X70776189Y-89059355D02*
X70823808Y-89106974D01*
X70823808Y-89106974D02*
X70776189Y-89154593D01*
X70776189Y-89154593D02*
X70728570Y-89106974D01*
X70728570Y-89106974D02*
X70776189Y-89059355D01*
X70776189Y-89059355D02*
X70776189Y-89154593D01*
X70442856Y-89392688D02*
X70061904Y-89392688D01*
X70299999Y-90059355D02*
X70299999Y-89202212D01*
X70299999Y-89202212D02*
X70252380Y-89106974D01*
X70252380Y-89106974D02*
X70157142Y-89059355D01*
X70157142Y-89059355D02*
X70061904Y-89059355D01*
X69585713Y-90059355D02*
X69680951Y-90011736D01*
X69680951Y-90011736D02*
X69728570Y-89964116D01*
X69728570Y-89964116D02*
X69776189Y-89868878D01*
X69776189Y-89868878D02*
X69776189Y-89583164D01*
X69776189Y-89583164D02*
X69728570Y-89487926D01*
X69728570Y-89487926D02*
X69680951Y-89440307D01*
X69680951Y-89440307D02*
X69585713Y-89392688D01*
X69585713Y-89392688D02*
X69442856Y-89392688D01*
X69442856Y-89392688D02*
X69347618Y-89440307D01*
X69347618Y-89440307D02*
X69299999Y-89487926D01*
X69299999Y-89487926D02*
X69252380Y-89583164D01*
X69252380Y-89583164D02*
X69252380Y-89868878D01*
X69252380Y-89868878D02*
X69299999Y-89964116D01*
X69299999Y-89964116D02*
X69347618Y-90011736D01*
X69347618Y-90011736D02*
X69442856Y-90059355D01*
X69442856Y-90059355D02*
X69585713Y-90059355D01*
X68823808Y-90059355D02*
X68823808Y-89392688D01*
X68823808Y-89583164D02*
X68776189Y-89487926D01*
X68776189Y-89487926D02*
X68728570Y-89440307D01*
X68728570Y-89440307D02*
X68633332Y-89392688D01*
X68633332Y-89392688D02*
X68538094Y-89392688D01*
X68204760Y-89392688D02*
X68204760Y-90059355D01*
X68204760Y-89487926D02*
X68157141Y-89440307D01*
X68157141Y-89440307D02*
X68061903Y-89392688D01*
X68061903Y-89392688D02*
X67919046Y-89392688D01*
X67919046Y-89392688D02*
X67823808Y-89440307D01*
X67823808Y-89440307D02*
X67776189Y-89535545D01*
X67776189Y-89535545D02*
X67776189Y-90059355D01*
X67299998Y-90059355D02*
X67299998Y-89392688D01*
X67299998Y-89059355D02*
X67347617Y-89106974D01*
X67347617Y-89106974D02*
X67299998Y-89154593D01*
X67299998Y-89154593D02*
X67252379Y-89106974D01*
X67252379Y-89106974D02*
X67299998Y-89059355D01*
X67299998Y-89059355D02*
X67299998Y-89154593D01*
X66395237Y-90059355D02*
X66395237Y-89535545D01*
X66395237Y-89535545D02*
X66442856Y-89440307D01*
X66442856Y-89440307D02*
X66538094Y-89392688D01*
X66538094Y-89392688D02*
X66728570Y-89392688D01*
X66728570Y-89392688D02*
X66823808Y-89440307D01*
X66395237Y-90011736D02*
X66490475Y-90059355D01*
X66490475Y-90059355D02*
X66728570Y-90059355D01*
X66728570Y-90059355D02*
X66823808Y-90011736D01*
X66823808Y-90011736D02*
X66871427Y-89916497D01*
X66871427Y-89916497D02*
X66871427Y-89821259D01*
X66871427Y-89821259D02*
X66823808Y-89726021D01*
X66823808Y-89726021D02*
X66728570Y-89678402D01*
X66728570Y-89678402D02*
X66490475Y-89678402D01*
X66490475Y-89678402D02*
X66395237Y-89630783D01*
X75014285Y-91669299D02*
X75014285Y-90669299D01*
X75014285Y-90669299D02*
X74680952Y-91383584D01*
X74680952Y-91383584D02*
X74347619Y-90669299D01*
X74347619Y-90669299D02*
X74347619Y-91669299D01*
X73442857Y-91669299D02*
X73442857Y-91145489D01*
X73442857Y-91145489D02*
X73490476Y-91050251D01*
X73490476Y-91050251D02*
X73585714Y-91002632D01*
X73585714Y-91002632D02*
X73776190Y-91002632D01*
X73776190Y-91002632D02*
X73871428Y-91050251D01*
X73442857Y-91621680D02*
X73538095Y-91669299D01*
X73538095Y-91669299D02*
X73776190Y-91669299D01*
X73776190Y-91669299D02*
X73871428Y-91621680D01*
X73871428Y-91621680D02*
X73919047Y-91526441D01*
X73919047Y-91526441D02*
X73919047Y-91431203D01*
X73919047Y-91431203D02*
X73871428Y-91335965D01*
X73871428Y-91335965D02*
X73776190Y-91288346D01*
X73776190Y-91288346D02*
X73538095Y-91288346D01*
X73538095Y-91288346D02*
X73442857Y-91240727D01*
X72538095Y-91669299D02*
X72538095Y-90669299D01*
X72538095Y-91621680D02*
X72633333Y-91669299D01*
X72633333Y-91669299D02*
X72823809Y-91669299D01*
X72823809Y-91669299D02*
X72919047Y-91621680D01*
X72919047Y-91621680D02*
X72966666Y-91574060D01*
X72966666Y-91574060D02*
X73014285Y-91478822D01*
X73014285Y-91478822D02*
X73014285Y-91193108D01*
X73014285Y-91193108D02*
X72966666Y-91097870D01*
X72966666Y-91097870D02*
X72919047Y-91050251D01*
X72919047Y-91050251D02*
X72823809Y-91002632D01*
X72823809Y-91002632D02*
X72633333Y-91002632D01*
X72633333Y-91002632D02*
X72538095Y-91050251D01*
X71680952Y-91621680D02*
X71776190Y-91669299D01*
X71776190Y-91669299D02*
X71966666Y-91669299D01*
X71966666Y-91669299D02*
X72061904Y-91621680D01*
X72061904Y-91621680D02*
X72109523Y-91526441D01*
X72109523Y-91526441D02*
X72109523Y-91145489D01*
X72109523Y-91145489D02*
X72061904Y-91050251D01*
X72061904Y-91050251D02*
X71966666Y-91002632D01*
X71966666Y-91002632D02*
X71776190Y-91002632D01*
X71776190Y-91002632D02*
X71680952Y-91050251D01*
X71680952Y-91050251D02*
X71633333Y-91145489D01*
X71633333Y-91145489D02*
X71633333Y-91240727D01*
X71633333Y-91240727D02*
X72109523Y-91335965D01*
X70442856Y-91669299D02*
X70442856Y-91002632D01*
X70442856Y-90669299D02*
X70490475Y-90716918D01*
X70490475Y-90716918D02*
X70442856Y-90764537D01*
X70442856Y-90764537D02*
X70395237Y-90716918D01*
X70395237Y-90716918D02*
X70442856Y-90669299D01*
X70442856Y-90669299D02*
X70442856Y-90764537D01*
X69966666Y-91002632D02*
X69966666Y-91669299D01*
X69966666Y-91097870D02*
X69919047Y-91050251D01*
X69919047Y-91050251D02*
X69823809Y-91002632D01*
X69823809Y-91002632D02*
X69680952Y-91002632D01*
X69680952Y-91002632D02*
X69585714Y-91050251D01*
X69585714Y-91050251D02*
X69538095Y-91145489D01*
X69538095Y-91145489D02*
X69538095Y-91669299D01*
X67728571Y-91574060D02*
X67776190Y-91621680D01*
X67776190Y-91621680D02*
X67919047Y-91669299D01*
X67919047Y-91669299D02*
X68014285Y-91669299D01*
X68014285Y-91669299D02*
X68157142Y-91621680D01*
X68157142Y-91621680D02*
X68252380Y-91526441D01*
X68252380Y-91526441D02*
X68299999Y-91431203D01*
X68299999Y-91431203D02*
X68347618Y-91240727D01*
X68347618Y-91240727D02*
X68347618Y-91097870D01*
X68347618Y-91097870D02*
X68299999Y-90907394D01*
X68299999Y-90907394D02*
X68252380Y-90812156D01*
X68252380Y-90812156D02*
X68157142Y-90716918D01*
X68157142Y-90716918D02*
X68014285Y-90669299D01*
X68014285Y-90669299D02*
X67919047Y-90669299D01*
X67919047Y-90669299D02*
X67776190Y-90716918D01*
X67776190Y-90716918D02*
X67728571Y-90764537D01*
X67299999Y-91669299D02*
X67299999Y-90669299D01*
X66871428Y-91669299D02*
X66871428Y-91145489D01*
X66871428Y-91145489D02*
X66919047Y-91050251D01*
X66919047Y-91050251D02*
X67014285Y-91002632D01*
X67014285Y-91002632D02*
X67157142Y-91002632D01*
X67157142Y-91002632D02*
X67252380Y-91050251D01*
X67252380Y-91050251D02*
X67299999Y-91097870D01*
X66395237Y-91669299D02*
X66395237Y-91002632D01*
X66395237Y-90669299D02*
X66442856Y-90716918D01*
X66442856Y-90716918D02*
X66395237Y-90764537D01*
X66395237Y-90764537D02*
X66347618Y-90716918D01*
X66347618Y-90716918D02*
X66395237Y-90669299D01*
X66395237Y-90669299D02*
X66395237Y-90764537D01*
X65919047Y-91002632D02*
X65919047Y-91669299D01*
X65919047Y-91097870D02*
X65871428Y-91050251D01*
X65871428Y-91050251D02*
X65776190Y-91002632D01*
X65776190Y-91002632D02*
X65633333Y-91002632D01*
X65633333Y-91002632D02*
X65538095Y-91050251D01*
X65538095Y-91050251D02*
X65490476Y-91145489D01*
X65490476Y-91145489D02*
X65490476Y-91669299D01*
X64585714Y-91669299D02*
X64585714Y-91145489D01*
X64585714Y-91145489D02*
X64633333Y-91050251D01*
X64633333Y-91050251D02*
X64728571Y-91002632D01*
X64728571Y-91002632D02*
X64919047Y-91002632D01*
X64919047Y-91002632D02*
X65014285Y-91050251D01*
X64585714Y-91621680D02*
X64680952Y-91669299D01*
X64680952Y-91669299D02*
X64919047Y-91669299D01*
X64919047Y-91669299D02*
X65014285Y-91621680D01*
X65014285Y-91621680D02*
X65061904Y-91526441D01*
X65061904Y-91526441D02*
X65061904Y-91431203D01*
X65061904Y-91431203D02*
X65014285Y-91335965D01*
X65014285Y-91335965D02*
X64919047Y-91288346D01*
X64919047Y-91288346D02*
X64680952Y-91288346D01*
X64680952Y-91288346D02*
X64585714Y-91240727D01*
%LPC*%
G36*
X45812401Y-89979501D02*
G01*
X45874204Y-90020796D01*
X45915499Y-90082599D01*
X45930000Y-90155500D01*
X45930000Y-91044500D01*
X45915499Y-91117401D01*
X45874204Y-91179204D01*
X45812401Y-91220499D01*
X45739500Y-91235000D01*
X43580500Y-91235000D01*
X43507599Y-91220499D01*
X43445796Y-91179204D01*
X43404501Y-91117401D01*
X43390000Y-91044500D01*
X43390000Y-90155500D01*
X43404501Y-90082599D01*
X43445796Y-90020796D01*
X43507599Y-89979501D01*
X43580500Y-89965000D01*
X45739500Y-89965000D01*
X45812401Y-89979501D01*
G37*
G36*
X61052401Y-89979501D02*
G01*
X61114204Y-90020796D01*
X61155499Y-90082599D01*
X61170000Y-90155500D01*
X61170000Y-91044500D01*
X61155499Y-91117401D01*
X61114204Y-91179204D01*
X61052401Y-91220499D01*
X60979500Y-91235000D01*
X58820500Y-91235000D01*
X58747599Y-91220499D01*
X58685796Y-91179204D01*
X58644501Y-91117401D01*
X58630000Y-91044500D01*
X58630000Y-90155500D01*
X58644501Y-90082599D01*
X58685796Y-90020796D01*
X58747599Y-89979501D01*
X58820500Y-89965000D01*
X60979500Y-89965000D01*
X61052401Y-89979501D01*
G37*
G36*
X45812401Y-87439501D02*
G01*
X45874204Y-87480796D01*
X45915499Y-87542599D01*
X45930000Y-87615500D01*
X45930000Y-88504500D01*
X45915499Y-88577401D01*
X45874204Y-88639204D01*
X45812401Y-88680499D01*
X45739500Y-88695000D01*
X43580500Y-88695000D01*
X43507599Y-88680499D01*
X43445796Y-88639204D01*
X43404501Y-88577401D01*
X43390000Y-88504500D01*
X43390000Y-87615500D01*
X43404501Y-87542599D01*
X43445796Y-87480796D01*
X43507599Y-87439501D01*
X43580500Y-87425000D01*
X45739500Y-87425000D01*
X45812401Y-87439501D01*
G37*
G36*
X61052401Y-87439501D02*
G01*
X61114204Y-87480796D01*
X61155499Y-87542599D01*
X61170000Y-87615500D01*
X61170000Y-88504500D01*
X61155499Y-88577401D01*
X61114204Y-88639204D01*
X61052401Y-88680499D01*
X60979500Y-88695000D01*
X58820500Y-88695000D01*
X58747599Y-88680499D01*
X58685796Y-88639204D01*
X58644501Y-88577401D01*
X58630000Y-88504500D01*
X58630000Y-87615500D01*
X58644501Y-87542599D01*
X58685796Y-87480796D01*
X58747599Y-87439501D01*
X58820500Y-87425000D01*
X60979500Y-87425000D01*
X61052401Y-87439501D01*
G37*
G36*
X45812401Y-84899501D02*
G01*
X45874204Y-84940796D01*
X45915499Y-85002599D01*
X45930000Y-85075500D01*
X45930000Y-85964500D01*
X45915499Y-86037401D01*
X45874204Y-86099204D01*
X45812401Y-86140499D01*
X45739500Y-86155000D01*
X43580500Y-86155000D01*
X43507599Y-86140499D01*
X43445796Y-86099204D01*
X43404501Y-86037401D01*
X43390000Y-85964500D01*
X43390000Y-85075500D01*
X43404501Y-85002599D01*
X43445796Y-84940796D01*
X43507599Y-84899501D01*
X43580500Y-84885000D01*
X45739500Y-84885000D01*
X45812401Y-84899501D01*
G37*
G36*
X61052401Y-84899501D02*
G01*
X61114204Y-84940796D01*
X61155499Y-85002599D01*
X61170000Y-85075500D01*
X61170000Y-85964500D01*
X61155499Y-86037401D01*
X61114204Y-86099204D01*
X61052401Y-86140499D01*
X60979500Y-86155000D01*
X58820500Y-86155000D01*
X58747599Y-86140499D01*
X58685796Y-86099204D01*
X58644501Y-86037401D01*
X58630000Y-85964500D01*
X58630000Y-85075500D01*
X58644501Y-85002599D01*
X58685796Y-84940796D01*
X58747599Y-84899501D01*
X58820500Y-84885000D01*
X60979500Y-84885000D01*
X61052401Y-84899501D01*
G37*
G36*
X45812401Y-82359501D02*
G01*
X45874204Y-82400796D01*
X45915499Y-82462599D01*
X45930000Y-82535500D01*
X45930000Y-83424500D01*
X45915499Y-83497401D01*
X45874204Y-83559204D01*
X45812401Y-83600499D01*
X45739500Y-83615000D01*
X43580500Y-83615000D01*
X43507599Y-83600499D01*
X43445796Y-83559204D01*
X43404501Y-83497401D01*
X43390000Y-83424500D01*
X43390000Y-82535500D01*
X43404501Y-82462599D01*
X43445796Y-82400796D01*
X43507599Y-82359501D01*
X43580500Y-82345000D01*
X45739500Y-82345000D01*
X45812401Y-82359501D01*
G37*
G36*
X61052401Y-82359501D02*
G01*
X61114204Y-82400796D01*
X61155499Y-82462599D01*
X61170000Y-82535500D01*
X61170000Y-83424500D01*
X61155499Y-83497401D01*
X61114204Y-83559204D01*
X61052401Y-83600499D01*
X60979500Y-83615000D01*
X58820500Y-83615000D01*
X58747599Y-83600499D01*
X58685796Y-83559204D01*
X58644501Y-83497401D01*
X58630000Y-83424500D01*
X58630000Y-82535500D01*
X58644501Y-82462599D01*
X58685796Y-82400796D01*
X58747599Y-82359501D01*
X58820500Y-82345000D01*
X60979500Y-82345000D01*
X61052401Y-82359501D01*
G37*
G36*
X45812401Y-79819501D02*
G01*
X45874204Y-79860796D01*
X45915499Y-79922599D01*
X45930000Y-79995500D01*
X45930000Y-80884500D01*
X45915499Y-80957401D01*
X45874204Y-81019204D01*
X45812401Y-81060499D01*
X45739500Y-81075000D01*
X43580500Y-81075000D01*
X43507599Y-81060499D01*
X43445796Y-81019204D01*
X43404501Y-80957401D01*
X43390000Y-80884500D01*
X43390000Y-79995500D01*
X43404501Y-79922599D01*
X43445796Y-79860796D01*
X43507599Y-79819501D01*
X43580500Y-79805000D01*
X45739500Y-79805000D01*
X45812401Y-79819501D01*
G37*
G36*
X61052401Y-79819501D02*
G01*
X61114204Y-79860796D01*
X61155499Y-79922599D01*
X61170000Y-79995500D01*
X61170000Y-80884500D01*
X61155499Y-80957401D01*
X61114204Y-81019204D01*
X61052401Y-81060499D01*
X60979500Y-81075000D01*
X58820500Y-81075000D01*
X58747599Y-81060499D01*
X58685796Y-81019204D01*
X58644501Y-80957401D01*
X58630000Y-80884500D01*
X58630000Y-79995500D01*
X58644501Y-79922599D01*
X58685796Y-79860796D01*
X58747599Y-79819501D01*
X58820500Y-79805000D01*
X60979500Y-79805000D01*
X61052401Y-79819501D01*
G37*
G36*
X45812401Y-77279501D02*
G01*
X45874204Y-77320796D01*
X45915499Y-77382599D01*
X45930000Y-77455500D01*
X45930000Y-78344500D01*
X45915499Y-78417401D01*
X45874204Y-78479204D01*
X45812401Y-78520499D01*
X45739500Y-78535000D01*
X43580500Y-78535000D01*
X43507599Y-78520499D01*
X43445796Y-78479204D01*
X43404501Y-78417401D01*
X43390000Y-78344500D01*
X43390000Y-77455500D01*
X43404501Y-77382599D01*
X43445796Y-77320796D01*
X43507599Y-77279501D01*
X43580500Y-77265000D01*
X45739500Y-77265000D01*
X45812401Y-77279501D01*
G37*
G36*
X61052401Y-77279501D02*
G01*
X61114204Y-77320796D01*
X61155499Y-77382599D01*
X61170000Y-77455500D01*
X61170000Y-78344500D01*
X61155499Y-78417401D01*
X61114204Y-78479204D01*
X61052401Y-78520499D01*
X60979500Y-78535000D01*
X58820500Y-78535000D01*
X58747599Y-78520499D01*
X58685796Y-78479204D01*
X58644501Y-78417401D01*
X58630000Y-78344500D01*
X58630000Y-77455500D01*
X58644501Y-77382599D01*
X58685796Y-77320796D01*
X58747599Y-77279501D01*
X58820500Y-77265000D01*
X60979500Y-77265000D01*
X61052401Y-77279501D01*
G37*
G36*
X45812401Y-74739501D02*
G01*
X45874204Y-74780796D01*
X45915499Y-74842599D01*
X45930000Y-74915500D01*
X45930000Y-75804500D01*
X45915499Y-75877401D01*
X45874204Y-75939204D01*
X45812401Y-75980499D01*
X45739500Y-75995000D01*
X43580500Y-75995000D01*
X43507599Y-75980499D01*
X43445796Y-75939204D01*
X43404501Y-75877401D01*
X43390000Y-75804500D01*
X43390000Y-74915500D01*
X43404501Y-74842599D01*
X43445796Y-74780796D01*
X43507599Y-74739501D01*
X43580500Y-74725000D01*
X45739500Y-74725000D01*
X45812401Y-74739501D01*
G37*
G36*
X61052401Y-74739501D02*
G01*
X61114204Y-74780796D01*
X61155499Y-74842599D01*
X61170000Y-74915500D01*
X61170000Y-75804500D01*
X61155499Y-75877401D01*
X61114204Y-75939204D01*
X61052401Y-75980499D01*
X60979500Y-75995000D01*
X58820500Y-75995000D01*
X58747599Y-75980499D01*
X58685796Y-75939204D01*
X58644501Y-75877401D01*
X58630000Y-75804500D01*
X58630000Y-74915500D01*
X58644501Y-74842599D01*
X58685796Y-74780796D01*
X58747599Y-74739501D01*
X58820500Y-74725000D01*
X60979500Y-74725000D01*
X61052401Y-74739501D01*
G37*
G36*
X66184850Y-71305964D02*
G01*
X66235040Y-71311787D01*
X66252189Y-71319359D01*
X66275671Y-71324030D01*
X66300810Y-71340827D01*
X66320696Y-71349608D01*
X66334277Y-71363189D01*
X66356777Y-71378223D01*
X66371810Y-71400722D01*
X66385391Y-71414303D01*
X66394170Y-71434186D01*
X66410970Y-71459329D01*
X66415641Y-71482812D01*
X66423212Y-71499959D01*
X66429033Y-71550139D01*
X66430000Y-71555000D01*
X66430000Y-73245000D01*
X66429032Y-73249863D01*
X66423212Y-73300040D01*
X66415641Y-73317185D01*
X66410970Y-73340671D01*
X66394169Y-73365815D01*
X66385391Y-73385696D01*
X66371812Y-73399274D01*
X66356777Y-73421777D01*
X66334274Y-73436812D01*
X66320696Y-73450391D01*
X66300815Y-73459169D01*
X66275671Y-73475970D01*
X66252185Y-73480641D01*
X66235040Y-73488212D01*
X66184861Y-73494032D01*
X66180000Y-73495000D01*
X64940000Y-73495000D01*
X64935138Y-73494032D01*
X64884959Y-73488212D01*
X64867812Y-73480641D01*
X64844329Y-73475970D01*
X64819186Y-73459170D01*
X64799303Y-73450391D01*
X64785722Y-73436810D01*
X64763223Y-73421777D01*
X64748189Y-73399277D01*
X64734608Y-73385696D01*
X64725827Y-73365810D01*
X64709030Y-73340671D01*
X64704359Y-73317189D01*
X64696787Y-73300040D01*
X64690964Y-73249849D01*
X64690000Y-73245000D01*
X64690000Y-71555000D01*
X64690964Y-71550150D01*
X64696787Y-71499959D01*
X64704359Y-71482808D01*
X64709030Y-71459329D01*
X64725826Y-71434191D01*
X64734608Y-71414303D01*
X64748191Y-71400719D01*
X64763223Y-71378223D01*
X64785719Y-71363191D01*
X64799303Y-71349608D01*
X64819191Y-71340826D01*
X64844329Y-71324030D01*
X64867808Y-71319359D01*
X64884959Y-71311787D01*
X64935151Y-71305964D01*
X64940000Y-71305000D01*
X66180000Y-71305000D01*
X66184850Y-71305964D01*
G37*
G36*
X68352548Y-71342462D02*
G01*
X68510115Y-71407729D01*
X68651922Y-71502481D01*
X68772519Y-71623078D01*
X68867271Y-71764885D01*
X68932538Y-71922452D01*
X68965811Y-72089725D01*
X68970000Y-72175000D01*
X68970000Y-72625000D01*
X68965811Y-72710275D01*
X68932538Y-72877548D01*
X68867271Y-73035115D01*
X68772519Y-73176922D01*
X68651922Y-73297519D01*
X68510115Y-73392271D01*
X68352548Y-73457538D01*
X68185275Y-73490811D01*
X68014725Y-73490811D01*
X67847452Y-73457538D01*
X67689885Y-73392271D01*
X67548078Y-73297519D01*
X67427481Y-73176922D01*
X67332729Y-73035115D01*
X67267462Y-72877548D01*
X67234189Y-72710275D01*
X67230000Y-72625000D01*
X67230000Y-72175000D01*
X67234189Y-72089725D01*
X67267462Y-71922452D01*
X67332729Y-71764885D01*
X67427481Y-71623078D01*
X67548078Y-71502481D01*
X67689885Y-71407729D01*
X67847452Y-71342462D01*
X68014725Y-71309189D01*
X68185275Y-71309189D01*
X68352548Y-71342462D01*
G37*
G36*
X45812401Y-72199501D02*
G01*
X45874204Y-72240796D01*
X45915499Y-72302599D01*
X45930000Y-72375500D01*
X45930000Y-73264500D01*
X45915499Y-73337401D01*
X45874204Y-73399204D01*
X45812401Y-73440499D01*
X45739500Y-73455000D01*
X43580500Y-73455000D01*
X43507599Y-73440499D01*
X43445796Y-73399204D01*
X43404501Y-73337401D01*
X43390000Y-73264500D01*
X43390000Y-72375500D01*
X43404501Y-72302599D01*
X43445796Y-72240796D01*
X43507599Y-72199501D01*
X43580500Y-72185000D01*
X45739500Y-72185000D01*
X45812401Y-72199501D01*
G37*
G36*
X61052401Y-72199501D02*
G01*
X61114204Y-72240796D01*
X61155499Y-72302599D01*
X61170000Y-72375500D01*
X61170000Y-73264500D01*
X61155499Y-73337401D01*
X61114204Y-73399204D01*
X61052401Y-73440499D01*
X60979500Y-73455000D01*
X58820500Y-73455000D01*
X58747599Y-73440499D01*
X58685796Y-73399204D01*
X58644501Y-73337401D01*
X58630000Y-73264500D01*
X58630000Y-72375500D01*
X58644501Y-72302599D01*
X58685796Y-72240796D01*
X58747599Y-72199501D01*
X58820500Y-72185000D01*
X60979500Y-72185000D01*
X61052401Y-72199501D01*
G37*
G36*
X45812401Y-69659501D02*
G01*
X45874204Y-69700796D01*
X45915499Y-69762599D01*
X45930000Y-69835500D01*
X45930000Y-70724500D01*
X45915499Y-70797401D01*
X45874204Y-70859204D01*
X45812401Y-70900499D01*
X45739500Y-70915000D01*
X43580500Y-70915000D01*
X43507599Y-70900499D01*
X43445796Y-70859204D01*
X43404501Y-70797401D01*
X43390000Y-70724500D01*
X43390000Y-69835500D01*
X43404501Y-69762599D01*
X43445796Y-69700796D01*
X43507599Y-69659501D01*
X43580500Y-69645000D01*
X45739500Y-69645000D01*
X45812401Y-69659501D01*
G37*
G36*
X61052401Y-69659501D02*
G01*
X61114204Y-69700796D01*
X61155499Y-69762599D01*
X61170000Y-69835500D01*
X61170000Y-70724500D01*
X61155499Y-70797401D01*
X61114204Y-70859204D01*
X61052401Y-70900499D01*
X60979500Y-70915000D01*
X58820500Y-70915000D01*
X58747599Y-70900499D01*
X58685796Y-70859204D01*
X58644501Y-70797401D01*
X58630000Y-70724500D01*
X58630000Y-69835500D01*
X58644501Y-69762599D01*
X58685796Y-69700796D01*
X58747599Y-69659501D01*
X58820500Y-69645000D01*
X60979500Y-69645000D01*
X61052401Y-69659501D01*
G37*
G36*
X45812401Y-67119501D02*
G01*
X45874204Y-67160796D01*
X45915499Y-67222599D01*
X45930000Y-67295500D01*
X45930000Y-68184500D01*
X45915499Y-68257401D01*
X45874204Y-68319204D01*
X45812401Y-68360499D01*
X45739500Y-68375000D01*
X43580500Y-68375000D01*
X43507599Y-68360499D01*
X43445796Y-68319204D01*
X43404501Y-68257401D01*
X43390000Y-68184500D01*
X43390000Y-67295500D01*
X43404501Y-67222599D01*
X43445796Y-67160796D01*
X43507599Y-67119501D01*
X43580500Y-67105000D01*
X45739500Y-67105000D01*
X45812401Y-67119501D01*
G37*
G36*
X61052401Y-67119501D02*
G01*
X61114204Y-67160796D01*
X61155499Y-67222599D01*
X61170000Y-67295500D01*
X61170000Y-68184500D01*
X61155499Y-68257401D01*
X61114204Y-68319204D01*
X61052401Y-68360499D01*
X60979500Y-68375000D01*
X58820500Y-68375000D01*
X58747599Y-68360499D01*
X58685796Y-68319204D01*
X58644501Y-68257401D01*
X58630000Y-68184500D01*
X58630000Y-67295500D01*
X58644501Y-67222599D01*
X58685796Y-67160796D01*
X58747599Y-67119501D01*
X58820500Y-67105000D01*
X60979500Y-67105000D01*
X61052401Y-67119501D01*
G37*
G36*
X45812401Y-64579501D02*
G01*
X45874204Y-64620796D01*
X45915499Y-64682599D01*
X45930000Y-64755500D01*
X45930000Y-65644500D01*
X45915499Y-65717401D01*
X45874204Y-65779204D01*
X45812401Y-65820499D01*
X45739500Y-65835000D01*
X43580500Y-65835000D01*
X43507599Y-65820499D01*
X43445796Y-65779204D01*
X43404501Y-65717401D01*
X43390000Y-65644500D01*
X43390000Y-64755500D01*
X43404501Y-64682599D01*
X43445796Y-64620796D01*
X43507599Y-64579501D01*
X43580500Y-64565000D01*
X45739500Y-64565000D01*
X45812401Y-64579501D01*
G37*
G36*
X61052401Y-64579501D02*
G01*
X61114204Y-64620796D01*
X61155499Y-64682599D01*
X61170000Y-64755500D01*
X61170000Y-65644500D01*
X61155499Y-65717401D01*
X61114204Y-65779204D01*
X61052401Y-65820499D01*
X60979500Y-65835000D01*
X58820500Y-65835000D01*
X58747599Y-65820499D01*
X58685796Y-65779204D01*
X58644501Y-65717401D01*
X58630000Y-65644500D01*
X58630000Y-64755500D01*
X58644501Y-64682599D01*
X58685796Y-64620796D01*
X58747599Y-64579501D01*
X58820500Y-64565000D01*
X60979500Y-64565000D01*
X61052401Y-64579501D01*
G37*
G36*
X66184850Y-61405964D02*
G01*
X66235040Y-61411787D01*
X66252189Y-61419359D01*
X66275671Y-61424030D01*
X66300810Y-61440827D01*
X66320696Y-61449608D01*
X66334277Y-61463189D01*
X66356777Y-61478223D01*
X66371810Y-61500722D01*
X66385391Y-61514303D01*
X66394170Y-61534186D01*
X66410970Y-61559329D01*
X66415641Y-61582812D01*
X66423212Y-61599959D01*
X66429033Y-61650139D01*
X66430000Y-61655000D01*
X66430000Y-63345000D01*
X66429032Y-63349863D01*
X66423212Y-63400040D01*
X66415641Y-63417185D01*
X66410970Y-63440671D01*
X66394169Y-63465815D01*
X66385391Y-63485696D01*
X66371812Y-63499274D01*
X66356777Y-63521777D01*
X66334274Y-63536812D01*
X66320696Y-63550391D01*
X66300815Y-63559169D01*
X66275671Y-63575970D01*
X66252185Y-63580641D01*
X66235040Y-63588212D01*
X66184861Y-63594032D01*
X66180000Y-63595000D01*
X64940000Y-63595000D01*
X64935138Y-63594032D01*
X64884959Y-63588212D01*
X64867812Y-63580641D01*
X64844329Y-63575970D01*
X64819186Y-63559170D01*
X64799303Y-63550391D01*
X64785722Y-63536810D01*
X64763223Y-63521777D01*
X64748189Y-63499277D01*
X64734608Y-63485696D01*
X64725827Y-63465810D01*
X64709030Y-63440671D01*
X64704359Y-63417189D01*
X64696787Y-63400040D01*
X64690964Y-63349849D01*
X64690000Y-63345000D01*
X64690000Y-61655000D01*
X64690964Y-61650150D01*
X64696787Y-61599959D01*
X64704359Y-61582808D01*
X64709030Y-61559329D01*
X64725826Y-61534191D01*
X64734608Y-61514303D01*
X64748191Y-61500719D01*
X64763223Y-61478223D01*
X64785719Y-61463191D01*
X64799303Y-61449608D01*
X64819191Y-61440826D01*
X64844329Y-61424030D01*
X64867808Y-61419359D01*
X64884959Y-61411787D01*
X64935151Y-61405964D01*
X64940000Y-61405000D01*
X66180000Y-61405000D01*
X66184850Y-61405964D01*
G37*
G36*
X68352548Y-61442462D02*
G01*
X68510115Y-61507729D01*
X68651922Y-61602481D01*
X68772519Y-61723078D01*
X68867271Y-61864885D01*
X68932538Y-62022452D01*
X68965811Y-62189725D01*
X68970000Y-62275000D01*
X68970000Y-62725000D01*
X68965811Y-62810275D01*
X68932538Y-62977548D01*
X68867271Y-63135115D01*
X68772519Y-63276922D01*
X68651922Y-63397519D01*
X68510115Y-63492271D01*
X68352548Y-63557538D01*
X68185275Y-63590811D01*
X68014725Y-63590811D01*
X67847452Y-63557538D01*
X67689885Y-63492271D01*
X67548078Y-63397519D01*
X67427481Y-63276922D01*
X67332729Y-63135115D01*
X67267462Y-62977548D01*
X67234189Y-62810275D01*
X67230000Y-62725000D01*
X67230000Y-62275000D01*
X67234189Y-62189725D01*
X67267462Y-62022452D01*
X67332729Y-61864885D01*
X67427481Y-61723078D01*
X67548078Y-61602481D01*
X67689885Y-61507729D01*
X67847452Y-61442462D01*
X68014725Y-61409189D01*
X68185275Y-61409189D01*
X68352548Y-61442462D01*
G37*
G36*
X45812401Y-62039501D02*
G01*
X45874204Y-62080796D01*
X45915499Y-62142599D01*
X45930000Y-62215500D01*
X45930000Y-63104500D01*
X45915499Y-63177401D01*
X45874204Y-63239204D01*
X45812401Y-63280499D01*
X45739500Y-63295000D01*
X43580500Y-63295000D01*
X43507599Y-63280499D01*
X43445796Y-63239204D01*
X43404501Y-63177401D01*
X43390000Y-63104500D01*
X43390000Y-62215500D01*
X43404501Y-62142599D01*
X43445796Y-62080796D01*
X43507599Y-62039501D01*
X43580500Y-62025000D01*
X45739500Y-62025000D01*
X45812401Y-62039501D01*
G37*
G36*
X61052401Y-62039501D02*
G01*
X61114204Y-62080796D01*
X61155499Y-62142599D01*
X61170000Y-62215500D01*
X61170000Y-63104500D01*
X61155499Y-63177401D01*
X61114204Y-63239204D01*
X61052401Y-63280499D01*
X60979500Y-63295000D01*
X58820500Y-63295000D01*
X58747599Y-63280499D01*
X58685796Y-63239204D01*
X58644501Y-63177401D01*
X58630000Y-63104500D01*
X58630000Y-62215500D01*
X58644501Y-62142599D01*
X58685796Y-62080796D01*
X58747599Y-62039501D01*
X58820500Y-62025000D01*
X60979500Y-62025000D01*
X61052401Y-62039501D01*
G37*
G36*
X45812401Y-59499501D02*
G01*
X45874204Y-59540796D01*
X45915499Y-59602599D01*
X45930000Y-59675500D01*
X45930000Y-60564500D01*
X45915499Y-60637401D01*
X45874204Y-60699204D01*
X45812401Y-60740499D01*
X45739500Y-60755000D01*
X43580500Y-60755000D01*
X43507599Y-60740499D01*
X43445796Y-60699204D01*
X43404501Y-60637401D01*
X43390000Y-60564500D01*
X43390000Y-59675500D01*
X43404501Y-59602599D01*
X43445796Y-59540796D01*
X43507599Y-59499501D01*
X43580500Y-59485000D01*
X45739500Y-59485000D01*
X45812401Y-59499501D01*
G37*
G36*
X61052401Y-59499501D02*
G01*
X61114204Y-59540796D01*
X61155499Y-59602599D01*
X61170000Y-59675500D01*
X61170000Y-60564500D01*
X61155499Y-60637401D01*
X61114204Y-60699204D01*
X61052401Y-60740499D01*
X60979500Y-60755000D01*
X58820500Y-60755000D01*
X58747599Y-60740499D01*
X58685796Y-60699204D01*
X58644501Y-60637401D01*
X58630000Y-60564500D01*
X58630000Y-59675500D01*
X58644501Y-59602599D01*
X58685796Y-59540796D01*
X58747599Y-59499501D01*
X58820500Y-59485000D01*
X60979500Y-59485000D01*
X61052401Y-59499501D01*
G37*
G36*
X44956476Y-56345090D02*
G01*
X45146008Y-56406673D01*
X45323573Y-56497147D01*
X45484799Y-56614284D01*
X45625716Y-56755201D01*
X45742853Y-56916427D01*
X45833327Y-57093992D01*
X45894910Y-57283524D01*
X45926085Y-57480357D01*
X45926085Y-57679643D01*
X45894910Y-57876476D01*
X45833327Y-58066008D01*
X45742853Y-58243573D01*
X45625716Y-58404799D01*
X45484799Y-58545716D01*
X45323573Y-58662853D01*
X45146008Y-58753327D01*
X44956476Y-58814910D01*
X44759643Y-58846085D01*
X44560357Y-58846085D01*
X44363524Y-58814910D01*
X44173992Y-58753327D01*
X43996427Y-58662853D01*
X43835201Y-58545716D01*
X43694284Y-58404799D01*
X43577147Y-58243573D01*
X43486673Y-58066008D01*
X43425090Y-57876476D01*
X43393915Y-57679643D01*
X43393915Y-57480357D01*
X43425090Y-57283524D01*
X43486673Y-57093992D01*
X43577147Y-56916427D01*
X43694284Y-56755201D01*
X43835201Y-56614284D01*
X43996427Y-56497147D01*
X44173992Y-56406673D01*
X44363524Y-56345090D01*
X44560357Y-56313915D01*
X44759643Y-56313915D01*
X44956476Y-56345090D01*
G37*
G36*
X61052401Y-56959501D02*
G01*
X61114204Y-57000796D01*
X61155499Y-57062599D01*
X61170000Y-57135500D01*
X61170000Y-58024500D01*
X61155499Y-58097401D01*
X61114204Y-58159204D01*
X61052401Y-58200499D01*
X60979500Y-58215000D01*
X58820500Y-58215000D01*
X58747599Y-58200499D01*
X58685796Y-58159204D01*
X58644501Y-58097401D01*
X58630000Y-58024500D01*
X58630000Y-57135500D01*
X58644501Y-57062599D01*
X58685796Y-57000796D01*
X58747599Y-56959501D01*
X58820500Y-56945000D01*
X60979500Y-56945000D01*
X61052401Y-56959501D01*
G37*
%LPD*%
M02*
