G04 #@! TF.GenerationSoftware,KiCad,Pcbnew,9.0.2*
G04 #@! TF.CreationDate,2025-06-20T10:59:13-07:00*
G04 #@! TF.ProjectId,fsrPrototype1,66737250-726f-4746-9f74-797065312e6b,rev?*
G04 #@! TF.SameCoordinates,Original*
G04 #@! TF.FileFunction,Copper,L2,Bot*
G04 #@! TF.FilePolarity,Positive*
%FSLAX46Y46*%
G04 Gerber Fmt 4.6, Leading zero omitted, Abs format (unit mm)*
G04 Created by KiCad (PCBNEW 9.0.2) date 2025-06-20 10:59:13*
%MOMM*%
%LPD*%
G01*
G04 APERTURE LIST*
G04 Aperture macros list*
%AMRoundRect*
0 Rectangle with rounded corners*
0 $1 Rounding radius*
0 $2 $3 $4 $5 $6 $7 $8 $9 X,Y pos of 4 corners*
0 Add a 4 corners polygon primitive as box body*
4,1,4,$2,$3,$4,$5,$6,$7,$8,$9,$2,$3,0*
0 Add four circle primitives for the rounded corners*
1,1,$1+$1,$2,$3*
1,1,$1+$1,$4,$5*
1,1,$1+$1,$6,$7*
1,1,$1+$1,$8,$9*
0 Add four rect primitives between the rounded corners*
20,1,$1+$1,$2,$3,$4,$5,0*
20,1,$1+$1,$4,$5,$6,$7,0*
20,1,$1+$1,$6,$7,$8,$9,0*
20,1,$1+$1,$8,$9,$2,$3,0*%
G04 Aperture macros list end*
G04 #@! TA.AperFunction,ComponentPad*
%ADD10RoundRect,0.250000X-0.620000X-0.845000X0.620000X-0.845000X0.620000X0.845000X-0.620000X0.845000X0*%
G04 #@! TD*
G04 #@! TA.AperFunction,ComponentPad*
%ADD11O,1.740000X2.190000*%
G04 #@! TD*
G04 #@! TA.AperFunction,ComponentPad*
%ADD12C,2.540000*%
G04 #@! TD*
G04 #@! TA.AperFunction,ComponentPad*
%ADD13RoundRect,0.190500X-1.079500X-0.444500X1.079500X-0.444500X1.079500X0.444500X-1.079500X0.444500X0*%
G04 #@! TD*
G04 #@! TA.AperFunction,Conductor*
%ADD14C,0.200000*%
G04 #@! TD*
G04 #@! TA.AperFunction,Conductor*
%ADD15C,0.400000*%
G04 #@! TD*
G04 APERTURE END LIST*
D10*
X65560000Y-62500000D03*
D11*
X68100000Y-62500000D03*
D12*
X44660000Y-57580000D03*
D13*
X44660000Y-60120000D03*
X44660000Y-62660000D03*
X44660000Y-65200000D03*
X44660000Y-67740000D03*
X44660000Y-70280000D03*
X44660000Y-72820000D03*
X44660000Y-75360000D03*
X44660000Y-77900000D03*
X44660000Y-80440000D03*
X44660000Y-82980000D03*
X44660000Y-85520000D03*
X44660000Y-88060000D03*
X44660000Y-90600000D03*
X59900000Y-90600000D03*
X59900000Y-88060000D03*
X59900000Y-85520000D03*
X59900000Y-82980000D03*
X59900000Y-80440000D03*
X59900000Y-77900000D03*
X59900000Y-75360000D03*
X59900000Y-72820000D03*
X59900000Y-70280000D03*
X59900000Y-67740000D03*
X59900000Y-65200000D03*
X59900000Y-62660000D03*
X59900000Y-60120000D03*
X59900000Y-57580000D03*
D10*
X65560000Y-72400000D03*
D11*
X68100000Y-72400000D03*
D14*
X62700000Y-85260000D02*
X62700000Y-65360000D01*
X62700000Y-65360000D02*
X65560000Y-62500000D01*
X59900000Y-88060000D02*
X62700000Y-85260000D01*
D15*
X68100000Y-72400000D02*
X68100000Y-62500000D01*
G04 #@! TA.AperFunction,Conductor*
G36*
X77442539Y-55520185D02*
G01*
X77488294Y-55572989D01*
X77499500Y-55624500D01*
X77499500Y-92375500D01*
X77479815Y-92442539D01*
X77427011Y-92488294D01*
X77375500Y-92499500D01*
X41624500Y-92499500D01*
X41557461Y-92479815D01*
X41511706Y-92427011D01*
X41500500Y-92375500D01*
X41500500Y-90099655D01*
X42889500Y-90099655D01*
X42889500Y-91100354D01*
X42895825Y-91169966D01*
X42895828Y-91169977D01*
X42945747Y-91330175D01*
X42945749Y-91330179D01*
X43032556Y-91473777D01*
X43032560Y-91473782D01*
X43151217Y-91592439D01*
X43151222Y-91592443D01*
X43271815Y-91665343D01*
X43294822Y-91679251D01*
X43455029Y-91729173D01*
X43524653Y-91735500D01*
X45795346Y-91735499D01*
X45795353Y-91735499D01*
X45864966Y-91729174D01*
X45864969Y-91729173D01*
X45864971Y-91729173D01*
X46025178Y-91679251D01*
X46099089Y-91634570D01*
X46168777Y-91592443D01*
X46168778Y-91592441D01*
X46168783Y-91592439D01*
X46287439Y-91473783D01*
X46374251Y-91330178D01*
X46424173Y-91169971D01*
X46430500Y-91100347D01*
X46430499Y-90099655D01*
X58129500Y-90099655D01*
X58129500Y-91100354D01*
X58135825Y-91169966D01*
X58135828Y-91169977D01*
X58185747Y-91330175D01*
X58185749Y-91330179D01*
X58272556Y-91473777D01*
X58272560Y-91473782D01*
X58391217Y-91592439D01*
X58391222Y-91592443D01*
X58511815Y-91665343D01*
X58534822Y-91679251D01*
X58695029Y-91729173D01*
X58764653Y-91735500D01*
X61035346Y-91735499D01*
X61035353Y-91735499D01*
X61104966Y-91729174D01*
X61104969Y-91729173D01*
X61104971Y-91729173D01*
X61265178Y-91679251D01*
X61339089Y-91634570D01*
X61408777Y-91592443D01*
X61408778Y-91592441D01*
X61408783Y-91592439D01*
X61527439Y-91473783D01*
X61614251Y-91330178D01*
X61664173Y-91169971D01*
X61670500Y-91100347D01*
X61670499Y-90099654D01*
X61670499Y-90099653D01*
X61670499Y-90099645D01*
X61664174Y-90030033D01*
X61664171Y-90030022D01*
X61614252Y-89869824D01*
X61614250Y-89869820D01*
X61527443Y-89726222D01*
X61527439Y-89726217D01*
X61408782Y-89607560D01*
X61408777Y-89607556D01*
X61265180Y-89520750D01*
X61265179Y-89520749D01*
X61265178Y-89520749D01*
X61104971Y-89470827D01*
X61104969Y-89470826D01*
X61104967Y-89470826D01*
X61056221Y-89466396D01*
X61035347Y-89464500D01*
X61035344Y-89464500D01*
X58764645Y-89464500D01*
X58695033Y-89470825D01*
X58695022Y-89470828D01*
X58534824Y-89520747D01*
X58534820Y-89520749D01*
X58391222Y-89607556D01*
X58391217Y-89607560D01*
X58272560Y-89726217D01*
X58272556Y-89726222D01*
X58185750Y-89869819D01*
X58135826Y-90030032D01*
X58129500Y-90099655D01*
X46430499Y-90099655D01*
X46430499Y-90099654D01*
X46430499Y-90099653D01*
X46430499Y-90099645D01*
X46424174Y-90030033D01*
X46424171Y-90030022D01*
X46374252Y-89869824D01*
X46374250Y-89869820D01*
X46287443Y-89726222D01*
X46287439Y-89726217D01*
X46168782Y-89607560D01*
X46168777Y-89607556D01*
X46025180Y-89520750D01*
X46025179Y-89520749D01*
X46025178Y-89520749D01*
X45864971Y-89470827D01*
X45864969Y-89470826D01*
X45864967Y-89470826D01*
X45816221Y-89466396D01*
X45795347Y-89464500D01*
X45795344Y-89464500D01*
X43524645Y-89464500D01*
X43455033Y-89470825D01*
X43455022Y-89470828D01*
X43294824Y-89520747D01*
X43294820Y-89520749D01*
X43151222Y-89607556D01*
X43151217Y-89607560D01*
X43032560Y-89726217D01*
X43032556Y-89726222D01*
X42945750Y-89869819D01*
X42895826Y-90030032D01*
X42889500Y-90099655D01*
X41500500Y-90099655D01*
X41500500Y-87559655D01*
X42889500Y-87559655D01*
X42889500Y-88560354D01*
X42895825Y-88629966D01*
X42895828Y-88629977D01*
X42945747Y-88790175D01*
X42945749Y-88790179D01*
X43032556Y-88933777D01*
X43032560Y-88933782D01*
X43151217Y-89052439D01*
X43151222Y-89052443D01*
X43271815Y-89125343D01*
X43294822Y-89139251D01*
X43455029Y-89189173D01*
X43524653Y-89195500D01*
X45795346Y-89195499D01*
X45795353Y-89195499D01*
X45864966Y-89189174D01*
X45864969Y-89189173D01*
X45864971Y-89189173D01*
X46025178Y-89139251D01*
X46099089Y-89094570D01*
X46168777Y-89052443D01*
X46168778Y-89052441D01*
X46168783Y-89052439D01*
X46287439Y-88933783D01*
X46374251Y-88790178D01*
X46424173Y-88629971D01*
X46430500Y-88560347D01*
X46430499Y-87559654D01*
X46430499Y-87559653D01*
X46430499Y-87559645D01*
X46424174Y-87490033D01*
X46424171Y-87490022D01*
X46374252Y-87329824D01*
X46374250Y-87329820D01*
X46287443Y-87186222D01*
X46287439Y-87186217D01*
X46168782Y-87067560D01*
X46168777Y-87067556D01*
X46025180Y-86980750D01*
X46025179Y-86980749D01*
X46025178Y-86980749D01*
X45864971Y-86930827D01*
X45864969Y-86930826D01*
X45864967Y-86930826D01*
X45816221Y-86926396D01*
X45795347Y-86924500D01*
X45795344Y-86924500D01*
X43524645Y-86924500D01*
X43455033Y-86930825D01*
X43455022Y-86930828D01*
X43294824Y-86980747D01*
X43294820Y-86980749D01*
X43151222Y-87067556D01*
X43151217Y-87067560D01*
X43032560Y-87186217D01*
X43032556Y-87186222D01*
X42945750Y-87329819D01*
X42895826Y-87490032D01*
X42889500Y-87559655D01*
X41500500Y-87559655D01*
X41500500Y-85019655D01*
X42889500Y-85019655D01*
X42889500Y-86020354D01*
X42895825Y-86089966D01*
X42895828Y-86089977D01*
X42945747Y-86250175D01*
X42945749Y-86250179D01*
X43032556Y-86393777D01*
X43032560Y-86393782D01*
X43151217Y-86512439D01*
X43151222Y-86512443D01*
X43271815Y-86585343D01*
X43294822Y-86599251D01*
X43455029Y-86649173D01*
X43524653Y-86655500D01*
X45795346Y-86655499D01*
X45795353Y-86655499D01*
X45864966Y-86649174D01*
X45864969Y-86649173D01*
X45864971Y-86649173D01*
X46025178Y-86599251D01*
X46099089Y-86554570D01*
X46168777Y-86512443D01*
X46168778Y-86512441D01*
X46168783Y-86512439D01*
X46287439Y-86393783D01*
X46374251Y-86250178D01*
X46424173Y-86089971D01*
X46430500Y-86020347D01*
X46430499Y-85019655D01*
X58129500Y-85019655D01*
X58129500Y-86020354D01*
X58135825Y-86089966D01*
X58135828Y-86089977D01*
X58185747Y-86250175D01*
X58185749Y-86250179D01*
X58272556Y-86393777D01*
X58272560Y-86393782D01*
X58391217Y-86512439D01*
X58391222Y-86512443D01*
X58511815Y-86585343D01*
X58534822Y-86599251D01*
X58695029Y-86649173D01*
X58764653Y-86655500D01*
X60155902Y-86655499D01*
X60177147Y-86661737D01*
X60199236Y-86663317D01*
X60210019Y-86671389D01*
X60222941Y-86675184D01*
X60237441Y-86691917D01*
X60255169Y-86705189D01*
X60259875Y-86717808D01*
X60268696Y-86727987D01*
X60271847Y-86749905D01*
X60279586Y-86770653D01*
X60276723Y-86783813D01*
X60278640Y-86797146D01*
X60269440Y-86817289D01*
X60264734Y-86838926D01*
X60251465Y-86856651D01*
X60249615Y-86860702D01*
X60243583Y-86867180D01*
X60222582Y-86888181D01*
X60161259Y-86921666D01*
X60134901Y-86924500D01*
X58764645Y-86924500D01*
X58695033Y-86930825D01*
X58695022Y-86930828D01*
X58534824Y-86980747D01*
X58534820Y-86980749D01*
X58391222Y-87067556D01*
X58391217Y-87067560D01*
X58272560Y-87186217D01*
X58272556Y-87186222D01*
X58185750Y-87329819D01*
X58135826Y-87490032D01*
X58129500Y-87559655D01*
X58129500Y-88560354D01*
X58135825Y-88629966D01*
X58135828Y-88629977D01*
X58185747Y-88790175D01*
X58185749Y-88790179D01*
X58272556Y-88933777D01*
X58272560Y-88933782D01*
X58391217Y-89052439D01*
X58391222Y-89052443D01*
X58511815Y-89125343D01*
X58534822Y-89139251D01*
X58695029Y-89189173D01*
X58764653Y-89195500D01*
X61035346Y-89195499D01*
X61035353Y-89195499D01*
X61104966Y-89189174D01*
X61104969Y-89189173D01*
X61104971Y-89189173D01*
X61265178Y-89139251D01*
X61339089Y-89094570D01*
X61408777Y-89052443D01*
X61408778Y-89052441D01*
X61408783Y-89052439D01*
X61527439Y-88933783D01*
X61614251Y-88790178D01*
X61664173Y-88629971D01*
X61670500Y-88560347D01*
X61670499Y-87559654D01*
X61670499Y-87559653D01*
X61670499Y-87559645D01*
X61664174Y-87490033D01*
X61664171Y-87490022D01*
X61614252Y-87329826D01*
X61614251Y-87329822D01*
X61613708Y-87328924D01*
X61613511Y-87328178D01*
X61611173Y-87322983D01*
X61612036Y-87322594D01*
X61595870Y-87261374D01*
X61617384Y-87194899D01*
X61632137Y-87177096D01*
X63068713Y-85740521D01*
X63068716Y-85740520D01*
X63180520Y-85628716D01*
X63230639Y-85541904D01*
X63259577Y-85491785D01*
X63300501Y-85339057D01*
X63300501Y-85180943D01*
X63300501Y-85173348D01*
X63300500Y-85173330D01*
X63300500Y-65660096D01*
X63320185Y-65593057D01*
X63336814Y-65572420D01*
X64779138Y-64130095D01*
X64840459Y-64096612D01*
X64879421Y-64094420D01*
X64889991Y-64095500D01*
X66230008Y-64095499D01*
X66332797Y-64084999D01*
X66499334Y-64029814D01*
X66648656Y-63937712D01*
X66772712Y-63813656D01*
X66864814Y-63664334D01*
X66864817Y-63664322D01*
X66865129Y-63663657D01*
X66865469Y-63663269D01*
X66868605Y-63658187D01*
X66869473Y-63658722D01*
X66911299Y-63611216D01*
X66978491Y-63592060D01*
X67045373Y-63612272D01*
X67065195Y-63628375D01*
X67207179Y-63770359D01*
X67348386Y-63872952D01*
X67391051Y-63928282D01*
X67399500Y-63973270D01*
X67399500Y-70926730D01*
X67379815Y-70993769D01*
X67348386Y-71027048D01*
X67207180Y-71129640D01*
X67065195Y-71271625D01*
X67003872Y-71305109D01*
X66934180Y-71300125D01*
X66878247Y-71258253D01*
X66865132Y-71236348D01*
X66864815Y-71235669D01*
X66864814Y-71235668D01*
X66864814Y-71235666D01*
X66772712Y-71086344D01*
X66648656Y-70962288D01*
X66499334Y-70870186D01*
X66332797Y-70815001D01*
X66332795Y-70815000D01*
X66230010Y-70804500D01*
X64889998Y-70804500D01*
X64889981Y-70804501D01*
X64787203Y-70815000D01*
X64787200Y-70815001D01*
X64620668Y-70870185D01*
X64620663Y-70870187D01*
X64471342Y-70962289D01*
X64347289Y-71086342D01*
X64255187Y-71235663D01*
X64255185Y-71235668D01*
X64242999Y-71272443D01*
X64200001Y-71402203D01*
X64200001Y-71402204D01*
X64200000Y-71402204D01*
X64189500Y-71504983D01*
X64189500Y-73295001D01*
X64189501Y-73295018D01*
X64200000Y-73397796D01*
X64200001Y-73397799D01*
X64237584Y-73511216D01*
X64255186Y-73564334D01*
X64347288Y-73713656D01*
X64471344Y-73837712D01*
X64620666Y-73929814D01*
X64787203Y-73984999D01*
X64889991Y-73995500D01*
X66230008Y-73995499D01*
X66332797Y-73984999D01*
X66499334Y-73929814D01*
X66648656Y-73837712D01*
X66772712Y-73713656D01*
X66864814Y-73564334D01*
X66864817Y-73564322D01*
X66865129Y-73563657D01*
X66865469Y-73563269D01*
X66868605Y-73558187D01*
X66869473Y-73558722D01*
X66911299Y-73511216D01*
X66978491Y-73492060D01*
X67045373Y-73512272D01*
X67065195Y-73528375D01*
X67207179Y-73670359D01*
X67381701Y-73797157D01*
X67573911Y-73895092D01*
X67779074Y-73961754D01*
X67858973Y-73974408D01*
X67992134Y-73995500D01*
X67992139Y-73995500D01*
X68207866Y-73995500D01*
X68326230Y-73976752D01*
X68420926Y-73961754D01*
X68626089Y-73895092D01*
X68818299Y-73797157D01*
X68992821Y-73670359D01*
X69145359Y-73517821D01*
X69272157Y-73343299D01*
X69370092Y-73151089D01*
X69436754Y-72945926D01*
X69451752Y-72851230D01*
X69470500Y-72732866D01*
X69470500Y-72067133D01*
X69436754Y-71854077D01*
X69436754Y-71854074D01*
X69370092Y-71648911D01*
X69272157Y-71456701D01*
X69145359Y-71282179D01*
X68992821Y-71129641D01*
X68851613Y-71027047D01*
X68808949Y-70971718D01*
X68800500Y-70926730D01*
X68800500Y-63973270D01*
X68820185Y-63906231D01*
X68851614Y-63872952D01*
X68992821Y-63770359D01*
X69145359Y-63617821D01*
X69272157Y-63443299D01*
X69370092Y-63251089D01*
X69436754Y-63045926D01*
X69451752Y-62951230D01*
X69470500Y-62832866D01*
X69470500Y-62167133D01*
X69436754Y-61954077D01*
X69436754Y-61954074D01*
X69370092Y-61748911D01*
X69272157Y-61556701D01*
X69145359Y-61382179D01*
X68992821Y-61229641D01*
X68818299Y-61102843D01*
X68626089Y-61004908D01*
X68420926Y-60938246D01*
X68420924Y-60938245D01*
X68420922Y-60938245D01*
X68207866Y-60904500D01*
X68207861Y-60904500D01*
X67992139Y-60904500D01*
X67992134Y-60904500D01*
X67779077Y-60938245D01*
X67573908Y-61004909D01*
X67381700Y-61102843D01*
X67207180Y-61229640D01*
X67065195Y-61371625D01*
X67003872Y-61405109D01*
X66934180Y-61400125D01*
X66878247Y-61358253D01*
X66865132Y-61336348D01*
X66864815Y-61335669D01*
X66864814Y-61335668D01*
X66864814Y-61335666D01*
X66772712Y-61186344D01*
X66648656Y-61062288D01*
X66537591Y-60993783D01*
X66499336Y-60970187D01*
X66499331Y-60970185D01*
X66497862Y-60969698D01*
X66332797Y-60915001D01*
X66332795Y-60915000D01*
X66230010Y-60904500D01*
X64889998Y-60904500D01*
X64889981Y-60904501D01*
X64787203Y-60915000D01*
X64787200Y-60915001D01*
X64620668Y-60970185D01*
X64620663Y-60970187D01*
X64471342Y-61062289D01*
X64347289Y-61186342D01*
X64255187Y-61335663D01*
X64255186Y-61335666D01*
X64200001Y-61502203D01*
X64200001Y-61502204D01*
X64200000Y-61502204D01*
X64189500Y-61604983D01*
X64189500Y-62969901D01*
X64169815Y-63036940D01*
X64153181Y-63057582D01*
X62331286Y-64879478D01*
X62219481Y-64991282D01*
X62219479Y-64991285D01*
X62169361Y-65078094D01*
X62169359Y-65078096D01*
X62140425Y-65128209D01*
X62140424Y-65128210D01*
X62140423Y-65128215D01*
X62099499Y-65280943D01*
X62099499Y-65280945D01*
X62099499Y-65449046D01*
X62099500Y-65449059D01*
X62099500Y-84959902D01*
X62079815Y-85026941D01*
X62063181Y-85047583D01*
X61882180Y-85228584D01*
X61820857Y-85262069D01*
X61751165Y-85257085D01*
X61695232Y-85215213D01*
X61670815Y-85149749D01*
X61670499Y-85140903D01*
X61670499Y-85019645D01*
X61664174Y-84950033D01*
X61664171Y-84950022D01*
X61614252Y-84789824D01*
X61614250Y-84789820D01*
X61527443Y-84646222D01*
X61527439Y-84646217D01*
X61408782Y-84527560D01*
X61408777Y-84527556D01*
X61265180Y-84440750D01*
X61265179Y-84440749D01*
X61265178Y-84440749D01*
X61104971Y-84390827D01*
X61104969Y-84390826D01*
X61104967Y-84390826D01*
X61056221Y-84386396D01*
X61035347Y-84384500D01*
X61035344Y-84384500D01*
X58764645Y-84384500D01*
X58695033Y-84390825D01*
X58695022Y-84390828D01*
X58534824Y-84440747D01*
X58534820Y-84440749D01*
X58391222Y-84527556D01*
X58391217Y-84527560D01*
X58272560Y-84646217D01*
X58272556Y-84646222D01*
X58185750Y-84789819D01*
X58135826Y-84950032D01*
X58129500Y-85019655D01*
X46430499Y-85019655D01*
X46430499Y-85019654D01*
X46430499Y-85019653D01*
X46430499Y-85019645D01*
X46424174Y-84950033D01*
X46424171Y-84950022D01*
X46374252Y-84789824D01*
X46374250Y-84789820D01*
X46287443Y-84646222D01*
X46287439Y-84646217D01*
X46168782Y-84527560D01*
X46168777Y-84527556D01*
X46025180Y-84440750D01*
X46025179Y-84440749D01*
X46025178Y-84440749D01*
X45864971Y-84390827D01*
X45864969Y-84390826D01*
X45864967Y-84390826D01*
X45816221Y-84386396D01*
X45795347Y-84384500D01*
X45795344Y-84384500D01*
X43524645Y-84384500D01*
X43455033Y-84390825D01*
X43455022Y-84390828D01*
X43294824Y-84440747D01*
X43294820Y-84440749D01*
X43151222Y-84527556D01*
X43151217Y-84527560D01*
X43032560Y-84646217D01*
X43032556Y-84646222D01*
X42945750Y-84789819D01*
X42895826Y-84950032D01*
X42889500Y-85019655D01*
X41500500Y-85019655D01*
X41500500Y-82479655D01*
X42889500Y-82479655D01*
X42889500Y-83480354D01*
X42895825Y-83549966D01*
X42895828Y-83549977D01*
X42945747Y-83710175D01*
X42945749Y-83710179D01*
X43032556Y-83853777D01*
X43032560Y-83853782D01*
X43151217Y-83972439D01*
X43151222Y-83972443D01*
X43271815Y-84045343D01*
X43294822Y-84059251D01*
X43455029Y-84109173D01*
X43524653Y-84115500D01*
X45795346Y-84115499D01*
X45795353Y-84115499D01*
X45864966Y-84109174D01*
X45864969Y-84109173D01*
X45864971Y-84109173D01*
X46025178Y-84059251D01*
X46099089Y-84014570D01*
X46168777Y-83972443D01*
X46168778Y-83972441D01*
X46168783Y-83972439D01*
X46287439Y-83853783D01*
X46374251Y-83710178D01*
X46424173Y-83549971D01*
X46430500Y-83480347D01*
X46430499Y-82479655D01*
X58129500Y-82479655D01*
X58129500Y-83480354D01*
X58135825Y-83549966D01*
X58135828Y-83549977D01*
X58185747Y-83710175D01*
X58185749Y-83710179D01*
X58272556Y-83853777D01*
X58272560Y-83853782D01*
X58391217Y-83972439D01*
X58391222Y-83972443D01*
X58511815Y-84045343D01*
X58534822Y-84059251D01*
X58695029Y-84109173D01*
X58764653Y-84115500D01*
X61035346Y-84115499D01*
X61035353Y-84115499D01*
X61104966Y-84109174D01*
X61104969Y-84109173D01*
X61104971Y-84109173D01*
X61265178Y-84059251D01*
X61339089Y-84014570D01*
X61408777Y-83972443D01*
X61408778Y-83972441D01*
X61408783Y-83972439D01*
X61527439Y-83853783D01*
X61614251Y-83710178D01*
X61664173Y-83549971D01*
X61670500Y-83480347D01*
X61670499Y-82479654D01*
X61670499Y-82479653D01*
X61670499Y-82479645D01*
X61664174Y-82410033D01*
X61664171Y-82410022D01*
X61614252Y-82249824D01*
X61614250Y-82249820D01*
X61527443Y-82106222D01*
X61527439Y-82106217D01*
X61408782Y-81987560D01*
X61408777Y-81987556D01*
X61265180Y-81900750D01*
X61265179Y-81900749D01*
X61265178Y-81900749D01*
X61104971Y-81850827D01*
X61104969Y-81850826D01*
X61104967Y-81850826D01*
X61056221Y-81846396D01*
X61035347Y-81844500D01*
X61035344Y-81844500D01*
X58764645Y-81844500D01*
X58695033Y-81850825D01*
X58695022Y-81850828D01*
X58534824Y-81900747D01*
X58534820Y-81900749D01*
X58391222Y-81987556D01*
X58391217Y-81987560D01*
X58272560Y-82106217D01*
X58272556Y-82106222D01*
X58185750Y-82249819D01*
X58135826Y-82410032D01*
X58129500Y-82479655D01*
X46430499Y-82479655D01*
X46430499Y-82479654D01*
X46430499Y-82479653D01*
X46430499Y-82479645D01*
X46424174Y-82410033D01*
X46424171Y-82410022D01*
X46374252Y-82249824D01*
X46374250Y-82249820D01*
X46287443Y-82106222D01*
X46287439Y-82106217D01*
X46168782Y-81987560D01*
X46168777Y-81987556D01*
X46025180Y-81900750D01*
X46025179Y-81900749D01*
X46025178Y-81900749D01*
X45864971Y-81850827D01*
X45864969Y-81850826D01*
X45864967Y-81850826D01*
X45816221Y-81846396D01*
X45795347Y-81844500D01*
X45795344Y-81844500D01*
X43524645Y-81844500D01*
X43455033Y-81850825D01*
X43455022Y-81850828D01*
X43294824Y-81900747D01*
X43294820Y-81900749D01*
X43151222Y-81987556D01*
X43151217Y-81987560D01*
X43032560Y-82106217D01*
X43032556Y-82106222D01*
X42945750Y-82249819D01*
X42895826Y-82410032D01*
X42889500Y-82479655D01*
X41500500Y-82479655D01*
X41500500Y-79939655D01*
X42889500Y-79939655D01*
X42889500Y-80940354D01*
X42895825Y-81009966D01*
X42895828Y-81009977D01*
X42945747Y-81170175D01*
X42945749Y-81170179D01*
X43032556Y-81313777D01*
X43032560Y-81313782D01*
X43151217Y-81432439D01*
X43151222Y-81432443D01*
X43271815Y-81505343D01*
X43294822Y-81519251D01*
X43455029Y-81569173D01*
X43524653Y-81575500D01*
X45795346Y-81575499D01*
X45795353Y-81575499D01*
X45864966Y-81569174D01*
X45864969Y-81569173D01*
X45864971Y-81569173D01*
X46025178Y-81519251D01*
X46099089Y-81474570D01*
X46168777Y-81432443D01*
X46168778Y-81432441D01*
X46168783Y-81432439D01*
X46287439Y-81313783D01*
X46374251Y-81170178D01*
X46424173Y-81009971D01*
X46430500Y-80940347D01*
X46430499Y-79939655D01*
X58129500Y-79939655D01*
X58129500Y-80940354D01*
X58135825Y-81009966D01*
X58135828Y-81009977D01*
X58185747Y-81170175D01*
X58185749Y-81170179D01*
X58272556Y-81313777D01*
X58272560Y-81313782D01*
X58391217Y-81432439D01*
X58391222Y-81432443D01*
X58511815Y-81505343D01*
X58534822Y-81519251D01*
X58695029Y-81569173D01*
X58764653Y-81575500D01*
X61035346Y-81575499D01*
X61035353Y-81575499D01*
X61104966Y-81569174D01*
X61104969Y-81569173D01*
X61104971Y-81569173D01*
X61265178Y-81519251D01*
X61339089Y-81474570D01*
X61408777Y-81432443D01*
X61408778Y-81432441D01*
X61408783Y-81432439D01*
X61527439Y-81313783D01*
X61614251Y-81170178D01*
X61664173Y-81009971D01*
X61670500Y-80940347D01*
X61670499Y-79939654D01*
X61670499Y-79939653D01*
X61670499Y-79939645D01*
X61664174Y-79870033D01*
X61664171Y-79870022D01*
X61614252Y-79709824D01*
X61614250Y-79709820D01*
X61527443Y-79566222D01*
X61527439Y-79566217D01*
X61408782Y-79447560D01*
X61408777Y-79447556D01*
X61265180Y-79360750D01*
X61265179Y-79360749D01*
X61265178Y-79360749D01*
X61104971Y-79310827D01*
X61104969Y-79310826D01*
X61104967Y-79310826D01*
X61056221Y-79306396D01*
X61035347Y-79304500D01*
X61035344Y-79304500D01*
X58764645Y-79304500D01*
X58695033Y-79310825D01*
X58695022Y-79310828D01*
X58534824Y-79360747D01*
X58534820Y-79360749D01*
X58391222Y-79447556D01*
X58391217Y-79447560D01*
X58272560Y-79566217D01*
X58272556Y-79566222D01*
X58185750Y-79709819D01*
X58135826Y-79870032D01*
X58129500Y-79939655D01*
X46430499Y-79939655D01*
X46430499Y-79939654D01*
X46430499Y-79939653D01*
X46430499Y-79939645D01*
X46424174Y-79870033D01*
X46424171Y-79870022D01*
X46374252Y-79709824D01*
X46374250Y-79709820D01*
X46287443Y-79566222D01*
X46287439Y-79566217D01*
X46168782Y-79447560D01*
X46168777Y-79447556D01*
X46025180Y-79360750D01*
X46025179Y-79360749D01*
X46025178Y-79360749D01*
X45864971Y-79310827D01*
X45864969Y-79310826D01*
X45864967Y-79310826D01*
X45816221Y-79306396D01*
X45795347Y-79304500D01*
X45795344Y-79304500D01*
X43524645Y-79304500D01*
X43455033Y-79310825D01*
X43455022Y-79310828D01*
X43294824Y-79360747D01*
X43294820Y-79360749D01*
X43151222Y-79447556D01*
X43151217Y-79447560D01*
X43032560Y-79566217D01*
X43032556Y-79566222D01*
X42945750Y-79709819D01*
X42895826Y-79870032D01*
X42889500Y-79939655D01*
X41500500Y-79939655D01*
X41500500Y-77399655D01*
X42889500Y-77399655D01*
X42889500Y-78400354D01*
X42895825Y-78469966D01*
X42895828Y-78469977D01*
X42945747Y-78630175D01*
X42945749Y-78630179D01*
X43032556Y-78773777D01*
X43032560Y-78773782D01*
X43151217Y-78892439D01*
X43151222Y-78892443D01*
X43271815Y-78965343D01*
X43294822Y-78979251D01*
X43455029Y-79029173D01*
X43524653Y-79035500D01*
X45795346Y-79035499D01*
X45795353Y-79035499D01*
X45864966Y-79029174D01*
X45864969Y-79029173D01*
X45864971Y-79029173D01*
X46025178Y-78979251D01*
X46099089Y-78934570D01*
X46168777Y-78892443D01*
X46168778Y-78892441D01*
X46168783Y-78892439D01*
X46287439Y-78773783D01*
X46374251Y-78630178D01*
X46424173Y-78469971D01*
X46430500Y-78400347D01*
X46430499Y-77399655D01*
X58129500Y-77399655D01*
X58129500Y-78400354D01*
X58135825Y-78469966D01*
X58135828Y-78469977D01*
X58185747Y-78630175D01*
X58185749Y-78630179D01*
X58272556Y-78773777D01*
X58272560Y-78773782D01*
X58391217Y-78892439D01*
X58391222Y-78892443D01*
X58511815Y-78965343D01*
X58534822Y-78979251D01*
X58695029Y-79029173D01*
X58764653Y-79035500D01*
X61035346Y-79035499D01*
X61035353Y-79035499D01*
X61104966Y-79029174D01*
X61104969Y-79029173D01*
X61104971Y-79029173D01*
X61265178Y-78979251D01*
X61339089Y-78934570D01*
X61408777Y-78892443D01*
X61408778Y-78892441D01*
X61408783Y-78892439D01*
X61527439Y-78773783D01*
X61614251Y-78630178D01*
X61664173Y-78469971D01*
X61670500Y-78400347D01*
X61670499Y-77399654D01*
X61670499Y-77399653D01*
X61670499Y-77399645D01*
X61664174Y-77330033D01*
X61664171Y-77330022D01*
X61614252Y-77169824D01*
X61614250Y-77169820D01*
X61527443Y-77026222D01*
X61527439Y-77026217D01*
X61408782Y-76907560D01*
X61408777Y-76907556D01*
X61265180Y-76820750D01*
X61265179Y-76820749D01*
X61265178Y-76820749D01*
X61104971Y-76770827D01*
X61104969Y-76770826D01*
X61104967Y-76770826D01*
X61056221Y-76766396D01*
X61035347Y-76764500D01*
X61035344Y-76764500D01*
X58764645Y-76764500D01*
X58695033Y-76770825D01*
X58695022Y-76770828D01*
X58534824Y-76820747D01*
X58534820Y-76820749D01*
X58391222Y-76907556D01*
X58391217Y-76907560D01*
X58272560Y-77026217D01*
X58272556Y-77026222D01*
X58185750Y-77169819D01*
X58135826Y-77330032D01*
X58129500Y-77399655D01*
X46430499Y-77399655D01*
X46430499Y-77399654D01*
X46430499Y-77399653D01*
X46430499Y-77399645D01*
X46424174Y-77330033D01*
X46424171Y-77330022D01*
X46374252Y-77169824D01*
X46374250Y-77169820D01*
X46287443Y-77026222D01*
X46287439Y-77026217D01*
X46168782Y-76907560D01*
X46168777Y-76907556D01*
X46025180Y-76820750D01*
X46025179Y-76820749D01*
X46025178Y-76820749D01*
X45864971Y-76770827D01*
X45864969Y-76770826D01*
X45864967Y-76770826D01*
X45816221Y-76766396D01*
X45795347Y-76764500D01*
X45795344Y-76764500D01*
X43524645Y-76764500D01*
X43455033Y-76770825D01*
X43455022Y-76770828D01*
X43294824Y-76820747D01*
X43294820Y-76820749D01*
X43151222Y-76907556D01*
X43151217Y-76907560D01*
X43032560Y-77026217D01*
X43032556Y-77026222D01*
X42945750Y-77169819D01*
X42895826Y-77330032D01*
X42889500Y-77399655D01*
X41500500Y-77399655D01*
X41500500Y-74859655D01*
X42889500Y-74859655D01*
X42889500Y-75860354D01*
X42895825Y-75929966D01*
X42895828Y-75929977D01*
X42945747Y-76090175D01*
X42945749Y-76090179D01*
X43032556Y-76233777D01*
X43032560Y-76233782D01*
X43151217Y-76352439D01*
X43151222Y-76352443D01*
X43271815Y-76425343D01*
X43294822Y-76439251D01*
X43455029Y-76489173D01*
X43524653Y-76495500D01*
X45795346Y-76495499D01*
X45795353Y-76495499D01*
X45864966Y-76489174D01*
X45864969Y-76489173D01*
X45864971Y-76489173D01*
X46025178Y-76439251D01*
X46099089Y-76394570D01*
X46168777Y-76352443D01*
X46168778Y-76352441D01*
X46168783Y-76352439D01*
X46287439Y-76233783D01*
X46374251Y-76090178D01*
X46424173Y-75929971D01*
X46430500Y-75860347D01*
X46430499Y-74859655D01*
X58129500Y-74859655D01*
X58129500Y-75860354D01*
X58135825Y-75929966D01*
X58135828Y-75929977D01*
X58185747Y-76090175D01*
X58185749Y-76090179D01*
X58272556Y-76233777D01*
X58272560Y-76233782D01*
X58391217Y-76352439D01*
X58391222Y-76352443D01*
X58511815Y-76425343D01*
X58534822Y-76439251D01*
X58695029Y-76489173D01*
X58764653Y-76495500D01*
X61035346Y-76495499D01*
X61035353Y-76495499D01*
X61104966Y-76489174D01*
X61104969Y-76489173D01*
X61104971Y-76489173D01*
X61265178Y-76439251D01*
X61339089Y-76394570D01*
X61408777Y-76352443D01*
X61408778Y-76352441D01*
X61408783Y-76352439D01*
X61527439Y-76233783D01*
X61614251Y-76090178D01*
X61664173Y-75929971D01*
X61670500Y-75860347D01*
X61670499Y-74859654D01*
X61670499Y-74859653D01*
X61670499Y-74859645D01*
X61664174Y-74790033D01*
X61664171Y-74790022D01*
X61614252Y-74629824D01*
X61614250Y-74629820D01*
X61527443Y-74486222D01*
X61527439Y-74486217D01*
X61408782Y-74367560D01*
X61408777Y-74367556D01*
X61265180Y-74280750D01*
X61265179Y-74280749D01*
X61265178Y-74280749D01*
X61104971Y-74230827D01*
X61104969Y-74230826D01*
X61104967Y-74230826D01*
X61056221Y-74226396D01*
X61035347Y-74224500D01*
X61035344Y-74224500D01*
X58764645Y-74224500D01*
X58695033Y-74230825D01*
X58695022Y-74230828D01*
X58534824Y-74280747D01*
X58534820Y-74280749D01*
X58391222Y-74367556D01*
X58391217Y-74367560D01*
X58272560Y-74486217D01*
X58272556Y-74486222D01*
X58185750Y-74629819D01*
X58135826Y-74790032D01*
X58129500Y-74859655D01*
X46430499Y-74859655D01*
X46430499Y-74859654D01*
X46430499Y-74859653D01*
X46430499Y-74859645D01*
X46424174Y-74790033D01*
X46424171Y-74790022D01*
X46374252Y-74629824D01*
X46374250Y-74629820D01*
X46287443Y-74486222D01*
X46287439Y-74486217D01*
X46168782Y-74367560D01*
X46168777Y-74367556D01*
X46025180Y-74280750D01*
X46025179Y-74280749D01*
X46025178Y-74280749D01*
X45864971Y-74230827D01*
X45864969Y-74230826D01*
X45864967Y-74230826D01*
X45816221Y-74226396D01*
X45795347Y-74224500D01*
X45795344Y-74224500D01*
X43524645Y-74224500D01*
X43455033Y-74230825D01*
X43455022Y-74230828D01*
X43294824Y-74280747D01*
X43294820Y-74280749D01*
X43151222Y-74367556D01*
X43151217Y-74367560D01*
X43032560Y-74486217D01*
X43032556Y-74486222D01*
X42945750Y-74629819D01*
X42895826Y-74790032D01*
X42889500Y-74859655D01*
X41500500Y-74859655D01*
X41500500Y-72319655D01*
X42889500Y-72319655D01*
X42889500Y-73320354D01*
X42895825Y-73389966D01*
X42895828Y-73389977D01*
X42945747Y-73550175D01*
X42945749Y-73550179D01*
X43032556Y-73693777D01*
X43032560Y-73693782D01*
X43151217Y-73812439D01*
X43151222Y-73812443D01*
X43271815Y-73885343D01*
X43294822Y-73899251D01*
X43455029Y-73949173D01*
X43524653Y-73955500D01*
X45795346Y-73955499D01*
X45795353Y-73955499D01*
X45864966Y-73949174D01*
X45864969Y-73949173D01*
X45864971Y-73949173D01*
X46025178Y-73899251D01*
X46126980Y-73837710D01*
X46168777Y-73812443D01*
X46168778Y-73812441D01*
X46168783Y-73812439D01*
X46287439Y-73693783D01*
X46374251Y-73550178D01*
X46424173Y-73389971D01*
X46430500Y-73320347D01*
X46430499Y-72319655D01*
X58129500Y-72319655D01*
X58129500Y-73320354D01*
X58135825Y-73389966D01*
X58135828Y-73389977D01*
X58185747Y-73550175D01*
X58185749Y-73550179D01*
X58272556Y-73693777D01*
X58272560Y-73693782D01*
X58391217Y-73812439D01*
X58391222Y-73812443D01*
X58511815Y-73885343D01*
X58534822Y-73899251D01*
X58695029Y-73949173D01*
X58764653Y-73955500D01*
X61035346Y-73955499D01*
X61035353Y-73955499D01*
X61104966Y-73949174D01*
X61104969Y-73949173D01*
X61104971Y-73949173D01*
X61265178Y-73899251D01*
X61366980Y-73837710D01*
X61408777Y-73812443D01*
X61408778Y-73812441D01*
X61408783Y-73812439D01*
X61527439Y-73693783D01*
X61614251Y-73550178D01*
X61664173Y-73389971D01*
X61670500Y-73320347D01*
X61670499Y-72319654D01*
X61670499Y-72319653D01*
X61670499Y-72319645D01*
X61664174Y-72250033D01*
X61664171Y-72250022D01*
X61614252Y-72089824D01*
X61614250Y-72089820D01*
X61527443Y-71946222D01*
X61527439Y-71946217D01*
X61408782Y-71827560D01*
X61408777Y-71827556D01*
X61265180Y-71740750D01*
X61265179Y-71740749D01*
X61265178Y-71740749D01*
X61104971Y-71690827D01*
X61104969Y-71690826D01*
X61104967Y-71690826D01*
X61056221Y-71686396D01*
X61035347Y-71684500D01*
X61035344Y-71684500D01*
X58764645Y-71684500D01*
X58695033Y-71690825D01*
X58695022Y-71690828D01*
X58534824Y-71740747D01*
X58534820Y-71740749D01*
X58391222Y-71827556D01*
X58391217Y-71827560D01*
X58272560Y-71946217D01*
X58272556Y-71946222D01*
X58185750Y-72089819D01*
X58135826Y-72250032D01*
X58129500Y-72319655D01*
X46430499Y-72319655D01*
X46430499Y-72319654D01*
X46430499Y-72319653D01*
X46430499Y-72319645D01*
X46424174Y-72250033D01*
X46424171Y-72250022D01*
X46374252Y-72089824D01*
X46374250Y-72089820D01*
X46287443Y-71946222D01*
X46287439Y-71946217D01*
X46168782Y-71827560D01*
X46168777Y-71827556D01*
X46025180Y-71740750D01*
X46025179Y-71740749D01*
X46025178Y-71740749D01*
X45864971Y-71690827D01*
X45864969Y-71690826D01*
X45864967Y-71690826D01*
X45816221Y-71686396D01*
X45795347Y-71684500D01*
X45795344Y-71684500D01*
X43524645Y-71684500D01*
X43455033Y-71690825D01*
X43455022Y-71690828D01*
X43294824Y-71740747D01*
X43294820Y-71740749D01*
X43151222Y-71827556D01*
X43151217Y-71827560D01*
X43032560Y-71946217D01*
X43032556Y-71946222D01*
X42945750Y-72089819D01*
X42895826Y-72250032D01*
X42889500Y-72319655D01*
X41500500Y-72319655D01*
X41500500Y-69779655D01*
X42889500Y-69779655D01*
X42889500Y-70780354D01*
X42895825Y-70849966D01*
X42895828Y-70849977D01*
X42945747Y-71010175D01*
X42945749Y-71010179D01*
X43032556Y-71153777D01*
X43032560Y-71153782D01*
X43151217Y-71272439D01*
X43151222Y-71272443D01*
X43271815Y-71345343D01*
X43294822Y-71359251D01*
X43455029Y-71409173D01*
X43524653Y-71415500D01*
X45795346Y-71415499D01*
X45795353Y-71415499D01*
X45864966Y-71409174D01*
X45864969Y-71409173D01*
X45864971Y-71409173D01*
X46025178Y-71359251D01*
X46122985Y-71300125D01*
X46168777Y-71272443D01*
X46168778Y-71272441D01*
X46168783Y-71272439D01*
X46287439Y-71153783D01*
X46374251Y-71010178D01*
X46424173Y-70849971D01*
X46430500Y-70780347D01*
X46430499Y-69779655D01*
X58129500Y-69779655D01*
X58129500Y-70780354D01*
X58135825Y-70849966D01*
X58135828Y-70849977D01*
X58185747Y-71010175D01*
X58185749Y-71010179D01*
X58272556Y-71153777D01*
X58272560Y-71153782D01*
X58391217Y-71272439D01*
X58391222Y-71272443D01*
X58511815Y-71345343D01*
X58534822Y-71359251D01*
X58695029Y-71409173D01*
X58764653Y-71415500D01*
X61035346Y-71415499D01*
X61035353Y-71415499D01*
X61104966Y-71409174D01*
X61104969Y-71409173D01*
X61104971Y-71409173D01*
X61265178Y-71359251D01*
X61362985Y-71300125D01*
X61408777Y-71272443D01*
X61408778Y-71272441D01*
X61408783Y-71272439D01*
X61527439Y-71153783D01*
X61614251Y-71010178D01*
X61664173Y-70849971D01*
X61670500Y-70780347D01*
X61670499Y-69779654D01*
X61670499Y-69779653D01*
X61670499Y-69779645D01*
X61664174Y-69710033D01*
X61664171Y-69710022D01*
X61614252Y-69549824D01*
X61614250Y-69549820D01*
X61527443Y-69406222D01*
X61527439Y-69406217D01*
X61408782Y-69287560D01*
X61408777Y-69287556D01*
X61265180Y-69200750D01*
X61265179Y-69200749D01*
X61265178Y-69200749D01*
X61104971Y-69150827D01*
X61104969Y-69150826D01*
X61104967Y-69150826D01*
X61056221Y-69146396D01*
X61035347Y-69144500D01*
X61035344Y-69144500D01*
X58764645Y-69144500D01*
X58695033Y-69150825D01*
X58695022Y-69150828D01*
X58534824Y-69200747D01*
X58534820Y-69200749D01*
X58391222Y-69287556D01*
X58391217Y-69287560D01*
X58272560Y-69406217D01*
X58272556Y-69406222D01*
X58185750Y-69549819D01*
X58135826Y-69710032D01*
X58129500Y-69779655D01*
X46430499Y-69779655D01*
X46430499Y-69779654D01*
X46430499Y-69779653D01*
X46430499Y-69779645D01*
X46424174Y-69710033D01*
X46424171Y-69710022D01*
X46374252Y-69549824D01*
X46374250Y-69549820D01*
X46287443Y-69406222D01*
X46287439Y-69406217D01*
X46168782Y-69287560D01*
X46168777Y-69287556D01*
X46025180Y-69200750D01*
X46025179Y-69200749D01*
X46025178Y-69200749D01*
X45864971Y-69150827D01*
X45864969Y-69150826D01*
X45864967Y-69150826D01*
X45816221Y-69146396D01*
X45795347Y-69144500D01*
X45795344Y-69144500D01*
X43524645Y-69144500D01*
X43455033Y-69150825D01*
X43455022Y-69150828D01*
X43294824Y-69200747D01*
X43294820Y-69200749D01*
X43151222Y-69287556D01*
X43151217Y-69287560D01*
X43032560Y-69406217D01*
X43032556Y-69406222D01*
X42945750Y-69549819D01*
X42895826Y-69710032D01*
X42889500Y-69779655D01*
X41500500Y-69779655D01*
X41500500Y-67239655D01*
X42889500Y-67239655D01*
X42889500Y-68240354D01*
X42895825Y-68309966D01*
X42895828Y-68309977D01*
X42945747Y-68470175D01*
X42945749Y-68470179D01*
X43032556Y-68613777D01*
X43032560Y-68613782D01*
X43151217Y-68732439D01*
X43151222Y-68732443D01*
X43271815Y-68805343D01*
X43294822Y-68819251D01*
X43455029Y-68869173D01*
X43524653Y-68875500D01*
X45795346Y-68875499D01*
X45795353Y-68875499D01*
X45864966Y-68869174D01*
X45864969Y-68869173D01*
X45864971Y-68869173D01*
X46025178Y-68819251D01*
X46099089Y-68774570D01*
X46168777Y-68732443D01*
X46168778Y-68732441D01*
X46168783Y-68732439D01*
X46287439Y-68613783D01*
X46374251Y-68470178D01*
X46424173Y-68309971D01*
X46430500Y-68240347D01*
X46430499Y-67239655D01*
X58129500Y-67239655D01*
X58129500Y-68240354D01*
X58135825Y-68309966D01*
X58135828Y-68309977D01*
X58185747Y-68470175D01*
X58185749Y-68470179D01*
X58272556Y-68613777D01*
X58272560Y-68613782D01*
X58391217Y-68732439D01*
X58391222Y-68732443D01*
X58511815Y-68805343D01*
X58534822Y-68819251D01*
X58695029Y-68869173D01*
X58764653Y-68875500D01*
X61035346Y-68875499D01*
X61035353Y-68875499D01*
X61104966Y-68869174D01*
X61104969Y-68869173D01*
X61104971Y-68869173D01*
X61265178Y-68819251D01*
X61339089Y-68774570D01*
X61408777Y-68732443D01*
X61408778Y-68732441D01*
X61408783Y-68732439D01*
X61527439Y-68613783D01*
X61614251Y-68470178D01*
X61664173Y-68309971D01*
X61670500Y-68240347D01*
X61670499Y-67239654D01*
X61670499Y-67239653D01*
X61670499Y-67239645D01*
X61664174Y-67170033D01*
X61664171Y-67170022D01*
X61614252Y-67009824D01*
X61614250Y-67009820D01*
X61527443Y-66866222D01*
X61527439Y-66866217D01*
X61408782Y-66747560D01*
X61408777Y-66747556D01*
X61265180Y-66660750D01*
X61265179Y-66660749D01*
X61265178Y-66660749D01*
X61104971Y-66610827D01*
X61104969Y-66610826D01*
X61104967Y-66610826D01*
X61056221Y-66606396D01*
X61035347Y-66604500D01*
X61035344Y-66604500D01*
X58764645Y-66604500D01*
X58695033Y-66610825D01*
X58695022Y-66610828D01*
X58534824Y-66660747D01*
X58534820Y-66660749D01*
X58391222Y-66747556D01*
X58391217Y-66747560D01*
X58272560Y-66866217D01*
X58272556Y-66866222D01*
X58185750Y-67009819D01*
X58135826Y-67170032D01*
X58129500Y-67239655D01*
X46430499Y-67239655D01*
X46430499Y-67239654D01*
X46430499Y-67239653D01*
X46430499Y-67239645D01*
X46424174Y-67170033D01*
X46424171Y-67170022D01*
X46374252Y-67009824D01*
X46374250Y-67009820D01*
X46287443Y-66866222D01*
X46287439Y-66866217D01*
X46168782Y-66747560D01*
X46168777Y-66747556D01*
X46025180Y-66660750D01*
X46025179Y-66660749D01*
X46025178Y-66660749D01*
X45864971Y-66610827D01*
X45864969Y-66610826D01*
X45864967Y-66610826D01*
X45816221Y-66606396D01*
X45795347Y-66604500D01*
X45795344Y-66604500D01*
X43524645Y-66604500D01*
X43455033Y-66610825D01*
X43455022Y-66610828D01*
X43294824Y-66660747D01*
X43294820Y-66660749D01*
X43151222Y-66747556D01*
X43151217Y-66747560D01*
X43032560Y-66866217D01*
X43032556Y-66866222D01*
X42945750Y-67009819D01*
X42895826Y-67170032D01*
X42889500Y-67239655D01*
X41500500Y-67239655D01*
X41500500Y-64699655D01*
X42889500Y-64699655D01*
X42889500Y-65700354D01*
X42895825Y-65769966D01*
X42895828Y-65769977D01*
X42945747Y-65930175D01*
X42945749Y-65930179D01*
X43032556Y-66073777D01*
X43032560Y-66073782D01*
X43151217Y-66192439D01*
X43151222Y-66192443D01*
X43271815Y-66265343D01*
X43294822Y-66279251D01*
X43455029Y-66329173D01*
X43524653Y-66335500D01*
X45795346Y-66335499D01*
X45795353Y-66335499D01*
X45864966Y-66329174D01*
X45864969Y-66329173D01*
X45864971Y-66329173D01*
X46025178Y-66279251D01*
X46099089Y-66234570D01*
X46168777Y-66192443D01*
X46168778Y-66192441D01*
X46168783Y-66192439D01*
X46287439Y-66073783D01*
X46374251Y-65930178D01*
X46424173Y-65769971D01*
X46430500Y-65700347D01*
X46430499Y-64699655D01*
X58129500Y-64699655D01*
X58129500Y-65700354D01*
X58135825Y-65769966D01*
X58135828Y-65769977D01*
X58185747Y-65930175D01*
X58185749Y-65930179D01*
X58272556Y-66073777D01*
X58272560Y-66073782D01*
X58391217Y-66192439D01*
X58391222Y-66192443D01*
X58511815Y-66265343D01*
X58534822Y-66279251D01*
X58695029Y-66329173D01*
X58764653Y-66335500D01*
X61035346Y-66335499D01*
X61035353Y-66335499D01*
X61104966Y-66329174D01*
X61104969Y-66329173D01*
X61104971Y-66329173D01*
X61265178Y-66279251D01*
X61339089Y-66234570D01*
X61408777Y-66192443D01*
X61408778Y-66192441D01*
X61408783Y-66192439D01*
X61527439Y-66073783D01*
X61614251Y-65930178D01*
X61664173Y-65769971D01*
X61670500Y-65700347D01*
X61670499Y-64699654D01*
X61670499Y-64699653D01*
X61670499Y-64699645D01*
X61664174Y-64630033D01*
X61664171Y-64630022D01*
X61614252Y-64469824D01*
X61614250Y-64469820D01*
X61527443Y-64326222D01*
X61527439Y-64326217D01*
X61408782Y-64207560D01*
X61408777Y-64207556D01*
X61265180Y-64120750D01*
X61265179Y-64120749D01*
X61265178Y-64120749D01*
X61104971Y-64070827D01*
X61104969Y-64070826D01*
X61104967Y-64070826D01*
X61056221Y-64066396D01*
X61035347Y-64064500D01*
X61035344Y-64064500D01*
X58764645Y-64064500D01*
X58695033Y-64070825D01*
X58695022Y-64070828D01*
X58534824Y-64120747D01*
X58534820Y-64120749D01*
X58391222Y-64207556D01*
X58391217Y-64207560D01*
X58272560Y-64326217D01*
X58272556Y-64326222D01*
X58185750Y-64469819D01*
X58135826Y-64630032D01*
X58129500Y-64699655D01*
X46430499Y-64699655D01*
X46430499Y-64699654D01*
X46430499Y-64699653D01*
X46430499Y-64699645D01*
X46424174Y-64630033D01*
X46424171Y-64630022D01*
X46374252Y-64469824D01*
X46374250Y-64469820D01*
X46287443Y-64326222D01*
X46287439Y-64326217D01*
X46168782Y-64207560D01*
X46168777Y-64207556D01*
X46025180Y-64120750D01*
X46025179Y-64120749D01*
X46025178Y-64120749D01*
X45864971Y-64070827D01*
X45864969Y-64070826D01*
X45864967Y-64070826D01*
X45816221Y-64066396D01*
X45795347Y-64064500D01*
X45795344Y-64064500D01*
X43524645Y-64064500D01*
X43455033Y-64070825D01*
X43455022Y-64070828D01*
X43294824Y-64120747D01*
X43294820Y-64120749D01*
X43151222Y-64207556D01*
X43151217Y-64207560D01*
X43032560Y-64326217D01*
X43032556Y-64326222D01*
X42945750Y-64469819D01*
X42895826Y-64630032D01*
X42889500Y-64699655D01*
X41500500Y-64699655D01*
X41500500Y-62159655D01*
X42889500Y-62159655D01*
X42889500Y-63160354D01*
X42895825Y-63229966D01*
X42895828Y-63229977D01*
X42945747Y-63390175D01*
X42945749Y-63390179D01*
X43032556Y-63533777D01*
X43032560Y-63533782D01*
X43151217Y-63652439D01*
X43151222Y-63652443D01*
X43271815Y-63725343D01*
X43294822Y-63739251D01*
X43455029Y-63789173D01*
X43524653Y-63795500D01*
X45795346Y-63795499D01*
X45795353Y-63795499D01*
X45864966Y-63789174D01*
X45864969Y-63789173D01*
X45864971Y-63789173D01*
X46025178Y-63739251D01*
X46149105Y-63664335D01*
X46168777Y-63652443D01*
X46168778Y-63652441D01*
X46168783Y-63652439D01*
X46287439Y-63533783D01*
X46374251Y-63390178D01*
X46424173Y-63229971D01*
X46430500Y-63160347D01*
X46430499Y-62159655D01*
X58129500Y-62159655D01*
X58129500Y-63160354D01*
X58135825Y-63229966D01*
X58135828Y-63229977D01*
X58185747Y-63390175D01*
X58185749Y-63390179D01*
X58272556Y-63533777D01*
X58272560Y-63533782D01*
X58391217Y-63652439D01*
X58391222Y-63652443D01*
X58511815Y-63725343D01*
X58534822Y-63739251D01*
X58695029Y-63789173D01*
X58764653Y-63795500D01*
X61035346Y-63795499D01*
X61035353Y-63795499D01*
X61104966Y-63789174D01*
X61104969Y-63789173D01*
X61104971Y-63789173D01*
X61265178Y-63739251D01*
X61389105Y-63664335D01*
X61408777Y-63652443D01*
X61408778Y-63652441D01*
X61408783Y-63652439D01*
X61527439Y-63533783D01*
X61614251Y-63390178D01*
X61664173Y-63229971D01*
X61670500Y-63160347D01*
X61670499Y-62159654D01*
X61670499Y-62159653D01*
X61670499Y-62159645D01*
X61664174Y-62090033D01*
X61664171Y-62090022D01*
X61614252Y-61929824D01*
X61614250Y-61929820D01*
X61527443Y-61786222D01*
X61527439Y-61786217D01*
X61408782Y-61667560D01*
X61408777Y-61667556D01*
X61265180Y-61580750D01*
X61265179Y-61580749D01*
X61265178Y-61580749D01*
X61104971Y-61530827D01*
X61104969Y-61530826D01*
X61104967Y-61530826D01*
X61056221Y-61526396D01*
X61035347Y-61524500D01*
X61035344Y-61524500D01*
X58764645Y-61524500D01*
X58695033Y-61530825D01*
X58695022Y-61530828D01*
X58534824Y-61580747D01*
X58534820Y-61580749D01*
X58391222Y-61667556D01*
X58391217Y-61667560D01*
X58272560Y-61786217D01*
X58272556Y-61786222D01*
X58185750Y-61929819D01*
X58135826Y-62090032D01*
X58129500Y-62159655D01*
X46430499Y-62159655D01*
X46430499Y-62159654D01*
X46430499Y-62159653D01*
X46430499Y-62159645D01*
X46424174Y-62090033D01*
X46424171Y-62090022D01*
X46374252Y-61929824D01*
X46374250Y-61929820D01*
X46287443Y-61786222D01*
X46287439Y-61786217D01*
X46168782Y-61667560D01*
X46168777Y-61667556D01*
X46025180Y-61580750D01*
X46025179Y-61580749D01*
X46025178Y-61580749D01*
X45864971Y-61530827D01*
X45864969Y-61530826D01*
X45864967Y-61530826D01*
X45816221Y-61526396D01*
X45795347Y-61524500D01*
X45795344Y-61524500D01*
X43524645Y-61524500D01*
X43455033Y-61530825D01*
X43455022Y-61530828D01*
X43294824Y-61580747D01*
X43294820Y-61580749D01*
X43151222Y-61667556D01*
X43151217Y-61667560D01*
X43032560Y-61786217D01*
X43032556Y-61786222D01*
X42945750Y-61929819D01*
X42895826Y-62090032D01*
X42889500Y-62159655D01*
X41500500Y-62159655D01*
X41500500Y-59619655D01*
X42889500Y-59619655D01*
X42889500Y-60620354D01*
X42895825Y-60689966D01*
X42895828Y-60689977D01*
X42945747Y-60850175D01*
X42945749Y-60850179D01*
X43032556Y-60993777D01*
X43032560Y-60993782D01*
X43151217Y-61112439D01*
X43151222Y-61112443D01*
X43271815Y-61185343D01*
X43294822Y-61199251D01*
X43455029Y-61249173D01*
X43524653Y-61255500D01*
X45795346Y-61255499D01*
X45795353Y-61255499D01*
X45864966Y-61249174D01*
X45864969Y-61249173D01*
X45864971Y-61249173D01*
X46025178Y-61199251D01*
X46099089Y-61154570D01*
X46168777Y-61112443D01*
X46168778Y-61112441D01*
X46168783Y-61112439D01*
X46287439Y-60993783D01*
X46301705Y-60970185D01*
X46335065Y-60915000D01*
X46374251Y-60850178D01*
X46424173Y-60689971D01*
X46430500Y-60620347D01*
X46430499Y-59619655D01*
X58129500Y-59619655D01*
X58129500Y-60620354D01*
X58135825Y-60689966D01*
X58135828Y-60689977D01*
X58185747Y-60850175D01*
X58185749Y-60850179D01*
X58272556Y-60993777D01*
X58272560Y-60993782D01*
X58391217Y-61112439D01*
X58391222Y-61112443D01*
X58511815Y-61185343D01*
X58534822Y-61199251D01*
X58695029Y-61249173D01*
X58764653Y-61255500D01*
X61035346Y-61255499D01*
X61035353Y-61255499D01*
X61104966Y-61249174D01*
X61104969Y-61249173D01*
X61104971Y-61249173D01*
X61265178Y-61199251D01*
X61339089Y-61154570D01*
X61408777Y-61112443D01*
X61408778Y-61112441D01*
X61408783Y-61112439D01*
X61527439Y-60993783D01*
X61541705Y-60970185D01*
X61575065Y-60915000D01*
X61614251Y-60850178D01*
X61664173Y-60689971D01*
X61670500Y-60620347D01*
X61670499Y-59619654D01*
X61670499Y-59619653D01*
X61670499Y-59619645D01*
X61664174Y-59550033D01*
X61664171Y-59550022D01*
X61614252Y-59389824D01*
X61614250Y-59389820D01*
X61527443Y-59246222D01*
X61527439Y-59246217D01*
X61408782Y-59127560D01*
X61408777Y-59127556D01*
X61265180Y-59040750D01*
X61265179Y-59040749D01*
X61265178Y-59040749D01*
X61104971Y-58990827D01*
X61104969Y-58990826D01*
X61104967Y-58990826D01*
X61056221Y-58986396D01*
X61035347Y-58984500D01*
X61035344Y-58984500D01*
X58764645Y-58984500D01*
X58695033Y-58990825D01*
X58695022Y-58990828D01*
X58534824Y-59040747D01*
X58534820Y-59040749D01*
X58391222Y-59127556D01*
X58391217Y-59127560D01*
X58272560Y-59246217D01*
X58272556Y-59246222D01*
X58185750Y-59389819D01*
X58135826Y-59550032D01*
X58129500Y-59619655D01*
X46430499Y-59619655D01*
X46430499Y-59619654D01*
X46430499Y-59619653D01*
X46430499Y-59619645D01*
X46424174Y-59550033D01*
X46424171Y-59550022D01*
X46374252Y-59389824D01*
X46374250Y-59389820D01*
X46287443Y-59246222D01*
X46287439Y-59246217D01*
X46168782Y-59127560D01*
X46168777Y-59127556D01*
X46025180Y-59040750D01*
X46025179Y-59040749D01*
X46025178Y-59040749D01*
X45864971Y-58990827D01*
X45864969Y-58990826D01*
X45864967Y-58990826D01*
X45816221Y-58986396D01*
X45795347Y-58984500D01*
X45795344Y-58984500D01*
X45762308Y-58984500D01*
X45695269Y-58964815D01*
X45674627Y-58948181D01*
X44706446Y-57980000D01*
X44712661Y-57980000D01*
X44814394Y-57952741D01*
X44905606Y-57900080D01*
X44980080Y-57825606D01*
X45032741Y-57734394D01*
X45060000Y-57632661D01*
X45060000Y-57626446D01*
X46075880Y-58642327D01*
X46075883Y-58642327D01*
X46134855Y-58565475D01*
X46250867Y-58364538D01*
X46250875Y-58364521D01*
X46339663Y-58150167D01*
X46399713Y-57926053D01*
X46399716Y-57926040D01*
X46429998Y-57696022D01*
X46430000Y-57696005D01*
X46430000Y-57463994D01*
X46429998Y-57463977D01*
X46399716Y-57233959D01*
X46399713Y-57233946D01*
X46366218Y-57108936D01*
X46358372Y-57079655D01*
X58129500Y-57079655D01*
X58129500Y-58080354D01*
X58135825Y-58149966D01*
X58135828Y-58149977D01*
X58185747Y-58310175D01*
X58185749Y-58310179D01*
X58272556Y-58453777D01*
X58272560Y-58453782D01*
X58391217Y-58572439D01*
X58391222Y-58572443D01*
X58506826Y-58642327D01*
X58534822Y-58659251D01*
X58695029Y-58709173D01*
X58764653Y-58715500D01*
X61035346Y-58715499D01*
X61035353Y-58715499D01*
X61104966Y-58709174D01*
X61104969Y-58709173D01*
X61104971Y-58709173D01*
X61265178Y-58659251D01*
X61339089Y-58614570D01*
X61408777Y-58572443D01*
X61408778Y-58572441D01*
X61408783Y-58572439D01*
X61527439Y-58453783D01*
X61614251Y-58310178D01*
X61664173Y-58149971D01*
X61670500Y-58080347D01*
X61670499Y-57079654D01*
X61670499Y-57079653D01*
X61670499Y-57079645D01*
X61664174Y-57010033D01*
X61664171Y-57010022D01*
X61614252Y-56849824D01*
X61614250Y-56849820D01*
X61527443Y-56706222D01*
X61527439Y-56706217D01*
X61408782Y-56587560D01*
X61408777Y-56587556D01*
X61265180Y-56500750D01*
X61265179Y-56500749D01*
X61265178Y-56500749D01*
X61104971Y-56450827D01*
X61104969Y-56450826D01*
X61104967Y-56450826D01*
X61056221Y-56446396D01*
X61035347Y-56444500D01*
X61035344Y-56444500D01*
X58764645Y-56444500D01*
X58695033Y-56450825D01*
X58695022Y-56450828D01*
X58534824Y-56500747D01*
X58534820Y-56500749D01*
X58391222Y-56587556D01*
X58391217Y-56587560D01*
X58272560Y-56706217D01*
X58272556Y-56706222D01*
X58185750Y-56849819D01*
X58135826Y-57010032D01*
X58129500Y-57079655D01*
X46358372Y-57079655D01*
X46339662Y-57009830D01*
X46250875Y-56795478D01*
X46250867Y-56795461D01*
X46134863Y-56594538D01*
X46134857Y-56594530D01*
X46075881Y-56517671D01*
X45060000Y-57533552D01*
X45060000Y-57527339D01*
X45032741Y-57425606D01*
X44980080Y-57334394D01*
X44905606Y-57259920D01*
X44814394Y-57207259D01*
X44712661Y-57180000D01*
X44706447Y-57180000D01*
X45722327Y-56164117D01*
X45645469Y-56105142D01*
X45645461Y-56105136D01*
X45444538Y-55989132D01*
X45444521Y-55989124D01*
X45230167Y-55900336D01*
X45006053Y-55840286D01*
X45006040Y-55840283D01*
X44776022Y-55810001D01*
X44776005Y-55810000D01*
X44543995Y-55810000D01*
X44543977Y-55810001D01*
X44313959Y-55840283D01*
X44313946Y-55840286D01*
X44089832Y-55900336D01*
X43875478Y-55989124D01*
X43875461Y-55989132D01*
X43674541Y-56105134D01*
X43674533Y-56105140D01*
X43597671Y-56164116D01*
X43597671Y-56164117D01*
X44613554Y-57180000D01*
X44607339Y-57180000D01*
X44505606Y-57207259D01*
X44414394Y-57259920D01*
X44339920Y-57334394D01*
X44287259Y-57425606D01*
X44260000Y-57527339D01*
X44260000Y-57533554D01*
X43244117Y-56517671D01*
X43244116Y-56517671D01*
X43185140Y-56594533D01*
X43185134Y-56594541D01*
X43069132Y-56795461D01*
X43069124Y-56795478D01*
X42980336Y-57009832D01*
X42920286Y-57233946D01*
X42920283Y-57233959D01*
X42890001Y-57463977D01*
X42890000Y-57463994D01*
X42890000Y-57696005D01*
X42890001Y-57696022D01*
X42920283Y-57926040D01*
X42920286Y-57926053D01*
X42980336Y-58150167D01*
X43069124Y-58364521D01*
X43069132Y-58364538D01*
X43185136Y-58565461D01*
X43185142Y-58565469D01*
X43244117Y-58642327D01*
X44260000Y-57626445D01*
X44260000Y-57632661D01*
X44287259Y-57734394D01*
X44339920Y-57825606D01*
X44414394Y-57900080D01*
X44505606Y-57952741D01*
X44607339Y-57980000D01*
X44613554Y-57980000D01*
X43645371Y-58948181D01*
X43584048Y-58981666D01*
X43557693Y-58984500D01*
X43524656Y-58984500D01*
X43524653Y-58984501D01*
X43455033Y-58990825D01*
X43455022Y-58990828D01*
X43294824Y-59040747D01*
X43294820Y-59040749D01*
X43151222Y-59127556D01*
X43151217Y-59127560D01*
X43032560Y-59246217D01*
X43032556Y-59246222D01*
X42945750Y-59389819D01*
X42895826Y-59550032D01*
X42889500Y-59619655D01*
X41500500Y-59619655D01*
X41500500Y-55624500D01*
X41520185Y-55557461D01*
X41572989Y-55511706D01*
X41624500Y-55500500D01*
X77375500Y-55500500D01*
X77442539Y-55520185D01*
G37*
G04 #@! TD.AperFunction*
M02*
