%TF.GenerationSoftware,KiCad,Pcbnew,9.0.2*%
%TF.CreationDate,2025-07-17T17:15:00-07:00*%
%TF.ProjectId,fsrPrototype2,66737250-726f-4746-9f74-797065322e6b,rev?*%
%TF.SameCoordinates,Original*%
%TF.FileFunction,Drillmap*%
%TF.FilePolarity,Positive*%
%FSLAX45Y45*%
G04 Gerber Fmt 4.5, Leading zero omitted, Abs format (unit mm)*
G04 Created by KiCad (PCBNEW 9.0.2) date 2025-07-17 17:15:00*
%MOMM*%
%LPD*%
G01*
G04 APERTURE LIST*
%ADD10C,0.050000*%
%ADD11C,0.200000*%
G04 APERTURE END LIST*
D10*
X20200000Y-4800000D02*
X20100000Y-4800000D01*
X20200000Y-4900000D02*
X20200000Y-4800000D01*
X20200000Y-14100000D02*
X20200000Y-14000000D01*
X20100000Y-14100000D02*
X20200000Y-14100000D01*
X10200000Y-14100000D02*
X10300000Y-14100000D01*
X10200000Y-14000000D02*
X10200000Y-14100000D01*
X10200000Y-4800000D02*
X10300000Y-4800000D01*
X10200000Y-4900000D02*
X10200000Y-4800000D01*
X20080000Y-5070000D02*
G75*
G02*
X19756270Y-5070000I-161865J0D01*
G01*
X19756270Y-5070000D02*
G75*
G02*
X20080000Y-5070000I161865J0D01*
G01*
X10200000Y-4900000D02*
X10200000Y-14000000D01*
X20086865Y-13816865D02*
G75*
G02*
X19763135Y-13816865I-161865J0D01*
G01*
X19763135Y-13816865D02*
G75*
G02*
X20086865Y-13816865I161865J0D01*
G01*
X10635000Y-13820000D02*
G75*
G02*
X10311270Y-13820000I-161865J0D01*
G01*
X10311270Y-13820000D02*
G75*
G02*
X10635000Y-13820000I161865J0D01*
G01*
X10635000Y-5075000D02*
G75*
G02*
X10311270Y-5075000I-161865J0D01*
G01*
X10311270Y-5075000D02*
G75*
G02*
X10635000Y-5075000I161865J0D01*
G01*
X20100000Y-4800000D02*
X10300000Y-4800000D01*
X20200000Y-14000000D02*
X20200000Y-4900000D01*
X10300000Y-14100000D02*
X20100000Y-14100000D01*
D11*
X10458277Y-14413984D02*
X10458277Y-14213984D01*
X10458277Y-14213984D02*
X10505896Y-14213984D01*
X10505896Y-14213984D02*
X10534467Y-14223508D01*
X10534467Y-14223508D02*
X10553515Y-14242555D01*
X10553515Y-14242555D02*
X10563039Y-14261603D01*
X10563039Y-14261603D02*
X10572563Y-14299698D01*
X10572563Y-14299698D02*
X10572563Y-14328269D01*
X10572563Y-14328269D02*
X10563039Y-14366365D01*
X10563039Y-14366365D02*
X10553515Y-14385412D01*
X10553515Y-14385412D02*
X10534467Y-14404460D01*
X10534467Y-14404460D02*
X10505896Y-14413984D01*
X10505896Y-14413984D02*
X10458277Y-14413984D01*
X10658277Y-14413984D02*
X10658277Y-14280650D01*
X10658277Y-14318746D02*
X10667801Y-14299698D01*
X10667801Y-14299698D02*
X10677324Y-14290174D01*
X10677324Y-14290174D02*
X10696372Y-14280650D01*
X10696372Y-14280650D02*
X10715420Y-14280650D01*
X10782086Y-14413984D02*
X10782086Y-14280650D01*
X10782086Y-14213984D02*
X10772563Y-14223508D01*
X10772563Y-14223508D02*
X10782086Y-14233031D01*
X10782086Y-14233031D02*
X10791610Y-14223508D01*
X10791610Y-14223508D02*
X10782086Y-14213984D01*
X10782086Y-14213984D02*
X10782086Y-14233031D01*
X10905896Y-14413984D02*
X10886848Y-14404460D01*
X10886848Y-14404460D02*
X10877324Y-14385412D01*
X10877324Y-14385412D02*
X10877324Y-14213984D01*
X11010658Y-14413984D02*
X10991610Y-14404460D01*
X10991610Y-14404460D02*
X10982086Y-14385412D01*
X10982086Y-14385412D02*
X10982086Y-14213984D01*
X11239229Y-14413984D02*
X11239229Y-14213984D01*
X11239229Y-14213984D02*
X11305896Y-14356841D01*
X11305896Y-14356841D02*
X11372562Y-14213984D01*
X11372562Y-14213984D02*
X11372562Y-14413984D01*
X11553515Y-14413984D02*
X11553515Y-14309222D01*
X11553515Y-14309222D02*
X11543991Y-14290174D01*
X11543991Y-14290174D02*
X11524943Y-14280650D01*
X11524943Y-14280650D02*
X11486848Y-14280650D01*
X11486848Y-14280650D02*
X11467801Y-14290174D01*
X11553515Y-14404460D02*
X11534467Y-14413984D01*
X11534467Y-14413984D02*
X11486848Y-14413984D01*
X11486848Y-14413984D02*
X11467801Y-14404460D01*
X11467801Y-14404460D02*
X11458277Y-14385412D01*
X11458277Y-14385412D02*
X11458277Y-14366365D01*
X11458277Y-14366365D02*
X11467801Y-14347317D01*
X11467801Y-14347317D02*
X11486848Y-14337793D01*
X11486848Y-14337793D02*
X11534467Y-14337793D01*
X11534467Y-14337793D02*
X11553515Y-14328269D01*
X11648753Y-14280650D02*
X11648753Y-14480650D01*
X11648753Y-14290174D02*
X11667801Y-14280650D01*
X11667801Y-14280650D02*
X11705896Y-14280650D01*
X11705896Y-14280650D02*
X11724943Y-14290174D01*
X11724943Y-14290174D02*
X11734467Y-14299698D01*
X11734467Y-14299698D02*
X11743991Y-14318746D01*
X11743991Y-14318746D02*
X11743991Y-14375888D01*
X11743991Y-14375888D02*
X11734467Y-14394936D01*
X11734467Y-14394936D02*
X11724943Y-14404460D01*
X11724943Y-14404460D02*
X11705896Y-14413984D01*
X11705896Y-14413984D02*
X11667801Y-14413984D01*
X11667801Y-14413984D02*
X11648753Y-14404460D01*
X11829705Y-14394936D02*
X11839229Y-14404460D01*
X11839229Y-14404460D02*
X11829705Y-14413984D01*
X11829705Y-14413984D02*
X11820182Y-14404460D01*
X11820182Y-14404460D02*
X11829705Y-14394936D01*
X11829705Y-14394936D02*
X11829705Y-14413984D01*
X11829705Y-14290174D02*
X11839229Y-14299698D01*
X11839229Y-14299698D02*
X11829705Y-14309222D01*
X11829705Y-14309222D02*
X11820182Y-14299698D01*
X11820182Y-14299698D02*
X11829705Y-14290174D01*
X11829705Y-14290174D02*
X11829705Y-14309222D01*
M02*
