G04 #@! TF.GenerationSoftware,KiCad,Pcbnew,9.0.2*
G04 #@! TF.CreationDate,2025-07-17T17:13:56-07:00*
G04 #@! TF.ProjectId,fsrPrototype2,66737250-726f-4746-9f74-797065322e6b,rev?*
G04 #@! TF.SameCoordinates,Original*
G04 #@! TF.FileFunction,Profile,NP*
%FSLAX46Y46*%
G04 Gerber Fmt 4.6, Leading zero omitted, Abs format (unit mm)*
G04 Created by KiCad (PCBNEW 9.0.2) date 2025-07-17 17:13:56*
%MOMM*%
%LPD*%
G01*
G04 APERTURE LIST*
G04 #@! TA.AperFunction,Profile*
%ADD10C,0.050000*%
G04 #@! TD*
G04 APERTURE END LIST*
D10*
X202000000Y-48000000D02*
X201000000Y-48000000D01*
X202000000Y-49000000D02*
X202000000Y-48000000D01*
X202000000Y-141000000D02*
X202000000Y-140000000D01*
X201000000Y-141000000D02*
X202000000Y-141000000D01*
X102000000Y-141000000D02*
X103000000Y-141000000D01*
X102000000Y-140000000D02*
X102000000Y-141000000D01*
X102000000Y-48000000D02*
X103000000Y-48000000D01*
X102000000Y-49000000D02*
X102000000Y-48000000D01*
X200800000Y-50700000D02*
G75*
G02*
X197562704Y-50700000I-1618648J0D01*
G01*
X197562704Y-50700000D02*
G75*
G02*
X200800000Y-50700000I1618648J0D01*
G01*
X102000000Y-49000000D02*
X102000000Y-140000000D01*
X200868648Y-138168648D02*
G75*
G02*
X197631352Y-138168648I-1618648J0D01*
G01*
X197631352Y-138168648D02*
G75*
G02*
X200868648Y-138168648I1618648J0D01*
G01*
X106350000Y-138200000D02*
G75*
G02*
X103112704Y-138200000I-1618648J0D01*
G01*
X103112704Y-138200000D02*
G75*
G02*
X106350000Y-138200000I1618648J0D01*
G01*
X106350000Y-50750000D02*
G75*
G02*
X103112704Y-50750000I-1618648J0D01*
G01*
X103112704Y-50750000D02*
G75*
G02*
X106350000Y-50750000I1618648J0D01*
G01*
X201000000Y-48000000D02*
X103000000Y-48000000D01*
X202000000Y-140000000D02*
X202000000Y-49000000D01*
X103000000Y-141000000D02*
X201000000Y-141000000D01*
M02*
