G04 #@! TF.GenerationSoftware,KiCad,Pcbnew,9.0.2*
G04 #@! TF.CreationDate,2025-07-17T17:13:56-07:00*
G04 #@! TF.ProjectId,fsrPrototype2,66737250-726f-4746-9f74-797065322e6b,rev?*
G04 #@! TF.SameCoordinates,Original*
G04 #@! TF.FileFunction,Paste,Top*
G04 #@! TF.FilePolarity,Positive*
%FSLAX46Y46*%
G04 Gerber Fmt 4.6, Leading zero omitted, Abs format (unit mm)*
G04 Created by KiCad (PCBNEW 9.0.2) date 2025-07-17 17:13:56*
%MOMM*%
%LPD*%
G01*
G04 APERTURE LIST*
G04 Aperture macros list*
%AMRoundRect*
0 Rectangle with rounded corners*
0 $1 Rounding radius*
0 $2 $3 $4 $5 $6 $7 $8 $9 X,Y pos of 4 corners*
0 Add a 4 corners polygon primitive as box body*
4,1,4,$2,$3,$4,$5,$6,$7,$8,$9,$2,$3,0*
0 Add four circle primitives for the rounded corners*
1,1,$1+$1,$2,$3*
1,1,$1+$1,$4,$5*
1,1,$1+$1,$6,$7*
1,1,$1+$1,$8,$9*
0 Add four rect primitives between the rounded corners*
20,1,$1+$1,$2,$3,$4,$5,0*
20,1,$1+$1,$4,$5,$6,$7,0*
20,1,$1+$1,$6,$7,$8,$9,0*
20,1,$1+$1,$8,$9,$2,$3,0*%
G04 Aperture macros list end*
%ADD10RoundRect,0.250000X-0.625000X0.312500X-0.625000X-0.312500X0.625000X-0.312500X0.625000X0.312500X0*%
%ADD11RoundRect,0.250000X0.625000X-0.375000X0.625000X0.375000X-0.625000X0.375000X-0.625000X-0.375000X0*%
%ADD12RoundRect,0.250000X-0.312500X-0.625000X0.312500X-0.625000X0.312500X0.625000X-0.312500X0.625000X0*%
%ADD13RoundRect,0.250000X0.312500X0.625000X-0.312500X0.625000X-0.312500X-0.625000X0.312500X-0.625000X0*%
%ADD14RoundRect,0.250000X-0.325000X-0.650000X0.325000X-0.650000X0.325000X0.650000X-0.325000X0.650000X0*%
%ADD15RoundRect,0.250000X0.325000X0.650000X-0.325000X0.650000X-0.325000X-0.650000X0.325000X-0.650000X0*%
G04 APERTURE END LIST*
D10*
X108135000Y-129605000D03*
X108135000Y-126680000D03*
D11*
X109500000Y-133200000D03*
X109500000Y-136000000D03*
D10*
X114335000Y-129605000D03*
X114335000Y-126680000D03*
D11*
X114300000Y-133200000D03*
X114300000Y-136000000D03*
D12*
X142757500Y-91380000D03*
X145682500Y-91380000D03*
D13*
X110877500Y-91425000D03*
X107952500Y-91425000D03*
D14*
X142765000Y-87175000D03*
X145715000Y-87175000D03*
D11*
X189100000Y-135900000D03*
X189100000Y-133100000D03*
D13*
X145512500Y-122950000D03*
X142587500Y-122950000D03*
X110837500Y-122950000D03*
X107912500Y-122950000D03*
D11*
X156700000Y-136000000D03*
X156700000Y-133200000D03*
D13*
X183340000Y-91680000D03*
X180415000Y-91680000D03*
D12*
X119112500Y-106780000D03*
X122037500Y-106780000D03*
D10*
X109970000Y-56367500D03*
X109970000Y-59292500D03*
D13*
X135112500Y-122950000D03*
X132187500Y-122950000D03*
D15*
X110850000Y-110780000D03*
X107900000Y-110780000D03*
D13*
X183040000Y-107180000D03*
X180115000Y-107180000D03*
X135477500Y-106610000D03*
X132552500Y-106610000D03*
D14*
X167127500Y-110880000D03*
X170077500Y-110880000D03*
D12*
X191615000Y-91780000D03*
X194540000Y-91780000D03*
D10*
X146747500Y-126680000D03*
X146747500Y-129605000D03*
D14*
X119100000Y-110680000D03*
X122050000Y-110680000D03*
D13*
X195600000Y-122650000D03*
X192675000Y-122650000D03*
X183377500Y-75680000D03*
X180452500Y-75680000D03*
D15*
X135195000Y-86925000D03*
X132245000Y-86925000D03*
D13*
X183350000Y-122650000D03*
X180425000Y-122650000D03*
D11*
X161900000Y-135900000D03*
X161900000Y-133100000D03*
X141535000Y-135980000D03*
X141535000Y-133180000D03*
D10*
X141535000Y-126680000D03*
X141535000Y-129605000D03*
D14*
X142765000Y-110380000D03*
X145715000Y-110380000D03*
D11*
X173215000Y-136000000D03*
X173215000Y-133200000D03*
D13*
X170012500Y-122700000D03*
X167087500Y-122700000D03*
D10*
X109930000Y-61757500D03*
X109930000Y-64682500D03*
X125535000Y-126680000D03*
X125535000Y-129605000D03*
D12*
X192715000Y-107080000D03*
X195640000Y-107080000D03*
D13*
X145945000Y-74680000D03*
X143020000Y-74680000D03*
D11*
X131035000Y-135980000D03*
X131035000Y-133180000D03*
D10*
X194100000Y-127250000D03*
X194100000Y-130175000D03*
X178715000Y-127180000D03*
X178715000Y-130105000D03*
D11*
X184200000Y-135950000D03*
X184200000Y-133150000D03*
D13*
X194640000Y-75880000D03*
X191715000Y-75880000D03*
D12*
X167140000Y-106980000D03*
X170065000Y-106980000D03*
D11*
X167750000Y-135900000D03*
X167750000Y-133100000D03*
D13*
X110775000Y-106780000D03*
X107850000Y-106780000D03*
D14*
X119765000Y-87380000D03*
X122715000Y-87380000D03*
D13*
X122677500Y-74680000D03*
X119752500Y-74680000D03*
D14*
X192702500Y-111160000D03*
X195652500Y-111160000D03*
D15*
X183352500Y-87780000D03*
X180402500Y-87780000D03*
D11*
X147035000Y-135980000D03*
X147035000Y-133180000D03*
X120035000Y-136000000D03*
X120035000Y-133200000D03*
D10*
X184215000Y-127180000D03*
X184215000Y-130105000D03*
D13*
X158560000Y-75180000D03*
X155635000Y-75180000D03*
D10*
X120035000Y-126680000D03*
X120035000Y-129605000D03*
D13*
X170422500Y-75180000D03*
X167497500Y-75180000D03*
X111015000Y-74780000D03*
X108090000Y-74780000D03*
D11*
X193500000Y-136000000D03*
X193500000Y-133200000D03*
X178750000Y-135900000D03*
X178750000Y-133100000D03*
D13*
X158262500Y-122650000D03*
X155337500Y-122650000D03*
D14*
X167485000Y-87380000D03*
X170435000Y-87380000D03*
D13*
X158065000Y-106980000D03*
X155140000Y-106980000D03*
D15*
X110890000Y-87380000D03*
X107940000Y-87380000D03*
D13*
X158360000Y-91580000D03*
X155435000Y-91580000D03*
D10*
X189100000Y-127250000D03*
X189100000Y-130175000D03*
D12*
X142802500Y-106360000D03*
X145727500Y-106360000D03*
X167597500Y-91480000D03*
X170522500Y-91480000D03*
D13*
X135307500Y-74700000D03*
X132382500Y-74700000D03*
D10*
X173215000Y-127180000D03*
X173215000Y-130105000D03*
X131035000Y-126680000D03*
X131035000Y-129605000D03*
D15*
X183152500Y-111080000D03*
X180202500Y-111080000D03*
D10*
X167715000Y-127180000D03*
X167715000Y-130105000D03*
D11*
X136535000Y-135980000D03*
X136535000Y-133180000D03*
D15*
X135490000Y-110480000D03*
X132540000Y-110480000D03*
D13*
X121912500Y-122900000D03*
X118987500Y-122900000D03*
D14*
X191602500Y-87880000D03*
X194552500Y-87880000D03*
D12*
X119752500Y-91480000D03*
X122677500Y-91480000D03*
D13*
X135182500Y-91490000D03*
X132257500Y-91490000D03*
D15*
X158077500Y-110980000D03*
X155127500Y-110980000D03*
D10*
X161715000Y-127180000D03*
X161715000Y-130105000D03*
D11*
X125535000Y-136000000D03*
X125535000Y-133200000D03*
D10*
X136535000Y-126680000D03*
X136535000Y-129605000D03*
D15*
X158335000Y-87280000D03*
X155385000Y-87280000D03*
D10*
X156715000Y-127180000D03*
X156715000Y-130105000D03*
M02*
