M48
; DRILL file {KiCad 9.0.2} date 2025-06-20T10:54:41-0700
; FORMAT={-:-/ absolute / metric / decimal}
; #@! TF.CreationDate,2025-06-20T10:54:41-07:00
; #@! TF.GenerationSoftware,Kicad,Pcbnew,9.0.2
; #@! TF.FileFunction,Plated,1,2,PTH
FMAT,2
METRIC
; #@! TA.AperFunction,Plated,PTH,ComponentDrill
T1C0.800
; #@! TA.AperFunction,Plated,PTH,ComponentDrill
T2C1.190
%
G90
G05
T1
X44.66Y-57.58
X44.66Y-60.12
X44.66Y-62.66
X44.66Y-65.2
X44.66Y-67.74
X44.66Y-70.28
X44.66Y-72.82
X44.66Y-75.36
X44.66Y-77.9
X44.66Y-80.44
X44.66Y-82.98
X44.66Y-85.52
X44.66Y-88.06
X44.66Y-90.6
X59.9Y-57.58
X59.9Y-60.12
X59.9Y-62.66
X59.9Y-65.2
X59.9Y-67.74
X59.9Y-70.28
X59.9Y-72.82
X59.9Y-75.36
X59.9Y-77.9
X59.9Y-80.44
X59.9Y-82.98
X59.9Y-85.52
X59.9Y-88.06
X59.9Y-90.6
T2
X65.56Y-62.5
X65.56Y-72.4
X68.1Y-62.5
X68.1Y-72.4
M30
